<svg width="184" height="101" viewBox="0 0 184 101" fill="none" xmlns="http://www.w3.org/2000/svg">
<g filter="url(#filter0_d_19_11933)">
<rect x="5" y="3" width="174" height="90" rx="2.43243" fill="white" shape-rendering="crispEdges"/>
<path d="M24.286 30.4257L22.49 36.2097H21.518L20.254 32.2577C20.2194 32.1617 20.1874 32.0444 20.158 31.9057C20.142 31.9724 20.126 32.0351 20.11 32.0937C20.094 32.1524 20.0767 32.207 20.058 32.2577L18.782 36.2097H17.806L16.014 30.4257H16.914C17.0074 30.4257 17.0847 30.4484 17.146 30.4937C17.21 30.5364 17.2527 30.595 17.274 30.6697L18.258 34.1297C18.2794 34.215 18.2994 34.3084 18.318 34.4097C18.3394 34.5084 18.3607 34.6124 18.382 34.7217C18.4034 34.6097 18.426 34.5044 18.45 34.4057C18.4767 34.307 18.5047 34.215 18.534 34.1297L19.67 30.6697C19.6914 30.6084 19.7327 30.5524 19.794 30.5017C19.858 30.451 19.9354 30.4257 20.026 30.4257H20.342C20.4354 30.4257 20.5114 30.4484 20.57 30.4937C20.6287 30.539 20.6727 30.5977 20.702 30.6697L21.834 34.1297C21.89 34.295 21.9407 34.4857 21.986 34.7017C22.0207 34.4911 22.0594 34.3004 22.102 34.1297L23.086 30.6697C23.102 30.603 23.142 30.5457 23.206 30.4977C23.2727 30.4497 23.3514 30.4257 23.442 30.4257H24.286ZM26.1719 32.0417C26.4759 32.0417 26.7519 32.091 26.9999 32.1897C27.2506 32.2884 27.4639 32.4284 27.6399 32.6097C27.8186 32.7911 27.9559 33.0124 28.0519 33.2737C28.1479 33.535 28.1959 33.827 28.1959 34.1497C28.1959 34.4751 28.1479 34.7684 28.0519 35.0297C27.9559 35.2911 27.8186 35.5137 27.6399 35.6977C27.4639 35.8817 27.2506 36.0231 26.9999 36.1217C26.7519 36.2204 26.4759 36.2697 26.1719 36.2697C25.8653 36.2697 25.5866 36.2204 25.3359 36.1217C25.0853 36.0231 24.8706 35.8817 24.6919 35.6977C24.5159 35.5137 24.3786 35.2911 24.2799 35.0297C24.1839 34.7684 24.1359 34.4751 24.1359 34.1497C24.1359 33.827 24.1839 33.535 24.2799 33.2737C24.3786 33.0124 24.5159 32.7911 24.6919 32.6097C24.8706 32.4284 25.0853 32.2884 25.3359 32.1897C25.5866 32.091 25.8653 32.0417 26.1719 32.0417ZM26.1719 35.5097C26.5133 35.5097 26.7653 35.3951 26.9279 35.1657C27.0933 34.9364 27.1759 34.6004 27.1759 34.1577C27.1759 33.7151 27.0933 33.3777 26.9279 33.1457C26.7653 32.9137 26.5133 32.7977 26.1719 32.7977C25.8253 32.7977 25.5679 32.915 25.3999 33.1497C25.2346 33.3817 25.1519 33.7177 25.1519 34.1577C25.1519 34.5977 25.2346 34.9337 25.3999 35.1657C25.5679 35.3951 25.8253 35.5097 26.1719 35.5097ZM29.8817 32.8177C30.0097 32.5724 30.1617 32.3804 30.3377 32.2417C30.5137 32.1004 30.7217 32.0297 30.9617 32.0297C31.151 32.0297 31.303 32.071 31.4177 32.1537L31.3537 32.8937C31.3403 32.9417 31.3203 32.9764 31.2937 32.9977C31.2697 33.0164 31.2363 33.0257 31.1937 33.0257C31.1537 33.0257 31.0937 33.019 31.0137 33.0057C30.9363 32.9924 30.8603 32.9857 30.7857 32.9857C30.6763 32.9857 30.579 33.0017 30.4937 33.0337C30.4083 33.0657 30.331 33.1124 30.2617 33.1737C30.195 33.2324 30.135 33.3044 30.0817 33.3897C30.031 33.475 29.983 33.5724 29.9377 33.6817V36.2097H28.9497V32.1057H29.5297C29.631 32.1057 29.7017 32.1244 29.7417 32.1617C29.7817 32.1964 29.8083 32.2604 29.8217 32.3537L29.8817 32.8177ZM32.922 30.2657V33.6697H33.106C33.1727 33.6697 33.2247 33.6617 33.262 33.6457C33.302 33.6271 33.342 33.5911 33.382 33.5377L34.402 32.2777C34.4447 32.2217 34.4914 32.179 34.542 32.1497C34.5954 32.1204 34.6634 32.1057 34.746 32.1057H35.65L34.374 33.6297C34.2834 33.7497 34.1847 33.8417 34.078 33.9057C34.134 33.9457 34.1834 33.9924 34.226 34.0457C34.2714 34.0991 34.314 34.1564 34.354 34.2177L35.722 36.2097H34.83C34.7527 36.2097 34.686 36.1977 34.63 36.1737C34.574 36.1471 34.5274 36.1004 34.49 36.0337L33.442 34.4777C33.4047 34.4164 33.366 34.3764 33.326 34.3577C33.286 34.3391 33.226 34.3297 33.146 34.3297H32.922V36.2097H31.934V30.2657H32.922ZM38.7115 32.9057C38.6848 32.9484 38.6568 32.979 38.6275 32.9977C38.5981 33.0137 38.5608 33.0217 38.5155 33.0217C38.4675 33.0217 38.4155 33.0084 38.3595 32.9817C38.3061 32.955 38.2435 32.9257 38.1715 32.8937C38.0995 32.859 38.0168 32.8284 37.9235 32.8017C37.8328 32.775 37.7248 32.7617 37.5995 32.7617C37.4048 32.7617 37.2515 32.803 37.1395 32.8857C37.0301 32.9684 36.9755 33.0764 36.9755 33.2097C36.9755 33.2977 37.0035 33.3724 37.0595 33.4337C37.1181 33.4924 37.1941 33.5444 37.2875 33.5897C37.3835 33.6351 37.4915 33.6764 37.6115 33.7137C37.7315 33.7484 37.8528 33.7871 37.9755 33.8297C38.1008 33.8724 38.2235 33.9217 38.3435 33.9777C38.4635 34.031 38.5701 34.1004 38.6635 34.1857C38.7595 34.2684 38.8355 34.3684 38.8915 34.4857C38.9501 34.6031 38.9795 34.7444 38.9795 34.9097C38.9795 35.1071 38.9435 35.2897 38.8715 35.4577C38.8021 35.6231 38.6981 35.7671 38.5595 35.8897C38.4208 36.0097 38.2488 36.1044 38.0435 36.1737C37.8408 36.2404 37.6061 36.2737 37.3395 36.2737C37.1981 36.2737 37.0595 36.2604 36.9235 36.2337C36.7901 36.2097 36.6608 36.1751 36.5355 36.1297C36.4128 36.0844 36.2981 36.0311 36.1915 35.9697C36.0875 35.9084 35.9955 35.8417 35.9155 35.7697L36.1435 35.3937C36.1728 35.3484 36.2075 35.3137 36.2475 35.2897C36.2875 35.2657 36.3381 35.2537 36.3995 35.2537C36.4608 35.2537 36.5181 35.2711 36.5715 35.3057C36.6275 35.3404 36.6915 35.3777 36.7635 35.4177C36.8355 35.4577 36.9195 35.4951 37.0155 35.5297C37.1141 35.5644 37.2381 35.5817 37.3875 35.5817C37.5048 35.5817 37.6048 35.5684 37.6875 35.5417C37.7728 35.5124 37.8421 35.4751 37.8955 35.4297C37.9515 35.3844 37.9915 35.3324 38.0155 35.2737C38.0421 35.2124 38.0555 35.1497 38.0555 35.0857C38.0555 34.9897 38.0261 34.9111 37.9675 34.8497C37.9115 34.7884 37.8355 34.7351 37.7395 34.6897C37.6461 34.6444 37.5381 34.6044 37.4155 34.5697C37.2955 34.5324 37.1715 34.4924 37.0435 34.4497C36.9181 34.4071 36.7941 34.3577 36.6715 34.3017C36.5515 34.2431 36.4435 34.1697 36.3475 34.0817C36.2541 33.9937 36.1781 33.8857 36.1195 33.7577C36.0635 33.6297 36.0355 33.4751 36.0355 33.2937C36.0355 33.1257 36.0688 32.9657 36.1355 32.8137C36.2021 32.6617 36.2995 32.5297 36.4275 32.4177C36.5581 32.303 36.7195 32.2124 36.9115 32.1457C37.1061 32.0764 37.3301 32.0417 37.5835 32.0417C37.8661 32.0417 38.1235 32.0884 38.3555 32.1817C38.5875 32.275 38.7808 32.3977 38.9355 32.5497L38.7115 32.9057ZM40.7111 35.1457C40.8231 35.2817 40.9444 35.3777 41.0751 35.4337C41.2084 35.4897 41.3524 35.5177 41.5071 35.5177C41.6564 35.5177 41.7911 35.4897 41.9111 35.4337C42.0311 35.3777 42.1324 35.2924 42.2151 35.1777C42.3004 35.0631 42.3658 34.9191 42.4111 34.7457C42.4564 34.5697 42.4791 34.3631 42.4791 34.1257C42.4791 33.8857 42.4591 33.6831 42.4191 33.5177C42.3818 33.3497 42.3271 33.2137 42.2551 33.1097C42.1831 33.0057 42.0951 32.9297 41.9911 32.8817C41.8898 32.8337 41.7738 32.8097 41.6431 32.8097C41.4378 32.8097 41.2631 32.8537 41.1191 32.9417C40.9751 33.0271 40.8391 33.1484 40.7111 33.3057V35.1457ZM40.6591 32.6657C40.8271 32.4764 41.0178 32.3231 41.2311 32.2057C41.4444 32.0884 41.6951 32.0297 41.9831 32.0297C42.2071 32.0297 42.4111 32.0764 42.5951 32.1697C42.7818 32.2631 42.9418 32.399 43.0751 32.5777C43.2111 32.7537 43.3151 32.9724 43.3871 33.2337C43.4618 33.4924 43.4991 33.7897 43.4991 34.1257C43.4991 34.4324 43.4578 34.7164 43.3751 34.9777C43.2924 35.2391 43.1738 35.4657 43.0191 35.6577C42.8671 35.8497 42.6818 36.0004 42.4631 36.1097C42.2471 36.2164 42.0044 36.2697 41.7351 36.2697C41.5058 36.2697 41.3098 36.2351 41.1471 36.1657C40.9844 36.0937 40.8391 35.9951 40.7111 35.8697V37.5497H39.7231V32.1057H40.3271C40.4551 32.1057 40.5391 32.1657 40.5791 32.2857L40.6591 32.6657ZM46.438 34.4577C46.1526 34.4711 45.9126 34.4964 45.718 34.5337C45.5233 34.5684 45.3673 34.6137 45.25 34.6697C45.1326 34.7257 45.0486 34.7911 44.998 34.8657C44.9473 34.9404 44.922 35.0217 44.922 35.1097C44.922 35.2831 44.9726 35.4071 45.074 35.4817C45.178 35.5564 45.3126 35.5937 45.478 35.5937C45.6806 35.5937 45.8553 35.5577 46.002 35.4857C46.1513 35.4111 46.2966 35.2991 46.438 35.1497V34.4577ZM44.174 32.6777C44.646 32.2457 45.214 32.0297 45.878 32.0297C46.118 32.0297 46.3326 32.0697 46.522 32.1497C46.7113 32.227 46.8713 32.3364 47.002 32.4777C47.1326 32.6164 47.2313 32.783 47.298 32.9777C47.3673 33.1724 47.402 33.3857 47.402 33.6177V36.2097H46.954C46.8606 36.2097 46.7886 36.1964 46.738 36.1697C46.6873 36.1404 46.6473 36.0831 46.618 35.9977L46.53 35.7017C46.426 35.7951 46.3246 35.8777 46.226 35.9497C46.1273 36.0191 46.0246 36.0777 45.918 36.1257C45.8113 36.1737 45.6966 36.2097 45.574 36.2337C45.454 36.2604 45.3206 36.2737 45.174 36.2737C45.0006 36.2737 44.8406 36.2511 44.694 36.2057C44.5473 36.1577 44.4206 36.0871 44.314 35.9937C44.2073 35.9004 44.1246 35.7844 44.066 35.6457C44.0073 35.5071 43.978 35.3457 43.978 35.1617C43.978 35.0577 43.9953 34.9551 44.03 34.8537C44.0646 34.7497 44.1206 34.6511 44.198 34.5577C44.278 34.4644 44.3806 34.3764 44.506 34.2937C44.6313 34.211 44.7846 34.139 44.966 34.0777C45.15 34.0164 45.3633 33.967 45.606 33.9297C45.8486 33.8897 46.126 33.8657 46.438 33.8577V33.6177C46.438 33.3431 46.3793 33.1404 46.262 33.0097C46.1446 32.8764 45.9753 32.8097 45.754 32.8097C45.594 32.8097 45.4606 32.8284 45.354 32.8657C45.25 32.9031 45.158 32.9457 45.078 32.9937C44.998 33.039 44.9246 33.0804 44.858 33.1177C44.794 33.155 44.722 33.1737 44.642 33.1737C44.5726 33.1737 44.514 33.1564 44.466 33.1217C44.418 33.0844 44.3793 33.0417 44.35 32.9937L44.174 32.6777ZM51.2725 32.9737C51.2431 33.0111 51.2138 33.0404 51.1845 33.0617C51.1578 33.083 51.1178 33.0937 51.0645 33.0937C51.0138 33.0937 50.9645 33.079 50.9165 33.0497C50.8685 33.0177 50.8111 32.983 50.7445 32.9457C50.6778 32.9057 50.5978 32.871 50.5045 32.8417C50.4138 32.8097 50.3005 32.7937 50.1645 32.7937C49.9911 32.7937 49.8391 32.8257 49.7085 32.8897C49.5778 32.951 49.4685 33.0404 49.3805 33.1577C49.2951 33.2751 49.2311 33.4177 49.1885 33.5857C49.1458 33.751 49.1245 33.939 49.1245 34.1497C49.1245 34.3684 49.1471 34.5631 49.1925 34.7337C49.2405 34.9044 49.3085 35.0484 49.3965 35.1657C49.4845 35.2804 49.5911 35.3684 49.7165 35.4297C49.8418 35.4884 49.9831 35.5177 50.1405 35.5177C50.2978 35.5177 50.4245 35.4991 50.5205 35.4617C50.6191 35.4217 50.7018 35.3791 50.7685 35.3337C50.8351 35.2857 50.8925 35.2431 50.9405 35.2057C50.9911 35.1657 51.0471 35.1457 51.1085 35.1457C51.1885 35.1457 51.2485 35.1764 51.2885 35.2377L51.5725 35.5977C51.4631 35.7257 51.3445 35.8337 51.2165 35.9217C51.0885 36.0071 50.9551 36.0764 50.8165 36.1297C50.6805 36.1804 50.5391 36.2164 50.3925 36.2377C50.2485 36.2591 50.1045 36.2697 49.9605 36.2697C49.7071 36.2697 49.4685 36.2231 49.2445 36.1297C49.0205 36.0337 48.8245 35.8951 48.6565 35.7137C48.4885 35.5324 48.3551 35.3111 48.2565 35.0497C48.1605 34.7857 48.1125 34.4857 48.1125 34.1497C48.1125 33.8484 48.1551 33.5697 48.2405 33.3137C48.3285 33.055 48.4565 32.8324 48.6245 32.6457C48.7925 32.4564 49.0005 32.3084 49.2485 32.2017C49.4965 32.095 49.7818 32.0417 50.1045 32.0417C50.4111 32.0417 50.6791 32.091 50.9085 32.1897C51.1405 32.2884 51.3485 32.4297 51.5325 32.6137L51.2725 32.9737ZM54.7655 33.6857C54.7655 33.5577 54.7469 33.4377 54.7095 33.3257C54.6749 33.211 54.6215 33.111 54.5495 33.0257C54.4775 32.9404 54.3855 32.8737 54.2735 32.8257C54.1642 32.775 54.0362 32.7497 53.8895 32.7497C53.6042 32.7497 53.3789 32.831 53.2135 32.9937C53.0509 33.1564 52.9469 33.387 52.9015 33.6857H54.7655ZM52.8815 34.2817C52.8975 34.4924 52.9349 34.6751 52.9935 34.8297C53.0522 34.9817 53.1295 35.1084 53.2255 35.2097C53.3215 35.3084 53.4349 35.3831 53.5655 35.4337C53.6989 35.4817 53.8455 35.5057 54.0055 35.5057C54.1655 35.5057 54.3029 35.4871 54.4175 35.4497C54.5349 35.4124 54.6362 35.3711 54.7215 35.3257C54.8095 35.2804 54.8855 35.2391 54.9495 35.2017C55.0162 35.1644 55.0802 35.1457 55.1415 35.1457C55.2242 35.1457 55.2855 35.1764 55.3255 35.2377L55.6095 35.5977C55.5002 35.7257 55.3775 35.8337 55.2415 35.9217C55.1055 36.0071 54.9629 36.0764 54.8135 36.1297C54.6669 36.1804 54.5162 36.2164 54.3615 36.2377C54.2095 36.2591 54.0615 36.2697 53.9175 36.2697C53.6322 36.2697 53.3669 36.2231 53.1215 36.1297C52.8762 36.0337 52.6629 35.8937 52.4815 35.7097C52.3002 35.5231 52.1575 35.2937 52.0535 35.0217C51.9495 34.7471 51.8975 34.4297 51.8975 34.0697C51.8975 33.7897 51.9429 33.527 52.0335 33.2817C52.1242 33.0337 52.2535 32.819 52.4215 32.6377C52.5922 32.4537 52.7989 32.3084 53.0415 32.2017C53.2869 32.095 53.5629 32.0417 53.8695 32.0417C54.1282 32.0417 54.3669 32.083 54.5855 32.1657C54.8042 32.2484 54.9922 32.3697 55.1495 32.5297C55.3069 32.687 55.4295 32.8817 55.5175 33.1137C55.6082 33.3431 55.6535 33.6057 55.6535 33.9017C55.6535 34.0511 55.6375 34.1524 55.6055 34.2057C55.5735 34.2564 55.5122 34.2817 55.4215 34.2817H52.8815ZM63.2643 33.3097V35.6497C62.971 35.8657 62.6576 36.0244 62.3243 36.1257C61.9936 36.2244 61.639 36.2737 61.2603 36.2737C60.7883 36.2737 60.3603 36.2004 59.9763 36.0537C59.595 35.9071 59.2683 35.7031 58.9963 35.4417C58.727 35.1804 58.519 34.8684 58.3723 34.5057C58.2256 34.143 58.1523 33.747 58.1523 33.3177C58.1523 32.883 58.223 32.4844 58.3643 32.1217C58.5056 31.759 58.7056 31.447 58.9643 31.1857C59.2256 30.9244 59.5416 30.7217 59.9123 30.5777C60.283 30.4337 60.699 30.3617 61.1603 30.3617C61.395 30.3617 61.6136 30.3804 61.8163 30.4177C62.0216 30.455 62.211 30.5071 62.3843 30.5737C62.5603 30.6377 62.7203 30.7164 62.8643 30.8097C63.0083 30.903 63.1403 31.0057 63.2603 31.1177L62.9523 31.6057C62.9043 31.683 62.8416 31.731 62.7643 31.7497C62.687 31.7657 62.603 31.7457 62.5123 31.6897C62.4243 31.6391 62.3363 31.5884 62.2483 31.5377C62.1603 31.487 62.0616 31.443 61.9523 31.4057C61.8456 31.3684 61.7243 31.3377 61.5883 31.3137C61.455 31.2897 61.3003 31.2777 61.1243 31.2777C60.839 31.2777 60.5803 31.3257 60.3483 31.4217C60.119 31.5177 59.923 31.655 59.7603 31.8337C59.5976 32.0124 59.4723 32.227 59.3843 32.4777C59.2963 32.7284 59.2523 33.0084 59.2523 33.3177C59.2523 33.6484 59.299 33.9444 59.3923 34.2057C59.4883 34.4644 59.6216 34.6844 59.7923 34.8657C59.9656 35.0444 60.1736 35.1817 60.4163 35.2777C60.659 35.3711 60.9296 35.4177 61.2283 35.4177C61.4416 35.4177 61.6323 35.3951 61.8003 35.3497C61.9683 35.3044 62.1323 35.2431 62.2923 35.1657V34.1177H61.5643C61.495 34.1177 61.4403 34.0991 61.4003 34.0617C61.363 34.0217 61.3443 33.9737 61.3443 33.9177V33.3097H63.2643ZM65.0145 32.8177C65.1425 32.5724 65.2945 32.3804 65.4705 32.2417C65.6465 32.1004 65.8545 32.0297 66.0945 32.0297C66.2838 32.0297 66.4358 32.071 66.5505 32.1537L66.4865 32.8937C66.4731 32.9417 66.4531 32.9764 66.4265 32.9977C66.4025 33.0164 66.3691 33.0257 66.3265 33.0257C66.2865 33.0257 66.2265 33.019 66.1465 33.0057C66.0691 32.9924 65.9931 32.9857 65.9185 32.9857C65.8091 32.9857 65.7118 33.0017 65.6265 33.0337C65.5411 33.0657 65.4638 33.1124 65.3945 33.1737C65.3278 33.2324 65.2678 33.3044 65.2145 33.3897C65.1638 33.475 65.1158 33.5724 65.0705 33.6817V36.2097H64.0825V32.1057H64.6625C64.7638 32.1057 64.8345 32.1244 64.8745 32.1617C64.9145 32.1964 64.9411 32.2604 64.9545 32.3537L65.0145 32.8177ZM68.7657 32.0417C69.0697 32.0417 69.3457 32.091 69.5937 32.1897C69.8443 32.2884 70.0577 32.4284 70.2337 32.6097C70.4123 32.7911 70.5497 33.0124 70.6457 33.2737C70.7417 33.535 70.7897 33.827 70.7897 34.1497C70.7897 34.4751 70.7417 34.7684 70.6457 35.0297C70.5497 35.2911 70.4123 35.5137 70.2337 35.6977C70.0577 35.8817 69.8443 36.0231 69.5937 36.1217C69.3457 36.2204 69.0697 36.2697 68.7657 36.2697C68.459 36.2697 68.1803 36.2204 67.9297 36.1217C67.679 36.0231 67.4643 35.8817 67.2857 35.6977C67.1097 35.5137 66.9723 35.2911 66.8737 35.0297C66.7777 34.7684 66.7297 34.4751 66.7297 34.1497C66.7297 33.827 66.7777 33.535 66.8737 33.2737C66.9723 33.0124 67.1097 32.7911 67.2857 32.6097C67.4643 32.4284 67.679 32.2884 67.9297 32.1897C68.1803 32.091 68.459 32.0417 68.7657 32.0417ZM68.7657 35.5097C69.107 35.5097 69.359 35.3951 69.5217 35.1657C69.687 34.9364 69.7697 34.6004 69.7697 34.1577C69.7697 33.7151 69.687 33.3777 69.5217 33.1457C69.359 32.9137 69.107 32.7977 68.7657 32.7977C68.419 32.7977 68.1617 32.915 67.9937 33.1497C67.8283 33.3817 67.7457 33.7177 67.7457 34.1577C67.7457 34.5977 67.8283 34.9337 67.9937 35.1657C68.1617 35.3951 68.419 35.5097 68.7657 35.5097ZM75.0794 32.1057V36.2097H74.4754C74.3448 36.2097 74.2621 36.1497 74.2274 36.0297L74.1594 35.7017C73.9914 35.8724 73.8061 36.0111 73.6034 36.1177C73.4008 36.2217 73.1621 36.2737 72.8874 36.2737C72.6634 36.2737 72.4648 36.2364 72.2914 36.1617C72.1208 36.0844 71.9768 35.9764 71.8594 35.8377C71.7421 35.6991 71.6528 35.5351 71.5914 35.3457C71.5328 35.1537 71.5034 34.9431 71.5034 34.7137V32.1057H72.4914V34.7137C72.4914 34.9644 72.5488 35.1591 72.6634 35.2977C72.7808 35.4337 72.9554 35.5017 73.1874 35.5017C73.3581 35.5017 73.5181 35.4644 73.6674 35.3897C73.8168 35.3124 73.9581 35.2071 74.0914 35.0737V32.1057H75.0794ZM77.047 35.1457C77.159 35.2817 77.2804 35.3777 77.411 35.4337C77.5444 35.4897 77.6884 35.5177 77.843 35.5177C77.9924 35.5177 78.127 35.4897 78.247 35.4337C78.367 35.3777 78.4684 35.2924 78.551 35.1777C78.6364 35.0631 78.7017 34.9191 78.747 34.7457C78.7924 34.5697 78.815 34.3631 78.815 34.1257C78.815 33.8857 78.795 33.6831 78.755 33.5177C78.7177 33.3497 78.663 33.2137 78.591 33.1097C78.519 33.0057 78.431 32.9297 78.327 32.8817C78.2257 32.8337 78.1097 32.8097 77.979 32.8097C77.7737 32.8097 77.599 32.8537 77.455 32.9417C77.311 33.0271 77.175 33.1484 77.047 33.3057V35.1457ZM76.995 32.6657C77.163 32.4764 77.3537 32.3231 77.567 32.2057C77.7804 32.0884 78.031 32.0297 78.319 32.0297C78.543 32.0297 78.747 32.0764 78.931 32.1697C79.1177 32.2631 79.2777 32.399 79.411 32.5777C79.547 32.7537 79.651 32.9724 79.723 33.2337C79.7977 33.4924 79.835 33.7897 79.835 34.1257C79.835 34.4324 79.7937 34.7164 79.711 34.9777C79.6284 35.2391 79.5097 35.4657 79.355 35.6577C79.203 35.8497 79.0177 36.0004 78.799 36.1097C78.583 36.2164 78.3404 36.2697 78.071 36.2697C77.8417 36.2697 77.6457 36.2351 77.483 36.1657C77.3204 36.0937 77.175 35.9951 77.047 35.8697V37.5497H76.059V32.1057H76.663C76.791 32.1057 76.875 32.1657 76.915 32.2857L76.995 32.6657ZM87.5832 30.4257V36.2097H87.0312C86.9459 36.2097 86.8739 36.1964 86.8152 36.1697C86.7592 36.1404 86.7046 36.0924 86.6512 36.0257L83.6312 32.1697C83.6472 32.3457 83.6552 32.5084 83.6552 32.6577V36.2097H82.7072V30.4257H83.2712C83.3166 30.4257 83.3552 30.4284 83.3872 30.4337C83.4219 30.4364 83.4512 30.4444 83.4752 30.4577C83.5019 30.4684 83.5272 30.4857 83.5512 30.5097C83.5752 30.531 83.6019 30.5604 83.6312 30.5977L86.6632 34.4697C86.6552 34.3764 86.6486 34.2844 86.6432 34.1937C86.6379 34.103 86.6352 34.019 86.6352 33.9417V30.4257H87.5832ZM90.7817 34.4577C90.4964 34.4711 90.2564 34.4964 90.0617 34.5337C89.8671 34.5684 89.7111 34.6137 89.5937 34.6697C89.4764 34.7257 89.3924 34.7911 89.3417 34.8657C89.2911 34.9404 89.2657 35.0217 89.2657 35.1097C89.2657 35.2831 89.3164 35.4071 89.4177 35.4817C89.5217 35.5564 89.6564 35.5937 89.8217 35.5937C90.0244 35.5937 90.1991 35.5577 90.3457 35.4857C90.4951 35.4111 90.6404 35.2991 90.7817 35.1497V34.4577ZM88.5177 32.6777C88.9897 32.2457 89.5577 32.0297 90.2217 32.0297C90.4617 32.0297 90.6764 32.0697 90.8657 32.1497C91.0551 32.227 91.2151 32.3364 91.3457 32.4777C91.4764 32.6164 91.5751 32.783 91.6417 32.9777C91.7111 33.1724 91.7457 33.3857 91.7457 33.6177V36.2097H91.2977C91.2044 36.2097 91.1324 36.1964 91.0817 36.1697C91.0311 36.1404 90.9911 36.0831 90.9617 35.9977L90.8737 35.7017C90.7697 35.7951 90.6684 35.8777 90.5697 35.9497C90.4711 36.0191 90.3684 36.0777 90.2617 36.1257C90.1551 36.1737 90.0404 36.2097 89.9177 36.2337C89.7977 36.2604 89.6644 36.2737 89.5177 36.2737C89.3444 36.2737 89.1844 36.2511 89.0377 36.2057C88.8911 36.1577 88.7644 36.0871 88.6577 35.9937C88.5511 35.9004 88.4684 35.7844 88.4097 35.6457C88.3511 35.5071 88.3217 35.3457 88.3217 35.1617C88.3217 35.0577 88.3391 34.9551 88.3737 34.8537C88.4084 34.7497 88.4644 34.6511 88.5417 34.5577C88.6217 34.4644 88.7244 34.3764 88.8497 34.2937C88.9751 34.211 89.1284 34.139 89.3097 34.0777C89.4937 34.0164 89.7071 33.967 89.9497 33.9297C90.1924 33.8897 90.4697 33.8657 90.7817 33.8577V33.6177C90.7817 33.3431 90.7231 33.1404 90.6057 33.0097C90.4884 32.8764 90.3191 32.8097 90.0977 32.8097C89.9377 32.8097 89.8044 32.8284 89.6977 32.8657C89.5937 32.9031 89.5017 32.9457 89.4217 32.9937C89.3417 33.039 89.2684 33.0804 89.2017 33.1177C89.1377 33.155 89.0657 33.1737 88.9857 33.1737C88.9164 33.1737 88.8577 33.1564 88.8097 33.1217C88.7617 33.0844 88.7231 33.0417 88.6937 32.9937L88.5177 32.6777ZM92.6762 36.2097V32.1057H93.2802C93.4082 32.1057 93.4922 32.1657 93.5322 32.2857L93.5962 32.5897C93.6682 32.5097 93.7429 32.4364 93.8202 32.3697C93.9002 32.303 93.9842 32.2457 94.0722 32.1977C94.1629 32.1497 94.2589 32.1124 94.3602 32.0857C94.4642 32.0564 94.5776 32.0417 94.7002 32.0417C94.9589 32.0417 95.1709 32.1124 95.3362 32.2537C95.5042 32.3924 95.6296 32.5777 95.7122 32.8097C95.7762 32.6737 95.8562 32.5577 95.9522 32.4617C96.0482 32.363 96.1536 32.283 96.2682 32.2217C96.3829 32.1604 96.5042 32.115 96.6322 32.0857C96.7629 32.0564 96.8936 32.0417 97.0242 32.0417C97.2509 32.0417 97.4522 32.0764 97.6282 32.1457C97.8042 32.215 97.9522 32.3164 98.0722 32.4497C98.1922 32.583 98.2829 32.7457 98.3442 32.9377C98.4082 33.1297 98.4402 33.3497 98.4402 33.5977V36.2097H97.4522V33.5977C97.4522 33.3364 97.3949 33.1404 97.2802 33.0097C97.1656 32.8764 96.9976 32.8097 96.7762 32.8097C96.6749 32.8097 96.5802 32.8271 96.4922 32.8617C96.4069 32.8964 96.3309 32.947 96.2642 33.0137C96.2002 33.0777 96.1496 33.159 96.1122 33.2577C96.0749 33.3564 96.0562 33.4697 96.0562 33.5977V36.2097H95.0642V33.5977C95.0642 33.323 95.0082 33.123 94.8962 32.9977C94.7869 32.8724 94.6256 32.8097 94.4122 32.8097C94.2682 32.8097 94.1336 32.8457 94.0082 32.9177C93.8856 32.987 93.7709 33.083 93.6642 33.2057V36.2097H92.6762ZM102.023 33.6857C102.023 33.5577 102.005 33.4377 101.967 33.3257C101.933 33.211 101.879 33.111 101.807 33.0257C101.735 32.9404 101.643 32.8737 101.531 32.8257C101.422 32.775 101.294 32.7497 101.147 32.7497C100.862 32.7497 100.637 32.831 100.471 32.9937C100.309 33.1564 100.205 33.387 100.159 33.6857H102.023ZM100.139 34.2817C100.155 34.4924 100.193 34.6751 100.251 34.8297C100.31 34.9817 100.387 35.1084 100.483 35.2097C100.579 35.3084 100.693 35.3831 100.823 35.4337C100.957 35.4817 101.103 35.5057 101.263 35.5057C101.423 35.5057 101.561 35.4871 101.675 35.4497C101.793 35.4124 101.894 35.3711 101.979 35.3257C102.067 35.2804 102.143 35.2391 102.207 35.2017C102.274 35.1644 102.338 35.1457 102.399 35.1457C102.482 35.1457 102.543 35.1764 102.583 35.2377L102.867 35.5977C102.758 35.7257 102.635 35.8337 102.499 35.9217C102.363 36.0071 102.221 36.0764 102.071 36.1297C101.925 36.1804 101.774 36.2164 101.619 36.2377C101.467 36.2591 101.319 36.2697 101.175 36.2697C100.89 36.2697 100.625 36.2231 100.379 36.1297C100.134 36.0337 99.9207 35.8937 99.7394 35.7097C99.558 35.5231 99.4154 35.2937 99.3114 35.0217C99.2074 34.7471 99.1554 34.4297 99.1554 34.0697C99.1554 33.7897 99.2007 33.527 99.2914 33.2817C99.382 33.0337 99.5114 32.819 99.6794 32.6377C99.85 32.4537 100.057 32.3084 100.299 32.2017C100.545 32.095 100.821 32.0417 101.127 32.0417C101.386 32.0417 101.625 32.083 101.843 32.1657C102.062 32.2484 102.25 32.3697 102.407 32.5297C102.565 32.687 102.687 32.8817 102.775 33.1137C102.866 33.3431 102.911 33.6057 102.911 33.9017C102.911 34.0511 102.895 34.1524 102.863 34.2057C102.831 34.2564 102.77 34.2817 102.679 34.2817H100.139Z" fill="#4C4A57"/>
<path d="M30.3609 49.4853L28.5729 55.2173H27.8769L26.4249 50.8453C26.4116 50.8026 26.3983 50.7573 26.3849 50.7093C26.3743 50.6613 26.3623 50.6106 26.3489 50.5573C26.3356 50.6106 26.3223 50.6613 26.3089 50.7093C26.2956 50.7573 26.2823 50.8026 26.2689 50.8453L24.8089 55.2173H24.1129L22.3249 49.4853H22.9689C23.0383 49.4853 23.0956 49.5026 23.1409 49.5373C23.1889 49.572 23.2196 49.616 23.2329 49.6693L24.4169 53.6533C24.4356 53.7253 24.4529 53.8026 24.4689 53.8853C24.4876 53.968 24.5049 54.056 24.5209 54.1493C24.5396 54.056 24.5583 53.968 24.5769 53.8853C24.5983 53.8 24.6209 53.7226 24.6449 53.6533L25.9929 49.6693C26.0089 49.624 26.0396 49.5826 26.0849 49.5453C26.1329 49.5053 26.1903 49.4853 26.2569 49.4853H26.4809C26.5503 49.4853 26.6063 49.5026 26.6489 49.5373C26.6916 49.572 26.7236 49.616 26.7449 49.6693L28.0889 53.6533C28.1129 53.7226 28.1343 53.7973 28.1529 53.8773C28.1743 53.9573 28.1943 54.0413 28.2129 54.1293C28.2263 54.0413 28.2409 53.9573 28.2569 53.8773C28.2729 53.7973 28.2903 53.7226 28.3089 53.6533L29.4969 49.6693C29.5103 49.6213 29.5396 49.5786 29.5849 49.5413C29.6329 49.504 29.6903 49.4853 29.7569 49.4853H30.3609ZM32.3011 51.1013C32.5971 51.1013 32.8637 51.1506 33.1011 51.2493C33.3384 51.348 33.5411 51.488 33.7091 51.6693C33.8771 51.8506 34.0051 52.0706 34.0931 52.3293C34.1837 52.5853 34.2291 52.872 34.2291 53.1893C34.2291 53.5093 34.1837 53.7973 34.0931 54.0533C34.0051 54.3093 33.8771 54.528 33.7091 54.7093C33.5411 54.8906 33.3384 55.0306 33.1011 55.1293C32.8637 55.2253 32.5971 55.2733 32.3011 55.2733C32.0024 55.2733 31.7331 55.2253 31.4931 55.1293C31.2557 55.0306 31.0531 54.8906 30.8851 54.7093C30.7171 54.528 30.5877 54.3093 30.4971 54.0533C30.4091 53.7973 30.3651 53.5093 30.3651 53.1893C30.3651 52.872 30.4091 52.5853 30.4971 52.3293C30.5877 52.0706 30.7171 51.8506 30.8851 51.6693C31.0531 51.488 31.2557 51.348 31.4931 51.2493C31.7331 51.1506 32.0024 51.1013 32.3011 51.1013ZM32.3011 54.7173C32.7011 54.7173 32.9997 54.584 33.1971 54.3173C33.3944 54.048 33.4931 53.6733 33.4931 53.1933C33.4931 52.7106 33.3944 52.3346 33.1971 52.0653C32.9997 51.796 32.7011 51.6613 32.3011 51.6613C32.0984 51.6613 31.9211 51.696 31.7691 51.7653C31.6197 51.8346 31.4944 51.9346 31.3931 52.0653C31.2944 52.196 31.2197 52.3573 31.1691 52.5493C31.1211 52.7386 31.0971 52.9533 31.0971 53.1933C31.0971 53.6733 31.1957 54.048 31.3931 54.3173C31.5931 54.584 31.8957 54.7173 32.3011 54.7173ZM35.8081 51.9773C35.9361 51.7 36.0934 51.484 36.2801 51.3293C36.4668 51.172 36.6948 51.0933 36.9641 51.0933C37.0494 51.0933 37.1308 51.1026 37.2081 51.1213C37.2881 51.14 37.3588 51.1693 37.4201 51.2093L37.3681 51.7413C37.3521 51.808 37.3121 51.8413 37.2481 51.8413C37.2108 51.8413 37.1561 51.8333 37.0841 51.8173C37.0121 51.8013 36.9308 51.7933 36.8401 51.7933C36.7121 51.7933 36.5974 51.812 36.4961 51.8493C36.3974 51.8866 36.3081 51.9426 36.2281 52.0173C36.1508 52.0893 36.0801 52.18 36.0161 52.2893C35.9548 52.396 35.8988 52.5186 35.8481 52.6573V55.2173H35.1321V51.1653H35.5401C35.6174 51.1653 35.6708 51.18 35.7001 51.2093C35.7294 51.2386 35.7494 51.2893 35.7601 51.3613L35.8081 51.9773ZM38.7622 49.3253V52.7933H38.9462C38.9995 52.7933 39.0435 52.7866 39.0782 52.7733C39.1155 52.7573 39.1542 52.7266 39.1942 52.6813L40.4742 51.3093C40.5115 51.264 40.5502 51.2293 40.5902 51.2053C40.6328 51.1786 40.6888 51.1653 40.7582 51.1653H41.4022L39.9102 52.7533C39.8382 52.844 39.7608 52.9146 39.6782 52.9653C39.7262 52.9973 39.7688 53.0346 39.8062 53.0773C39.8462 53.1173 39.8835 53.164 39.9182 53.2173L41.5022 55.2173H40.8662C40.8048 55.2173 40.7515 55.208 40.7062 55.1893C40.6635 55.168 40.6262 55.1306 40.5942 55.0773L39.2622 53.4173C39.2222 53.3613 39.1822 53.3253 39.1422 53.3093C39.1048 53.2906 39.0462 53.2813 38.9662 53.2813H38.7622V55.2173H38.0462V49.3253H38.7622ZM44.4687 51.8333C44.4367 51.892 44.3873 51.9213 44.3207 51.9213C44.2807 51.9213 44.2353 51.9066 44.1847 51.8773C44.134 51.848 44.0713 51.816 43.9967 51.7813C43.9247 51.744 43.838 51.7106 43.7367 51.6813C43.6353 51.6493 43.5153 51.6333 43.3767 51.6333C43.2567 51.6333 43.1487 51.6493 43.0527 51.6813C42.9567 51.7106 42.874 51.752 42.8047 51.8053C42.738 51.8586 42.686 51.9213 42.6487 51.9933C42.614 52.0626 42.5967 52.1386 42.5967 52.2213C42.5967 52.3253 42.626 52.412 42.6847 52.4813C42.746 52.5506 42.826 52.6106 42.9247 52.6613C43.0233 52.712 43.1353 52.7573 43.2607 52.7973C43.386 52.8346 43.514 52.876 43.6447 52.9213C43.778 52.964 43.9073 53.012 44.0327 53.0653C44.158 53.1186 44.27 53.1853 44.3687 53.2653C44.4673 53.3453 44.546 53.444 44.6047 53.5613C44.666 53.676 44.6967 53.8146 44.6967 53.9773C44.6967 54.164 44.6633 54.3373 44.5967 54.4973C44.53 54.6546 44.4313 54.792 44.3007 54.9093C44.17 55.024 44.01 55.1146 43.8207 55.1813C43.6313 55.248 43.4127 55.2813 43.1647 55.2813C42.882 55.2813 42.626 55.236 42.3967 55.1453C42.1673 55.052 41.9727 54.9333 41.8127 54.7893L41.9807 54.5173C42.002 54.4826 42.0273 54.456 42.0567 54.4373C42.086 54.4186 42.1233 54.4093 42.1687 54.4093C42.2167 54.4093 42.2673 54.428 42.3207 54.4653C42.374 54.5026 42.438 54.544 42.5127 54.5893C42.59 54.6346 42.6833 54.676 42.7927 54.7133C42.902 54.7506 43.038 54.7693 43.2007 54.7693C43.3393 54.7693 43.4607 54.752 43.5647 54.7173C43.6687 54.68 43.7553 54.6306 43.8247 54.5693C43.894 54.508 43.9447 54.4373 43.9767 54.3573C44.0113 54.2773 44.0287 54.192 44.0287 54.1013C44.0287 53.9893 43.998 53.8973 43.9367 53.8253C43.878 53.7506 43.7993 53.688 43.7007 53.6373C43.602 53.584 43.4887 53.5386 43.3607 53.5013C43.2353 53.4613 43.106 53.42 42.9727 53.3773C42.842 53.3346 42.7127 53.2866 42.5847 53.2333C42.4593 53.1773 42.3473 53.108 42.2487 53.0253C42.15 52.9426 42.07 52.8413 42.0087 52.7213C41.95 52.5986 41.9207 52.4506 41.9207 52.2773C41.9207 52.1226 41.9527 51.9746 42.0167 51.8333C42.0807 51.6893 42.174 51.564 42.2967 51.4573C42.4193 51.348 42.57 51.2613 42.7487 51.1973C42.9273 51.1333 43.1313 51.1013 43.3607 51.1013C43.6273 51.1013 43.866 51.144 44.0767 51.2293C44.29 51.312 44.474 51.4266 44.6287 51.5733L44.4687 51.8333ZM46.2856 54.2413C46.4163 54.4173 46.5589 54.5413 46.7136 54.6133C46.8683 54.6853 47.0416 54.7213 47.2336 54.7213C47.6123 54.7213 47.9029 54.5866 48.1056 54.3173C48.3083 54.048 48.4096 53.664 48.4096 53.1653C48.4096 52.9013 48.3856 52.6746 48.3376 52.4853C48.2923 52.296 48.2256 52.1413 48.1376 52.0213C48.0496 51.8986 47.9416 51.8093 47.8136 51.7533C47.6856 51.6973 47.5403 51.6693 47.3776 51.6693C47.1456 51.6693 46.9416 51.7226 46.7656 51.8293C46.5923 51.936 46.4323 52.0866 46.2856 52.2813V54.2413ZM46.2496 51.7933C46.4203 51.5826 46.6176 51.4133 46.8416 51.2853C47.0656 51.1573 47.3216 51.0933 47.6096 51.0933C47.8443 51.0933 48.0563 51.1386 48.2456 51.2293C48.4349 51.3173 48.5963 51.4493 48.7296 51.6253C48.8629 51.7986 48.9656 52.0146 49.0376 52.2733C49.1096 52.532 49.1456 52.8293 49.1456 53.1653C49.1456 53.464 49.1056 53.7426 49.0256 54.0013C48.9456 54.2573 48.8296 54.48 48.6776 54.6693C48.5283 54.856 48.3443 55.004 48.1256 55.1133C47.9096 55.22 47.6656 55.2733 47.3936 55.2733C47.1456 55.2733 46.9323 55.232 46.7536 55.1493C46.5776 55.064 46.4216 54.9466 46.2856 54.7973V56.5893H45.5696V51.1653H45.9976C46.0989 51.1653 46.1616 51.2146 46.1856 51.3133L46.2496 51.7933ZM52.25 53.3933C51.922 53.404 51.642 53.4306 51.41 53.4733C51.1807 53.5133 50.9927 53.5666 50.846 53.6333C50.702 53.7 50.5967 53.7786 50.53 53.8693C50.466 53.96 50.434 54.0613 50.434 54.1733C50.434 54.28 50.4513 54.372 50.486 54.4493C50.5207 54.5266 50.5673 54.5906 50.626 54.6413C50.6873 54.6893 50.758 54.7253 50.838 54.7493C50.9207 54.7706 51.0087 54.7813 51.102 54.7813C51.2273 54.7813 51.342 54.7693 51.446 54.7453C51.55 54.7186 51.6473 54.6813 51.738 54.6333C51.8313 54.5853 51.9193 54.528 52.002 54.4613C52.0873 54.3946 52.17 54.3186 52.25 54.2333V53.3933ZM49.95 51.7373C50.174 51.5213 50.4153 51.36 50.674 51.2533C50.9327 51.1466 51.2193 51.0933 51.534 51.0933C51.7607 51.0933 51.962 51.1306 52.138 51.2053C52.314 51.28 52.462 51.384 52.582 51.5173C52.702 51.6506 52.7927 51.812 52.854 52.0013C52.9153 52.1906 52.946 52.3986 52.946 52.6253V55.2173H52.63C52.5607 55.2173 52.5073 55.2066 52.47 55.1853C52.4327 55.1613 52.4033 55.116 52.382 55.0493L52.302 54.6653C52.1953 54.764 52.0913 54.852 51.99 54.9293C51.8887 55.004 51.782 55.068 51.67 55.1213C51.558 55.172 51.438 55.2106 51.31 55.2373C51.1847 55.2666 51.0447 55.2813 50.89 55.2813C50.7327 55.2813 50.5847 55.26 50.446 55.2173C50.3073 55.172 50.186 55.1053 50.082 55.0173C49.9807 54.9293 49.8993 54.8186 49.838 54.6853C49.7793 54.5493 49.75 54.3893 49.75 54.2053C49.75 54.0453 49.794 53.892 49.882 53.7453C49.97 53.596 50.1127 53.464 50.31 53.3493C50.5073 53.2346 50.7647 53.1413 51.082 53.0693C51.3993 52.9946 51.7887 52.952 52.25 52.9413V52.6253C52.25 52.3106 52.182 52.0733 52.046 51.9133C51.91 51.7506 51.7113 51.6693 51.45 51.6693C51.274 51.6693 51.126 51.692 51.006 51.7373C50.8887 51.78 50.786 51.8293 50.698 51.8853C50.6127 51.9386 50.538 51.988 50.474 52.0333C50.4127 52.076 50.3513 52.0973 50.29 52.0973C50.242 52.0973 50.2007 52.0853 50.166 52.0613C50.1313 52.0346 50.102 52.0026 50.078 51.9653L49.95 51.7373ZM56.8506 51.8853C56.8292 51.9146 56.8079 51.9373 56.7866 51.9533C56.7652 51.9693 56.7359 51.9773 56.6986 51.9773C56.6586 51.9773 56.6146 51.9613 56.5666 51.9293C56.5186 51.8946 56.4586 51.8573 56.3866 51.8173C56.3172 51.7773 56.2306 51.7413 56.1266 51.7093C56.0252 51.6746 55.8999 51.6573 55.7506 51.6573C55.5506 51.6573 55.3746 51.6933 55.2226 51.7653C55.0706 51.8346 54.9426 51.936 54.8386 52.0693C54.7372 52.2026 54.6599 52.364 54.6066 52.5533C54.5559 52.7426 54.5306 52.9546 54.5306 53.1893C54.5306 53.4346 54.5586 53.6533 54.6146 53.8453C54.6706 54.0346 54.7492 54.1946 54.8506 54.3253C54.9546 54.4533 55.0786 54.552 55.2226 54.6213C55.3692 54.688 55.5332 54.7213 55.7146 54.7213C55.8879 54.7213 56.0306 54.7013 56.1426 54.6613C56.2546 54.6186 56.3466 54.572 56.4186 54.5213C56.4932 54.4706 56.5546 54.4253 56.6026 54.3853C56.6532 54.3426 56.7026 54.3213 56.7506 54.3213C56.8092 54.3213 56.8546 54.344 56.8866 54.3893L57.0866 54.6493C56.9986 54.7586 56.8986 54.852 56.7866 54.9293C56.6746 55.0066 56.5532 55.072 56.4226 55.1253C56.2946 55.176 56.1599 55.2133 56.0186 55.2373C55.8772 55.2613 55.7332 55.2733 55.5866 55.2733C55.3332 55.2733 55.0972 55.2266 54.8786 55.1333C54.6626 55.04 54.4746 54.9053 54.3146 54.7293C54.1546 54.5506 54.0292 54.332 53.9386 54.0733C53.8479 53.8146 53.8026 53.52 53.8026 53.1893C53.8026 52.888 53.8439 52.6093 53.9266 52.3533C54.0119 52.0973 54.1346 51.8773 54.2946 51.6933C54.4572 51.5066 54.6559 51.3613 54.8906 51.2573C55.1279 51.1533 55.3999 51.1013 55.7066 51.1013C55.9919 51.1013 56.2426 51.148 56.4586 51.2413C56.6772 51.332 56.8706 51.4613 57.0386 51.6293L56.8506 51.8853ZM60.4926 52.7493C60.4926 52.584 60.4686 52.4333 60.4206 52.2973C60.3752 52.1586 60.3072 52.04 60.2166 51.9413C60.1286 51.84 60.0206 51.7626 59.8926 51.7093C59.7646 51.6533 59.6192 51.6253 59.4566 51.6253C59.1152 51.6253 58.8446 51.7253 58.6446 51.9253C58.4472 52.1226 58.3246 52.3973 58.2766 52.7493H60.4926ZM61.0686 54.6493C60.9806 54.756 60.8752 54.8493 60.7526 54.9293C60.6299 55.0066 60.4979 55.0706 60.3566 55.1213C60.2179 55.172 60.0739 55.2093 59.9246 55.2333C59.7752 55.26 59.6272 55.2733 59.4806 55.2733C59.2006 55.2733 58.9419 55.2266 58.7046 55.1333C58.4699 55.0373 58.2659 54.8986 58.0926 54.7173C57.9219 54.5333 57.7886 54.3066 57.6926 54.0373C57.5966 53.768 57.5486 53.4586 57.5486 53.1093C57.5486 52.8266 57.5912 52.5626 57.6766 52.3173C57.7646 52.072 57.8899 51.86 58.0526 51.6813C58.2152 51.5 58.4139 51.3586 58.6486 51.2573C58.8832 51.1533 59.1472 51.1013 59.4406 51.1013C59.6832 51.1013 59.9072 51.1426 60.1126 51.2253C60.3206 51.3053 60.4992 51.4226 60.6486 51.5773C60.8006 51.7293 60.9192 51.9186 61.0046 52.1453C61.0899 52.3693 61.1326 52.6253 61.1326 52.9133C61.1326 53.0253 61.1206 53.1 61.0966 53.1373C61.0726 53.1746 61.0272 53.1933 60.9606 53.1933H58.2526C58.2606 53.4493 58.2952 53.672 58.3566 53.8613C58.4206 54.0506 58.5086 54.2093 58.6206 54.3373C58.7326 54.4626 58.8659 54.5573 59.0206 54.6213C59.1752 54.6826 59.3486 54.7133 59.5406 54.7133C59.7192 54.7133 59.8726 54.6933 60.0006 54.6533C60.1312 54.6106 60.2432 54.5653 60.3366 54.5173C60.4299 54.4693 60.5072 54.4253 60.5686 54.3853C60.6326 54.3426 60.6872 54.3213 60.7326 54.3213C60.7912 54.3213 60.8366 54.344 60.8686 54.3893L61.0686 54.6493ZM61.9431 52.5173H63.9191V53.1213H61.9431V52.5173ZM68.8119 52.3533C68.8119 52.8546 68.7572 53.2893 68.6479 53.6573C68.5412 54.0226 68.3945 54.3253 68.2079 54.5653C68.0212 54.8053 67.7999 54.984 67.5439 55.1013C67.2905 55.2186 67.0185 55.2773 66.7279 55.2773C66.4345 55.2773 66.1612 55.2186 65.9079 55.1013C65.6572 54.984 65.4385 54.8053 65.2519 54.5653C65.0652 54.3253 64.9185 54.0226 64.8119 53.6573C64.7052 53.2893 64.6519 52.8546 64.6519 52.3533C64.6519 51.852 64.7052 51.4173 64.8119 51.0493C64.9185 50.6813 65.0652 50.3773 65.2519 50.1373C65.4385 49.8946 65.6572 49.7146 65.9079 49.5973C66.1612 49.48 66.4345 49.4213 66.7279 49.4213C67.0185 49.4213 67.2905 49.48 67.5439 49.5973C67.7999 49.7146 68.0212 49.8946 68.2079 50.1373C68.3945 50.3773 68.5412 50.6813 68.6479 51.0493C68.7572 51.4173 68.8119 51.852 68.8119 52.3533ZM68.0719 52.3533C68.0719 51.916 68.0345 51.5493 67.9599 51.2533C67.8879 50.9546 67.7892 50.7146 67.6639 50.5333C67.5412 50.352 67.3985 50.2226 67.2359 50.1453C67.0732 50.0653 66.9039 50.0253 66.7279 50.0253C66.5519 50.0253 66.3825 50.0653 66.2199 50.1453C66.0572 50.2226 65.9145 50.352 65.7919 50.5333C65.6692 50.7146 65.5705 50.9546 65.4959 51.2533C65.4239 51.5493 65.3879 51.916 65.3879 52.3533C65.3879 52.7906 65.4239 53.1573 65.4959 53.4533C65.5705 53.7493 65.6692 53.988 65.7919 54.1693C65.9145 54.3506 66.0572 54.4813 66.2199 54.5613C66.3825 54.6386 66.5519 54.6773 66.7279 54.6773C66.9039 54.6773 67.0732 54.6386 67.2359 54.5613C67.3985 54.4813 67.5412 54.3506 67.6639 54.1693C67.7892 53.988 67.8879 53.7493 67.9599 53.4533C68.0345 53.1573 68.0719 52.7906 68.0719 52.3533ZM73.1245 54.6733V55.2173H70.0525V54.6733H71.2805V50.7653C71.2805 50.648 71.2845 50.5293 71.2925 50.4093L70.2725 51.2853C70.2378 51.3146 70.2032 51.3333 70.1685 51.3413C70.1338 51.3466 70.1018 51.3466 70.0725 51.3413C70.0432 51.336 70.0152 51.3253 69.9885 51.3093C69.9645 51.2933 69.9458 51.276 69.9325 51.2573L69.7085 50.9493L71.4165 49.4733H71.9965V54.6733H73.1245Z" fill="#1B1A21"/>
<path d="M152.684 52.8109C152.684 50.8013 154.308 49.1622 156.332 49.1622C158.342 49.1622 159.981 50.8013 159.981 52.8109C159.981 54.8347 158.342 56.4595 156.332 56.4595C154.308 56.4595 152.684 54.8347 152.684 52.8109ZM157.971 52.1838C158.128 52.027 158.128 51.7847 157.971 51.6279C157.815 51.4711 157.572 51.4711 157.415 51.6279L155.876 53.1672L155.235 52.5401C155.078 52.3833 154.836 52.3833 154.679 52.5401C154.522 52.6969 154.522 52.9391 154.679 53.0959L155.591 54.0081C155.748 54.1649 155.99 54.1649 156.147 54.0081L157.971 52.1838Z" fill="#00873F"/>
<rect x="15.946" y="43.0745" width="150.811" height="19.2857" rx="2.08494" stroke="#00873F" stroke-width="1.04247"/>
<rect x="76.7568" y="67.2251" width="90" height="15.2436" rx="1.74786" fill="#8800CC"/>
<path d="M92.0608 73.9918H90.9983C90.968 73.8176 90.9121 73.6632 90.8307 73.5287C90.7493 73.3924 90.6479 73.2768 90.5267 73.1822C90.4055 73.0875 90.2673 73.0164 90.1119 72.9691C89.9585 72.9198 89.7928 72.8952 89.6148 72.8952C89.2985 72.8952 89.0182 72.9748 88.7739 73.1339C88.5296 73.2911 88.3383 73.5221 88.2 73.827C88.0618 74.1301 87.9926 74.5003 87.9926 74.9378C87.9926 75.3829 88.0618 75.7579 88.2 76.0628C88.3402 76.3659 88.5315 76.595 88.7739 76.7503C89.0182 76.9037 89.2976 76.9804 89.6119 76.9804C89.7862 76.9804 89.9491 76.9577 90.1006 76.9123C90.254 76.8649 90.3913 76.7958 90.5125 76.7049C90.6356 76.614 90.7388 76.5022 90.8222 76.3697C90.9074 76.2371 90.9661 76.0856 90.9983 75.9151L92.0608 75.9208C92.021 76.1973 91.9349 76.4568 91.8023 76.6992C91.6716 76.9416 91.5002 77.1556 91.2881 77.3412C91.076 77.525 90.8279 77.6689 90.5438 77.7731C90.2597 77.8753 89.9443 77.9265 89.5977 77.9265C89.0864 77.9265 88.6299 77.8081 88.2284 77.5714C87.8269 77.3346 87.5106 76.9928 87.2796 76.5458C87.0485 76.0988 86.933 75.5628 86.933 74.9378C86.933 74.3109 87.0494 73.775 87.2824 73.3299C87.5154 72.8829 87.8326 72.5411 88.2341 72.3043C88.6356 72.0676 89.0902 71.9492 89.5977 71.9492C89.9216 71.9492 90.2227 71.9947 90.5012 72.0856C90.7796 72.1765 91.0277 72.31 91.2455 72.4861C91.4633 72.6604 91.6423 72.8744 91.7824 73.1282C91.9244 73.3801 92.0173 73.6679 92.0608 73.9918ZM92.9806 77.8469V73.4833H93.9777V74.2106H94.0232C94.1027 73.9587 94.2391 73.7645 94.4323 73.6282C94.6273 73.4899 94.8499 73.4208 95.0999 73.4208C95.1567 73.4208 95.2201 73.4236 95.2902 73.4293C95.3622 73.4331 95.4218 73.4397 95.4692 73.4492V74.3952C95.4256 74.3801 95.3565 74.3668 95.2618 74.3554C95.169 74.3422 95.079 74.3356 94.9919 74.3356C94.8044 74.3356 94.6359 74.3763 94.4862 74.4577C94.3385 74.5373 94.222 74.6481 94.1368 74.7901C94.0516 74.9322 94.009 75.096 94.009 75.2816V77.8469H92.9806ZM97.9046 77.9322C97.4671 77.9322 97.0892 77.8412 96.771 77.6594C96.4548 77.4757 96.2114 77.2162 96.0409 76.881C95.8705 76.5439 95.7852 76.1471 95.7852 75.6907C95.7852 75.2418 95.8705 74.8479 96.0409 74.5089C96.2133 74.1679 96.4538 73.9028 96.7625 73.7134C97.0712 73.5221 97.4339 73.4265 97.8506 73.4265C98.1195 73.4265 98.3733 73.47 98.6119 73.5572C98.8525 73.6424 99.0646 73.775 99.2483 73.9549C99.4339 74.1348 99.5798 74.364 99.6858 74.6424C99.7919 74.9189 99.8449 75.2484 99.8449 75.631V75.9464H96.2682V75.2532H98.8591C98.8572 75.0562 98.8146 74.881 98.7313 74.7276C98.6479 74.5723 98.5315 74.4501 98.3818 74.3611C98.2341 74.2721 98.0618 74.2276 97.8648 74.2276C97.6546 74.2276 97.4699 74.2787 97.3108 74.381C97.1517 74.4814 97.0277 74.614 96.9387 74.7787C96.8515 74.9416 96.807 75.1206 96.8051 75.3157V75.9208C96.8051 76.1746 96.8515 76.3924 96.9443 76.5742C97.0371 76.7541 97.1669 76.8924 97.3335 76.989C97.5002 77.0837 97.6953 77.131 97.9188 77.131C98.0684 77.131 98.2038 77.1102 98.325 77.0685C98.4462 77.025 98.5513 76.9615 98.6404 76.8782C98.7294 76.7948 98.7966 76.6916 98.8421 76.5685L99.8023 76.6765C99.7417 76.9303 99.6262 77.1518 99.4557 77.3412C99.2871 77.5287 99.0712 77.6746 98.808 77.7787C98.5447 77.881 98.2436 77.9322 97.9046 77.9322ZM101.971 77.935C101.694 77.935 101.445 77.8857 101.223 77.7873C101.004 77.6869 100.83 77.5392 100.701 77.3441C100.574 77.149 100.51 76.9085 100.51 76.6225C100.51 76.3763 100.556 76.1727 100.647 76.0117C100.738 75.8507 100.862 75.7219 101.019 75.6253C101.176 75.5287 101.353 75.4558 101.55 75.4066C101.749 75.3554 101.955 75.3185 102.167 75.2958C102.422 75.2693 102.63 75.2456 102.789 75.2248C102.948 75.202 103.063 75.1679 103.135 75.1225C103.209 75.0751 103.246 75.0022 103.246 74.9037V74.8867C103.246 74.6727 103.183 74.507 103.056 74.3895C102.929 74.2721 102.746 74.2134 102.508 74.2134C102.256 74.2134 102.056 74.2683 101.908 74.3782C101.762 74.488 101.664 74.6178 101.613 74.7674L100.652 74.631C100.728 74.3659 100.853 74.1443 101.027 73.9662C101.202 73.7863 101.415 73.6518 101.667 73.5628C101.919 73.4719 102.197 73.4265 102.502 73.4265C102.712 73.4265 102.921 73.4511 103.13 73.5003C103.338 73.5496 103.528 73.631 103.701 73.7447C103.873 73.8564 104.011 74.0089 104.116 74.202C104.222 74.3952 104.275 74.6367 104.275 74.9265V77.8469H103.286V77.2475H103.252C103.189 77.3687 103.101 77.4823 102.988 77.5884C102.876 77.6926 102.735 77.7768 102.564 77.8412C102.396 77.9037 102.198 77.935 101.971 77.935ZM102.238 77.1793C102.444 77.1793 102.623 77.1386 102.775 77.0572C102.926 76.9738 103.043 76.864 103.124 76.7276C103.207 76.5912 103.249 76.4426 103.249 76.2816V75.7674C103.217 75.7939 103.162 75.8185 103.084 75.8412C103.008 75.864 102.923 75.8839 102.829 75.9009C102.734 75.9179 102.64 75.9331 102.547 75.9464C102.455 75.9596 102.374 75.971 102.306 75.9804C102.152 76.0013 102.015 76.0354 101.894 76.0827C101.773 76.1301 101.677 76.1964 101.607 76.2816C101.537 76.3649 101.502 76.4729 101.502 76.6054C101.502 76.7948 101.571 76.9378 101.709 77.0344C101.848 77.131 102.024 77.1793 102.238 77.1793ZM107.488 73.4833V74.2787H104.979V73.4833H107.488ZM105.598 72.4378H106.627V76.5344C106.627 76.6727 106.648 76.7787 106.689 76.8526C106.733 76.9246 106.79 76.9738 106.86 77.0003C106.93 77.0268 107.008 77.0401 107.093 77.0401C107.157 77.0401 107.216 77.0354 107.269 77.0259C107.324 77.0164 107.366 77.0079 107.394 77.0003L107.567 77.8043C107.512 77.8232 107.434 77.8441 107.331 77.8668C107.231 77.8895 107.108 77.9028 106.962 77.9066C106.705 77.9142 106.473 77.8753 106.266 77.7901C106.06 77.703 105.896 77.5685 105.775 77.3867C105.655 77.2049 105.597 76.9776 105.598 76.7049V72.4378ZM110.233 77.9322C109.795 77.9322 109.417 77.8412 109.099 77.6594C108.783 77.4757 108.54 77.2162 108.369 76.881C108.199 76.5439 108.113 76.1471 108.113 75.6907C108.113 75.2418 108.199 74.8479 108.369 74.5089C108.541 74.1679 108.782 73.9028 109.091 73.7134C109.399 73.5221 109.762 73.4265 110.179 73.4265C110.448 73.4265 110.701 73.47 110.94 73.5572C111.181 73.6424 111.393 73.775 111.576 73.9549C111.762 74.1348 111.908 74.364 112.014 74.6424C112.12 74.9189 112.173 75.2484 112.173 75.631V75.9464H108.596V75.2532H111.187C111.185 75.0562 111.143 74.881 111.059 74.7276C110.976 74.5723 110.86 74.4501 110.71 74.3611C110.562 74.2721 110.39 74.2276 110.193 74.2276C109.983 74.2276 109.798 74.2787 109.639 74.381C109.48 74.4814 109.356 74.614 109.267 74.7787C109.18 74.9416 109.135 75.1206 109.133 75.3157V75.9208C109.133 76.1746 109.18 76.3924 109.272 76.5742C109.365 76.7541 109.495 76.8924 109.662 76.989C109.828 77.0837 110.023 77.131 110.247 77.131C110.397 77.131 110.532 77.1102 110.653 77.0685C110.774 77.025 110.879 76.9615 110.968 76.8782C111.057 76.7948 111.125 76.6916 111.17 76.5685L112.13 76.6765C112.07 76.9303 111.954 77.1518 111.784 77.3412C111.615 77.5287 111.399 77.6746 111.136 77.7787C110.873 77.881 110.572 77.9322 110.233 77.9322ZM115.928 77.8469L114.695 73.4833H115.743L116.51 76.5515H116.55L117.334 73.4833H118.371L119.155 76.5344H119.198L119.954 73.4833H121.005L119.769 77.8469H118.698L117.88 74.8981H117.82L117.002 77.8469H115.928ZM123.501 77.9322C123.075 77.9322 122.706 77.8384 122.393 77.6509C122.081 77.4634 121.838 77.2011 121.666 76.864C121.495 76.5268 121.41 76.1329 121.41 75.6822C121.41 75.2314 121.495 74.8365 121.666 74.4975C121.838 74.1585 122.081 73.8952 122.393 73.7077C122.706 73.5202 123.075 73.4265 123.501 73.4265C123.927 73.4265 124.297 73.5202 124.609 73.7077C124.922 73.8952 125.163 74.1585 125.334 74.4975C125.506 74.8365 125.592 75.2314 125.592 75.6822C125.592 76.1329 125.506 76.5268 125.334 76.864C125.163 77.2011 124.922 77.4634 124.609 77.6509C124.297 77.8384 123.927 77.9322 123.501 77.9322ZM123.507 77.1083C123.738 77.1083 123.931 77.0448 124.086 76.9179C124.242 76.7892 124.357 76.6168 124.433 76.4009C124.511 76.185 124.549 75.9445 124.549 75.6793C124.549 75.4123 124.511 75.1708 124.433 74.9549C124.357 74.7371 124.242 74.5638 124.086 74.435C123.931 74.3062 123.738 74.2418 123.507 74.2418C123.27 74.2418 123.073 74.3062 122.916 74.435C122.761 74.5638 122.644 74.7371 122.566 74.9549C122.491 75.1708 122.453 75.4123 122.453 75.6793C122.453 75.9445 122.491 76.185 122.566 76.4009C122.644 76.6168 122.761 76.7892 122.916 76.9179C123.073 77.0448 123.27 77.1083 123.507 77.1083ZM126.465 77.8469V73.4833H127.462V74.2106H127.508C127.587 73.9587 127.723 73.7645 127.917 73.6282C128.112 73.4899 128.334 73.4208 128.584 73.4208C128.641 73.4208 128.705 73.4236 128.775 73.4293C128.847 73.4331 128.906 73.4397 128.954 73.4492V74.3952C128.91 74.3801 128.841 74.3668 128.746 74.3554C128.653 74.3422 128.563 74.3356 128.476 74.3356C128.289 74.3356 128.12 74.3763 127.971 74.4577C127.823 74.5373 127.706 74.6481 127.621 74.7901C127.536 74.9322 127.493 75.096 127.493 75.2816V77.8469H126.465ZM130.574 76.4776L130.571 75.2361H130.736L132.304 73.4833H133.506L131.577 75.631H131.364L130.574 76.4776ZM129.637 77.8469V72.0287H130.665V77.8469H129.637ZM132.375 77.8469L130.955 75.8611L131.648 75.1367L133.606 77.8469H132.375ZM137.64 74.6367L136.703 74.739C136.676 74.6443 136.63 74.5553 136.564 74.4719C136.499 74.3886 136.412 74.3214 136.302 74.2702C136.192 74.2191 136.058 74.1935 135.899 74.1935C135.685 74.1935 135.505 74.2399 135.359 74.3327C135.215 74.4255 135.144 74.5458 135.146 74.6935C135.144 74.8204 135.191 74.9236 135.285 75.0032C135.382 75.0827 135.541 75.1481 135.763 75.1992L136.507 75.3583C136.92 75.4473 137.227 75.5884 137.427 75.7816C137.63 75.9748 137.732 76.2276 137.734 76.5401C137.732 76.8147 137.652 77.0572 137.493 77.2674C137.335 77.4757 137.117 77.6386 136.836 77.756C136.556 77.8734 136.234 77.9322 135.87 77.9322C135.336 77.9322 134.906 77.8204 134.581 77.5969C134.255 77.3715 134.061 77.0581 133.998 76.6566L135.001 76.56C135.047 76.757 135.143 76.9056 135.291 77.006C135.439 77.1064 135.631 77.1566 135.868 77.1566C136.112 77.1566 136.308 77.1064 136.456 77.006C136.605 76.9056 136.68 76.7816 136.68 76.6339C136.68 76.5089 136.632 76.4056 136.535 76.3242C136.441 76.2428 136.293 76.1803 136.092 76.1367L135.348 75.9804C134.929 75.8933 134.62 75.7465 134.419 75.5401C134.218 75.3318 134.119 75.0685 134.12 74.7503C134.119 74.4814 134.191 74.2484 134.339 74.0515C134.489 73.8526 134.696 73.6992 134.961 73.5912C135.228 73.4814 135.536 73.4265 135.885 73.4265C136.396 73.4265 136.799 73.5354 137.092 73.7532C137.388 73.971 137.57 74.2655 137.64 74.6367ZM138.582 79.4833V73.4833H139.593V74.2049H139.653C139.706 74.0988 139.781 73.9861 139.878 73.8668C139.974 73.7456 140.105 73.6424 140.27 73.5572C140.434 73.47 140.645 73.4265 140.9 73.4265C141.237 73.4265 141.541 73.5126 141.812 73.685C142.085 73.8554 142.301 74.1083 142.46 74.4435C142.621 74.7768 142.701 75.1859 142.701 75.6708C142.701 76.15 142.623 76.5572 142.466 76.8924C142.308 77.2276 142.094 77.4833 141.824 77.6594C141.553 77.8356 141.246 77.9236 140.903 77.9236C140.653 77.9236 140.446 77.882 140.281 77.7986C140.116 77.7153 139.984 77.6149 139.883 77.4975C139.785 77.3782 139.708 77.2655 139.653 77.1594H139.611V79.4833H138.582ZM139.591 75.6651C139.591 75.9473 139.63 76.1945 139.71 76.4066C139.791 76.6187 139.908 76.7844 140.059 76.9037C140.213 77.0212 140.398 77.0799 140.616 77.0799C140.843 77.0799 141.034 77.0193 141.187 76.8981C141.341 76.775 141.456 76.6073 141.534 76.3952C141.613 76.1812 141.653 75.9378 141.653 75.6651C141.653 75.3943 141.614 75.1537 141.537 74.9435C141.459 74.7333 141.343 74.5685 141.19 74.4492C141.037 74.3299 140.845 74.2702 140.616 74.2702C140.397 74.2702 140.21 74.328 140.057 74.4435C139.903 74.559 139.787 74.721 139.707 74.9293C139.629 75.1376 139.591 75.3829 139.591 75.6651ZM144.838 77.935C144.561 77.935 144.312 77.8857 144.091 77.7873C143.871 77.6869 143.697 77.5392 143.568 77.3441C143.441 77.149 143.378 76.9085 143.378 76.6225C143.378 76.3763 143.423 76.1727 143.514 76.0117C143.605 75.8507 143.729 75.7219 143.886 75.6253C144.043 75.5287 144.22 75.4558 144.417 75.4066C144.616 75.3554 144.822 75.3185 145.034 75.2958C145.29 75.2693 145.497 75.2456 145.656 75.2248C145.815 75.202 145.931 75.1679 146.003 75.1225C146.076 75.0751 146.113 75.0022 146.113 74.9037V74.8867C146.113 74.6727 146.05 74.507 145.923 74.3895C145.796 74.2721 145.613 74.2134 145.375 74.2134C145.123 74.2134 144.923 74.2683 144.775 74.3782C144.629 74.488 144.531 74.6178 144.48 74.7674L143.52 74.631C143.595 74.3659 143.72 74.1443 143.895 73.9662C144.069 73.7863 144.282 73.6518 144.534 73.5628C144.786 73.4719 145.064 73.4265 145.369 73.4265C145.579 73.4265 145.789 73.4511 145.997 73.5003C146.205 73.5496 146.396 73.631 146.568 73.7447C146.74 73.8564 146.879 74.0089 146.983 74.202C147.089 74.3952 147.142 74.6367 147.142 74.9265V77.8469H146.153V77.2475H146.119C146.057 77.3687 145.968 77.4823 145.855 77.5884C145.743 77.6926 145.602 77.7768 145.432 77.8412C145.263 77.9037 145.065 77.935 144.838 77.935ZM145.105 77.1793C145.311 77.1793 145.49 77.1386 145.642 77.0572C145.793 76.9738 145.91 76.864 145.991 76.7276C146.075 76.5912 146.116 76.4426 146.116 76.2816V75.7674C146.084 75.7939 146.029 75.8185 145.951 75.8412C145.876 75.864 145.79 75.8839 145.696 75.9009C145.601 75.9179 145.507 75.9331 145.415 75.9464C145.322 75.9596 145.241 75.971 145.173 75.9804C145.02 76.0013 144.882 76.0354 144.761 76.0827C144.64 76.1301 144.544 76.1964 144.474 76.2816C144.404 76.3649 144.369 76.4729 144.369 76.6054C144.369 76.7948 144.438 76.9378 144.576 77.0344C144.715 77.131 144.891 77.1793 145.105 77.1793ZM150.079 77.9322C149.644 77.9322 149.27 77.8365 148.957 77.6452C148.647 77.4539 148.407 77.1897 148.238 76.8526C148.072 76.5136 147.988 76.1234 147.988 75.6822C147.988 75.239 148.074 74.8479 148.244 74.5089C148.415 74.1679 148.655 73.9028 148.966 73.7134C149.278 73.5221 149.647 73.4265 150.074 73.4265C150.428 73.4265 150.741 73.4918 151.014 73.6225C151.289 73.7513 151.507 73.934 151.67 74.1708C151.833 74.4056 151.926 74.6803 151.949 74.9947H150.966C150.926 74.7844 150.831 74.6092 150.682 74.4691C150.534 74.327 150.336 74.256 150.088 74.256C149.878 74.256 149.693 74.3128 149.534 74.4265C149.375 74.5382 149.251 74.6992 149.162 74.9094C149.075 75.1197 149.031 75.3715 149.031 75.6651C149.031 75.9625 149.075 76.2181 149.162 76.4322C149.249 76.6443 149.371 76.8081 149.528 76.9236C149.687 77.0373 149.874 77.0941 150.088 77.0941C150.239 77.0941 150.375 77.0657 150.494 77.0089C150.615 76.9501 150.717 76.8659 150.798 76.756C150.879 76.6462 150.935 76.5126 150.966 76.3554H151.949C151.924 76.6642 151.833 76.9378 151.676 77.1765C151.519 77.4132 151.305 77.5988 151.034 77.7333C150.763 77.8659 150.445 77.9322 150.079 77.9322ZM154.725 77.9322C154.287 77.9322 153.91 77.8412 153.591 77.6594C153.275 77.4757 153.032 77.2162 152.861 76.881C152.691 76.5439 152.606 76.1471 152.606 75.6907C152.606 75.2418 152.691 74.8479 152.861 74.5089C153.034 74.1679 153.274 73.9028 153.583 73.7134C153.892 73.5221 154.254 73.4265 154.671 73.4265C154.94 73.4265 155.194 73.47 155.432 73.5572C155.673 73.6424 155.885 73.775 156.069 73.9549C156.254 74.1348 156.4 74.364 156.506 74.6424C156.612 74.9189 156.665 75.2484 156.665 75.631V75.9464H153.089V75.2532H155.679C155.678 75.0562 155.635 74.881 155.552 74.7276C155.468 74.5723 155.352 74.4501 155.202 74.3611C155.054 74.2721 154.882 74.2276 154.685 74.2276C154.475 74.2276 154.29 74.2787 154.131 74.381C153.972 74.4814 153.848 74.614 153.759 74.7787C153.672 74.9416 153.627 75.1206 153.625 75.3157V75.9208C153.625 76.1746 153.672 76.3924 153.765 76.5742C153.857 76.7541 153.987 76.8924 154.154 76.989C154.321 77.0837 154.516 77.131 154.739 77.131C154.889 77.131 155.024 77.1102 155.145 77.0685C155.267 77.025 155.372 76.9615 155.461 76.8782C155.55 76.7948 155.617 76.6916 155.662 76.5685L156.623 76.6765C156.562 76.9303 156.446 77.1518 156.276 77.3412C156.107 77.5287 155.892 77.6746 155.628 77.7787C155.365 77.881 155.064 77.9322 154.725 77.9322Z" fill="white"/>
<path d="M20.562 20.7981C20.6207 20.7981 20.6727 20.8208 20.718 20.8661L21.142 21.3261C20.9074 21.6168 20.618 21.8394 20.274 21.9941C19.9327 22.1488 19.522 22.2261 19.042 22.2261C18.6127 22.2261 18.226 22.1528 17.882 22.0061C17.5407 21.8594 17.2487 21.6554 17.006 21.3941C16.7634 21.1328 16.5767 20.8208 16.446 20.4581C16.318 20.0954 16.254 19.6994 16.254 19.2701C16.254 18.8354 16.3234 18.4381 16.462 18.0781C16.6007 17.7154 16.7954 17.4034 17.046 17.1421C17.2994 16.8808 17.6007 16.6781 17.95 16.5341C18.2994 16.3874 18.686 16.3141 19.11 16.3141C19.5314 16.3141 19.9047 16.3834 20.23 16.5221C20.558 16.6608 20.8367 16.8421 21.066 17.0661L20.706 17.5661C20.6847 17.5981 20.6567 17.6261 20.622 17.6501C20.59 17.6741 20.5447 17.6861 20.486 17.6861C20.446 17.6861 20.4047 17.6754 20.362 17.6541C20.3194 17.6301 20.2727 17.6021 20.222 17.5701C20.1714 17.5354 20.1127 17.4981 20.046 17.4581C19.9794 17.4181 19.902 17.3821 19.814 17.3501C19.726 17.3154 19.6234 17.2874 19.506 17.2661C19.3914 17.2421 19.258 17.2301 19.106 17.2301C18.8474 17.2301 18.61 17.2768 18.394 17.3701C18.1807 17.4608 17.9967 17.5941 17.842 17.7701C17.6874 17.9434 17.5674 18.1568 17.482 18.4101C17.3967 18.6608 17.354 18.9474 17.354 19.2701C17.354 19.5954 17.3994 19.8848 17.49 20.1381C17.5834 20.3914 17.7087 20.6048 17.866 20.7781C18.0234 20.9514 18.2087 21.0848 18.422 21.1781C18.6354 21.2688 18.8647 21.3141 19.11 21.3141C19.2567 21.3141 19.3887 21.3061 19.506 21.2901C19.626 21.2741 19.7354 21.2488 19.834 21.2141C19.9354 21.1794 20.03 21.1354 20.118 21.0821C20.2087 21.0261 20.298 20.9581 20.386 20.8781C20.4127 20.8541 20.4407 20.8354 20.47 20.8221C20.4994 20.8061 20.53 20.7981 20.562 20.7981ZM22.6395 18.7701C22.7675 18.5248 22.9195 18.3328 23.0955 18.1941C23.2715 18.0528 23.4795 17.9821 23.7195 17.9821C23.9088 17.9821 24.0608 18.0234 24.1755 18.1061L24.1115 18.8461C24.0981 18.8941 24.0781 18.9288 24.0515 18.9501C24.0275 18.9688 23.9941 18.9781 23.9515 18.9781C23.9115 18.9781 23.8515 18.9714 23.7715 18.9581C23.6941 18.9448 23.6181 18.9381 23.5435 18.9381C23.4341 18.9381 23.3368 18.9541 23.2515 18.9861C23.1661 19.0181 23.0888 19.0648 23.0195 19.1261C22.9528 19.1848 22.8928 19.2568 22.8395 19.3421C22.7888 19.4274 22.7408 19.5248 22.6955 19.6341V22.1621H21.7075V18.0581H22.2875C22.3888 18.0581 22.4595 18.0768 22.4995 18.1141C22.5395 18.1488 22.5661 18.2128 22.5795 18.3061L22.6395 18.7701ZM27.2187 19.6381C27.2187 19.5101 27.2 19.3901 27.1627 19.2781C27.128 19.1634 27.0747 19.0634 27.0027 18.9781C26.9307 18.8928 26.8387 18.8261 26.7267 18.7781C26.6173 18.7274 26.4893 18.7021 26.3427 18.7021C26.0573 18.7021 25.832 18.7834 25.6667 18.9461C25.504 19.1088 25.4 19.3394 25.3547 19.6381H27.2187ZM25.3347 20.2341C25.3507 20.4448 25.388 20.6274 25.4467 20.7821C25.5053 20.9341 25.5827 21.0608 25.6787 21.1621C25.7747 21.2608 25.888 21.3354 26.0187 21.3861C26.152 21.4341 26.2987 21.4581 26.4587 21.4581C26.6187 21.4581 26.756 21.4394 26.8707 21.4021C26.988 21.3648 27.0893 21.3234 27.1747 21.2781C27.2627 21.2328 27.3387 21.1914 27.4027 21.1541C27.4693 21.1168 27.5333 21.0981 27.5947 21.0981C27.6773 21.0981 27.7387 21.1288 27.7787 21.1901L28.0627 21.5501C27.9533 21.6781 27.8307 21.7861 27.6947 21.8741C27.5587 21.9594 27.416 22.0288 27.2667 22.0821C27.12 22.1328 26.9693 22.1688 26.8147 22.1901C26.6627 22.2114 26.5147 22.2221 26.3707 22.2221C26.0853 22.2221 25.82 22.1754 25.5747 22.0821C25.3293 21.9861 25.116 21.8461 24.9347 21.6621C24.7533 21.4754 24.6107 21.2461 24.5067 20.9741C24.4027 20.6994 24.3507 20.3821 24.3507 20.0221C24.3507 19.7421 24.396 19.4794 24.4867 19.2341C24.5773 18.9861 24.7067 18.7714 24.8747 18.5901C25.0453 18.4061 25.252 18.2608 25.4947 18.1541C25.74 18.0474 26.016 17.9941 26.3227 17.9941C26.5813 17.9941 26.82 18.0354 27.0387 18.1181C27.2573 18.2008 27.4453 18.3221 27.6027 18.4821C27.76 18.6394 27.8827 18.8341 27.9707 19.0661C28.0613 19.2954 28.1067 19.5581 28.1067 19.8541C28.1067 20.0034 28.0907 20.1048 28.0587 20.1581C28.0267 20.2088 27.9653 20.2341 27.8747 20.2341H25.3347ZM31.0161 20.4101C30.7308 20.4234 30.4908 20.4488 30.2961 20.4861C30.1014 20.5208 29.9454 20.5661 29.8281 20.6221C29.7108 20.6781 29.6268 20.7434 29.5761 20.8181C29.5254 20.8928 29.5001 20.9741 29.5001 21.0621C29.5001 21.2354 29.5508 21.3594 29.6521 21.4341C29.7561 21.5088 29.8908 21.5461 30.0561 21.5461C30.2588 21.5461 30.4334 21.5101 30.5801 21.4381C30.7294 21.3634 30.8748 21.2514 31.0161 21.1021V20.4101ZM28.7521 18.6301C29.2241 18.1981 29.7921 17.9821 30.4561 17.9821C30.6961 17.9821 30.9108 18.0221 31.1001 18.1021C31.2894 18.1794 31.4494 18.2888 31.5801 18.4301C31.7108 18.5688 31.8094 18.7354 31.8761 18.9301C31.9454 19.1248 31.9801 19.3381 31.9801 19.5701V22.1621H31.5321C31.4388 22.1621 31.3668 22.1488 31.3161 22.1221C31.2654 22.0928 31.2254 22.0354 31.1961 21.9501L31.1081 21.6541C31.0041 21.7474 30.9028 21.8301 30.8041 21.9021C30.7054 21.9714 30.6028 22.0301 30.4961 22.0781C30.3894 22.1261 30.2748 22.1621 30.1521 22.1861C30.0321 22.2128 29.8988 22.2261 29.7521 22.2261C29.5788 22.2261 29.4188 22.2034 29.2721 22.1581C29.1254 22.1101 28.9988 22.0394 28.8921 21.9461C28.7854 21.8528 28.7028 21.7368 28.6441 21.5981C28.5854 21.4594 28.5561 21.2981 28.5561 21.1141C28.5561 21.0101 28.5734 20.9074 28.6081 20.8061C28.6428 20.7021 28.6988 20.6034 28.7761 20.5101C28.8561 20.4168 28.9588 20.3288 29.0841 20.2461C29.2094 20.1634 29.3628 20.0914 29.5441 20.0301C29.7281 19.9688 29.9414 19.9194 30.1841 19.8821C30.4268 19.8421 30.7041 19.8181 31.0161 19.8101V19.5701C31.0161 19.2954 30.9574 19.0928 30.8401 18.9621C30.7228 18.8288 30.5534 18.7621 30.3321 18.7621C30.1721 18.7621 30.0388 18.7808 29.9321 18.8181C29.8281 18.8554 29.7361 18.8981 29.6561 18.9461C29.5761 18.9914 29.5028 19.0328 29.4361 19.0701C29.3721 19.1074 29.3001 19.1261 29.2201 19.1261C29.1508 19.1261 29.0921 19.1088 29.0441 19.0741C28.9961 19.0368 28.9574 18.9941 28.9281 18.9461L28.7521 18.6301ZM34.2239 22.2261C33.8666 22.2261 33.5919 22.1261 33.3999 21.9261C33.2106 21.7234 33.1159 21.4448 33.1159 21.0901V18.7981H32.6959C32.6426 18.7981 32.5973 18.7808 32.5599 18.7461C32.5226 18.7114 32.5039 18.6594 32.5039 18.5901V18.1981L33.1639 18.0901L33.3719 16.9701C33.3853 16.9168 33.4106 16.8754 33.4479 16.8461C33.4853 16.8168 33.5333 16.8021 33.5919 16.8021H34.1039V18.0941H35.1999V18.7981H34.1039V21.0221C34.1039 21.1501 34.1346 21.2501 34.1959 21.3221C34.2599 21.3941 34.3466 21.4301 34.4559 21.4301C34.5173 21.4301 34.5679 21.4234 34.6079 21.4101C34.6506 21.3941 34.6866 21.3781 34.7159 21.3621C34.7479 21.3461 34.7759 21.3314 34.7999 21.3181C34.8239 21.3021 34.8479 21.2941 34.8719 21.2941C34.9013 21.2941 34.9253 21.3021 34.9439 21.3181C34.9626 21.3314 34.9826 21.3528 35.0039 21.3821L35.2999 21.8621C35.1559 21.9821 34.9906 22.0728 34.8039 22.1341C34.6173 22.1954 34.4239 22.2261 34.2239 22.2261ZM38.4452 19.6381C38.4452 19.5101 38.4266 19.3901 38.3892 19.2781C38.3546 19.1634 38.3012 19.0634 38.2292 18.9781C38.1572 18.8928 38.0652 18.8261 37.9532 18.7781C37.8439 18.7274 37.7159 18.7021 37.5692 18.7021C37.2839 18.7021 37.0586 18.7834 36.8932 18.9461C36.7306 19.1088 36.6266 19.3394 36.5812 19.6381H38.4452ZM36.5612 20.2341C36.5772 20.4448 36.6146 20.6274 36.6732 20.7821C36.7319 20.9341 36.8092 21.0608 36.9052 21.1621C37.0012 21.2608 37.1146 21.3354 37.2452 21.3861C37.3786 21.4341 37.5252 21.4581 37.6852 21.4581C37.8452 21.4581 37.9826 21.4394 38.0972 21.4021C38.2146 21.3648 38.3159 21.3234 38.4012 21.2781C38.4892 21.2328 38.5652 21.1914 38.6292 21.1541C38.6959 21.1168 38.7599 21.0981 38.8212 21.0981C38.9039 21.0981 38.9652 21.1288 39.0052 21.1901L39.2892 21.5501C39.1799 21.6781 39.0572 21.7861 38.9212 21.8741C38.7852 21.9594 38.6426 22.0288 38.4932 22.0821C38.3466 22.1328 38.1959 22.1688 38.0412 22.1901C37.8892 22.2114 37.7412 22.2221 37.5972 22.2221C37.3119 22.2221 37.0466 22.1754 36.8012 22.0821C36.5559 21.9861 36.3426 21.8461 36.1612 21.6621C35.9799 21.4754 35.8372 21.2461 35.7332 20.9741C35.6292 20.6994 35.5772 20.3821 35.5772 20.0221C35.5772 19.7421 35.6226 19.4794 35.7132 19.2341C35.8039 18.9861 35.9332 18.7714 36.1012 18.5901C36.2719 18.4061 36.4786 18.2608 36.7212 18.1541C36.9666 18.0474 37.2426 17.9941 37.5492 17.9941C37.8079 17.9941 38.0466 18.0354 38.2652 18.1181C38.4839 18.2008 38.6719 18.3221 38.8292 18.4821C38.9866 18.6394 39.1092 18.8341 39.1972 19.0661C39.2879 19.2954 39.3332 19.5581 39.3332 19.8541C39.3332 20.0034 39.3172 20.1048 39.2852 20.1581C39.2532 20.2088 39.1919 20.2341 39.1012 20.2341H36.5612ZM49.8173 16.3781L48.0213 22.1621H47.0493L45.7853 18.2101C45.7506 18.1141 45.7186 17.9968 45.6893 17.8581C45.6733 17.9248 45.6573 17.9874 45.6413 18.0461C45.6253 18.1048 45.608 18.1594 45.5893 18.2101L44.3133 22.1621H43.3373L41.5453 16.3781H42.4453C42.5386 16.3781 42.616 16.4008 42.6773 16.4461C42.7413 16.4888 42.784 16.5474 42.8053 16.6221L43.7893 20.0821C43.8106 20.1674 43.8306 20.2608 43.8493 20.3621C43.8706 20.4608 43.892 20.5648 43.9133 20.6741C43.9346 20.5621 43.9573 20.4568 43.9813 20.3581C44.008 20.2594 44.036 20.1674 44.0653 20.0821L45.2013 16.6221C45.2226 16.5608 45.264 16.5048 45.3253 16.4541C45.3893 16.4034 45.4666 16.3781 45.5573 16.3781H45.8733C45.9666 16.3781 46.0426 16.4008 46.1013 16.4461C46.16 16.4914 46.204 16.5501 46.2333 16.6221L47.3653 20.0821C47.4213 20.2474 47.472 20.4381 47.5173 20.6541C47.552 20.4434 47.5906 20.2528 47.6333 20.0821L48.6173 16.6221C48.6333 16.5554 48.6733 16.4981 48.7373 16.4501C48.804 16.4021 48.8826 16.3781 48.9733 16.3781H49.8173ZM51.7032 17.9941C52.0072 17.9941 52.2832 18.0434 52.5312 18.1421C52.7818 18.2408 52.9952 18.3808 53.1712 18.5621C53.3498 18.7434 53.4872 18.9648 53.5832 19.2261C53.6792 19.4874 53.7272 19.7794 53.7272 20.1021C53.7272 20.4274 53.6792 20.7208 53.5832 20.9821C53.4872 21.2434 53.3498 21.4661 53.1712 21.6501C52.9952 21.8341 52.7818 21.9754 52.5312 22.0741C52.2832 22.1728 52.0072 22.2221 51.7032 22.2221C51.3965 22.2221 51.1178 22.1728 50.8672 22.0741C50.6165 21.9754 50.4018 21.8341 50.2232 21.6501C50.0472 21.4661 49.9098 21.2434 49.8112 20.9821C49.7152 20.7208 49.6672 20.4274 49.6672 20.1021C49.6672 19.7794 49.7152 19.4874 49.8112 19.2261C49.9098 18.9648 50.0472 18.7434 50.2232 18.5621C50.4018 18.3808 50.6165 18.2408 50.8672 18.1421C51.1178 18.0434 51.3965 17.9941 51.7032 17.9941ZM51.7032 21.4621C52.0445 21.4621 52.2965 21.3474 52.4592 21.1181C52.6245 20.8888 52.7072 20.5528 52.7072 20.1101C52.7072 19.6674 52.6245 19.3301 52.4592 19.0981C52.2965 18.8661 52.0445 18.7501 51.7032 18.7501C51.3565 18.7501 51.0992 18.8674 50.9312 19.1021C50.7658 19.3341 50.6832 19.6701 50.6832 20.1101C50.6832 20.5501 50.7658 20.8861 50.9312 21.1181C51.0992 21.3474 51.3565 21.4621 51.7032 21.4621ZM55.4129 18.7701C55.5409 18.5248 55.6929 18.3328 55.8689 18.1941C56.0449 18.0528 56.2529 17.9821 56.4929 17.9821C56.6823 17.9821 56.8343 18.0234 56.9489 18.1061L56.8849 18.8461C56.8716 18.8941 56.8516 18.9288 56.8249 18.9501C56.8009 18.9688 56.7676 18.9781 56.7249 18.9781C56.6849 18.9781 56.6249 18.9714 56.5449 18.9581C56.4676 18.9448 56.3916 18.9381 56.3169 18.9381C56.2076 18.9381 56.1103 18.9541 56.0249 18.9861C55.9396 19.0181 55.8623 19.0648 55.7929 19.1261C55.7263 19.1848 55.6663 19.2568 55.6129 19.3421C55.5623 19.4274 55.5143 19.5248 55.4689 19.6341V22.1621H54.4809V18.0581H55.0609C55.1623 18.0581 55.2329 18.0768 55.2729 18.1141C55.3129 18.1488 55.3396 18.2128 55.3529 18.3061L55.4129 18.7701ZM58.4533 16.2181V19.6221H58.6373C58.704 19.6221 58.756 19.6141 58.7933 19.5981C58.8333 19.5794 58.8733 19.5434 58.9133 19.4901L59.9333 18.2301C59.976 18.1741 60.0226 18.1314 60.0733 18.1021C60.1266 18.0728 60.1946 18.0581 60.2773 18.0581H61.1813L59.9053 19.5821C59.8146 19.7021 59.716 19.7941 59.6093 19.8581C59.6653 19.8981 59.7146 19.9448 59.7573 19.9981C59.8026 20.0514 59.8453 20.1088 59.8853 20.1701L61.2533 22.1621H60.3613C60.284 22.1621 60.2173 22.1501 60.1613 22.1261C60.1053 22.0994 60.0586 22.0528 60.0213 21.9861L58.9733 20.4301C58.936 20.3688 58.8973 20.3288 58.8573 20.3101C58.8173 20.2914 58.7573 20.2821 58.6773 20.2821H58.4533V22.1621H57.4653V16.2181H58.4533ZM64.2427 18.8581C64.2161 18.9008 64.1881 18.9314 64.1587 18.9501C64.1294 18.9661 64.0921 18.9741 64.0467 18.9741C63.9987 18.9741 63.9467 18.9608 63.8907 18.9341C63.8374 18.9074 63.7747 18.8781 63.7027 18.8461C63.6307 18.8114 63.5481 18.7808 63.4547 18.7541C63.3641 18.7274 63.2561 18.7141 63.1307 18.7141C62.9361 18.7141 62.7827 18.7554 62.6707 18.8381C62.5614 18.9208 62.5067 19.0288 62.5067 19.1621C62.5067 19.2501 62.5347 19.3248 62.5907 19.3861C62.6494 19.4448 62.7254 19.4968 62.8187 19.5421C62.9147 19.5874 63.0227 19.6288 63.1427 19.6661C63.2627 19.7008 63.3841 19.7394 63.5067 19.7821C63.6321 19.8248 63.7547 19.8741 63.8747 19.9301C63.9947 19.9834 64.1014 20.0528 64.1947 20.1381C64.2907 20.2208 64.3667 20.3208 64.4227 20.4381C64.4814 20.5554 64.5107 20.6968 64.5107 20.8621C64.5107 21.0594 64.4747 21.2421 64.4027 21.4101C64.3334 21.5754 64.2294 21.7194 64.0907 21.8421C63.9521 21.9621 63.7801 22.0568 63.5747 22.1261C63.3721 22.1928 63.1374 22.2261 62.8707 22.2261C62.7294 22.2261 62.5907 22.2128 62.4547 22.1861C62.3214 22.1621 62.1921 22.1274 62.0667 22.0821C61.9441 22.0368 61.8294 21.9834 61.7227 21.9221C61.6187 21.8608 61.5267 21.7941 61.4467 21.7221L61.6747 21.3461C61.7041 21.3008 61.7387 21.2661 61.7787 21.2421C61.8187 21.2181 61.8694 21.2061 61.9307 21.2061C61.9921 21.2061 62.0494 21.2234 62.1027 21.2581C62.1587 21.2928 62.2227 21.3301 62.2947 21.3701C62.3667 21.4101 62.4507 21.4474 62.5467 21.4821C62.6454 21.5168 62.7694 21.5341 62.9187 21.5341C63.0361 21.5341 63.1361 21.5208 63.2187 21.4941C63.3041 21.4648 63.3734 21.4274 63.4267 21.3821C63.4827 21.3368 63.5227 21.2848 63.5467 21.2261C63.5734 21.1648 63.5867 21.1021 63.5867 21.0381C63.5867 20.9421 63.5574 20.8634 63.4987 20.8021C63.4427 20.7408 63.3667 20.6874 63.2707 20.6421C63.1774 20.5968 63.0694 20.5568 62.9467 20.5221C62.8267 20.4848 62.7027 20.4448 62.5747 20.4021C62.4494 20.3594 62.3254 20.3101 62.2027 20.2541C62.0827 20.1954 61.9747 20.1221 61.8787 20.0341C61.7854 19.9461 61.7094 19.8381 61.6507 19.7101C61.5947 19.5821 61.5667 19.4274 61.5667 19.2461C61.5667 19.0781 61.6001 18.9181 61.6667 18.7661C61.7334 18.6141 61.8307 18.4821 61.9587 18.3701C62.0894 18.2554 62.2507 18.1648 62.4427 18.0981C62.6374 18.0288 62.8614 17.9941 63.1147 17.9941C63.3974 17.9941 63.6547 18.0408 63.8867 18.1341C64.1187 18.2274 64.3121 18.3501 64.4667 18.5021L64.2427 18.8581ZM66.2424 21.0981C66.3544 21.2341 66.4757 21.3301 66.6064 21.3861C66.7397 21.4421 66.8837 21.4701 67.0384 21.4701C67.1877 21.4701 67.3224 21.4421 67.4424 21.3861C67.5624 21.3301 67.6637 21.2448 67.7464 21.1301C67.8317 21.0154 67.897 20.8714 67.9424 20.6981C67.9877 20.5221 68.0104 20.3154 68.0104 20.0781C68.0104 19.8381 67.9904 19.6354 67.9504 19.4701C67.913 19.3021 67.8584 19.1661 67.7864 19.0621C67.7144 18.9581 67.6264 18.8821 67.5224 18.8341C67.421 18.7861 67.305 18.7621 67.1744 18.7621C66.969 18.7621 66.7944 18.8061 66.6504 18.8941C66.5064 18.9794 66.3704 19.1008 66.2424 19.2581V21.0981ZM66.1904 18.6181C66.3584 18.4288 66.549 18.2754 66.7624 18.1581C66.9757 18.0408 67.2264 17.9821 67.5144 17.9821C67.7384 17.9821 67.9424 18.0288 68.1264 18.1221C68.313 18.2154 68.473 18.3514 68.6064 18.5301C68.7424 18.7061 68.8464 18.9248 68.9184 19.1861C68.993 19.4448 69.0304 19.7421 69.0304 20.0781C69.0304 20.3848 68.989 20.6688 68.9064 20.9301C68.8237 21.1914 68.705 21.4181 68.5504 21.6101C68.3984 21.8021 68.213 21.9528 67.9944 22.0621C67.7784 22.1688 67.5357 22.2221 67.2664 22.2221C67.037 22.2221 66.841 22.1874 66.6784 22.1181C66.5157 22.0461 66.3704 21.9474 66.2424 21.8221V23.5021H65.2544V18.0581H65.8584C65.9864 18.0581 66.0704 18.1181 66.1104 18.2381L66.1904 18.6181ZM71.9692 20.4101C71.6839 20.4234 71.4439 20.4488 71.2492 20.4861C71.0546 20.5208 70.8986 20.5661 70.7812 20.6221C70.6639 20.6781 70.5799 20.7434 70.5292 20.8181C70.4786 20.8928 70.4532 20.9741 70.4532 21.0621C70.4532 21.2354 70.5039 21.3594 70.6052 21.4341C70.7092 21.5088 70.8439 21.5461 71.0092 21.5461C71.2119 21.5461 71.3866 21.5101 71.5332 21.4381C71.6826 21.3634 71.8279 21.2514 71.9692 21.1021V20.4101ZM69.7052 18.6301C70.1772 18.1981 70.7452 17.9821 71.4092 17.9821C71.6492 17.9821 71.8639 18.0221 72.0532 18.1021C72.2426 18.1794 72.4026 18.2888 72.5332 18.4301C72.6639 18.5688 72.7626 18.7354 72.8292 18.9301C72.8986 19.1248 72.9332 19.3381 72.9332 19.5701V22.1621H72.4852C72.3919 22.1621 72.3199 22.1488 72.2692 22.1221C72.2186 22.0928 72.1786 22.0354 72.1492 21.9501L72.0612 21.6541C71.9572 21.7474 71.8559 21.8301 71.7572 21.9021C71.6586 21.9714 71.5559 22.0301 71.4492 22.0781C71.3426 22.1261 71.2279 22.1621 71.1052 22.1861C70.9852 22.2128 70.8519 22.2261 70.7052 22.2261C70.5319 22.2261 70.3719 22.2034 70.2252 22.1581C70.0786 22.1101 69.9519 22.0394 69.8452 21.9461C69.7386 21.8528 69.6559 21.7368 69.5972 21.5981C69.5386 21.4594 69.5092 21.2981 69.5092 21.1141C69.5092 21.0101 69.5266 20.9074 69.5612 20.8061C69.5959 20.7021 69.6519 20.6034 69.7292 20.5101C69.8092 20.4168 69.9119 20.3288 70.0372 20.2461C70.1626 20.1634 70.3159 20.0914 70.4972 20.0301C70.6812 19.9688 70.8946 19.9194 71.1372 19.8821C71.3799 19.8421 71.6572 19.8181 71.9692 19.8101V19.5701C71.9692 19.2954 71.9106 19.0928 71.7932 18.9621C71.6759 18.8288 71.5066 18.7621 71.2852 18.7621C71.1252 18.7621 70.9919 18.7808 70.8852 18.8181C70.7812 18.8554 70.6892 18.8981 70.6092 18.9461C70.5292 18.9914 70.4559 19.0328 70.3892 19.0701C70.3252 19.1074 70.2532 19.1261 70.1732 19.1261C70.1039 19.1261 70.0452 19.1088 69.9972 19.0741C69.9492 19.0368 69.9106 18.9941 69.8812 18.9461L69.7052 18.6301ZM76.8037 18.9261C76.7744 18.9634 76.7451 18.9928 76.7157 19.0141C76.6891 19.0354 76.6491 19.0461 76.5957 19.0461C76.5451 19.0461 76.4957 19.0314 76.4477 19.0021C76.3997 18.9701 76.3424 18.9354 76.2757 18.8981C76.2091 18.8581 76.1291 18.8234 76.0357 18.7941C75.9451 18.7621 75.8317 18.7461 75.6957 18.7461C75.5224 18.7461 75.3704 18.7781 75.2397 18.8421C75.1091 18.9034 74.9997 18.9928 74.9117 19.1101C74.8264 19.2274 74.7624 19.3701 74.7197 19.5381C74.6771 19.7034 74.6557 19.8914 74.6557 20.1021C74.6557 20.3208 74.6784 20.5154 74.7237 20.6861C74.7717 20.8568 74.8397 21.0008 74.9277 21.1181C75.0157 21.2328 75.1224 21.3208 75.2477 21.3821C75.3731 21.4408 75.5144 21.4701 75.6717 21.4701C75.8291 21.4701 75.9557 21.4514 76.0517 21.4141C76.1504 21.3741 76.2331 21.3314 76.2997 21.2861C76.3664 21.2381 76.4237 21.1954 76.4717 21.1581C76.5224 21.1181 76.5784 21.0981 76.6397 21.0981C76.7197 21.0981 76.7797 21.1288 76.8197 21.1901L77.1037 21.5501C76.9944 21.6781 76.8757 21.7861 76.7477 21.8741C76.6197 21.9594 76.4864 22.0288 76.3477 22.0821C76.2117 22.1328 76.0704 22.1688 75.9237 22.1901C75.7797 22.2114 75.6357 22.2221 75.4917 22.2221C75.2384 22.2221 74.9997 22.1754 74.7757 22.0821C74.5517 21.9861 74.3557 21.8474 74.1877 21.6661C74.0197 21.4848 73.8864 21.2634 73.7877 21.0021C73.6917 20.7381 73.6437 20.4381 73.6437 20.1021C73.6437 19.8008 73.6864 19.5221 73.7717 19.2661C73.8597 19.0074 73.9877 18.7848 74.1557 18.5981C74.3237 18.4088 74.5317 18.2608 74.7797 18.1541C75.0277 18.0474 75.3131 17.9941 75.6357 17.9941C75.9424 17.9941 76.2104 18.0434 76.4397 18.1421C76.6717 18.2408 76.8797 18.3821 77.0637 18.5661L76.8037 18.9261ZM80.2968 19.6381C80.2968 19.5101 80.2781 19.3901 80.2408 19.2781C80.2061 19.1634 80.1528 19.0634 80.0808 18.9781C80.0088 18.8928 79.9168 18.8261 79.8048 18.7781C79.6955 18.7274 79.5675 18.7021 79.4208 18.7021C79.1355 18.7021 78.9101 18.7834 78.7448 18.9461C78.5821 19.1088 78.4781 19.3394 78.4328 19.6381H80.2968ZM78.4128 20.2341C78.4288 20.4448 78.4661 20.6274 78.5248 20.7821C78.5835 20.9341 78.6608 21.0608 78.7568 21.1621C78.8528 21.2608 78.9661 21.3354 79.0968 21.3861C79.2301 21.4341 79.3768 21.4581 79.5368 21.4581C79.6968 21.4581 79.8341 21.4394 79.9488 21.4021C80.0661 21.3648 80.1675 21.3234 80.2528 21.2781C80.3408 21.2328 80.4168 21.1914 80.4808 21.1541C80.5475 21.1168 80.6115 21.0981 80.6728 21.0981C80.7555 21.0981 80.8168 21.1288 80.8568 21.1901L81.1408 21.5501C81.0315 21.6781 80.9088 21.7861 80.7728 21.8741C80.6368 21.9594 80.4941 22.0288 80.3448 22.0821C80.1981 22.1328 80.0475 22.1688 79.8928 22.1901C79.7408 22.2114 79.5928 22.2221 79.4488 22.2221C79.1635 22.2221 78.8981 22.1754 78.6528 22.0821C78.4075 21.9861 78.1941 21.8461 78.0128 21.6621C77.8315 21.4754 77.6888 21.2461 77.5848 20.9741C77.4808 20.6994 77.4288 20.3821 77.4288 20.0221C77.4288 19.7421 77.4741 19.4794 77.5648 19.2341C77.6555 18.9861 77.7848 18.7714 77.9528 18.5901C78.1235 18.4061 78.3301 18.2608 78.5728 18.1541C78.8181 18.0474 79.0941 17.9941 79.4008 17.9941C79.6595 17.9941 79.8981 18.0354 80.1168 18.1181C80.3355 18.2008 80.5235 18.3221 80.6808 18.4821C80.8381 18.6394 80.9608 18.8341 81.0488 19.0661C81.1395 19.2954 81.1848 19.5581 81.1848 19.8541C81.1848 20.0034 81.1688 20.1048 81.1368 20.1581C81.1048 20.2088 81.0435 20.2341 80.9528 20.2341H78.4128ZM88.7955 19.2621V21.6021C88.5022 21.8181 88.1889 21.9768 87.8555 22.0781C87.5249 22.1768 87.1702 22.2261 86.7915 22.2261C86.3195 22.2261 85.8915 22.1528 85.5075 22.0061C85.1262 21.8594 84.7995 21.6554 84.5275 21.3941C84.2582 21.1328 84.0502 20.8208 83.9035 20.4581C83.7569 20.0954 83.6835 19.6994 83.6835 19.2701C83.6835 18.8354 83.7542 18.4368 83.8955 18.0741C84.0369 17.7114 84.2369 17.3994 84.4955 17.1381C84.7569 16.8768 85.0729 16.6741 85.4435 16.5301C85.8142 16.3861 86.2302 16.3141 86.6915 16.3141C86.9262 16.3141 87.1449 16.3328 87.3475 16.3701C87.5529 16.4074 87.7422 16.4594 87.9155 16.5261C88.0915 16.5901 88.2515 16.6688 88.3955 16.7621C88.5395 16.8554 88.6715 16.9581 88.7915 17.0701L88.4835 17.5581C88.4355 17.6354 88.3729 17.6834 88.2955 17.7021C88.2182 17.7181 88.1342 17.6981 88.0435 17.6421C87.9555 17.5914 87.8675 17.5408 87.7795 17.4901C87.6915 17.4394 87.5929 17.3954 87.4835 17.3581C87.3769 17.3208 87.2555 17.2901 87.1195 17.2661C86.9862 17.2421 86.8315 17.2301 86.6555 17.2301C86.3702 17.2301 86.1115 17.2781 85.8795 17.3741C85.6502 17.4701 85.4542 17.6074 85.2915 17.7861C85.1289 17.9648 85.0035 18.1794 84.9155 18.4301C84.8275 18.6808 84.7835 18.9608 84.7835 19.2701C84.7835 19.6008 84.8302 19.8968 84.9235 20.1581C85.0195 20.4168 85.1529 20.6368 85.3235 20.8181C85.4969 20.9968 85.7049 21.1341 85.9475 21.2301C86.1902 21.3234 86.4609 21.3701 86.7595 21.3701C86.9729 21.3701 87.1635 21.3474 87.3315 21.3021C87.4995 21.2568 87.6635 21.1954 87.8235 21.1181V20.0701H87.0955C87.0262 20.0701 86.9715 20.0514 86.9315 20.0141C86.8942 19.9741 86.8755 19.9261 86.8755 19.8701V19.2621H88.7955ZM90.5457 18.7701C90.6737 18.5248 90.8257 18.3328 91.0017 18.1941C91.1777 18.0528 91.3857 17.9821 91.6257 17.9821C91.8151 17.9821 91.9671 18.0234 92.0817 18.1061L92.0177 18.8461C92.0044 18.8941 91.9844 18.9288 91.9577 18.9501C91.9337 18.9688 91.9004 18.9781 91.8577 18.9781C91.8177 18.9781 91.7577 18.9714 91.6777 18.9581C91.6004 18.9448 91.5244 18.9381 91.4497 18.9381C91.3404 18.9381 91.2431 18.9541 91.1577 18.9861C91.0724 19.0181 90.9951 19.0648 90.9257 19.1261C90.8591 19.1848 90.7991 19.2568 90.7457 19.3421C90.6951 19.4274 90.6471 19.5248 90.6017 19.6341V22.1621H89.6137V18.0581H90.1937C90.2951 18.0581 90.3657 18.0768 90.4057 18.1141C90.4457 18.1488 90.4724 18.2128 90.4857 18.3061L90.5457 18.7701ZM94.2969 17.9941C94.6009 17.9941 94.8769 18.0434 95.1249 18.1421C95.3756 18.2408 95.5889 18.3808 95.7649 18.5621C95.9436 18.7434 96.0809 18.9648 96.1769 19.2261C96.2729 19.4874 96.3209 19.7794 96.3209 20.1021C96.3209 20.4274 96.2729 20.7208 96.1769 20.9821C96.0809 21.2434 95.9436 21.4661 95.7649 21.6501C95.5889 21.8341 95.3756 21.9754 95.1249 22.0741C94.8769 22.1728 94.6009 22.2221 94.2969 22.2221C93.9903 22.2221 93.7116 22.1728 93.4609 22.0741C93.2103 21.9754 92.9956 21.8341 92.8169 21.6501C92.6409 21.4661 92.5036 21.2434 92.4049 20.9821C92.3089 20.7208 92.2609 20.4274 92.2609 20.1021C92.2609 19.7794 92.3089 19.4874 92.4049 19.2261C92.5036 18.9648 92.6409 18.7434 92.8169 18.5621C92.9956 18.3808 93.2103 18.2408 93.4609 18.1421C93.7116 18.0434 93.9903 17.9941 94.2969 17.9941ZM94.2969 21.4621C94.6383 21.4621 94.8903 21.3474 95.0529 21.1181C95.2183 20.8888 95.3009 20.5528 95.3009 20.1101C95.3009 19.6674 95.2183 19.3301 95.0529 19.0981C94.8903 18.8661 94.6383 18.7501 94.2969 18.7501C93.9503 18.7501 93.6929 18.8674 93.5249 19.1021C93.3596 19.3341 93.2769 19.6701 93.2769 20.1101C93.2769 20.5501 93.3596 20.8861 93.5249 21.1181C93.6929 21.3474 93.9503 21.4621 94.2969 21.4621ZM100.611 18.0581V22.1621H100.007C99.876 22.1621 99.7933 22.1021 99.7587 21.9821L99.6907 21.6541C99.5227 21.8248 99.3373 21.9634 99.1347 22.0701C98.932 22.1741 98.6933 22.2261 98.4187 22.2261C98.1947 22.2261 97.996 22.1888 97.8227 22.1141C97.652 22.0368 97.508 21.9288 97.3907 21.7901C97.2733 21.6514 97.184 21.4874 97.1227 21.2981C97.064 21.1061 97.0347 20.8954 97.0347 20.6661V18.0581H98.0227V20.6661C98.0227 20.9168 98.08 21.1114 98.1947 21.2501C98.312 21.3861 98.4867 21.4541 98.7187 21.4541C98.8893 21.4541 99.0493 21.4168 99.1987 21.3421C99.348 21.2648 99.4893 21.1594 99.6227 21.0261V18.0581H100.611ZM102.578 21.0981C102.69 21.2341 102.812 21.3301 102.942 21.3861C103.076 21.4421 103.22 21.4701 103.374 21.4701C103.524 21.4701 103.658 21.4421 103.778 21.3861C103.898 21.3301 104 21.2448 104.082 21.1301C104.168 21.0154 104.233 20.8714 104.278 20.6981C104.324 20.5221 104.346 20.3154 104.346 20.0781C104.346 19.8381 104.326 19.6354 104.286 19.4701C104.249 19.3021 104.194 19.1661 104.122 19.0621C104.05 18.9581 103.962 18.8821 103.858 18.8341C103.757 18.7861 103.641 18.7621 103.51 18.7621C103.305 18.7621 103.13 18.8061 102.986 18.8941C102.842 18.9794 102.706 19.1008 102.578 19.2581V21.0981ZM102.526 18.6181C102.694 18.4288 102.885 18.2754 103.098 18.1581C103.312 18.0408 103.562 17.9821 103.85 17.9821C104.074 17.9821 104.278 18.0288 104.462 18.1221C104.649 18.2154 104.809 18.3514 104.942 18.5301C105.078 18.7061 105.182 18.9248 105.254 19.1861C105.329 19.4448 105.366 19.7421 105.366 20.0781C105.366 20.3848 105.325 20.6688 105.242 20.9301C105.16 21.1914 105.041 21.4181 104.886 21.6101C104.734 21.8021 104.549 21.9528 104.33 22.0621C104.114 22.1688 103.872 22.2221 103.602 22.2221C103.373 22.2221 103.177 22.1874 103.014 22.1181C102.852 22.0461 102.706 21.9474 102.578 21.8221V23.5021H101.59V18.0581H102.194C102.322 18.0581 102.406 18.1181 102.446 18.2381L102.526 18.6181Z" fill="#1B1A21"/>
<g filter="url(#filter1_d_19_11933)">
<path fill-rule="evenodd" clip-rule="evenodd" d="M155.012 86.7466C155.172 86.8907 155.282 86.9942 155.623 87.3183C155.958 87.6358 156.119 87.7858 156.267 87.9113C156.329 87.9632 156.381 88.1021 156.402 88.3084C156.419 88.4782 156.413 88.6676 156.392 88.8501C156.385 88.9132 156.378 88.9588 156.374 88.9805C156.33 89.2239 156.515 89.4488 156.763 89.4513C156.986 89.4536 157.157 89.4564 157.612 89.4645C157.725 89.4665 157.725 89.4665 157.839 89.4685C159.074 89.4897 159.705 89.4839 160.157 89.427C160.641 89.3661 161.139 88.7819 161.57 88.0487C161.935 88.6974 162.441 89.3309 162.952 89.4133C163.115 89.4392 163.311 89.4473 163.539 89.442C163.709 89.4381 163.888 89.4269 164.07 89.4107C164.206 89.3985 164.315 89.3862 164.38 89.3778C164.621 89.3466 164.778 89.1101 164.714 88.8763C164.7 88.8258 164.678 88.7332 164.655 88.6165C164.629 88.4813 164.61 88.3492 164.602 88.2289C164.596 88.1527 164.595 88.0836 164.599 88.0239C164.605 87.9198 164.607 87.8616 164.61 87.7269C164.611 87.6768 164.611 87.6768 164.612 87.633C164.618 87.4894 164.637 87.3531 164.699 87.0559C164.726 86.9269 164.856 86.6801 165.061 86.3746C165.122 86.2836 165.188 86.1886 165.26 86.0905C165.395 85.9045 165.541 85.7165 165.687 85.5367C165.774 85.429 165.841 85.3484 165.879 85.3046C166.194 84.853 166.53 84.1136 166.654 83.6813C166.772 83.2659 166.867 82.5008 166.926 81.7487C166.958 81.3221 166.969 80.9782 166.969 80.4387C166.969 80.3441 166.969 80.3441 166.97 80.266C166.97 80.138 166.97 80.0896 166.969 80.0298C166.968 79.8663 166.964 79.7043 166.948 79.2912C166.914 78.4253 166.439 77.8655 165.74 77.7575C165.145 77.6657 164.421 78.1598 164.421 78.1598C164.421 78.1598 164.26 77.6034 164.151 77.4316C163.974 77.1556 163.519 76.8039 163.171 76.7354C162.813 76.6659 162.388 76.6736 161.998 76.7425C161.657 76.8036 161.317 77.1084 161.12 77.4372C160.979 77.6717 161.112 77.4248 160.971 77.1821C160.776 76.848 160.322 76.5487 159.89 76.4604C159.524 76.3847 159.105 76.4135 158.722 76.5274C158.229 76.6746 158.151 77.0496 158.131 76.9422C158.066 76.5823 158.06 76.6059 158.019 76.3492C157.867 75.3964 157.697 74.7372 157.44 74.1619C157.455 74.195 157.346 73.9468 157.306 73.8612C157.237 73.713 157.168 73.5789 157.093 73.4499C156.86 73.0523 156.594 72.7546 156.26 72.5854C155.679 72.2914 154.809 72.4345 154.396 72.916C153.986 73.3945 153.918 74.1946 154.021 75.1847C154.061 75.5691 154.199 76.2709 154.324 76.7896C154.368 76.9697 154.407 77.1339 154.478 77.4372C154.491 77.4888 154.491 77.4888 154.503 77.5404C154.558 77.77 154.606 77.9588 154.664 78.1661C154.658 78.1445 154.767 78.5323 154.79 78.6181C154.798 78.6467 154.798 78.6467 154.806 78.6755C154.849 78.8392 154.892 79.0156 154.958 79.3101C154.994 79.472 155.03 79.645 155.064 79.8284C155.159 80.3284 155.159 80.2243 155.068 80.1177C155.006 80.044 154.946 79.9771 154.889 79.9154C154.783 79.8008 154.686 79.706 154.593 79.6304C153.918 79.0781 153.504 78.834 152.936 78.7804C152.005 78.6909 151.12 79.3489 150.987 80.2371C150.906 80.7816 150.932 81.0323 151.184 81.5135C151.323 81.7735 151.557 82.0875 151.995 82.6281C152.021 82.6611 152.021 82.6611 152.048 82.6941C152.585 83.3559 152.644 83.4294 152.771 83.6144C153.117 84.1153 153.957 85.5535 154.11 85.7466L155.012 86.7466Z" fill="black"/>
<path fill-rule="evenodd" clip-rule="evenodd" d="M152.668 82.1914C152.642 82.1587 152.642 82.1587 152.615 82.1261C152.214 81.6301 151.993 81.3352 151.89 81.1408C151.727 80.8301 151.718 80.7459 151.777 80.3556C151.846 79.8953 152.343 79.5254 152.861 79.5751C153.219 79.6089 153.532 79.7936 154.088 80.2487C154.148 80.2978 154.221 80.3683 154.304 80.458C154.353 80.5111 154.405 80.57 154.461 80.6359C154.546 80.735 154.831 81.0835 154.789 81.0328C154.851 81.1072 154.895 81.1648 154.945 81.2354C155.046 81.3784 155.102 81.4578 155.178 81.5595C155.142 81.5118 155.407 81.8771 155.463 81.9305C155.759 82.2135 156.189 81.9752 156.162 81.598C156.157 81.5351 156.142 81.467 156.111 81.3483C155.989 80.4765 155.946 80.1966 155.849 79.6803C155.813 79.4885 155.775 79.3068 155.737 79.1352C155.668 78.8313 155.624 78.6456 155.577 78.4709C155.569 78.44 155.569 78.44 155.561 78.4094C155.536 78.3191 155.425 77.9255 155.433 77.9519C155.378 77.7553 155.332 77.5754 155.279 77.3545C155.267 77.3042 155.267 77.3042 155.255 77.2535C155.184 76.9518 155.145 76.7834 155.1 76.6009C154.983 76.1159 154.85 75.4439 154.815 75.1028C154.735 74.3321 154.791 73.683 155.003 73.4354C155.168 73.2421 155.637 73.165 155.899 73.2977C156.071 73.3845 156.242 73.5758 156.404 73.853C156.465 73.9579 156.523 74.0704 156.582 74.1973C156.618 74.2742 156.723 74.5149 156.711 74.4883C156.935 74.9884 157.089 75.5853 157.231 76.4748C157.273 76.7384 157.325 77.0369 157.391 77.4022C157.411 77.5106 157.411 77.5106 157.431 77.6184C157.751 79.3587 157.728 79.2268 157.733 79.3656C157.749 79.872 158.497 79.8838 158.53 79.3783C158.54 79.218 158.536 79.0748 158.518 78.6637C158.515 78.6056 158.515 78.6056 158.513 78.5476C158.497 78.1689 158.497 77.951 158.52 77.8271C158.561 77.6013 158.763 77.3482 158.95 77.2924C159.212 77.2145 159.5 77.1948 159.73 77.2424C159.95 77.2874 160.207 77.457 160.281 77.5836C160.37 77.7368 160.446 77.9703 160.505 78.2596C160.552 78.4932 160.584 78.7438 160.607 79.0112C160.614 79.0944 160.619 79.1587 160.626 79.2651C160.629 79.3096 160.629 79.3096 160.632 79.3463C160.634 79.3648 160.634 79.3648 160.638 79.3939C160.641 79.4143 160.641 79.4143 160.656 79.466C160.664 79.6126 160.664 79.6126 161.253 79.667C161.429 79.4544 161.429 79.4544 161.424 79.4171C161.453 79.2911 161.471 79.1507 161.496 78.887C161.512 78.7155 161.52 78.6312 161.529 78.5438C161.569 78.1818 161.618 77.9518 161.679 77.8508C161.754 77.725 162.019 77.5498 162.138 77.5285C162.437 77.4757 162.765 77.4698 163.018 77.5189C163.132 77.5415 163.412 77.7575 163.478 77.8608C163.614 78.0753 163.746 78.7668 163.821 79.4529C163.809 79.4979 163.809 79.4979 163.992 79.759C164.62 79.6873 164.62 79.6873 164.602 79.5739C164.619 79.5335 164.632 79.4867 164.651 79.4141C164.696 79.2442 164.725 79.1455 164.77 79.0349C164.8 78.9584 164.833 78.893 164.866 78.8409C164.994 78.6388 165.327 78.5015 165.618 78.5465C165.932 78.5949 166.131 78.8303 166.15 79.3223C166.166 79.7271 166.17 79.8828 166.171 80.0355C166.172 80.0919 166.172 80.1371 166.172 80.2644C166.171 80.3431 166.171 80.3431 166.171 80.4389C166.171 80.9592 166.16 81.2834 166.13 81.6883C166.076 82.3835 165.985 83.1173 165.887 83.4624C165.786 83.8142 165.486 84.4743 165.248 84.8176C165.231 84.8339 165.159 84.9203 165.067 85.0344C164.913 85.2242 164.759 85.4228 164.615 85.621C164.537 85.7271 164.465 85.8305 164.398 85.9306C164.139 86.3177 163.972 86.6338 163.918 86.8929C163.848 87.2296 163.822 87.4082 163.815 87.6019C163.813 87.6567 163.813 87.6567 163.812 87.7099C163.809 87.8355 163.807 87.8862 163.802 87.9781C163.796 88.0746 163.798 88.1773 163.806 88.2858C163.817 88.4411 163.806 88.6534 163.806 88.6534C163.806 88.6534 163.671 88.6408 163.521 88.6443C163.337 88.6485 163.184 88.6423 163.079 88.6254C162.927 88.6009 162.516 88.0865 162.305 87.6857C161.983 87.0722 161.203 87.102 160.882 87.6437C160.594 88.1352 160.18 88.6198 160.058 88.6352C159.659 88.6854 159.042 88.6911 157.853 88.6706C157.739 88.6687 157.739 88.6687 157.626 88.6666C157.169 88.6585 157.187 88.7356 157.196 88.6534C157.223 88.419 157.22 88.4629 157.196 88.2285C157.157 87.8355 157.035 87.515 156.783 87.3021C156.652 87.191 156.495 87.0459 156.181 86.7475C155.822 86.4066 155.71 86.3013 155.572 86.1795L154.719 85.2316C154.625 85.1119 153.804 83.7057 153.429 83.1614C153.283 82.95 153.228 82.8814 152.668 82.1914ZM162.787 82.1951V85.8761C162.787 86.4082 163.585 86.4082 163.585 85.8761V82.1951C163.585 81.663 162.787 81.663 162.787 82.1951ZM160.625 82.1949L160.642 85.8908C160.644 86.4229 161.443 86.4192 161.44 85.8871L161.423 82.1912C161.421 81.6591 160.622 81.6628 160.625 82.1949ZM159.338 85.8697L159.316 82.2238C159.313 81.6917 158.515 81.6966 158.518 82.2287L158.54 85.8746C158.544 86.4067 159.342 86.4018 159.338 85.8697Z" fill="white"/>
</g>
</g>
<defs>
<filter id="filter0_d_19_11933" x="0.135135" y="0.567568" width="183.73" height="99.7297" filterUnits="userSpaceOnUse" color-interpolation-filters="sRGB">
<feFlood flood-opacity="0" result="BackgroundImageFix"/>
<feColorMatrix in="SourceAlpha" type="matrix" values="0 0 0 0 0 0 0 0 0 0 0 0 0 0 0 0 0 0 127 0" result="hardAlpha"/>
<feOffset dy="2.43243"/>
<feGaussianBlur stdDeviation="2.43243"/>
<feComposite in2="hardAlpha" operator="out"/>
<feColorMatrix type="matrix" values="0 0 0 0 0 0 0 0 0 0 0 0 0 0 0 0 0 0 0.1 0"/>
<feBlend mode="normal" in2="BackgroundImageFix" result="effect1_dropShadow_19_11933"/>
<feBlend mode="normal" in="SourceGraphic" in2="effect1_dropShadow_19_11933" result="shape"/>
</filter>
<filter id="filter1_d_19_11933" x="148.818" y="71.3689" width="20.2804" height="21.3034" filterUnits="userSpaceOnUse" color-interpolation-filters="sRGB">
<feFlood flood-opacity="0" result="BackgroundImageFix"/>
<feColorMatrix in="SourceAlpha" type="matrix" values="0 0 0 0 0 0 0 0 0 0 0 0 0 0 0 0 0 0 127 0" result="hardAlpha"/>
<feOffset dy="1.06419"/>
<feGaussianBlur stdDeviation="1.06419"/>
<feColorMatrix type="matrix" values="0 0 0 0 0 0 0 0 0 0 0 0 0 0 0 0 0 0 0.298656 0"/>
<feBlend mode="normal" in2="BackgroundImageFix" result="effect1_dropShadow_19_11933"/>
<feBlend mode="normal" in="SourceGraphic" in2="effect1_dropShadow_19_11933" result="shape"/>
</filter>
</defs>
</svg>
