<svg width="1450" height="1136" viewBox="0 0 1450 1136" fill="none" xmlns="http://www.w3.org/2000/svg">
<g clip-path="url(#clip0_424_15523)">
<g opacity="0.8">
<mask id="mask0_424_15523" style="mask-type:alpha" maskUnits="userSpaceOnUse" x="357" y="337" width="925" height="675">
<path opacity="0.66" d="M840.073 365.205C725.208 321.288 667.616 325.673 498.619 410.394C412.03 453.764 328.375 506.017 367.184 555.27C404.798 603.518 459.621 630.409 514.396 665.133C584.319 709.688 624.371 766.861 658.181 831.424C769.822 1041.57 898.603 1020.96 960.707 995.734C1080.74 947.293 1028.31 857.078 1039.59 803.368C1053.68 739.488 1155.98 683.126 1211.49 629.045C1446.09 402.327 1028.98 438.21 840.073 365.205Z" fill="white"/>
</mask>
<g mask="url(#mask0_424_15523)">
<ellipse cx="2.86334" cy="2.87702" rx="2.86334" ry="2.87702" transform="matrix(0.0675354 -0.997819 -0.997592 -0.0678577 1157.63 819.312)" fill="#A6A0F9"/>
<ellipse cx="2.86334" cy="2.87693" rx="2.86334" ry="2.87693" transform="matrix(0.0675392 -0.997819 -0.997592 -0.067854 1199.46 880.152)" fill="#A6A0F9"/>
<ellipse cx="2.86335" cy="2.87698" rx="2.86335" ry="2.87698" transform="matrix(0.0675379 -0.997819 -0.997592 -0.0678552 1089.38 741.417)" fill="#A6A0F9"/>
<ellipse cx="2.86334" cy="2.87698" rx="2.86334" ry="2.87698" transform="matrix(0.0675375 -0.997819 -0.997592 -0.0678557 1036.08 759.173)" fill="#A6A0F9"/>
<ellipse cx="2.86333" cy="2.87702" rx="2.86333" ry="2.87702" transform="matrix(0.0675352 -0.997819 -0.997592 -0.0678579 1067 755.164)" fill="#A6A0F9"/>
<ellipse cx="2.86437" cy="2.87594" rx="2.86437" ry="2.87594" transform="matrix(0.0266442 0.999838 0.999483 -0.0254892 1242.11 1001.19)" fill="#A6A0F9"/>
<ellipse cx="2.86437" cy="2.87601" rx="2.86437" ry="2.87601" transform="matrix(0.0266501 0.999838 0.999483 -0.0254834 1244.07 960.008)" fill="#A6A0F9"/>
<ellipse cx="2.86437" cy="2.87597" rx="2.86437" ry="2.87597" transform="matrix(0.0266471 0.999838 0.999483 -0.0254863 1231.17 934.442)" fill="#A6A0F9"/>
<ellipse cx="2.86437" cy="2.87597" rx="2.86437" ry="2.87597" transform="matrix(0.0266471 0.999838 0.999483 -0.0254863 1211.99 902.945)" fill="#A6A0F9"/>
<ellipse cx="2.86437" cy="2.8759" rx="2.86437" ry="2.8759" transform="matrix(0.0266412 0.999838 0.999483 -0.0254921 1181.95 923.521)" fill="#A6A0F9"/>
<ellipse cx="2.86437" cy="2.87594" rx="2.86437" ry="2.87594" transform="matrix(0.0266443 0.999838 0.999483 -0.0254891 1187.22 891.394)" fill="#A6A0F9"/>
<ellipse cx="2.86437" cy="2.8759" rx="2.86437" ry="2.8759" transform="matrix(0.0266413 0.999838 0.999483 -0.0254921 1144.71 903.154)" fill="#A6A0F9"/>
<ellipse cx="2.86437" cy="2.8759" rx="2.86437" ry="2.8759" transform="matrix(0.0266412 0.999838 0.999483 -0.0254922 1110.98 868.641)" fill="#A6A0F9"/>
<ellipse cx="2.86437" cy="2.87594" rx="2.86437" ry="2.87594" transform="matrix(0.0266442 0.999838 0.999483 -0.0254892 1072.17 886.667)" fill="#A6A0F9"/>
<ellipse cx="2.86437" cy="2.87594" rx="2.86437" ry="2.87594" transform="matrix(0.0266443 0.999838 0.999483 -0.0254891 1032.72 889.277)" fill="#A6A0F9"/>
<g opacity="0.5">
<ellipse cx="2.86334" cy="2.87702" rx="2.86334" ry="2.87702" transform="matrix(0.067535 -0.997819 -0.997592 -0.0678582 1268.92 865.113)" fill="#A6A0F9"/>
<ellipse cx="2.86333" cy="2.87702" rx="2.86333" ry="2.87702" transform="matrix(0.0675348 -0.997819 -0.997592 -0.0678584 1253.2 825.888)" fill="#A6A0F9"/>
<ellipse cx="2.86334" cy="2.87698" rx="2.86334" ry="2.87698" transform="matrix(0.0675368 -0.997819 -0.997592 -0.0678564 1225.93 843.882)" fill="#A6A0F9"/>
<ellipse cx="2.86334" cy="2.87702" rx="2.86334" ry="2.87702" transform="matrix(0.067535 -0.997819 -0.997592 -0.0678582 1153.79 800.83)" fill="#A6A0F9"/>
<ellipse cx="2.86333" cy="2.87702" rx="2.86333" ry="2.87702" transform="matrix(0.0675349 -0.997819 -0.997592 -0.0678583 1112.67 842.307)" fill="#A6A0F9"/>
<ellipse cx="2.86437" cy="2.8759" rx="2.86437" ry="2.8759" transform="matrix(0.0266418 0.999838 0.999483 -0.0254916 1208.48 899.88)" fill="#A6A0F9"/>
<ellipse cx="2.86437" cy="2.87597" rx="2.86437" ry="2.87597" transform="matrix(0.0266476 0.999838 0.999483 -0.0254858 1105.61 940.23)" fill="#A6A0F9"/>
<ellipse cx="2.86437" cy="2.87601" rx="2.86437" ry="2.87601" transform="matrix(0.0266506 0.999838 0.999483 -0.0254829 1260.88 940.522)" fill="#A6A0F9"/>
<ellipse cx="2.86334" cy="2.87706" rx="2.86334" ry="2.87706" transform="matrix(0.0675332 -0.997819 -0.997592 -0.06786 1184.52 776.965)" fill="#A6A0F9"/>
</g>
<g opacity="0.5">
<ellipse cx="2.86335" cy="2.87698" rx="2.86335" ry="2.87698" transform="matrix(0.0675373 -0.997819 -0.997592 -0.0678558 1241.73 701.471)" fill="#A6A0F9"/>
<ellipse cx="2.86333" cy="2.87702" rx="2.86333" ry="2.87702" transform="matrix(0.0675347 -0.997819 -0.997592 -0.0678584 1220.83 761.109)" fill="#A6A0F9"/>
<ellipse cx="2.86334" cy="2.87702" rx="2.86334" ry="2.87702" transform="matrix(0.067535 -0.997819 -0.997592 -0.0678581 1245.11 787.178)" fill="#A6A0F9"/>
<ellipse cx="2.86334" cy="2.87698" rx="2.86334" ry="2.87698" transform="matrix(0.0675368 -0.997819 -0.997592 -0.0678563 1165.56 717.674)" fill="#A6A0F9"/>
<ellipse cx="2.86336" cy="2.87702" rx="2.86336" ry="2.87702" transform="matrix(0.0675359 -0.997819 -0.997592 -0.0678572 1173.59 622.057)" fill="#A6A0F9"/>
<ellipse cx="2.86333" cy="2.87706" rx="2.86333" ry="2.87706" transform="matrix(0.0675329 -0.997819 -0.997592 -0.0678601 1095.94 795.38)" fill="#A6A0F9"/>
<ellipse cx="2.86334" cy="2.87702" rx="2.86334" ry="2.87702" transform="matrix(0.0675351 -0.997819 -0.997592 -0.067858 1066.22 826.945)" fill="#A6A0F9"/>
<ellipse cx="2.86437" cy="2.87593" rx="2.86437" ry="2.87593" transform="matrix(0.0266447 0.999838 0.999483 -0.0254886 1145.05 916.749)" fill="#A6A0F9"/>
<ellipse cx="2.86437" cy="2.87593" rx="2.86437" ry="2.87593" transform="matrix(0.0266447 0.999838 0.999483 -0.0254886 1190.21 921.143)" fill="#A6A0F9"/>
<ellipse cx="2.86437" cy="2.87597" rx="2.86437" ry="2.87597" transform="matrix(0.0266476 0.999838 0.999483 -0.0254858 1227.87 850.682)" fill="#A6A0F9"/>
<ellipse cx="2.86334" cy="2.87706" rx="2.86334" ry="2.87706" transform="matrix(0.0675331 -0.997819 -0.997592 -0.0678599 1018.52 739.759)" fill="#A6A0F9"/>
<ellipse cx="2.86335" cy="2.87702" rx="2.86335" ry="2.87702" transform="matrix(0.0675354 -0.997819 -0.997592 -0.0678577 1260.26 782.24)" fill="#A6A0F9"/>
</g>
<g opacity="0.1">
<ellipse cx="2.86334" cy="2.87706" rx="2.86334" ry="2.87706" transform="matrix(0.0675331 -0.997819 -0.997592 -0.0678599 1243.26 518.154)" fill="#A6A0F9"/>
<ellipse cx="2.86334" cy="2.87702" rx="2.86334" ry="2.87702" transform="matrix(0.067535 -0.997819 -0.997592 -0.0678581 1245.85 570.226)" fill="#A6A0F9"/>
<ellipse cx="2.86334" cy="2.87702" rx="2.86334" ry="2.87702" transform="matrix(0.067535 -0.997819 -0.997592 -0.0678581 1200.32 451.134)" fill="#A6A0F9"/>
<ellipse cx="2.86336" cy="2.87702" rx="2.86336" ry="2.87702" transform="matrix(0.0675359 -0.997819 -0.997592 -0.0678572 1152.72 362.429)" fill="#A6A0F9"/>
<ellipse cx="2.86334" cy="2.87698" rx="2.86334" ry="2.87698" transform="matrix(0.0675368 -0.997819 -0.997592 -0.0678563 1131.82 422.066)" fill="#A6A0F9"/>
<ellipse cx="2.86336" cy="2.87698" rx="2.86336" ry="2.87698" transform="matrix(0.0675377 -0.997819 -0.997592 -0.0678554 1156.09 448.134)" fill="#A6A0F9"/>
<ellipse cx="2.86336" cy="2.87706" rx="2.86336" ry="2.87706" transform="matrix(0.067534 -0.997819 -0.997592 -0.067859 1076.55 378.632)" fill="#A6A0F9"/>
<ellipse cx="2.86334" cy="2.87706" rx="2.86334" ry="2.87706" transform="matrix(0.0675331 -0.997819 -0.997592 -0.0678599 1006.93 456.336)" fill="#A6A0F9"/>
<ellipse cx="2.86332" cy="2.87698" rx="2.86332" ry="2.87698" transform="matrix(0.0675359 -0.997819 -0.997592 -0.0678572 977.208 487.902)" fill="#A6A0F9"/>
<ellipse cx="2.86439" cy="2.8759" rx="2.86439" ry="2.8759" transform="matrix(0.0266403 0.999838 0.999482 -0.025493 1269.98 611.138)" fill="#A6A0F9"/>
<ellipse cx="2.86334" cy="2.87698" rx="2.86334" ry="2.87698" transform="matrix(0.0675368 -0.997819 -0.997592 -0.0678563 1221.15 663.189)" fill="#A6A0F9"/>
<ellipse cx="2.86438" cy="2.87597" rx="2.86438" ry="2.87597" transform="matrix(0.0266469 0.999838 0.999483 -0.0254865 1056.04 577.705)" fill="#A6A0F9"/>
<ellipse cx="2.86438" cy="2.87593" rx="2.86438" ry="2.87593" transform="matrix(0.026644 0.999838 0.999483 -0.0254894 1101.2 582.099)" fill="#A6A0F9"/>
<ellipse cx="2.86437" cy="2.87593" rx="2.86437" ry="2.87593" transform="matrix(0.0266447 0.999838 0.999483 -0.0254886 1138.86 511.638)" fill="#A6A0F9"/>
<ellipse cx="2.86335" cy="2.87698" rx="2.86335" ry="2.87698" transform="matrix(0.0675373 -0.997819 -0.997592 -0.0678559 1266.44 628.099)" fill="#A6A0F9"/>
<ellipse cx="2.86334" cy="2.87702" rx="2.86334" ry="2.87702" transform="matrix(0.067535 -0.997819 -0.997592 -0.0678581 929.508 400.717)" fill="#A6A0F9"/>
<ellipse cx="2.86334" cy="2.87702" rx="2.86334" ry="2.87702" transform="matrix(0.067535 -0.997819 -0.997592 -0.0678581 1265.4 545.743)" fill="#A6A0F9"/>
<ellipse cx="2.86332" cy="2.87698" rx="2.86332" ry="2.87698" transform="matrix(0.0675359 -0.997819 -0.997592 -0.0678572 1248.67 498.817)" fill="#A6A0F9"/>
<ellipse cx="2.86334" cy="2.87702" rx="2.86334" ry="2.87702" transform="matrix(0.067535 -0.997819 -0.997592 -0.0678581 1218.95 530.383)" fill="#A6A0F9"/>
<ellipse cx="2.86336" cy="2.87702" rx="2.86336" ry="2.87702" transform="matrix(0.0675359 -0.997819 -0.997592 -0.0678572 1171.25 443.196)" fill="#A6A0F9"/>
</g>
<ellipse cx="2.87053" cy="2.86981" rx="2.87053" ry="2.86981" transform="matrix(-0.930994 0.366597 0.369746 0.92852 563.687 505.297)" fill="#A6A0F9"/>
<ellipse cx="2.87053" cy="2.86972" rx="2.87053" ry="2.86972" transform="matrix(-0.930995 0.366594 0.369749 0.928519 600.869 441.539)" fill="#A6A0F9"/>
<ellipse cx="2.87054" cy="2.86977" rx="2.87054" ry="2.86977" transform="matrix(-0.930995 0.366595 0.369748 0.928519 522.402 600.132)" fill="#A6A0F9"/>
<ellipse cx="2.87053" cy="2.86977" rx="2.87053" ry="2.86977" transform="matrix(-0.930994 0.366595 0.369748 0.928519 561.438 640.374)" fill="#A6A0F9"/>
<ellipse cx="2.87052" cy="2.86981" rx="2.87052" ry="2.86981" transform="matrix(-0.930994 0.366597 0.369746 0.92852 544.5 614.324)" fill="#A6A0F9"/>
<ellipse cx="2.87065" cy="2.86964" rx="2.87065" ry="2.86964" transform="matrix(0.892316 -0.451842 -0.455463 -0.89004 736.008 339.234)" fill="#A6A0F9"/>
<ellipse cx="2.87065" cy="2.86968" rx="2.87065" ry="2.86968" transform="matrix(0.892314 -0.451845 -0.45546 -0.890042 692.311 351.142)" fill="#A6A0F9"/>
<ellipse cx="2.87065" cy="2.86975" rx="2.87065" ry="2.86975" transform="matrix(0.892312 -0.45185 -0.455455 -0.890044 654.112 367.091)" fill="#A6A0F9"/>
<ellipse cx="2.87065" cy="2.86972" rx="2.87065" ry="2.86972" transform="matrix(0.892313 -0.451847 -0.455458 -0.890043 636.479 389.687)" fill="#A6A0F9"/>
<ellipse cx="2.87065" cy="2.86972" rx="2.87065" ry="2.86972" transform="matrix(0.892313 -0.451847 -0.455458 -0.890043 616.163 420.472)" fill="#A6A0F9"/>
<ellipse cx="2.87065" cy="2.86964" rx="2.87065" ry="2.86964" transform="matrix(0.892316 -0.451842 -0.455463 -0.89004 647.751 438.608)" fill="#A6A0F9"/>
<ellipse cx="2.87064" cy="2.86968" rx="2.87064" ry="2.86968" transform="matrix(0.892314 -0.451845 -0.45546 -0.890042 616.346 447.697)" fill="#A6A0F9"/>
<ellipse cx="2.87064" cy="2.86964" rx="2.87064" ry="2.86964" transform="matrix(0.892316 -0.451842 -0.455463 -0.89004 645.298 480.825)" fill="#A6A0F9"/>
<ellipse cx="2.87065" cy="2.86964" rx="2.87065" ry="2.86964" transform="matrix(0.892316 -0.451842 -0.455463 -0.89004 628.51 525.982)" fill="#A6A0F9"/>
<ellipse cx="2.87065" cy="2.86968" rx="2.87065" ry="2.86968" transform="matrix(0.892314 -0.451845 -0.45546 -0.890042 661.56 553.091)" fill="#A6A0F9"/>
<ellipse cx="2.87064" cy="2.86968" rx="2.87064" ry="2.86968" transform="matrix(0.892314 -0.451845 -0.45546 -0.890042 680.899 587.411)" fill="#A6A0F9"/>
<g opacity="0.5">
<ellipse cx="2.8705" cy="2.86983" rx="2.8705" ry="2.86983" transform="matrix(-0.930997 0.366595 0.369748 0.928517 557.339 385.599)" fill="#A6A0F9"/>
<ellipse cx="2.8705" cy="2.86983" rx="2.8705" ry="2.86983" transform="matrix(-0.930997 0.366595 0.369748 0.928517 588.468 343.865)" fill="#A6A0F9"/>
<ellipse cx="2.8705" cy="2.86983" rx="2.8705" ry="2.86983" transform="matrix(-0.930997 0.366595 0.369747 0.928517 528.526 416.601)" fill="#A6A0F9"/>
<ellipse cx="2.8705" cy="2.86979" rx="2.8705" ry="2.86979" transform="matrix(-0.930997 0.366593 0.369749 0.928516 556.579 433.356)" fill="#A6A0F9"/>
<ellipse cx="2.8705" cy="2.86983" rx="2.8705" ry="2.86983" transform="matrix(-0.930997 0.366595 0.369748 0.928517 548.573 516.698)" fill="#A6A0F9"/>
<ellipse cx="2.8705" cy="2.86983" rx="2.8705" ry="2.86983" transform="matrix(-0.930997 0.366595 0.369748 0.928517 603.885 535.792)" fill="#A6A0F9"/>
<ellipse cx="2.87062" cy="2.86966" rx="2.87062" ry="2.86966" transform="matrix(0.892317 -0.45184 -0.455465 -0.890039 614.889 424.938)" fill="#A6A0F9"/>
<ellipse cx="2.87063" cy="2.86973" rx="2.87063" ry="2.86973" transform="matrix(0.892314 -0.451845 -0.455459 -0.890042 695.75 500.002)" fill="#A6A0F9"/>
<ellipse cx="2.87063" cy="2.86977" rx="2.87063" ry="2.86977" transform="matrix(0.892313 -0.451848 -0.455457 -0.890043 629.207 360.379)" fill="#A6A0F9"/>
<ellipse cx="2.8705" cy="2.86987" rx="2.8705" ry="2.86987" transform="matrix(-0.930996 0.366597 0.369746 0.928518 513.706 499.358)" fill="#A6A0F9"/>
</g>
<g opacity="0.5">
<ellipse cx="2.87051" cy="2.86978" rx="2.87051" ry="2.86978" transform="matrix(-0.930997 0.366594 0.369749 0.928517 522.902 332.088)" fill="#A6A0F9"/>
<ellipse cx="2.8705" cy="2.86983" rx="2.8705" ry="2.86983" transform="matrix(-0.930996 0.366596 0.369747 0.928518 480.592 399.505)" fill="#A6A0F9"/>
<ellipse cx="2.87052" cy="2.86979" rx="2.87052" ry="2.86979" transform="matrix(-0.930997 0.366594 0.369749 0.928517 420.616 480.435)" fill="#A6A0F9"/>
<ellipse cx="2.8705" cy="2.86983" rx="2.8705" ry="2.86983" transform="matrix(-0.930996 0.366596 0.369747 0.928518 483.701 473.555)" fill="#A6A0F9"/>
<ellipse cx="2.87051" cy="2.86983" rx="2.87051" ry="2.86983" transform="matrix(-0.930996 0.366596 0.369747 0.928518 496.901 440.528)" fill="#A6A0F9"/>
<ellipse cx="2.87051" cy="2.86978" rx="2.87051" ry="2.86978" transform="matrix(-0.930997 0.366594 0.369749 0.928517 468.088 541.897)" fill="#A6A0F9"/>
<ellipse cx="2.87053" cy="2.86983" rx="2.87053" ry="2.86983" transform="matrix(-0.930996 0.366595 0.369748 0.928517 377.91 575.83)" fill="#A6A0F9"/>
<ellipse cx="2.8705" cy="2.86987" rx="2.8705" ry="2.86987" transform="matrix(-0.930995 0.366598 0.369745 0.928518 568.521 571.014)" fill="#A6A0F9"/>
<ellipse cx="2.87051" cy="2.86983" rx="2.87051" ry="2.86983" transform="matrix(-0.930996 0.366596 0.369747 0.928518 609.939 584.136)" fill="#A6A0F9"/>
<ellipse cx="2.87063" cy="2.86969" rx="2.87063" ry="2.86969" transform="matrix(0.892315 -0.451843 -0.455462 -0.890041 657.48 474.667)" fill="#A6A0F9"/>
<ellipse cx="2.87063" cy="2.86969" rx="2.87063" ry="2.86969" transform="matrix(0.892315 -0.451843 -0.455462 -0.890041 642.036 432.205)" fill="#A6A0F9"/>
<ellipse cx="2.87063" cy="2.86973" rx="2.87063" ry="2.86973" transform="matrix(0.892314 -0.451846 -0.455459 -0.890042 561.925 428.684)" fill="#A6A0F9"/>
<ellipse cx="2.87051" cy="2.86987" rx="2.87051" ry="2.86987" transform="matrix(-0.930995 0.366597 0.369746 0.928518 551.387 664.505)" fill="#A6A0F9"/>
<ellipse cx="2.87051" cy="2.86978" rx="2.87051" ry="2.86978" transform="matrix(-0.930997 0.366594 0.369749 0.928517 503.036 335.548)" fill="#A6A0F9"/>
<ellipse cx="2.87051" cy="2.86978" rx="2.87051" ry="2.86978" transform="matrix(-0.930997 0.366594 0.369749 0.928517 544.454 348.667)" fill="#A6A0F9"/>
<ellipse cx="2.87052" cy="2.86983" rx="2.87052" ry="2.86983" transform="matrix(-0.930996 0.366595 0.369748 0.928518 485.901 429.037)" fill="#A6A0F9"/>
</g>
<g opacity="0.1">
<ellipse cx="2.87063" cy="2.86973" rx="2.87063" ry="2.86973" transform="matrix(0.892314 -0.451846 -0.455459 -0.890042 468.182 398.222)" fill="#A6A0F9"/>
<ellipse cx="2.87063" cy="2.86966" rx="2.87063" ry="2.86966" transform="matrix(0.892316 -0.451841 -0.455464 -0.89004 417.323 362.539)" fill="#A6A0F9"/>
<ellipse cx="2.87051" cy="2.86978" rx="2.87051" ry="2.86978" transform="matrix(-0.930997 0.366594 0.369749 0.928517 370.633 438.177)" fill="#A6A0F9"/>
<ellipse cx="2.87051" cy="2.86978" rx="2.87051" ry="2.86978" transform="matrix(-0.930997 0.366594 0.369749 0.928517 394.75 515.397)" fill="#A6A0F9"/>
<ellipse cx="2.87064" cy="2.86973" rx="2.87064" ry="2.86973" transform="matrix(0.892314 -0.451845 -0.45546 -0.890042 388.272 700.519)" fill="#A6A0F9"/>
<ellipse cx="2.87064" cy="2.86969" rx="2.87064" ry="2.86969" transform="matrix(0.892315 -0.451842 -0.455462 -0.89004 372.828 658.058)" fill="#A6A0F9"/>
</g>
<ellipse cx="2.87054" cy="2.86978" rx="2.87054" ry="2.86978" transform="matrix(0.852044 -0.522465 0.527439 0.850217 702.426 867.142)" fill="#ECC7FF"/>
<ellipse cx="2.87053" cy="2.86978" rx="2.87053" ry="2.86978" transform="matrix(0.852042 -0.522468 0.527437 0.850219 628.864 858.646)" fill="#ECC7FF"/>
<ellipse cx="2.87052" cy="2.86977" rx="2.87052" ry="2.86977" transform="matrix(0.852041 -0.52247 0.527434 0.85022 803.46 890.963)" fill="#ECC7FF"/>
<ellipse cx="2.87056" cy="2.8698" rx="2.87056" ry="2.8698" transform="matrix(0.852047 -0.52246 0.527444 0.850214 812.532 946.186)" fill="#ECC7FF"/>
<ellipse cx="2.87054" cy="2.86978" rx="2.87054" ry="2.86978" transform="matrix(0.852044 -0.522465 0.527439 0.850217 801.681 917.086)" fill="#ECC7FF"/>
<ellipse cx="2.87028" cy="2.87006" rx="2.87028" ry="2.87006" transform="matrix(-0.89761 0.44062 -0.445198 -0.895519 465.72 905.224)" fill="#ECC7FF"/>
<ellipse cx="2.87028" cy="2.87006" rx="2.87028" ry="2.87006" transform="matrix(-0.89761 0.440621 -0.445198 -0.895519 501.427 877.494)" fill="#ECC7FF"/>
<ellipse cx="2.87027" cy="2.87006" rx="2.87027" ry="2.87006" transform="matrix(-0.897609 0.440623 -0.445196 -0.895521 537.102 856.567)" fill="#ECC7FF"/>
<ellipse cx="2.87026" cy="2.87005" rx="2.87026" ry="2.87005" transform="matrix(-0.897623 0.440595 -0.445224 -0.895507 565.836 856.023)" fill="#ECC7FF"/>
<ellipse cx="2.87027" cy="2.87006" rx="2.87027" ry="2.87006" transform="matrix(-0.897609 0.440623 -0.445196 -0.895521 602.766 858.241)" fill="#ECC7FF"/>
<ellipse cx="2.87029" cy="2.87007" rx="2.87029" ry="2.87007" transform="matrix(-0.897612 0.440618 -0.445201 -0.895518 598.486 894.293)" fill="#ECC7FF"/>
<ellipse cx="2.87026" cy="2.87005" rx="2.87026" ry="2.87005" transform="matrix(-0.897608 0.440626 -0.445193 -0.895522 624.578 874.681)" fill="#ECC7FF"/>
<ellipse cx="2.87027" cy="2.87006" rx="2.87027" ry="2.87006" transform="matrix(-0.897609 0.440623 -0.445196 -0.895521 633.947 917.601)" fill="#ECC7FF"/>
<ellipse cx="2.87025" cy="2.87005" rx="2.87025" ry="2.87005" transform="matrix(-0.897607 0.440628 -0.44519 -0.895523 680.342 931.232)" fill="#ECC7FF"/>
<ellipse cx="2.87025" cy="2.87004" rx="2.87025" ry="2.87004" transform="matrix(-0.897622 0.440597 -0.445222 -0.895508 682.416 973.819)" fill="#ECC7FF"/>
<ellipse cx="2.87026" cy="2.87005" rx="2.87026" ry="2.87005" transform="matrix(-0.897626 0.44059 -0.445229 -0.895504 698.49 1009.79)" fill="#ECC7FF"/>
<g opacity="0.5">
<ellipse cx="2.87053" cy="2.8698" rx="2.87053" ry="2.8698" transform="matrix(0.852045 -0.52246 0.527445 0.850216 609.834 790.445)" fill="#ECC7FF"/>
<ellipse cx="2.87054" cy="2.86981" rx="2.87054" ry="2.86981" transform="matrix(0.852046 -0.522458 0.527447 0.850215 557.624 790.301)" fill="#ECC7FF"/>
<ellipse cx="2.87052" cy="2.8698" rx="2.87052" ry="2.8698" transform="matrix(0.852043 -0.522462 0.527443 0.850218 652.017 786.012)" fill="#ECC7FF"/>
<ellipse cx="2.87053" cy="2.8698" rx="2.87053" ry="2.8698" transform="matrix(0.852043 -0.522463 0.527442 0.850218 648.741 818.419)" fill="#ECC7FF"/>
<ellipse cx="2.87053" cy="2.8698" rx="2.87053" ry="2.8698" transform="matrix(0.852043 -0.522463 0.527442 0.850218 720.634 861.909)" fill="#ECC7FF"/>
<ellipse cx="2.87054" cy="2.86981" rx="2.87054" ry="2.86981" transform="matrix(0.852046 -0.522458 0.527447 0.850215 702.948 917.459)" fill="#ECC7FF"/>
<ellipse cx="2.87025" cy="2.87008" rx="2.87025" ry="2.87008" transform="matrix(-0.897613 0.440615 -0.445203 -0.895517 358.91 773.025)" fill="#ECC7FF"/>
<ellipse cx="2.87025" cy="2.87008" rx="2.87025" ry="2.87008" transform="matrix(-0.897613 0.440615 -0.445203 -0.895517 358.729 810.454)" fill="#ECC7FF"/>
<ellipse cx="2.87025" cy="2.87008" rx="2.87025" ry="2.87008" transform="matrix(-0.897613 0.440615 -0.445203 -0.895517 394.368 796.333)" fill="#ECC7FF"/>
<ellipse cx="2.87026" cy="2.87008" rx="2.87026" ry="2.87008" transform="matrix(-0.897614 0.440613 -0.445206 -0.895516 409.586 761.698)" fill="#ECC7FF"/>
<ellipse cx="2.87025" cy="2.87008" rx="2.87025" ry="2.87008" transform="matrix(-0.897613 0.440615 -0.445204 -0.895517 456.083 766.003)" fill="#ECC7FF"/>
<ellipse cx="2.87025" cy="2.87008" rx="2.87025" ry="2.87008" transform="matrix(-0.897613 0.440616 -0.445203 -0.895517 471.732 783.772)" fill="#ECC7FF"/>
<ellipse cx="2.87026" cy="2.87008" rx="2.87026" ry="2.87008" transform="matrix(-0.897627 0.440587 -0.445232 -0.895503 513.927 794.414)" fill="#ECC7FF"/>
<ellipse cx="2.87025" cy="2.87007" rx="2.87025" ry="2.87007" transform="matrix(-0.897611 0.44062 -0.445199 -0.895519 607.12 859.898)" fill="#ECC7FF"/>
<ellipse cx="2.87025" cy="2.87008" rx="2.87025" ry="2.87008" transform="matrix(-0.89761 0.440621 -0.445198 -0.89552 619.229 969.32)" fill="#ECC7FF"/>
<ellipse cx="2.87024" cy="2.87007" rx="2.87024" ry="2.87007" transform="matrix(-0.897609 0.440624 -0.445195 -0.895521 546.578 832.681)" fill="#ECC7FF"/>
<ellipse cx="2.87053" cy="2.86981" rx="2.87053" ry="2.86981" transform="matrix(0.852044 -0.52246 0.527444 0.850217 528.048 774.48)" fill="#ECC7FF"/>
<ellipse cx="2.87051" cy="2.86978" rx="2.87051" ry="2.86978" transform="matrix(0.85204 -0.522468 0.527437 0.850221 727.512 823.718)" fill="#ECC7FF"/>
</g>
<g opacity="0.5">
<ellipse cx="2.87052" cy="2.86979" rx="2.87052" ry="2.86979" transform="matrix(0.852041 -0.522466 0.527438 0.85022 587.333 730.951)" fill="#ECC7FF"/>
<ellipse cx="2.87054" cy="2.86981" rx="2.87054" ry="2.86981" transform="matrix(0.852044 -0.522461 0.527443 0.850217 539.853 752.933)" fill="#ECC7FF"/>
<ellipse cx="2.87053" cy="2.86979" rx="2.87053" ry="2.86979" transform="matrix(0.852043 -0.522463 0.527442 0.850217 501.703 679.797)" fill="#ECC7FF"/>
<ellipse cx="2.87055" cy="2.86981" rx="2.87055" ry="2.86981" transform="matrix(0.852064 -0.522429 0.527475 0.850197 591.367 653.383)" fill="#ECC7FF"/>
<ellipse cx="2.87055" cy="2.86981" rx="2.87055" ry="2.86981" transform="matrix(0.852048 -0.522455 0.52745 0.850213 666.904 737.546)" fill="#ECC7FF"/>
<ellipse cx="2.87055" cy="2.86982" rx="2.87055" ry="2.86982" transform="matrix(0.852045 -0.52246 0.527445 0.850216 767.918 738.136)" fill="#ECC7FF"/>
<ellipse cx="2.87053" cy="2.8698" rx="2.87053" ry="2.8698" transform="matrix(0.852043 -0.522464 0.527441 0.850218 724.671 784.341)" fill="#ECC7FF"/>
<ellipse cx="2.87053" cy="2.8698" rx="2.87053" ry="2.8698" transform="matrix(0.852043 -0.522463 0.527441 0.850218 690.189 775.107)" fill="#ECC7FF"/>
<ellipse cx="2.87053" cy="2.8698" rx="2.87053" ry="2.8698" transform="matrix(0.852043 -0.522463 0.527441 0.850218 789.033 812.789)" fill="#ECC7FF"/>
<ellipse cx="2.87053" cy="2.86979" rx="2.87053" ry="2.86979" transform="matrix(0.852043 -0.522463 0.527442 0.850217 870.254 761.159)" fill="#ECC7FF"/>
<ellipse cx="2.87054" cy="2.86981" rx="2.87054" ry="2.86981" transform="matrix(0.852065 -0.522428 0.527476 0.850196 752.448 910.329)" fill="#ECC7FF"/>
<ellipse cx="2.87053" cy="2.8698" rx="2.87053" ry="2.8698" transform="matrix(0.852043 -0.522464 0.527441 0.850218 738.256 951.22)" fill="#ECC7FF"/>
<ellipse cx="2.87025" cy="2.87007" rx="2.87025" ry="2.87007" transform="matrix(-0.897626 0.440589 -0.44523 -0.895504 440.04 689.023)" fill="#ECC7FF"/>
<ellipse cx="2.87025" cy="2.87007" rx="2.87025" ry="2.87007" transform="matrix(-0.897613 0.440615 -0.445203 -0.895517 491.049 750.519)" fill="#ECC7FF"/>
<ellipse cx="2.87055" cy="2.86982" rx="2.87055" ry="2.86982" transform="matrix(0.852048 -0.522455 0.527449 0.850213 419.804 752.324)" fill="#ECC7FF"/>
<ellipse cx="2.87054" cy="2.8698" rx="2.87054" ry="2.8698" transform="matrix(0.852045 -0.52246 0.527444 0.850216 467.566 817.774)" fill="#ECC7FF"/>
<ellipse cx="2.87025" cy="2.87007" rx="2.87025" ry="2.87007" transform="matrix(-0.89761 0.440622 -0.445197 -0.89552 621.704 923.633)" fill="#ECC7FF"/>
<ellipse cx="2.87025" cy="2.87007" rx="2.87025" ry="2.87007" transform="matrix(-0.89761 0.440621 -0.445197 -0.89552 596.746 885.902)" fill="#ECC7FF"/>
<ellipse cx="2.87026" cy="2.87007" rx="2.87026" ry="2.87007" transform="matrix(-0.89761 0.440622 -0.445197 -0.89552 641.792 819.891)" fill="#ECC7FF"/>
<ellipse cx="2.87053" cy="2.8698" rx="2.87053" ry="2.8698" transform="matrix(0.852045 -0.52246 0.527445 0.850216 477.634 761.535)" fill="#ECC7FF"/>
<ellipse cx="2.87053" cy="2.8698" rx="2.87053" ry="2.8698" transform="matrix(0.852043 -0.522464 0.527441 0.850218 837.967 952.609)" fill="#ECC7FF"/>
<ellipse cx="2.87054" cy="2.86981" rx="2.87054" ry="2.86981" transform="matrix(0.852047 -0.522457 0.527447 0.850214 437.957 616.616)" fill="#ECC7FF"/>
<ellipse cx="2.87052" cy="2.86979" rx="2.87052" ry="2.86979" transform="matrix(0.852044 -0.522462 0.527442 0.850217 364.394 608.121)" fill="#ECC7FF"/>
<ellipse cx="2.87053" cy="2.8698" rx="2.87053" ry="2.8698" transform="matrix(0.852045 -0.52246 0.527445 0.850216 540.189 640.674)" fill="#ECC7FF"/>
<ellipse cx="2.87054" cy="2.8698" rx="2.87054" ry="2.8698" transform="matrix(0.852045 -0.522461 0.527444 0.850216 549.261 695.897)" fill="#ECC7FF"/>
<ellipse cx="2.87053" cy="2.8698" rx="2.87053" ry="2.8698" transform="matrix(0.852042 -0.522465 0.52744 0.850219 538.41 666.796)" fill="#ECC7FF"/>
<ellipse cx="2.87053" cy="2.8698" rx="2.87053" ry="2.8698" transform="matrix(0.852045 -0.52246 0.527445 0.850216 458.18 597.055)" fill="#ECC7FF"/>
<ellipse cx="2.87052" cy="2.86979" rx="2.87052" ry="2.86979" transform="matrix(0.852045 -0.522461 0.527444 0.850216 405.972 596.911)" fill="#ECC7FF"/>
<ellipse cx="2.87053" cy="2.8698" rx="2.87053" ry="2.8698" transform="matrix(0.852042 -0.522465 0.52744 0.850219 500.365 592.624)" fill="#ECC7FF"/>
<ellipse cx="2.87055" cy="2.86981" rx="2.87055" ry="2.86981" transform="matrix(0.852046 -0.522458 0.527446 0.850215 497.089 625.029)" fill="#ECC7FF"/>
<ellipse cx="2.87054" cy="2.8698" rx="2.87054" ry="2.8698" transform="matrix(0.852045 -0.522461 0.527444 0.850216 570.18 668.757)" fill="#ECC7FF"/>
<ellipse cx="2.87054" cy="2.86981" rx="2.87054" ry="2.86981" transform="matrix(0.852044 -0.522461 0.527443 0.850217 552.495 724.304)" fill="#ECC7FF"/>
<ellipse cx="2.87053" cy="2.8698" rx="2.87053" ry="2.8698" transform="matrix(0.852043 -0.522463 0.527441 0.850218 376.394 581.09)" fill="#ECC7FF"/>
<ellipse cx="2.87052" cy="2.86979" rx="2.87052" ry="2.86979" transform="matrix(0.852041 -0.522467 0.527438 0.85022 577.058 630.564)" fill="#ECC7FF"/>
<ellipse cx="2.87052" cy="2.86979" rx="2.87052" ry="2.86979" transform="matrix(0.852044 -0.522462 0.527442 0.850217 435.677 537.56)" fill="#ECC7FF"/>
<ellipse cx="2.87053" cy="2.8698" rx="2.87053" ry="2.8698" transform="matrix(0.852045 -0.52246 0.527445 0.850216 388.198 559.542)" fill="#ECC7FF"/>
<ellipse cx="2.87054" cy="2.86981" rx="2.87054" ry="2.86981" transform="matrix(0.852044 -0.522462 0.527442 0.850217 350.049 486.406)" fill="#ECC7FF"/>
<ellipse cx="2.87052" cy="2.86979" rx="2.87052" ry="2.86979" transform="matrix(0.852045 -0.522461 0.527444 0.850216 439.713 459.993)" fill="#ECC7FF"/>
<ellipse cx="2.87054" cy="2.8698" rx="2.87054" ry="2.8698" transform="matrix(0.852045 -0.522461 0.527444 0.850216 515.249 544.156)" fill="#ECC7FF"/>
<ellipse cx="2.87054" cy="2.8698" rx="2.87054" ry="2.8698" transform="matrix(0.852045 -0.522461 0.527444 0.850216 617.463 544.984)" fill="#ECC7FF"/>
<ellipse cx="2.87052" cy="2.86979" rx="2.87052" ry="2.86979" transform="matrix(0.852041 -0.522467 0.527438 0.85022 574.215 591.188)" fill="#ECC7FF"/>
<ellipse cx="2.87053" cy="2.86979" rx="2.87053" ry="2.86979" transform="matrix(0.852044 -0.522462 0.527442 0.850217 539.734 581.952)" fill="#ECC7FF"/>
<ellipse cx="2.87053" cy="2.8698" rx="2.87053" ry="2.8698" transform="matrix(0.852045 -0.52246 0.527445 0.850216 638.576 619.633)" fill="#ECC7FF"/>
<ellipse cx="2.87055" cy="2.86981" rx="2.87055" ry="2.86981" transform="matrix(0.852046 -0.522458 0.527446 0.850215 719.799 568.006)" fill="#ECC7FF"/>
<ellipse cx="2.87054" cy="2.8698" rx="2.87054" ry="2.8698" transform="matrix(0.852045 -0.522461 0.527444 0.850216 601.991 717.174)" fill="#ECC7FF"/>
<ellipse cx="2.87054" cy="2.8698" rx="2.87054" ry="2.8698" transform="matrix(0.852045 -0.522461 0.527444 0.850216 587.8 758.063)" fill="#ECC7FF"/>
<ellipse cx="2.87051" cy="2.86978" rx="2.87051" ry="2.86978" transform="matrix(0.85204 -0.522468 0.527436 0.850221 687.512 759.455)" fill="#ECC7FF"/>
<ellipse cx="2.87025" cy="2.87007" rx="2.87025" ry="2.87007" transform="matrix(-0.897612 0.440616 -0.445202 -0.895517 370.359 668.953)" fill="#ECC7FF"/>
</g>
<g opacity="0.1">
<ellipse cx="2.87054" cy="2.86981" rx="2.87054" ry="2.86981" transform="matrix(0.852047 -0.522457 0.527447 0.850214 930.095 651.366)" fill="#ECC7FF"/>
<ellipse cx="2.87051" cy="2.86978" rx="2.87051" ry="2.86978" transform="matrix(0.85204 -0.522468 0.527436 0.850221 882.616 673.348)" fill="#ECC7FF"/>
<ellipse cx="2.87055" cy="2.86981" rx="2.87055" ry="2.86981" transform="matrix(0.852046 -0.522458 0.527446 0.850215 844.466 600.212)" fill="#ECC7FF"/>
<ellipse cx="2.87054" cy="2.86981" rx="2.87054" ry="2.86981" transform="matrix(0.852047 -0.522457 0.527447 0.850214 934.13 573.799)" fill="#ECC7FF"/>
<ellipse cx="2.87053" cy="2.8698" rx="2.87053" ry="2.8698" transform="matrix(0.852043 -0.522463 0.527441 0.850218 1009.67 657.961)" fill="#ECC7FF"/>
<ellipse cx="2.87054" cy="2.86981" rx="2.87054" ry="2.86981" transform="matrix(0.852047 -0.522457 0.527447 0.850214 1110.68 658.551)" fill="#ECC7FF"/>
<ellipse cx="2.87051" cy="2.86978" rx="2.87051" ry="2.86978" transform="matrix(0.85204 -0.522468 0.527436 0.850221 1067.43 704.758)" fill="#ECC7FF"/>
<ellipse cx="2.87052" cy="2.86979" rx="2.87052" ry="2.86979" transform="matrix(0.852044 -0.522462 0.527442 0.850217 1032.95 695.521)" fill="#ECC7FF"/>
<ellipse cx="2.87054" cy="2.86981" rx="2.87054" ry="2.86981" transform="matrix(0.852047 -0.522457 0.527447 0.850214 1131.8 733.203)" fill="#ECC7FF"/>
<ellipse cx="2.87052" cy="2.86979" rx="2.87052" ry="2.86979" transform="matrix(0.852045 -0.522461 0.527444 0.850216 1213.02 681.575)" fill="#ECC7FF"/>
<ellipse cx="2.87054" cy="2.86981" rx="2.87054" ry="2.86981" transform="matrix(0.852046 -0.522458 0.527447 0.850214 1095.21 830.744)" fill="#ECC7FF"/>
<ellipse cx="2.87053" cy="2.86979" rx="2.87053" ry="2.86979" transform="matrix(0.852043 -0.522463 0.527442 0.850218 1081.02 871.635)" fill="#ECC7FF"/>
<ellipse cx="2.87024" cy="2.87007" rx="2.87024" ry="2.87007" transform="matrix(-0.897611 0.440619 -0.4452 -0.895519 673.297 726.883)" fill="#ECC7FF"/>
<ellipse cx="2.87024" cy="2.87007" rx="2.87024" ry="2.87007" transform="matrix(-0.897611 0.440619 -0.4452 -0.895519 674.964 664.959)" fill="#ECC7FF"/>
<ellipse cx="2.87026" cy="2.87007" rx="2.87026" ry="2.87007" transform="matrix(-0.897615 0.440611 -0.445208 -0.895515 784.001 609.674)" fill="#ECC7FF"/>
<ellipse cx="2.87026" cy="2.87007" rx="2.87026" ry="2.87007" transform="matrix(-0.897614 0.440613 -0.445206 -0.895515 835.01 671.168)" fill="#ECC7FF"/>
<ellipse cx="2.87053" cy="2.8698" rx="2.87053" ry="2.8698" transform="matrix(0.852043 -0.522463 0.527441 0.850218 763.765 672.975)" fill="#ECC7FF"/>
<ellipse cx="2.87055" cy="2.86981" rx="2.87055" ry="2.86981" transform="matrix(0.852046 -0.522458 0.527446 0.850215 811.527 738.425)" fill="#ECC7FF"/>
<ellipse cx="2.87026" cy="2.87008" rx="2.87026" ry="2.87008" transform="matrix(-0.897614 0.440613 -0.445206 -0.895516 964.467 844.048)" fill="#ECC7FF"/>
<ellipse cx="2.87026" cy="2.87008" rx="2.87026" ry="2.87008" transform="matrix(-0.897614 0.440613 -0.445206 -0.895516 939.508 806.317)" fill="#ECC7FF"/>
<ellipse cx="2.87029" cy="2.87009" rx="2.87029" ry="2.87009" transform="matrix(-0.897616 0.440609 -0.445209 -0.895514 984.555 740.303)" fill="#ECC7FF"/>
<ellipse cx="2.87054" cy="2.86981" rx="2.87054" ry="2.86981" transform="matrix(0.852047 -0.522457 0.527447 0.850214 821.596 682.186)" fill="#ECC7FF"/>
<ellipse cx="2.87053" cy="2.86979" rx="2.87053" ry="2.86979" transform="matrix(0.852043 -0.522463 0.527442 0.850218 1180.73 873.025)" fill="#ECC7FF"/>
<ellipse cx="2.87052" cy="2.86979" rx="2.87052" ry="2.86979" transform="matrix(0.852044 -0.522462 0.527442 0.850217 781.917 537.267)" fill="#ECC7FF"/>
<ellipse cx="2.87055" cy="2.86981" rx="2.87055" ry="2.86981" transform="matrix(0.852046 -0.522458 0.527446 0.850215 708.355 528.771)" fill="#ECC7FF"/>
<ellipse cx="2.87055" cy="2.86981" rx="2.87055" ry="2.86981" transform="matrix(0.852046 -0.522458 0.527446 0.850215 882.951 561.089)" fill="#ECC7FF"/>
<ellipse cx="2.87054" cy="2.86981" rx="2.87054" ry="2.86981" transform="matrix(0.852047 -0.522457 0.527447 0.850214 892.024 616.312)" fill="#ECC7FF"/>
<ellipse cx="2.87051" cy="2.86979" rx="2.87051" ry="2.86979" transform="matrix(0.852039 -0.522469 0.527435 0.850222 881.172 587.211)" fill="#ECC7FF"/>
<ellipse cx="2.87054" cy="2.8698" rx="2.87054" ry="2.8698" transform="matrix(0.852048 -0.522456 0.527448 0.850213 802.141 517.705)" fill="#ECC7FF"/>
<ellipse cx="2.87053" cy="2.8698" rx="2.87053" ry="2.8698" transform="matrix(0.852042 -0.522465 0.52744 0.850219 749.933 517.561)" fill="#ECC7FF"/>
<ellipse cx="2.87054" cy="2.86981" rx="2.87054" ry="2.86981" transform="matrix(0.852042 -0.522466 0.527439 0.850219 844.325 513.274)" fill="#ECC7FF"/>
<ellipse cx="2.87056" cy="2.86982" rx="2.87056" ry="2.86982" transform="matrix(0.85205 -0.522452 0.527452 0.850211 841.05 545.68)" fill="#ECC7FF"/>
<ellipse cx="2.87052" cy="2.86979" rx="2.87052" ry="2.86979" transform="matrix(0.852044 -0.522462 0.527442 0.850217 912.942 589.172)" fill="#ECC7FF"/>
<ellipse cx="2.87053" cy="2.8698" rx="2.87053" ry="2.8698" transform="matrix(0.852042 -0.522465 0.52744 0.850219 895.256 644.721)" fill="#ECC7FF"/>
<ellipse cx="2.87053" cy="2.8698" rx="2.87053" ry="2.8698" transform="matrix(0.852043 -0.522463 0.527441 0.850218 720.354 501.741)" fill="#ECC7FF"/>
<ellipse cx="2.87052" cy="2.86979" rx="2.87052" ry="2.86979" transform="matrix(0.852045 -0.522461 0.527444 0.850216 919.821 550.981)" fill="#ECC7FF"/>
<ellipse cx="2.87053" cy="2.8698" rx="2.87053" ry="2.8698" transform="matrix(0.852043 -0.522463 0.527441 0.850218 779.637 458.211)" fill="#ECC7FF"/>
<ellipse cx="2.87053" cy="2.8698" rx="2.87053" ry="2.8698" transform="matrix(0.852043 -0.522463 0.527441 0.850218 732.159 480.193)" fill="#ECC7FF"/>
<ellipse cx="2.87052" cy="2.86979" rx="2.87052" ry="2.86979" transform="matrix(0.852045 -0.522461 0.527444 0.850216 694.009 407.057)" fill="#ECC7FF"/>
<ellipse cx="2.87055" cy="2.86981" rx="2.87055" ry="2.86981" transform="matrix(0.852046 -0.522458 0.527446 0.850215 783.674 380.644)" fill="#ECC7FF"/>
<ellipse cx="2.87055" cy="2.86981" rx="2.87055" ry="2.86981" transform="matrix(0.852046 -0.522458 0.527446 0.850215 859.211 464.807)" fill="#ECC7FF"/>
<ellipse cx="2.87056" cy="2.86983" rx="2.87056" ry="2.86983" transform="matrix(0.852049 -0.522454 0.527451 0.850212 960.225 465.399)" fill="#ECC7FF"/>
<ellipse cx="2.87052" cy="2.86979" rx="2.87052" ry="2.86979" transform="matrix(0.852045 -0.522461 0.527444 0.850216 916.977 511.603)" fill="#ECC7FF"/>
<ellipse cx="2.87053" cy="2.8698" rx="2.87053" ry="2.8698" transform="matrix(0.852043 -0.522463 0.527441 0.850218 882.496 502.367)" fill="#ECC7FF"/>
<ellipse cx="2.87051" cy="2.86978" rx="2.87051" ry="2.86978" transform="matrix(0.852041 -0.522467 0.527438 0.85022 981.338 540.048)" fill="#ECC7FF"/>
<ellipse cx="2.87053" cy="2.8698" rx="2.87053" ry="2.8698" transform="matrix(0.852043 -0.522463 0.527441 0.850218 1062.56 488.419)" fill="#ECC7FF"/>
<ellipse cx="2.87052" cy="2.86979" rx="2.87052" ry="2.86979" transform="matrix(0.852044 -0.522462 0.527442 0.850217 944.753 637.59)" fill="#ECC7FF"/>
<ellipse cx="2.87052" cy="2.86979" rx="2.87052" ry="2.86979" transform="matrix(0.852044 -0.522462 0.527442 0.850217 930.563 678.48)" fill="#ECC7FF"/>
<ellipse cx="2.87053" cy="2.8698" rx="2.87053" ry="2.8698" transform="matrix(0.852045 -0.52246 0.527445 0.850216 613.31 479.82)" fill="#ECC7FF"/>
<ellipse cx="2.87054" cy="2.8698" rx="2.87054" ry="2.8698" transform="matrix(0.852048 -0.522456 0.527448 0.850213 661.071 545.272)" fill="#ECC7FF"/>
<ellipse cx="2.87054" cy="2.8698" rx="2.87054" ry="2.8698" transform="matrix(0.852045 -0.522461 0.527444 0.850216 671.14 489.031)" fill="#ECC7FF"/>
<ellipse cx="2.87051" cy="2.86978" rx="2.87051" ry="2.86978" transform="matrix(0.85204 -0.522468 0.527436 0.850221 1030.27 679.87)" fill="#ECC7FF"/>
<ellipse cx="2.87022" cy="2.87005" rx="2.87022" ry="2.87005" transform="matrix(-0.897609 0.440624 -0.445195 -0.895521 714.321 589.604)" fill="#ECC7FF"/>
</g>
<ellipse cx="2.87029" cy="2.87005" rx="2.87029" ry="2.87005" transform="matrix(-0.779456 0.625588 -0.630269 -0.77708 1222.16 547.643)" fill="#ECC7FF"/>
<ellipse cx="2.87027" cy="2.87004" rx="2.87027" ry="2.87004" transform="matrix(-0.779452 0.625592 -0.630265 -0.777084 1118.91 536.672)" fill="#ECC7FF"/>
<ellipse cx="2.8703" cy="2.87007" rx="2.8703" ry="2.87007" transform="matrix(-0.77946 0.625583 -0.630274 -0.777077 1102.93 483.027)" fill="#ECC7FF"/>
<ellipse cx="2.87029" cy="2.87005" rx="2.87029" ry="2.87005" transform="matrix(-0.779456 0.625588 -0.630269 -0.77708 1117.38 510.534)" fill="#ECC7FF"/>
<ellipse cx="2.87008" cy="2.87023" rx="2.87008" ry="2.87023" transform="matrix(0.835002 -0.550109 0.554408 0.832337 1235.96 481.298)" fill="#ECC7FF"/>
<ellipse cx="2.87008" cy="2.87022" rx="2.87008" ry="2.87022" transform="matrix(0.835022 -0.550079 0.554438 0.832318 1228.52 439.312)" fill="#ECC7FF"/>
<ellipse cx="2.8701" cy="2.87023" rx="2.8701" ry="2.87023" transform="matrix(0.835026 -0.550073 0.554445 0.832313 1208.02 405.643)" fill="#ECC7FF"/>
<g opacity="0.5">
<ellipse cx="2.87028" cy="2.87005" rx="2.87028" ry="2.87005" transform="matrix(-0.779456 0.625586 -0.630271 -0.77708 1282.43 621.81)" fill="#ECC7FF"/>
<ellipse cx="2.87028" cy="2.87005" rx="2.87028" ry="2.87005" transform="matrix(-0.779455 0.625587 -0.63027 -0.777081 1281.58 589.254)" fill="#ECC7FF"/>
<ellipse cx="2.87028" cy="2.87005" rx="2.87028" ry="2.87005" transform="matrix(-0.779455 0.625587 -0.63027 -0.777081 1204.76 555.116)" fill="#ECC7FF"/>
<ellipse cx="2.8703" cy="2.87007" rx="2.8703" ry="2.87007" transform="matrix(-0.779459 0.625582 -0.630274 -0.777077 1215.27 497.793)" fill="#ECC7FF"/>
<ellipse cx="2.87027" cy="2.87004" rx="2.87027" ry="2.87004" transform="matrix(-0.779452 0.625591 -0.630266 -0.777084 1202.76 593.866)" fill="#ECC7FF"/>
</g>
<g opacity="0.5">
<ellipse cx="2.87031" cy="2.87007" rx="2.87031" ry="2.87007" transform="matrix(-0.779462 0.625579 -0.630278 -0.777074 1273.79 671.757)" fill="#ECC7FF"/>
<ellipse cx="2.87031" cy="2.87007" rx="2.87031" ry="2.87007" transform="matrix(-0.779458 0.625584 -0.630273 -0.777078 1173.51 683.828)" fill="#ECC7FF"/>
<ellipse cx="2.87029" cy="2.87006" rx="2.87029" ry="2.87006" transform="matrix(-0.779455 0.625587 -0.630269 -0.777081 1210.56 632.573)" fill="#ECC7FF"/>
<ellipse cx="2.87028" cy="2.87005" rx="2.87028" ry="2.87005" transform="matrix(-0.779456 0.625587 -0.63027 -0.777081 1245.94 637.413)" fill="#ECC7FF"/>
<ellipse cx="2.87028" cy="2.87005" rx="2.87028" ry="2.87005" transform="matrix(-0.779456 0.625587 -0.63027 -0.777081 1143.12 612.418)" fill="#ECC7FF"/>
<ellipse cx="2.87028" cy="2.87005" rx="2.87028" ry="2.87005" transform="matrix(-0.779456 0.625586 -0.63027 -0.77708 1069.07 673.814)" fill="#ECC7FF"/>
<ellipse cx="2.8703" cy="2.87007" rx="2.8703" ry="2.87007" transform="matrix(-0.779482 0.625555 -0.630302 -0.777055 1167.07 511.068)" fill="#ECC7FF"/>
<ellipse cx="2.87029" cy="2.87005" rx="2.87029" ry="2.87005" transform="matrix(-0.779455 0.625587 -0.630269 -0.777081 1175.98 468.726)" fill="#ECC7FF"/>
<ellipse cx="2.87029" cy="2.87005" rx="2.87029" ry="2.87005" transform="matrix(-0.779455 0.625587 -0.630269 -0.777081 1076.88 479.839)" fill="#ECC7FF"/>
<ellipse cx="2.8703" cy="2.87007" rx="2.8703" ry="2.87007" transform="matrix(-0.779459 0.625582 -0.630274 -0.777077 1242.76 846.578)" fill="#ECC7FF"/>
<ellipse cx="2.87027" cy="2.87004" rx="2.87027" ry="2.87004" transform="matrix(-0.779452 0.625591 -0.630265 -0.777084 1250.57 652.606)" fill="#ECC7FF"/>
</g>
<g opacity="0.1">
<ellipse cx="2.8703" cy="2.87006" rx="2.8703" ry="2.87006" transform="matrix(-0.77946 0.625581 -0.630275 -0.777076 1023.6 790.232)" fill="#ECC7FF"/>
<ellipse cx="2.87027" cy="2.87004" rx="2.87027" ry="2.87004" transform="matrix(-0.779452 0.625591 -0.630265 -0.777084 1067.92 762.475)" fill="#ECC7FF"/>
<ellipse cx="2.8703" cy="2.87007" rx="2.8703" ry="2.87007" transform="matrix(-0.779459 0.625582 -0.630274 -0.777077 1115.01 830.25)" fill="#ECC7FF"/>
<ellipse cx="2.8703" cy="2.87006" rx="2.8703" ry="2.87006" transform="matrix(-0.77946 0.625581 -0.630275 -0.777076 1029.4 867.688)" fill="#ECC7FF"/>
<ellipse cx="2.87028" cy="2.87005" rx="2.87028" ry="2.87005" transform="matrix(-0.779456 0.625587 -0.63027 -0.777081 943.822 793.658)" fill="#ECC7FF"/>
<ellipse cx="2.8703" cy="2.87006" rx="2.8703" ry="2.87006" transform="matrix(-0.77946 0.625581 -0.630275 -0.777076 843.537 805.728)" fill="#ECC7FF"/>
<ellipse cx="2.87027" cy="2.87004" rx="2.87027" ry="2.87004" transform="matrix(-0.779452 0.625591 -0.630265 -0.777084 880.596 754.473)" fill="#ECC7FF"/>
<ellipse cx="2.87028" cy="2.87005" rx="2.87028" ry="2.87005" transform="matrix(-0.779456 0.625586 -0.630271 -0.77708 915.971 759.314)" fill="#ECC7FF"/>
<ellipse cx="2.8703" cy="2.87006" rx="2.8703" ry="2.87006" transform="matrix(-0.77946 0.625581 -0.630275 -0.777076 813.146 734.318)" fill="#ECC7FF"/>
<ellipse cx="2.87028" cy="2.87004" rx="2.87028" ry="2.87004" transform="matrix(-0.779457 0.625585 -0.630272 -0.777079 739.103 795.713)" fill="#ECC7FF"/>
<ellipse cx="2.8703" cy="2.87007" rx="2.8703" ry="2.87007" transform="matrix(-0.77946 0.625582 -0.630275 -0.777077 837.102 632.969)" fill="#ECC7FF"/>
<ellipse cx="2.87028" cy="2.87005" rx="2.87028" ry="2.87005" transform="matrix(-0.779456 0.625586 -0.63027 -0.77708 846.009 590.627)" fill="#ECC7FF"/>
<ellipse cx="2.87009" cy="2.87024" rx="2.87009" ry="2.87024" transform="matrix(0.835007 -0.550101 0.554416 0.832332 1268.8 683.142)" fill="#ECC7FF"/>
<ellipse cx="2.87009" cy="2.87024" rx="2.87009" ry="2.87024" transform="matrix(0.835007 -0.550101 0.554416 0.832332 1274.98 744.782)" fill="#ECC7FF"/>
<ellipse cx="2.8701" cy="2.87024" rx="2.8701" ry="2.87024" transform="matrix(0.835012 -0.550094 0.554423 0.832328 1173.8 813.288)" fill="#ECC7FF"/>
<ellipse cx="2.87011" cy="2.87024" rx="2.87011" ry="2.87024" transform="matrix(0.835011 -0.550095 0.554422 0.832328 1115.42 758.674)" fill="#ECC7FF"/>
<ellipse cx="2.87028" cy="2.87005" rx="2.87028" ry="2.87005" transform="matrix(-0.779456 0.625587 -0.63027 -0.777081 1185.87 747.951)" fill="#ECC7FF"/>
<ellipse cx="2.8703" cy="2.87007" rx="2.8703" ry="2.87007" transform="matrix(-0.779459 0.625582 -0.630274 -0.777077 1130.21 689.008)" fill="#ECC7FF"/>
<ellipse cx="2.87011" cy="2.87025" rx="2.87011" ry="2.87025" transform="matrix(0.835011 -0.550096 0.554421 0.832329 965.125 603.393)" fill="#ECC7FF"/>
<ellipse cx="2.87011" cy="2.87025" rx="2.87011" ry="2.87025" transform="matrix(0.835011 -0.550096 0.554421 0.832329 994.658 637.696)" fill="#ECC7FF"/>
<ellipse cx="2.87013" cy="2.87026" rx="2.87013" ry="2.87026" transform="matrix(0.835013 -0.550092 0.554425 0.832326 958.319 708.828)" fill="#ECC7FF"/>
<ellipse cx="2.8703" cy="2.87006" rx="2.8703" ry="2.87006" transform="matrix(-0.77946 0.625581 -0.630275 -0.777076 1127.33 746.06)" fill="#ECC7FF"/>
<ellipse cx="2.87028" cy="2.87005" rx="2.87028" ry="2.87005" transform="matrix(-0.779456 0.625587 -0.63027 -0.77708 746.915 601.74)" fill="#ECC7FF"/>
<ellipse cx="2.87028" cy="2.87005" rx="2.87028" ry="2.87005" transform="matrix(-0.779456 0.625586 -0.630271 -0.77708 1185.03 884.855)" fill="#ECC7FF"/>
<ellipse cx="2.8703" cy="2.87007" rx="2.8703" ry="2.87007" transform="matrix(-0.779459 0.625582 -0.630274 -0.777077 1259.08 884.066)" fill="#ECC7FF"/>
<ellipse cx="2.8703" cy="2.87007" rx="2.8703" ry="2.87007" transform="matrix(-0.779459 0.625582 -0.630274 -0.777077 1081.78 873.882)" fill="#ECC7FF"/>
<ellipse cx="2.8703" cy="2.87006" rx="2.8703" ry="2.87006" transform="matrix(-0.77946 0.625581 -0.630275 -0.777076 1065.8 820.237)" fill="#ECC7FF"/>
<ellipse cx="2.87027" cy="2.87004" rx="2.87027" ry="2.87004" transform="matrix(-0.779451 0.625592 -0.630264 -0.777085 1080.24 847.747)" fill="#ECC7FF"/>
<ellipse cx="2.87029" cy="2.87006" rx="2.87029" ry="2.87006" transform="matrix(-0.779461 0.62558 -0.630277 -0.777075 1167.44 906.793)" fill="#ECC7FF"/>
<ellipse cx="2.87029" cy="2.87006" rx="2.87029" ry="2.87006" transform="matrix(-0.779455 0.625588 -0.630269 -0.777082 1219.25 900.395)" fill="#ECC7FF"/>
<ellipse cx="2.87029" cy="2.87006" rx="2.87029" ry="2.87006" transform="matrix(-0.779454 0.625589 -0.630268 -0.777083 1126.15 916.475)" fill="#ECC7FF"/>
<ellipse cx="2.87032" cy="2.87008" rx="2.87032" ry="2.87008" transform="matrix(-0.779464 0.625577 -0.63028 -0.777073 1125.3 883.918)" fill="#ECC7FF"/>
<ellipse cx="2.87028" cy="2.87005" rx="2.87028" ry="2.87005" transform="matrix(-0.779456 0.625586 -0.630271 -0.77708 1048.48 849.781)" fill="#ECC7FF"/>
<ellipse cx="2.87029" cy="2.87006" rx="2.87029" ry="2.87006" transform="matrix(-0.779455 0.625588 -0.630269 -0.777082 1059 792.459)" fill="#ECC7FF"/>
<ellipse cx="2.87028" cy="2.87005" rx="2.87028" ry="2.87005" transform="matrix(-0.779456 0.625587 -0.63027 -0.777081 1250.59 912.385)" fill="#ECC7FF"/>
<ellipse cx="2.87028" cy="2.87004" rx="2.87028" ry="2.87004" transform="matrix(-0.779457 0.625585 -0.630272 -0.777079 1046.49 888.53)" fill="#ECC7FF"/>
<ellipse cx="2.87028" cy="2.87005" rx="2.87028" ry="2.87005" transform="matrix(-0.779456 0.625587 -0.63027 -0.777081 1197.29 962.996)" fill="#ECC7FF"/>
<ellipse cx="2.87028" cy="2.87005" rx="2.87028" ry="2.87005" transform="matrix(-0.779456 0.625587 -0.63027 -0.777081 1241.61 935.239)" fill="#ECC7FF"/>
<ellipse cx="2.87028" cy="2.87004" rx="2.87028" ry="2.87004" transform="matrix(-0.779457 0.625585 -0.630272 -0.777079 1288.71 1003.01)" fill="#ECC7FF"/>
<ellipse cx="2.8703" cy="2.87007" rx="2.8703" ry="2.87007" transform="matrix(-0.779459 0.625582 -0.630274 -0.777077 1117.51 966.423)" fill="#ECC7FF"/>
<ellipse cx="2.87032" cy="2.87008" rx="2.87032" ry="2.87008" transform="matrix(-0.779463 0.625578 -0.630279 -0.777074 1017.23 978.494)" fill="#ECC7FF"/>
<ellipse cx="2.87028" cy="2.87004" rx="2.87028" ry="2.87004" transform="matrix(-0.779457 0.625585 -0.630272 -0.777079 1054.29 927.238)" fill="#ECC7FF"/>
<ellipse cx="2.87028" cy="2.87005" rx="2.87028" ry="2.87005" transform="matrix(-0.779456 0.625587 -0.63027 -0.777081 1089.66 932.08)" fill="#ECC7FF"/>
<ellipse cx="2.87026" cy="2.87003" rx="2.87026" ry="2.87003" transform="matrix(-0.779453 0.62559 -0.630266 -0.777083 986.841 907.084)" fill="#ECC7FF"/>
<ellipse cx="2.87028" cy="2.87005" rx="2.87028" ry="2.87005" transform="matrix(-0.779456 0.625587 -0.63027 -0.777081 912.795 968.479)" fill="#ECC7FF"/>
<ellipse cx="2.87028" cy="2.87005" rx="2.87028" ry="2.87005" transform="matrix(-0.779456 0.625586 -0.630271 -0.77708 1010.8 805.734)" fill="#ECC7FF"/>
<ellipse cx="2.87028" cy="2.87005" rx="2.87028" ry="2.87005" transform="matrix(-0.779456 0.625586 -0.630271 -0.77708 1019.7 763.391)" fill="#ECC7FF"/>
<ellipse cx="2.87027" cy="2.87004" rx="2.87027" ry="2.87004" transform="matrix(-0.779452 0.625591 -0.630265 -0.777084 920.607 774.505)" fill="#ECC7FF"/>
<ellipse cx="2.87007" cy="2.87022" rx="2.87007" ry="2.87022" transform="matrix(0.835004 -0.550106 0.554411 0.832335 1245.47 824.467)" fill="#ECC7FF"/>
</g>
</g>
<mask id="mask1_424_15523" style="mask-type:alpha" maskUnits="userSpaceOnUse" x="535" y="295" width="665" height="434">
<path d="M1021 625.893C1100.76 605.105 1173.03 590.869 1196.59 484.373C1208.69 430.201 1174.14 366.577 1125.71 356.232C1078.58 346.175 1025.41 362.897 978.834 366.024C918.782 369.653 866.101 341.574 810.566 321.821C627.64 257.58 551.542 328.938 538.928 364.709C514.86 434.395 626.122 447.821 654.88 479.314C688.84 516.56 677.579 583.607 686.381 631.955C722.884 834.84 889.309 660.317 1021 625.893Z" fill="url(#paint0_radial_424_15523)"/>
</mask>
<g mask="url(#mask1_424_15523)">
<rect width="760.31" height="892.371" rx="9.01488" transform="matrix(0.99998 0.00609829 0.0552187 0.998489 592.716 3.97357)" fill="url(#paint1_linear_424_15523)"/>
</g>
<mask id="mask2_424_15523" style="mask-type:alpha" maskUnits="userSpaceOnUse" x="861" y="378" width="395" height="493">
<path d="M1085.47 431.337C1042.11 392.706 1005.94 355.303 924.928 396.343C883.676 417.149 853.097 471.838 863.82 507.301C874.262 541.805 905.114 566.057 924.313 593.326C948.791 628.694 949.018 676.061 955.95 720.847C979.342 867.937 1055.73 877.863 1084.67 866.995C1140.85 845.508 1109.19 769.448 1120.05 735.143C1132.92 694.602 1182.61 666.548 1212.25 635.817C1336.75 507.127 1157.14 495.067 1085.47 431.337Z" fill="url(#paint2_radial_424_15523)"/>
</mask>
<g mask="url(#mask2_424_15523)">
<rect width="648.714" height="769.035" rx="9.01488" transform="matrix(-0.501938 -0.864879 0.763531 -0.645734 870.104 1108.91)" fill="url(#paint3_linear_424_15523)"/>
</g>
<mask id="mask3_424_15523" style="mask-type:alpha" maskUnits="userSpaceOnUse" x="360" y="280" width="490" height="585">
<path d="M811.826 662.318C813.152 739.13 819.135 807.644 715.146 853.878C662.28 877.498 586.165 861.271 561.47 820.016C537.448 779.868 539.545 727.997 529.397 685.256C515.895 630.246 471.533 589.322 435.008 543.871C315.561 393.967 367.888 308.595 401.466 288.826C467.024 250.771 512.999 347.965 554.029 366.512C602.541 388.402 669.038 362.516 721.858 359.111C943.387 344.432 809.743 535.472 811.826 662.318Z" fill="url(#paint4_radial_424_15523)"/>
</mask>
<g mask="url(#mask3_424_15523)">
<rect width="720.797" height="954.393" rx="9.01488" transform="matrix(0.30998 0.950854 0.985054 -0.1726 117.878 253.159)" fill="url(#paint5_linear_424_15523)"/>
</g>
<mask id="mask4_424_15523" style="mask-type:alpha" maskUnits="userSpaceOnUse" x="540" y="548" width="541" height="343">
<path d="M627.386 766.332C574.85 736.388 525.638 712.642 545.359 629.929C555.307 587.833 603.562 547.344 643.53 548.621C682.42 549.871 716.431 571.94 750.275 582.793C794.051 596.488 843.431 585.492 892.029 581.147C1051.82 567.444 1083.84 633.939 1080.75 662.585C1074.33 718.297 986.149 707.753 953.517 725.654C914.961 746.836 899.865 798.254 876.284 832.225C777.656 974.861 714.092 815.847 627.386 766.332Z" fill="url(#paint6_radial_424_15523)"/>
</mask>
<g mask="url(#mask4_424_15523)">
<rect width="587.434" height="735.337" rx="9.01488" transform="matrix(-0.972813 -0.231989 -0.475213 0.880064 1166.6 386.986)" fill="url(#paint7_linear_424_15523)"/>
</g>
<mask id="mask5_424_15523" style="mask-type:alpha" maskUnits="userSpaceOnUse" x="540" y="240" width="419" height="597">
<path d="M628.713 682.439C645.146 758.67 655.485 828.396 759.622 836.494C812.589 840.725 877.323 797.274 890.068 747.683C902.46 699.426 888.672 649.027 887.992 603.215C887.513 544.094 918.022 487.737 940.443 429.742C990.968 299.046 924.938 251.066 890.202 243.678C822.508 229.788 792.411 268.14 759.765 301.227C721.156 340.309 688.344 335.28 640.057 350.969C437.447 416.376 601.481 556.59 628.713 682.439Z" fill="url(#paint8_radial_424_15523)"/>
</mask>
<g mask="url(#mask5_424_15523)">
<rect width="969.554" height="1001.12" rx="9.01488" transform="matrix(-0.058043 0.998368 -0.980328 0.196469 1332.7 121)" fill="url(#paint9_linear_424_15523)"/>
</g>
</g>
<rect opacity="0.6" x="855" y="582" width="22" height="22" fill="#553ACF"/>
<rect opacity="0.6" x="847" y="566" width="22" height="22" transform="rotate(90 847 566)" fill="#553ACF"/>
<rect opacity="0.6" x="877" y="604" width="23" height="23" fill="#B0A0F8"/>
<rect opacity="0.6" x="825" y="588" width="23" height="23" transform="rotate(90 825 588)" fill="#B0A0F8"/>
<rect opacity="0.6" x="900" y="571" width="22" height="22" fill="#553ACF"/>
<rect opacity="0.6" x="858" y="611" width="22" height="22" transform="rotate(90 858 611)" fill="#553ACF"/>
<rect opacity="0.6" x="922" y="537" width="22" height="22" fill="#553ACF"/>
<rect opacity="0.6" x="892" y="633" width="22" height="22" transform="rotate(90 892 633)" fill="#553ACF"/>
<rect opacity="0.6" x="877" y="518" width="23" height="23" fill="#B0A0F8"/>
<rect opacity="0.6" x="911" y="588" width="23" height="23" transform="rotate(90 911 588)" fill="#B0A0F8"/>
<rect opacity="0.6" x="756" y="594" width="22" height="22" fill="#B0A0F8"/>
<rect opacity="0.6" x="835" y="467" width="22" height="22" transform="rotate(90 835 467)" fill="#B0A0F8"/>
<rect opacity="0.6" x="694" y="593" width="22" height="22" fill="#B0A0F8"/>
<rect opacity="0.6" x="836" y="405" width="22" height="22" transform="rotate(90 836 405)" fill="#B0A0F8"/>
<rect opacity="0.6" x="716" y="616" width="22" height="22" fill="#553ACF"/>
<rect opacity="0.6" x="813" y="427" width="22" height="22" transform="rotate(90 813 427)" fill="#553ACF"/>
<rect opacity="0.6" x="744" y="548" width="23" height="22" fill="#553ACF"/>
<rect opacity="0.6" x="881" y="455" width="23" height="22" transform="rotate(90 881 455)" fill="#553ACF"/>
<rect opacity="0.6" x="791" y="554" width="22" height="22" fill="#553ACF"/>
<rect opacity="0.6" x="875" y="502" width="22" height="22" transform="rotate(90 875 502)" fill="#553ACF"/>
</g>
<defs>
<radialGradient id="paint0_radial_424_15523" cx="0" cy="0" r="1" gradientUnits="userSpaceOnUse" gradientTransform="translate(1002.93 541.522) rotate(38.9636) scale(326.384 392.213)">
<stop stop-color="#1B1A21"/>
<stop offset="1" stop-color="#1B1A21" stop-opacity="0"/>
</radialGradient>
<linearGradient id="paint1_linear_424_15523" x1="-68.0381" y1="502.775" x2="569.208" y2="1058.75" gradientUnits="userSpaceOnUse">
<stop stop-color="#FFBFFF"/>
<stop offset="1" stop-color="#AA00FF"/>
</linearGradient>
<radialGradient id="paint2_radial_424_15523" cx="0" cy="0" r="1" gradientUnits="userSpaceOnUse" gradientTransform="translate(1034.76 486.652) rotate(-80.0459) scale(268.796 292.09)">
<stop stop-color="#1B1A21"/>
<stop offset="1" stop-color="#1B1A21" stop-opacity="0"/>
</radialGradient>
<linearGradient id="paint3_linear_424_15523" x1="-58.0516" y1="433.286" x2="490.35" y2="906.994" gradientUnits="userSpaceOnUse">
<stop stop-color="#8572D7"/>
<stop offset="1" stop-color="#D6EEFF"/>
</linearGradient>
<radialGradient id="paint4_radial_424_15523" cx="0" cy="0" r="1" gradientUnits="userSpaceOnUse" gradientTransform="translate(718.869 665.809) rotate(32.2447) scale(338.727 380.021)">
<stop stop-color="#1B1A21"/>
<stop offset="1" stop-color="#1B1A21" stop-opacity="0"/>
</radialGradient>
<linearGradient id="paint5_linear_424_15523" x1="-64.5021" y1="537.72" x2="601.28" y2="1052.62" gradientUnits="userSpaceOnUse">
<stop stop-color="#856DF1" stop-opacity="0.5"/>
<stop offset="1" stop-color="#CDEAFF"/>
</linearGradient>
<radialGradient id="paint6_radial_424_15523" cx="0" cy="0" r="1" gradientUnits="userSpaceOnUse" gradientTransform="translate(672.427 646.577) rotate(147.954) scale(311.817 308.792)">
<stop stop-color="#1B1A21"/>
<stop offset="1" stop-color="#1B1A21" stop-opacity="0"/>
</radialGradient>
<linearGradient id="paint7_linear_424_15523" x1="-52.5679" y1="414.3" x2="466.922" y2="839.267" gradientUnits="userSpaceOnUse">
<stop stop-color="#FFBFFF"/>
<stop offset="1" stop-color="#AA00FF"/>
</linearGradient>
<radialGradient id="paint8_radial_424_15523" cx="0" cy="0" r="1" gradientUnits="userSpaceOnUse" gradientTransform="translate(721.908 535.991) rotate(81.2353) scale(400.181 405.723)">
<stop stop-color="#1B1A21"/>
<stop offset="1" stop-color="#1B1A21" stop-opacity="0"/>
</radialGradient>
<linearGradient id="paint9_linear_424_15523" x1="-86.7627" y1="564.044" x2="634.777" y2="1279.62" gradientUnits="userSpaceOnUse">
<stop stop-color="#856DF1" stop-opacity="0.5"/>
<stop offset="1" stop-color="#CDEAFF"/>
</linearGradient>
<clipPath id="clip0_424_15523">
<rect width="1449.89" height="1135.81" fill="white"/>
</clipPath>
</defs>
</svg>
