<svg width="70" height="70" viewBox="0 0 70 70" fill="none" xmlns="http://www.w3.org/2000/svg">
<mask id="mask0_343_13604" style="mask-type:alpha" maskUnits="userSpaceOnUse" x="0" y="0" width="70" height="70">
<circle cx="35" cy="35" r="35" fill="#D9D9D9"/>
</mask>
<g mask="url(#mask0_343_13604)">
<circle cx="35" cy="35" r="35" fill="#553ACF"/>
<path d="M36.861 12.2499C41.5546 13.5541 45.8191 16.838 47.5893 20.8544C50.2982 27.3718 49.6729 35.6057 46.7042 40.5122C44.2048 44.5353 40.351 46.6659 35.924 46.6139C29.0512 46.562 23.4775 41.0822 23.4255 34.2094C23.4255 27.3265 28.8416 21.6372 35.924 21.6372C37.529 21.6368 39.1179 21.9571 40.5975 22.5793C40.5975 22.5793 39.2564 21.7797 35.7882 21.2382C25.8411 19.9391 14.1037 27.4757 16.8058 44.8404C20.5557 51.5154 27.742 56.0515 35.9156 55.9995C47.9463 55.9475 57.7895 46.0926 57.7376 33.9948C57.7459 22.4183 48.3201 12.5634 36.861 12.2499Z" fill="white"/>
<path d="M45.0378 21.48C43.3715 17.9866 39.9385 15.2224 35.7159 14.1278C34.729 13.8759 33.7168 13.7359 32.6986 13.7104C31.0814 13.7127 29.4713 13.9229 27.9077 14.3356C24.6471 15.3275 21.7145 17.1806 19.419 19.6998C17.2834 22.1505 15.877 24.7069 15.0438 27.2615C15.0438 27.3135 14.9919 27.3655 14.9919 27.4694C14.8871 27.7947 14.7998 28.1254 14.7304 28.4601C14.6784 28.5657 14.6784 28.7216 14.6264 28.8255L14.4706 29.4508C14.474 29.4792 14.4712 29.5081 14.4622 29.5354C14.4532 29.5626 14.4383 29.5875 14.4186 29.6083C13.0641 36.3353 15.3137 42.3716 16.6682 44.6128C17.0034 45.1744 17.285 45.6421 17.5633 46.0712C14.4907 29.3854 23.3247 21.4297 33.3758 21.2118C38.636 21.1079 43.8945 23.2468 46.4509 27.5214C46.2883 25.1829 46.1408 23.8788 45.0378 21.48Z" fill="white"/>
</g>
</svg>
