<svg width="184" height="101" viewBox="0 0 184 101" fill="none" xmlns="http://www.w3.org/2000/svg">
<g filter="url(#filter0_d_13_6050)">
<rect x="5" y="3" width="174" height="90" rx="2.43243" fill="white" shape-rendering="crispEdges"/>
<path d="M16.5198 20.946V15.1279H18.7016C19.1486 15.1279 19.5236 15.2055 19.8266 15.3608C20.1315 15.5161 20.3616 15.7339 20.5169 16.0142C20.6741 16.2926 20.7527 16.6174 20.7527 16.9887C20.7527 17.3618 20.6732 17.6856 20.5141 17.9602C20.3569 18.233 20.1249 18.4442 19.8181 18.5938C19.5113 18.7415 19.1344 18.8154 18.6874 18.8154H17.1334V17.9404H18.5454C18.8067 17.9404 19.0207 17.9044 19.1874 17.8324C19.3541 17.7585 19.4772 17.6515 19.5567 17.5114C19.6382 17.3693 19.6789 17.1951 19.6789 16.9887C19.6789 16.7822 19.6382 16.6061 19.5567 16.4602C19.4753 16.3125 19.3512 16.2008 19.1846 16.125C19.0179 16.0474 18.8029 16.0085 18.5397 16.0085H17.5738V20.946H16.5198ZM19.5255 18.3097L20.9658 20.946H19.7897L18.3749 18.3097H19.5255ZM23.5468 21.0313C23.1093 21.0313 22.7314 20.9404 22.4133 20.7585C22.097 20.5748 21.8536 20.3154 21.6831 19.9801C21.5127 19.643 21.4275 19.2462 21.4275 18.7898C21.4275 18.3409 21.5127 17.947 21.6831 17.608C21.8555 17.2671 22.096 17.0019 22.4047 16.8125C22.7134 16.6212 23.0761 16.5256 23.4928 16.5256C23.7617 16.5256 24.0155 16.5692 24.2542 16.6563C24.4947 16.7415 24.7068 16.8741 24.8905 17.054C25.0761 17.2339 25.222 17.4631 25.328 17.7415C25.4341 18.018 25.4871 18.3476 25.4871 18.7301V19.0455H21.9104V18.3523H24.5013C24.4994 18.1553 24.4568 17.9801 24.3735 17.8267C24.2901 17.6714 24.1737 17.5493 24.024 17.4602C23.8763 17.3712 23.704 17.3267 23.507 17.3267C23.2968 17.3267 23.1121 17.3779 22.953 17.4801C22.7939 17.5805 22.6699 17.7131 22.5809 17.8779C22.4937 18.0407 22.4492 18.2197 22.4473 18.4148V19.0199C22.4473 19.2737 22.4937 19.4915 22.5865 19.6733C22.6794 19.8532 22.8091 19.9915 22.9758 20.0881C23.1424 20.1828 23.3375 20.2301 23.561 20.2301C23.7106 20.2301 23.846 20.2093 23.9672 20.1676C24.0884 20.1241 24.1936 20.0606 24.2826 19.9773C24.3716 19.894 24.4388 19.7907 24.4843 19.6676L25.4445 19.7756C25.3839 20.0294 25.2684 20.251 25.0979 20.4404C24.9294 20.6279 24.7134 20.7737 24.4502 20.8779C24.1869 20.9801 23.8858 21.0313 23.5468 21.0313ZM27.6128 21.0341C27.3363 21.0341 27.0873 20.9849 26.8657 20.8864C26.646 20.786 26.4717 20.6383 26.3429 20.4432C26.216 20.2481 26.1526 20.0076 26.1526 19.7216C26.1526 19.4754 26.1981 19.2718 26.289 19.1108C26.3799 18.9498 26.5039 18.821 26.6611 18.7245C26.8183 18.6279 26.9954 18.5549 27.1924 18.5057C27.3912 18.4546 27.5967 18.4176 27.8088 18.3949C28.0645 18.3684 28.2719 18.3447 28.431 18.3239C28.5901 18.3012 28.7056 18.2671 28.7776 18.2216C28.8515 18.1743 28.8884 18.1013 28.8884 18.0029V17.9858C28.8884 17.7718 28.8249 17.6061 28.6981 17.4887C28.5712 17.3712 28.3884 17.3125 28.1498 17.3125C27.8979 17.3125 27.6981 17.3674 27.5503 17.4773C27.4045 17.5871 27.306 17.7169 27.2549 17.8665L26.2946 17.7301C26.3704 17.465 26.4954 17.2434 26.6696 17.0654C26.8439 16.8854 27.057 16.751 27.3088 16.662C27.5607 16.571 27.8392 16.5256 28.1441 16.5256C28.3543 16.5256 28.5636 16.5502 28.7719 16.5995C28.9803 16.6487 29.1706 16.7301 29.3429 16.8438C29.5153 16.9555 29.6535 17.108 29.7577 17.3012C29.8638 17.4943 29.9168 17.7358 29.9168 18.0256V20.946H28.9282V20.3466H28.8941C28.8316 20.4678 28.7435 20.5815 28.6299 20.6875C28.5181 20.7917 28.377 20.876 28.2066 20.9404C28.038 21.0029 27.8401 21.0341 27.6128 21.0341ZM27.8799 20.2784C28.0863 20.2784 28.2653 20.2377 28.4168 20.1563C28.5683 20.0729 28.6848 19.9631 28.7662 19.8267C28.8496 19.6904 28.8912 19.5417 28.8912 19.3807V18.8665C28.859 18.893 28.8041 18.9176 28.7265 18.9404C28.6507 18.9631 28.5655 18.983 28.4708 19C28.3761 19.0171 28.2823 19.0322 28.1895 19.0455C28.0967 19.0587 28.0162 19.0701 27.9481 19.0796C27.7946 19.1004 27.6573 19.1345 27.5361 19.1818C27.4149 19.2292 27.3193 19.2955 27.2492 19.3807C27.1791 19.464 27.1441 19.572 27.1441 19.7046C27.1441 19.894 27.2132 20.037 27.3515 20.1335C27.4897 20.2301 27.6659 20.2784 27.8799 20.2784ZM31.9793 15.1279V20.946H30.9509V15.1279H31.9793ZM35.6817 18.0995V18.946H33.0624V18.0995H35.6817ZM36.1938 16.0114V15.1279H40.8358V16.0114H39.0375V20.946H37.9921V16.0114H36.1938ZM41.6853 20.946V16.5824H42.7137V20.946H41.6853ZM42.2023 15.9631C42.0394 15.9631 41.8993 15.9091 41.7819 15.8012C41.6644 15.6913 41.6057 15.5597 41.6057 15.4063C41.6057 15.251 41.6644 15.1193 41.7819 15.0114C41.8993 14.9015 42.0394 14.8466 42.2023 14.8466C42.3671 14.8466 42.5072 14.9015 42.6228 15.0114C42.7402 15.1193 42.7989 15.251 42.7989 15.4063C42.7989 15.5597 42.7402 15.6913 42.6228 15.8012C42.5072 15.9091 42.3671 15.9631 42.2023 15.9631ZM43.7712 20.946V16.5824H44.7542V17.3239H44.8053C44.8962 17.0739 45.0468 16.8788 45.257 16.7387C45.4672 16.5966 45.7182 16.5256 46.0098 16.5256C46.3053 16.5256 46.5544 16.5976 46.757 16.7415C46.9615 16.8835 47.1055 17.0777 47.1888 17.3239H47.2343C47.3309 17.0815 47.4937 16.8883 47.7229 16.7443C47.954 16.5985 48.2276 16.5256 48.5439 16.5256C48.9454 16.5256 49.2731 16.6525 49.5269 16.9063C49.7807 17.1601 49.9076 17.5303 49.9076 18.0171V20.946H48.8763V18.1762C48.8763 17.9053 48.8044 17.7074 48.6604 17.5824C48.5165 17.4555 48.3403 17.3921 48.132 17.3921C47.8839 17.3921 47.6898 17.4697 47.5496 17.625C47.4114 17.7784 47.3422 17.9782 47.3422 18.2245V20.946H46.3337V18.1335C46.3337 17.9082 46.2655 17.7282 46.1292 17.5938C45.9947 17.4593 45.8186 17.3921 45.6008 17.3921C45.453 17.3921 45.3186 17.4299 45.1973 17.5057C45.0761 17.5796 44.9795 17.6847 44.9076 17.821C44.8356 17.9555 44.7996 18.1127 44.7996 18.2926V20.946H43.7712ZM52.8827 21.0313C52.4452 21.0313 52.0674 20.9404 51.7492 20.7585C51.4329 20.5748 51.1895 20.3154 51.0191 19.9801C50.8486 19.643 50.7634 19.2462 50.7634 18.7898C50.7634 18.3409 50.8486 17.947 51.0191 17.608C51.1914 17.2671 51.432 17.0019 51.7407 16.8125C52.0494 16.6212 52.4121 16.5256 52.8287 16.5256C53.0977 16.5256 53.3515 16.5692 53.5901 16.6563C53.8306 16.7415 54.0428 16.8741 54.2265 17.054C54.4121 17.2339 54.5579 17.4631 54.664 17.7415C54.77 18.018 54.8231 18.3476 54.8231 18.7301V19.0455H51.2463V18.3523H53.8373C53.8354 18.1553 53.7928 17.9801 53.7094 17.8267C53.6261 17.6714 53.5096 17.5493 53.36 17.4602C53.2123 17.3712 53.0399 17.3267 52.8429 17.3267C52.6327 17.3267 52.4481 17.3779 52.289 17.4801C52.1299 17.5805 52.0058 17.7131 51.9168 17.8779C51.8297 18.0407 51.7852 18.2197 51.7833 18.4148V19.0199C51.7833 19.2737 51.8297 19.4915 51.9225 19.6733C52.0153 19.8532 52.145 19.9915 52.3117 20.0881C52.4784 20.1828 52.6734 20.2301 52.8969 20.2301C53.0465 20.2301 53.182 20.2093 53.3032 20.1676C53.4244 20.1241 53.5295 20.0606 53.6185 19.9773C53.7075 19.894 53.7748 19.7907 53.8202 19.6676L54.7804 19.7756C54.7198 20.0294 54.6043 20.251 54.4338 20.4404C54.2653 20.6279 54.0494 20.7737 53.7861 20.8779C53.5229 20.9801 53.2217 21.0313 52.8827 21.0313ZM59.6945 20.946H57.7229V15.1279H59.7343C60.3119 15.1279 60.8081 15.2443 61.2229 15.4773C61.6396 15.7084 61.9597 16.0407 62.1831 16.4745C62.4066 16.9082 62.5184 17.4271 62.5184 18.0313C62.5184 18.6373 62.4057 19.1582 62.1803 19.5938C61.9568 20.0294 61.6339 20.3637 61.2115 20.5966C60.7911 20.8296 60.2854 20.946 59.6945 20.946ZM58.7769 20.0341H59.6434C60.0487 20.0341 60.3867 19.9602 60.6576 19.8125C60.9284 19.6629 61.132 19.4404 61.2684 19.1449C61.4047 18.8476 61.4729 18.4763 61.4729 18.0313C61.4729 17.5862 61.4047 17.2169 61.2684 16.9233C61.132 16.6279 60.9303 16.4072 60.6633 16.2614C60.3981 16.1137 60.0686 16.0398 59.6746 16.0398H58.7769V20.0341ZM63.4743 20.946V16.5824H64.5027V20.946H63.4743ZM63.9914 15.9631C63.8285 15.9631 63.6883 15.9091 63.5709 15.8012C63.4535 15.6913 63.3948 15.5597 63.3948 15.4063C63.3948 15.251 63.4535 15.1193 63.5709 15.0114C63.6883 14.9015 63.8285 14.8466 63.9914 14.8466C64.1562 14.8466 64.2963 14.9015 64.4118 15.0114C64.5293 15.1193 64.588 15.251 64.588 15.4063C64.588 15.5597 64.5293 15.6913 64.4118 15.8012C64.2963 15.9091 64.1562 15.9631 63.9914 15.9631ZM67.458 22.6733C67.0887 22.6733 66.7714 22.6231 66.5063 22.5227C66.2411 22.4243 66.0281 22.2917 65.8671 22.125C65.7061 21.9584 65.5944 21.7737 65.5319 21.571L66.458 21.3466C66.4997 21.4318 66.5603 21.5161 66.6398 21.5995C66.7194 21.6847 66.8264 21.7548 66.9608 21.8097C67.0972 21.8665 67.2686 21.8949 67.475 21.8949C67.7667 21.8949 68.0082 21.8239 68.1995 21.6818C68.3908 21.5417 68.4864 21.3106 68.4864 20.9887V20.162H68.4353C68.3822 20.268 68.3046 20.3769 68.2023 20.4887C68.1019 20.6004 67.9684 20.6942 67.8017 20.7699C67.637 20.8457 67.4296 20.8835 67.1796 20.8835C66.8444 20.8835 66.5404 20.8049 66.2677 20.6477C65.9968 20.4887 65.7809 20.2519 65.6199 19.9375C65.4608 19.6212 65.3813 19.2254 65.3813 18.75C65.3813 18.2709 65.4608 17.8665 65.6199 17.537C65.7809 17.2055 65.9978 16.9546 66.2705 16.7841C66.5432 16.6118 66.8472 16.5256 67.1824 16.5256C67.4381 16.5256 67.6483 16.5692 67.8131 16.6563C67.9798 16.7415 68.1124 16.8447 68.2108 16.9659C68.3093 17.0852 68.3841 17.1979 68.4353 17.304H68.4921V16.5824H69.5063V21.0171C69.5063 21.3902 69.4173 21.6989 69.2392 21.9432C69.0612 22.1875 68.8178 22.3703 68.5091 22.4915C68.2004 22.6127 67.85 22.6733 67.458 22.6733ZM67.4665 20.0767C67.6843 20.0767 67.8699 20.0237 68.0233 19.9176C68.1767 19.8116 68.2932 19.6591 68.3728 19.4602C68.4523 19.2614 68.4921 19.0227 68.4921 18.7443C68.4921 18.4697 68.4523 18.2292 68.3728 18.0227C68.2951 17.8163 68.1796 17.6563 68.0262 17.5426C67.8747 17.4271 67.6881 17.3693 67.4665 17.3693C67.2374 17.3693 67.0461 17.429 66.8927 17.5483C66.7392 17.6676 66.6237 17.8315 66.5461 18.0398C66.4684 18.2462 66.4296 18.4811 66.4296 18.7443C66.4296 19.0114 66.4684 19.2453 66.5461 19.446C66.6256 19.6449 66.7421 19.8002 66.8955 19.912C67.0508 20.0218 67.2411 20.0767 67.4665 20.0767ZM70.5603 20.946V16.5824H71.5887V20.946H70.5603ZM71.0773 15.9631C70.9144 15.9631 70.7743 15.9091 70.6569 15.8012C70.5394 15.6913 70.4807 15.5597 70.4807 15.4063C70.4807 15.251 70.5394 15.1193 70.6569 15.0114C70.7743 14.9015 70.9144 14.8466 71.0773 14.8466C71.2421 14.8466 71.3822 14.9015 71.4978 15.0114C71.6152 15.1193 71.6739 15.251 71.6739 15.4063C71.6739 15.5597 71.6152 15.6913 71.4978 15.8012C71.3822 15.9091 71.2421 15.9631 71.0773 15.9631ZM74.8252 16.5824V17.3779H72.3167V16.5824H74.8252ZM72.936 15.537H73.9644V19.6335C73.9644 19.7718 73.9852 19.8779 74.0269 19.9517C74.0704 20.0237 74.1273 20.0729 74.1973 20.0995C74.2674 20.126 74.3451 20.1392 74.4303 20.1392C74.4947 20.1392 74.5534 20.1345 74.6064 20.125C74.6614 20.1156 74.703 20.107 74.7314 20.0995L74.9047 20.9034C74.8498 20.9224 74.7712 20.9432 74.6689 20.9659C74.5686 20.9887 74.4454 21.0019 74.2996 21.0057C74.042 21.0133 73.81 20.9745 73.6036 20.8892C73.3972 20.8021 73.2333 20.6676 73.1121 20.4858C72.9928 20.304 72.9341 20.0767 72.936 19.804V15.537ZM76.941 21.0341C76.6644 21.0341 76.4154 20.9849 76.1938 20.8864C75.9741 20.786 75.7999 20.6383 75.6711 20.4432C75.5442 20.2481 75.4807 20.0076 75.4807 19.7216C75.4807 19.4754 75.5262 19.2718 75.6171 19.1108C75.708 18.9498 75.832 18.821 75.9892 18.7245C76.1464 18.6279 76.3235 18.5549 76.5205 18.5057C76.7194 18.4546 76.9249 18.4176 77.137 18.3949C77.3927 18.3684 77.6 18.3447 77.7591 18.3239C77.9182 18.3012 78.0338 18.2671 78.1057 18.2216C78.1796 18.1743 78.2165 18.1013 78.2165 18.0029V17.9858C78.2165 17.7718 78.1531 17.6061 78.0262 17.4887C77.8993 17.3712 77.7165 17.3125 77.4779 17.3125C77.226 17.3125 77.0262 17.3674 76.8785 17.4773C76.7326 17.5871 76.6341 17.7169 76.583 17.8665L75.6228 17.7301C75.6985 17.465 75.8235 17.2434 75.9978 17.0654C76.172 16.8854 76.3851 16.751 76.637 16.662C76.8889 16.571 77.1673 16.5256 77.4722 16.5256C77.6824 16.5256 77.8917 16.5502 78.1 16.5995C78.3084 16.6487 78.4987 16.7301 78.6711 16.8438C78.8434 16.9555 78.9817 17.108 79.0858 17.3012C79.1919 17.4943 79.2449 17.7358 79.2449 18.0256V20.946H78.2563V20.3466H78.2222C78.1597 20.4678 78.0716 20.5815 77.958 20.6875C77.8463 20.7917 77.7052 20.876 77.5347 20.9404C77.3661 21.0029 77.1682 21.0341 76.941 21.0341ZM77.208 20.2784C77.4144 20.2784 77.5934 20.2377 77.7449 20.1563C77.8964 20.0729 78.0129 19.9631 78.0944 19.8267C78.1777 19.6904 78.2194 19.5417 78.2194 19.3807V18.8665C78.1872 18.893 78.1322 18.9176 78.0546 18.9404C77.9788 18.9631 77.8936 18.983 77.7989 19C77.7042 19.0171 77.6105 19.0322 77.5177 19.0455C77.4249 19.0587 77.3444 19.0701 77.2762 19.0796C77.1228 19.1004 76.9855 19.1345 76.8642 19.1818C76.743 19.2292 76.6474 19.2955 76.5773 19.3807C76.5072 19.464 76.4722 19.572 76.4722 19.7046C76.4722 19.894 76.5413 20.037 76.6796 20.1335C76.8178 20.2301 76.994 20.2784 77.208 20.2784ZM81.3074 15.1279V20.946H80.279V15.1279H81.3074ZM84.3948 15.1279H85.6846L87.4118 19.3438H87.48L89.2073 15.1279H90.4971V20.946H89.4857V16.9489H89.4317L87.8238 20.929H87.0681L85.4601 16.9404H85.4062V20.946H84.3948V15.1279ZM92.855 21.0341C92.5785 21.0341 92.3294 20.9849 92.1079 20.8864C91.8882 20.786 91.7139 20.6383 91.5851 20.4432C91.4582 20.2481 91.3948 20.0076 91.3948 19.7216C91.3948 19.4754 91.4402 19.2718 91.5312 19.1108C91.6221 18.9498 91.7461 18.821 91.9033 18.7245C92.0605 18.6279 92.2376 18.5549 92.4346 18.5057C92.6334 18.4546 92.8389 18.4176 93.051 18.3949C93.3067 18.3684 93.5141 18.3447 93.6732 18.3239C93.8323 18.3012 93.9478 18.2671 94.0198 18.2216C94.0937 18.1743 94.1306 18.1013 94.1306 18.0029V17.9858C94.1306 17.7718 94.0671 17.6061 93.9402 17.4887C93.8133 17.3712 93.6306 17.3125 93.3919 17.3125C93.1401 17.3125 92.9402 17.3674 92.7925 17.4773C92.6467 17.5871 92.5482 17.7169 92.4971 17.8665L91.5368 17.7301C91.6126 17.465 91.7376 17.2434 91.9118 17.0654C92.0861 16.8854 92.2991 16.751 92.551 16.662C92.8029 16.571 93.0813 16.5256 93.3863 16.5256C93.5965 16.5256 93.8058 16.5502 94.0141 16.5995C94.2224 16.6487 94.4128 16.7301 94.5851 16.8438C94.7575 16.9555 94.8957 17.108 94.9999 17.3012C95.106 17.4943 95.159 17.7358 95.159 18.0256V20.946H94.1704V20.3466H94.1363C94.0738 20.4678 93.9857 20.5815 93.8721 20.6875C93.7603 20.7917 93.6192 20.876 93.4488 20.9404C93.2802 21.0029 93.0823 21.0341 92.855 21.0341ZM93.1221 20.2784C93.3285 20.2784 93.5075 20.2377 93.659 20.1563C93.8105 20.0729 93.927 19.9631 94.0084 19.8267C94.0918 19.6904 94.1334 19.5417 94.1334 19.3807V18.8665C94.1012 18.893 94.0463 18.9176 93.9687 18.9404C93.8929 18.9631 93.8077 18.983 93.713 19C93.6183 19.0171 93.5245 19.0322 93.4317 19.0455C93.3389 19.0587 93.2584 19.0701 93.1902 19.0796C93.0368 19.1004 92.8995 19.1345 92.7783 19.1818C92.6571 19.2292 92.5615 19.2955 92.4914 19.3807C92.4213 19.464 92.3863 19.572 92.3863 19.7046C92.3863 19.894 92.4554 20.037 92.5937 20.1335C92.7319 20.2301 92.908 20.2784 93.1221 20.2784ZM96.1931 20.946V16.5824H97.1902V17.3097H97.2357C97.3152 17.0578 97.4516 16.8637 97.6448 16.7273C97.8399 16.589 98.0624 16.5199 98.3124 16.5199C98.3692 16.5199 98.4327 16.5227 98.5027 16.5284C98.5747 16.5322 98.6344 16.5388 98.6817 16.5483V17.4943C98.6382 17.4792 98.569 17.4659 98.4743 17.4546C98.3815 17.4413 98.2916 17.4347 98.2044 17.4347C98.0169 17.4347 97.8484 17.4754 97.6988 17.5568C97.551 17.6364 97.4346 17.7472 97.3493 17.8892C97.2641 18.0313 97.2215 18.1951 97.2215 18.3807V20.946H96.1931ZM100.302 19.5767L100.3 18.3352H100.464L102.033 16.5824H103.234L101.305 18.7301H101.092L100.302 19.5767ZM99.365 20.946V15.1279H100.393V20.946H99.365ZM102.104 20.946L100.683 18.9602L101.376 18.2358L103.334 20.946H102.104ZM105.672 21.0313C105.234 21.0313 104.856 20.9404 104.538 20.7585C104.222 20.5748 103.979 20.3154 103.808 19.9801C103.638 19.643 103.552 19.2462 103.552 18.7898C103.552 18.3409 103.638 17.947 103.808 17.608C103.98 17.2671 104.221 17.0019 104.53 16.8125C104.838 16.6212 105.201 16.5256 105.618 16.5256C105.887 16.5256 106.141 16.5692 106.379 16.6563C106.62 16.7415 106.832 16.8741 107.016 17.054C107.201 17.2339 107.347 17.4631 107.453 17.7415C107.559 18.018 107.612 18.3476 107.612 18.7301V19.0455H104.035V18.3523H106.626C106.624 18.1553 106.582 17.9801 106.498 17.8267C106.415 17.6714 106.299 17.5493 106.149 17.4602C106.001 17.3712 105.829 17.3267 105.632 17.3267C105.422 17.3267 105.237 17.3779 105.078 17.4801C104.919 17.5805 104.795 17.7131 104.706 17.8779C104.619 18.0407 104.574 18.2197 104.572 18.4148V19.0199C104.572 19.2737 104.619 19.4915 104.712 19.6733C104.804 19.8532 104.934 19.9915 105.101 20.0881C105.267 20.1828 105.462 20.2301 105.686 20.2301C105.836 20.2301 105.971 20.2093 106.092 20.1676C106.213 20.1241 106.319 20.0606 106.408 19.9773C106.497 19.894 106.564 19.7907 106.609 19.6676L107.57 19.7756C107.509 20.0294 107.393 20.251 107.223 20.4404C107.054 20.6279 106.838 20.7737 106.575 20.8779C106.312 20.9801 106.011 21.0313 105.672 21.0313ZM110.661 16.5824V17.3779H108.153V16.5824H110.661ZM108.772 15.537H109.8V19.6335C109.8 19.7718 109.821 19.8779 109.863 19.9517C109.906 20.0237 109.963 20.0729 110.033 20.0995C110.103 20.126 110.181 20.1392 110.266 20.1392C110.331 20.1392 110.389 20.1345 110.442 20.125C110.497 20.1156 110.539 20.107 110.567 20.0995L110.741 20.9034C110.686 20.9224 110.607 20.9432 110.505 20.9659C110.404 20.9887 110.281 21.0019 110.136 21.0057C109.878 21.0133 109.646 20.9745 109.44 20.8892C109.233 20.8021 109.069 20.6676 108.948 20.4858C108.829 20.304 108.77 20.0767 108.772 19.804V15.537ZM111.521 20.946V16.5824H112.55V20.946H111.521ZM112.038 15.9631C111.875 15.9631 111.735 15.9091 111.618 15.8012C111.5 15.6913 111.442 15.5597 111.442 15.4063C111.442 15.251 111.5 15.1193 111.618 15.0114C111.735 14.9015 111.875 14.8466 112.038 14.8466C112.203 14.8466 112.343 14.9015 112.459 15.0114C112.576 15.1193 112.635 15.251 112.635 15.4063C112.635 15.5597 112.576 15.6913 112.459 15.8012C112.343 15.9091 112.203 15.9631 112.038 15.9631ZM114.636 18.3892V20.946H113.607V16.5824H114.59V17.3239H114.641C114.742 17.0796 114.902 16.8854 115.121 16.7415C115.343 16.5976 115.617 16.5256 115.942 16.5256C116.244 16.5256 116.506 16.59 116.729 16.7188C116.955 16.8476 117.129 17.0341 117.252 17.2784C117.377 17.5227 117.439 17.8192 117.437 18.1676V20.946H116.408V18.3267C116.408 18.0351 116.333 17.8068 116.181 17.6421C116.031 17.4773 115.824 17.3949 115.559 17.3949C115.379 17.3949 115.219 17.4347 115.079 17.5142C114.94 17.5919 114.832 17.7046 114.752 17.8523C114.674 18 114.636 18.179 114.636 18.3892ZM120.38 22.6733C120.011 22.6733 119.693 22.6231 119.428 22.5227C119.163 22.4243 118.95 22.2917 118.789 22.125C118.628 21.9584 118.516 21.7737 118.454 21.571L119.38 21.3466C119.422 21.4318 119.482 21.5161 119.562 21.5995C119.641 21.6847 119.748 21.7548 119.883 21.8097C120.019 21.8665 120.19 21.8949 120.397 21.8949C120.689 21.8949 120.93 21.8239 121.121 21.6818C121.313 21.5417 121.408 21.3106 121.408 20.9887V20.162H121.357C121.304 20.268 121.226 20.3769 121.124 20.4887C121.024 20.6004 120.89 20.6942 120.724 20.7699C120.559 20.8457 120.351 20.8835 120.101 20.8835C119.766 20.8835 119.462 20.8049 119.19 20.6477C118.919 20.4887 118.703 20.2519 118.542 19.9375C118.383 19.6212 118.303 19.2254 118.303 18.75C118.303 18.2709 118.383 17.8665 118.542 17.537C118.703 17.2055 118.92 16.9546 119.192 16.7841C119.465 16.6118 119.769 16.5256 120.104 16.5256C120.36 16.5256 120.57 16.5692 120.735 16.6563C120.902 16.7415 121.034 16.8447 121.133 16.9659C121.231 17.0852 121.306 17.1979 121.357 17.304H121.414V16.5824H122.428V21.0171C122.428 21.3902 122.339 21.6989 122.161 21.9432C121.983 22.1875 121.74 22.3703 121.431 22.4915C121.122 22.6127 120.772 22.6733 120.38 22.6733ZM120.388 20.0767C120.606 20.0767 120.792 20.0237 120.945 19.9176C121.099 19.8116 121.215 19.6591 121.295 19.4602C121.374 19.2614 121.414 19.0227 121.414 18.7443C121.414 18.4697 121.374 18.2292 121.295 18.0227C121.217 17.8163 121.101 17.6563 120.948 17.5426C120.797 17.4271 120.61 17.3693 120.388 17.3693C120.159 17.3693 119.968 17.429 119.815 17.5483C119.661 17.6676 119.546 17.8315 119.468 18.0398C119.39 18.2462 119.351 18.4811 119.351 18.7443C119.351 19.0114 119.39 19.2453 119.468 19.446C119.547 19.6449 119.664 19.8002 119.817 19.912C119.973 20.0218 120.163 20.0767 120.388 20.0767Z" fill="#1B1A21"/>
<path d="M18.4914 37.2434H16.5198V31.4252H18.5312C19.1088 31.4252 19.605 31.5417 20.0198 31.7747C20.4365 32.0057 20.7565 32.3381 20.98 32.7718C21.2035 33.2055 21.3152 33.7245 21.3152 34.3286C21.3152 34.9347 21.2026 35.4555 20.9772 35.8911C20.7537 36.3267 20.4308 36.661 20.0084 36.894C19.588 37.1269 19.0823 37.2434 18.4914 37.2434ZM17.5738 36.3315H18.4402C18.8455 36.3315 19.1836 36.2576 19.4544 36.1099C19.7253 35.9603 19.9289 35.7377 20.0652 35.4423C20.2016 35.1449 20.2698 34.7737 20.2698 34.3286C20.2698 33.8836 20.2016 33.5142 20.0652 33.2207C19.9289 32.9252 19.7272 32.7046 19.4601 32.5587C19.195 32.411 18.8654 32.3372 18.4715 32.3372H17.5738V36.3315ZM23.5269 37.3315C23.2504 37.3315 23.0013 37.2822 22.7797 37.1837C22.56 37.0834 22.3858 36.9356 22.257 36.7406C22.1301 36.5455 22.0667 36.305 22.0667 36.019C22.0667 35.7728 22.1121 35.5692 22.203 35.4082C22.2939 35.2472 22.418 35.1184 22.5752 35.0218C22.7324 34.9252 22.9095 34.8523 23.1064 34.8031C23.3053 34.7519 23.5108 34.715 23.7229 34.6923C23.9786 34.6658 24.186 34.6421 24.3451 34.6212C24.5042 34.5985 24.6197 34.5644 24.6917 34.519C24.7655 34.4716 24.8025 34.3987 24.8025 34.3002V34.2832C24.8025 34.0692 24.739 33.9034 24.6121 33.786C24.4852 33.6686 24.3025 33.6099 24.0638 33.6099C23.8119 33.6099 23.6121 33.6648 23.4644 33.7747C23.3186 33.8845 23.2201 34.0142 23.1689 34.1639L22.2087 34.0275C22.2845 33.7623 22.4095 33.5408 22.5837 33.3627C22.7579 33.1828 22.971 33.0483 23.2229 32.9593C23.4748 32.8684 23.7532 32.823 24.0581 32.823C24.2684 32.823 24.4776 32.8476 24.686 32.8968C24.8943 32.9461 25.0847 33.0275 25.257 33.1411C25.4294 33.2529 25.5676 33.4053 25.6718 33.5985C25.7778 33.7917 25.8309 34.0332 25.8309 34.323V37.2434H24.8422V36.644H24.8081C24.7456 36.7652 24.6576 36.8788 24.5439 36.9849C24.4322 37.0891 24.2911 37.1733 24.1206 37.2377C23.9521 37.3002 23.7542 37.3315 23.5269 37.3315ZM23.7939 36.5758C24.0004 36.5758 24.1794 36.5351 24.3309 36.4536C24.4824 36.3703 24.5989 36.2605 24.6803 36.1241C24.7636 35.9877 24.8053 35.8391 24.8053 35.6781V35.1639C24.7731 35.1904 24.7182 35.215 24.6405 35.2377C24.5648 35.2605 24.4795 35.2803 24.3848 35.2974C24.2901 35.3144 24.1964 35.3296 24.1036 35.3428C24.0108 35.3561 23.9303 35.3675 23.8621 35.3769C23.7087 35.3978 23.5714 35.4319 23.4502 35.4792C23.329 35.5266 23.2333 35.5928 23.1633 35.6781C23.0932 35.7614 23.0581 35.8694 23.0581 36.0019C23.0581 36.1913 23.1273 36.3343 23.2655 36.4309C23.4038 36.5275 23.5799 36.5758 23.7939 36.5758ZM29.0439 32.8798V33.6752H26.5354V32.8798H29.0439ZM27.1547 31.8343H28.1831V35.9309C28.1831 36.0692 28.204 36.1752 28.2456 36.2491C28.2892 36.3211 28.346 36.3703 28.4161 36.3968C28.4862 36.4233 28.5638 36.4366 28.649 36.4366C28.7134 36.4366 28.7722 36.4319 28.8252 36.4224C28.8801 36.4129 28.9218 36.4044 28.9502 36.3968L29.1235 37.2008C29.0686 37.2197 28.99 37.2406 28.8877 37.2633C28.7873 37.286 28.6642 37.2993 28.5184 37.3031C28.2608 37.3106 28.0288 37.2718 27.8223 37.1866C27.6159 37.0995 27.4521 36.965 27.3309 36.7832C27.2115 36.6014 27.1528 36.3741 27.1547 36.1014V31.8343ZM31.1597 37.3315C30.8832 37.3315 30.6341 37.2822 30.4125 37.1837C30.1928 37.0834 30.0186 36.9356 29.8898 36.7406C29.7629 36.5455 29.6995 36.305 29.6995 36.019C29.6995 35.7728 29.7449 35.5692 29.8358 35.4082C29.9267 35.2472 30.0508 35.1184 30.208 35.0218C30.3652 34.9252 30.5423 34.8523 30.7392 34.8031C30.9381 34.7519 31.1436 34.715 31.3557 34.6923C31.6114 34.6658 31.8188 34.6421 31.9779 34.6212C32.137 34.5985 32.2525 34.5644 32.3245 34.519C32.3983 34.4716 32.4353 34.3987 32.4353 34.3002V34.2832C32.4353 34.0692 32.3718 33.9034 32.2449 33.786C32.118 33.6686 31.9353 33.6099 31.6966 33.6099C31.4447 33.6099 31.2449 33.6648 31.0972 33.7747C30.9514 33.8845 30.8529 34.0142 30.8017 34.1639L29.8415 34.0275C29.9173 33.7623 30.0423 33.5408 30.2165 33.3627C30.3908 33.1828 30.6038 33.0483 30.8557 32.9593C31.1076 32.8684 31.386 32.823 31.691 32.823C31.9012 32.823 32.1105 32.8476 32.3188 32.8968C32.5271 32.9461 32.7175 33.0275 32.8898 33.1411C33.0622 33.2529 33.2004 33.4053 33.3046 33.5985C33.4106 33.7917 33.4637 34.0332 33.4637 34.323V37.2434H32.475V36.644H32.441C32.3785 36.7652 32.2904 36.8788 32.1767 36.9849C32.065 37.0891 31.9239 37.1733 31.7535 37.2377C31.5849 37.3002 31.387 37.3315 31.1597 37.3315ZM31.4267 36.5758C31.6332 36.5758 31.8122 36.5351 31.9637 36.4536C32.1152 36.3703 32.2317 36.2605 32.3131 36.1241C32.3964 35.9877 32.4381 35.8391 32.4381 35.6781V35.1639C32.4059 35.1904 32.351 35.215 32.2733 35.2377C32.1976 35.2605 32.1124 35.2803 32.0177 35.2974C31.923 35.3144 31.8292 35.3296 31.7364 35.3428C31.6436 35.3561 31.5631 35.3675 31.4949 35.3769C31.3415 35.3978 31.2042 35.4319 31.083 35.4792C30.9618 35.5266 30.8661 35.5928 30.7961 35.6781C30.726 35.7614 30.691 35.8694 30.691 36.0019C30.691 36.1913 30.7601 36.3343 30.8983 36.4309C31.0366 36.5275 31.2127 36.5758 31.4267 36.5758ZM34.5432 37.2434V31.4252H35.5716V33.6014H35.6142C35.6673 33.4953 35.7421 33.3826 35.8387 33.2633C35.9353 33.1421 36.066 33.0389 36.2307 32.9536C36.3955 32.8665 36.6057 32.823 36.8614 32.823C37.1985 32.823 37.5025 32.9091 37.7733 33.0815C38.0461 33.2519 38.262 33.5048 38.4211 33.84C38.582 34.1733 38.6625 34.5824 38.6625 35.0673C38.6625 35.5464 38.5839 35.9536 38.4267 36.2889C38.2695 36.6241 38.0555 36.8798 37.7847 37.0559C37.5139 37.232 37.207 37.3201 36.8642 37.3201C36.6142 37.3201 36.4069 37.2784 36.2421 37.1951C36.0773 37.1118 35.9447 37.0114 35.8444 36.894C35.7459 36.7747 35.6692 36.662 35.6142 36.5559H35.5546V37.2434H34.5432ZM35.5517 35.0616C35.5517 35.3438 35.5915 35.5909 35.6711 35.8031C35.7525 36.0152 35.869 36.1809 36.0205 36.3002C36.1739 36.4177 36.3595 36.4764 36.5773 36.4764C36.8046 36.4764 36.9949 36.4158 37.1483 36.2945C37.3017 36.1714 37.4173 36.0038 37.4949 35.7917C37.5745 35.5777 37.6142 35.3343 37.6142 35.0616C37.6142 34.7908 37.5754 34.5502 37.4978 34.34C37.4201 34.1298 37.3046 33.965 37.1512 33.8457C36.9978 33.7264 36.8065 33.6667 36.5773 33.6667C36.3576 33.6667 36.1711 33.7245 36.0177 33.84C35.8642 33.9555 35.7478 34.1175 35.6682 34.3258C35.5906 34.5341 35.5517 34.7794 35.5517 35.0616ZM40.7925 37.3315C40.516 37.3315 40.2669 37.2822 40.0454 37.1837C39.8257 37.0834 39.6514 36.9356 39.5226 36.7406C39.3957 36.5455 39.3323 36.305 39.3323 36.019C39.3323 35.7728 39.3777 35.5692 39.4687 35.4082C39.5596 35.2472 39.6836 35.1184 39.8408 35.0218C39.998 34.9252 40.1751 34.8523 40.3721 34.8031C40.5709 34.7519 40.7764 34.715 40.9885 34.6923C41.2442 34.6658 41.4516 34.6421 41.6107 34.6212C41.7698 34.5985 41.8853 34.5644 41.9573 34.519C42.0312 34.4716 42.0681 34.3987 42.0681 34.3002V34.2832C42.0681 34.0692 42.0046 33.9034 41.8777 33.786C41.7508 33.6686 41.5681 33.6099 41.3294 33.6099C41.0776 33.6099 40.8777 33.6648 40.73 33.7747C40.5842 33.8845 40.4857 34.0142 40.4346 34.1639L39.4743 34.0275C39.5501 33.7623 39.6751 33.5408 39.8493 33.3627C40.0236 33.1828 40.2366 33.0483 40.4885 32.9593C40.7404 32.8684 41.0188 32.823 41.3238 32.823C41.534 32.823 41.7433 32.8476 41.9516 32.8968C42.1599 32.9461 42.3503 33.0275 42.5226 33.1411C42.695 33.2529 42.8332 33.4053 42.9374 33.5985C43.0435 33.7917 43.0965 34.0332 43.0965 34.323V37.2434H42.1079V36.644H42.0738C42.0113 36.7652 41.9232 36.8788 41.8096 36.9849C41.6978 37.0891 41.5567 37.1733 41.3863 37.2377C41.2177 37.3002 41.0198 37.3315 40.7925 37.3315ZM41.0596 36.5758C41.266 36.5758 41.445 36.5351 41.5965 36.4536C41.748 36.3703 41.8645 36.2605 41.9459 36.1241C42.0293 35.9877 42.0709 35.8391 42.0709 35.6781V35.1639C42.0387 35.1904 41.9838 35.215 41.9062 35.2377C41.8304 35.2605 41.7452 35.2803 41.6505 35.2974C41.5558 35.3144 41.462 35.3296 41.3692 35.3428C41.2764 35.3561 41.1959 35.3675 41.1277 35.3769C40.9743 35.3978 40.837 35.4319 40.7158 35.4792C40.5946 35.5266 40.499 35.5928 40.4289 35.6781C40.3588 35.7614 40.3238 35.8694 40.3238 36.0019C40.3238 36.1913 40.3929 36.3343 40.5312 36.4309C40.6694 36.5275 40.8455 36.5758 41.0596 36.5758ZM47.5794 34.0332L46.6419 34.1355C46.6154 34.0408 46.569 33.9517 46.5027 33.8684C46.4383 33.7851 46.3512 33.7178 46.2414 33.6667C46.1315 33.6156 45.9971 33.59 45.838 33.59C45.624 33.59 45.444 33.6364 45.2982 33.7292C45.1543 33.822 45.0832 33.9423 45.0851 34.09C45.0832 34.2169 45.1296 34.3201 45.2243 34.3997C45.3209 34.4792 45.48 34.5445 45.7016 34.5957L46.4459 34.7548C46.8588 34.8438 47.1656 34.9849 47.3664 35.1781C47.569 35.3712 47.6713 35.6241 47.6732 35.9366C47.6713 36.2112 47.5908 36.4536 47.4317 36.6639C47.2745 36.8722 47.0558 37.0351 46.7755 37.1525C46.4952 37.2699 46.1732 37.3286 45.8096 37.3286C45.2755 37.3286 44.8455 37.2169 44.5198 36.9934C44.194 36.768 43.9999 36.4546 43.9374 36.0531L44.9402 35.9565C44.9857 36.1534 45.0823 36.3021 45.23 36.4025C45.3777 36.5029 45.57 36.5531 45.8067 36.5531C46.051 36.5531 46.2471 36.5029 46.3948 36.4025C46.5444 36.3021 46.6192 36.1781 46.6192 36.0303C46.6192 35.9053 46.5709 35.8021 46.4743 35.7207C46.3796 35.6392 46.2319 35.5767 46.0312 35.5332L45.2868 35.3769C44.8683 35.2898 44.5586 35.143 44.3579 34.9366C44.1571 34.7283 44.0577 34.465 44.0596 34.1468C44.0577 33.8779 44.1306 33.6449 44.2783 33.448C44.4279 33.2491 44.6353 33.0957 44.9005 32.9877C45.1675 32.8779 45.4753 32.823 45.8238 32.823C46.3351 32.823 46.7376 32.9319 47.0312 33.1497C47.3266 33.3675 47.5094 33.662 47.5794 34.0332ZM50.453 37.3286C50.0155 37.3286 49.6377 37.2377 49.3195 37.0559C49.0032 36.8722 48.7598 36.6127 48.5894 36.2775C48.4189 35.9404 48.3337 35.5436 48.3337 35.0872C48.3337 34.6383 48.4189 34.2444 48.5894 33.9053C48.7617 33.5644 49.0023 33.2993 49.311 33.1099C49.6197 32.9186 49.9824 32.823 50.399 32.823C50.668 32.823 50.9218 32.8665 51.1604 32.9536C51.4009 33.0389 51.6131 33.1714 51.7968 33.3514C51.9824 33.5313 52.1282 33.7605 52.2343 34.0389C52.3403 34.3154 52.3934 34.6449 52.3934 35.0275V35.3428H48.8167V34.6497H51.4076C51.4057 34.4527 51.3631 34.2775 51.2797 34.1241C51.1964 33.9688 51.0799 33.8466 50.9303 33.7576C50.7826 33.6686 50.6102 33.6241 50.4133 33.6241C50.203 33.6241 50.0184 33.6752 49.8593 33.7775C49.7002 33.8779 49.5761 34.0105 49.4871 34.1752C49.4 34.3381 49.3555 34.5171 49.3536 34.7122V35.3173C49.3536 35.5711 49.4 35.7889 49.4928 35.9707C49.5856 36.1506 49.7153 36.2889 49.882 36.3855C50.0487 36.4802 50.2437 36.5275 50.4672 36.5275C50.6169 36.5275 50.7523 36.5067 50.8735 36.465C50.9947 36.4214 51.0998 36.358 51.1888 36.2747C51.2778 36.1913 51.3451 36.0881 51.3905 35.965L52.3508 36.073C52.2901 36.3267 52.1746 36.5483 52.0042 36.7377C51.8356 36.9252 51.6197 37.0711 51.3564 37.1752C51.0932 37.2775 50.792 37.3286 50.453 37.3286Z" fill="#4C4A57"/>
<path d="M22.84 50.3034H23.9054L25.7576 54.8261H25.8258L27.6781 50.3034H28.7434V56.1216H27.9082V51.9114H27.8542L26.1383 56.1131H25.4451L23.7292 51.9085H23.6752V56.1216H22.84V50.3034ZM31.2214 56.2182C30.9449 56.2182 30.6949 56.167 30.4714 56.0648C30.2479 55.9606 30.0708 55.81 29.9402 55.6131C29.8114 55.4161 29.747 55.1746 29.747 54.8886C29.747 54.6424 29.7943 54.4398 29.889 54.2807C29.9837 54.1216 30.1116 53.9956 30.2725 53.9028C30.4335 53.81 30.6134 53.74 30.8123 53.6926C31.0112 53.6453 31.2138 53.6093 31.4203 53.5847C31.6816 53.5543 31.8938 53.5297 32.0566 53.5108C32.2195 53.49 32.3379 53.4568 32.4117 53.4114C32.4856 53.3659 32.5225 53.292 32.5225 53.1898V53.1699C32.5225 52.9218 32.4525 52.7295 32.3123 52.5932C32.1741 52.4568 31.9676 52.3886 31.693 52.3886C31.407 52.3886 31.1816 52.4521 31.0169 52.579C30.854 52.704 30.7413 52.8432 30.6788 52.9966L29.8805 52.8148C29.9752 52.5496 30.1134 52.3356 30.2953 52.1727C30.479 52.0079 30.6902 51.8886 30.9288 51.8148C31.1674 51.739 31.4184 51.7011 31.6816 51.7011C31.8559 51.7011 32.0405 51.722 32.2356 51.7636C32.4326 51.8034 32.6163 51.8773 32.7867 51.9852C32.9591 52.0932 33.1002 52.2475 33.21 52.4483C33.3199 52.6472 33.3748 52.9057 33.3748 53.2239V56.1216H32.5453V55.525H32.5112C32.4563 55.6348 32.3739 55.7428 32.264 55.8489C32.1542 55.9549 32.0131 56.043 31.8407 56.1131C31.6684 56.1831 31.4619 56.2182 31.2214 56.2182ZM31.4061 55.5364C31.6409 55.5364 31.8417 55.49 32.0083 55.3972C32.1769 55.3043 32.3047 55.1831 32.3919 55.0335C32.4809 54.882 32.5254 54.7201 32.5254 54.5477V53.9852C32.4951 54.0155 32.4364 54.0439 32.3492 54.0704C32.264 54.0951 32.1665 54.1168 32.0566 54.1358C31.9468 54.1528 31.8398 54.1689 31.7356 54.1841C31.6314 54.1973 31.5443 54.2087 31.4742 54.2182C31.3095 54.239 31.1589 54.274 31.0225 54.3233C30.8881 54.3725 30.7801 54.4436 30.6987 54.5364C30.6191 54.6273 30.5794 54.7485 30.5794 54.9C30.5794 55.1102 30.657 55.2693 30.8123 55.3773C30.9676 55.4833 31.1655 55.5364 31.4061 55.5364ZM34.5062 56.1216V51.7579H35.3272V52.4511H35.3727C35.4522 52.2163 35.5924 52.0316 35.7931 51.8972C35.9958 51.7608 36.225 51.6926 36.4806 51.6926C36.5337 51.6926 36.5962 51.6945 36.6681 51.6983C36.742 51.7021 36.7998 51.7068 36.8414 51.7125V52.525C36.8073 52.5155 36.7467 52.5051 36.6596 52.4937C36.5725 52.4805 36.4854 52.4739 36.3982 52.4739C36.1975 52.4739 36.0185 52.5165 35.8613 52.6017C35.706 52.685 35.5829 52.8015 35.492 52.9511C35.4011 53.0989 35.3556 53.2674 35.3556 53.4568V56.1216H34.5062ZM39.8713 51.7579V52.4398H37.4877V51.7579H39.8713ZM38.1269 50.7125H38.9764V54.8403C38.9764 55.0051 39.001 55.1292 39.0502 55.2125C39.0995 55.2939 39.1629 55.3498 39.2406 55.3801C39.3201 55.4085 39.4063 55.4227 39.4991 55.4227C39.5673 55.4227 39.6269 55.418 39.6781 55.4085C39.7292 55.399 39.769 55.3915 39.7974 55.3858L39.9508 56.0875C39.9016 56.1064 39.8315 56.1254 39.7406 56.1443C39.6497 56.1651 39.536 56.1765 39.3997 56.1784C39.1762 56.1822 38.9679 56.1424 38.7747 56.0591C38.5815 55.9757 38.4252 55.847 38.3059 55.6727C38.1866 55.4985 38.1269 55.2797 38.1269 55.0165V50.7125ZM42.6447 56.2097C42.2148 56.2097 41.8445 56.1178 41.5339 55.9341C41.2252 55.7485 40.9866 55.4881 40.818 55.1528C40.6513 54.8157 40.568 54.4208 40.568 53.9682C40.568 53.5212 40.6513 53.1273 40.818 52.7864C40.9866 52.4454 41.2214 52.1793 41.5225 51.9881C41.8256 51.7968 42.1797 51.7011 42.585 51.7011C42.8313 51.7011 43.0699 51.7418 43.3009 51.8233C43.532 51.9047 43.7394 52.0326 43.9231 52.2068C44.1068 52.3811 44.2517 52.6074 44.3578 52.8858C44.4638 53.1623 44.5169 53.4985 44.5169 53.8943V54.1954H41.0481V53.5591H43.6845C43.6845 53.3356 43.639 53.1377 43.5481 52.9653C43.4572 52.7911 43.3294 52.6538 43.1646 52.5534C43.0017 52.453 42.8104 52.4028 42.5907 52.4028C42.3521 52.4028 42.1438 52.4615 41.9657 52.579C41.7896 52.6945 41.6532 52.846 41.5566 53.0335C41.4619 53.2191 41.4146 53.4208 41.4146 53.6386V54.1358C41.4146 54.4275 41.4657 54.6756 41.568 54.8801C41.6722 55.0847 41.817 55.2409 42.0027 55.3489C42.1883 55.4549 42.4051 55.5079 42.6532 55.5079C42.8142 55.5079 42.961 55.4852 43.0936 55.4398C43.2261 55.3924 43.3407 55.3223 43.4373 55.2295C43.5339 55.1367 43.6078 55.0222 43.6589 54.8858L44.4629 55.0307C44.3985 55.2674 44.283 55.4748 44.1163 55.6528C43.9515 55.829 43.7441 55.9663 43.4941 56.0648C43.246 56.1614 42.9629 56.2097 42.6447 56.2097ZM47.2974 56.2097C46.875 56.2097 46.5114 56.114 46.2065 55.9227C45.9035 55.7295 45.6705 55.4634 45.5076 55.1244C45.3447 54.7854 45.2633 54.3972 45.2633 53.9597C45.2633 53.5165 45.3466 53.1254 45.5133 52.7864C45.68 52.4454 45.9148 52.1793 46.2179 51.9881C46.5209 51.7968 46.8779 51.7011 47.2889 51.7011C47.6203 51.7011 47.9158 51.7627 48.1752 51.8858C48.4347 52.007 48.644 52.1775 48.8031 52.3972C48.9641 52.6168 49.0597 52.8735 49.09 53.167H48.2633C48.2179 52.9625 48.1137 52.7864 47.9508 52.6386C47.7898 52.4909 47.5739 52.417 47.3031 52.417C47.0663 52.417 46.8589 52.4795 46.6809 52.6045C46.5048 52.7276 46.3675 52.9038 46.269 53.1329C46.1705 53.3602 46.1213 53.6292 46.1213 53.9398C46.1213 54.2579 46.1696 54.5326 46.2661 54.7636C46.3627 54.9947 46.4991 55.1737 46.6752 55.3006C46.8533 55.4275 47.0625 55.4909 47.3031 55.4909C47.4641 55.4909 47.6099 55.4615 47.7406 55.4028C47.8732 55.3422 47.9839 55.2561 48.073 55.1443C48.1639 55.0326 48.2273 54.8981 48.2633 54.7409H49.09C49.0597 55.0231 48.9679 55.275 48.8144 55.4966C48.661 55.7182 48.4555 55.8924 48.198 56.0193C47.9423 56.1462 47.6421 56.2097 47.2974 56.2097ZM50.8478 53.5307V56.1216H49.9984V50.3034H50.8365V52.4682H50.8904C50.9927 52.2333 51.149 52.0468 51.3592 51.9085C51.5694 51.7703 51.844 51.7011 52.1831 51.7011C52.4823 51.7011 52.7437 51.7627 52.9671 51.8858C53.1925 52.0089 53.3668 52.1926 53.4899 52.4369C53.6149 52.6793 53.6774 52.9824 53.6774 53.346V56.1216H52.8279V53.4483C52.8279 53.1282 52.7456 52.8801 52.5808 52.704C52.416 52.5259 52.1868 52.4369 51.8933 52.4369C51.6925 52.4369 51.5126 52.4795 51.3535 52.5648C51.1963 52.65 51.0723 52.775 50.9813 52.9398C50.8923 53.1026 50.8478 53.2996 50.8478 53.5307Z" fill="#1B1A21"/>
<rect x="15.9459" y="44.1082" width="150.811" height="17.027" rx="2.08494" stroke="#E6E5EA" stroke-width="0.486486"/>
<rect x="15.9459" y="66.0002" width="150.811" height="15.2436" rx="1.74786" fill="#553ACF"/>
<path d="M80.4248 72.767H79.3623C79.332 72.5927 79.2762 72.4384 79.1947 72.3039C79.1133 72.1675 79.0119 72.052 78.8907 71.9573C78.7695 71.8626 78.6313 71.7916 78.476 71.7442C78.3226 71.695 78.1568 71.6704 77.9788 71.6704C77.6625 71.6704 77.3822 71.7499 77.1379 71.909C76.8936 72.0662 76.7023 72.2973 76.564 72.6022C76.4258 72.9052 76.3566 73.2755 76.3566 73.713C76.3566 74.1581 76.4258 74.5331 76.564 74.838C76.7042 75.141 76.8955 75.3702 77.1379 75.5255C77.3822 75.6789 77.6616 75.7556 77.976 75.7556C78.1502 75.7556 78.3131 75.7329 78.4646 75.6874C78.618 75.6401 78.7553 75.5709 78.8765 75.48C78.9996 75.3891 79.1029 75.2774 79.1862 75.1448C79.2714 75.0122 79.3301 74.8607 79.3623 74.6903L80.4248 74.6959C80.3851 74.9724 80.2989 75.2319 80.1663 75.4743C80.0356 75.7168 79.8642 75.9308 79.6521 76.1164C79.44 76.3001 79.1919 76.444 78.9078 76.5482C78.6237 76.6505 78.3083 76.7016 77.9618 76.7016C77.4504 76.7016 76.994 76.5832 76.5924 76.3465C76.1909 76.1098 75.8746 75.7679 75.6436 75.3209C75.4125 74.874 75.297 74.338 75.297 73.713C75.297 73.0861 75.4135 72.5501 75.6464 72.105C75.8794 71.6581 76.1966 71.3162 76.5981 71.0795C76.9996 70.8427 77.4542 70.7243 77.9618 70.7243C78.2856 70.7243 78.5868 70.7698 78.8652 70.8607C79.1436 70.9516 79.3917 71.0851 79.6095 71.2613C79.8273 71.4355 80.0063 71.6495 80.1464 71.9033C80.2885 72.1552 80.3813 72.4431 80.4248 72.767ZM83.248 76.7073C82.8218 76.7073 82.4525 76.6135 82.14 76.426C81.8275 76.2385 81.5851 75.9762 81.4128 75.6391C81.2423 75.302 81.1571 74.9081 81.1571 74.4573C81.1571 74.0065 81.2423 73.6117 81.4128 73.2726C81.5851 72.9336 81.8275 72.6704 82.14 72.4829C82.4525 72.2954 82.8218 72.2016 83.248 72.2016C83.6741 72.2016 84.0434 72.2954 84.3559 72.4829C84.6684 72.6704 84.9099 72.9336 85.0804 73.2726C85.2527 73.6117 85.3389 74.0065 85.3389 74.4573C85.3389 74.9081 85.2527 75.302 85.0804 75.6391C84.9099 75.9762 84.6684 76.2385 84.3559 76.426C84.0434 76.6135 83.6741 76.7073 83.248 76.7073ZM83.2537 75.8834C83.4847 75.8834 83.6779 75.82 83.8332 75.6931C83.9885 75.5643 84.104 75.392 84.1798 75.176C84.2575 74.9601 84.2963 74.7196 84.2963 74.4545C84.2963 74.1874 84.2575 73.9459 84.1798 73.73C84.104 73.5122 83.9885 73.3389 83.8332 73.2101C83.6779 73.0814 83.4847 73.017 83.2537 73.017C83.0169 73.017 82.82 73.0814 82.6628 73.2101C82.5075 73.3389 82.391 73.5122 82.3133 73.73C82.2376 73.9459 82.1997 74.1874 82.1997 74.4545C82.1997 74.7196 82.2376 74.9601 82.3133 75.176C82.391 75.392 82.5075 75.5643 82.6628 75.6931C82.82 75.82 83.0169 75.8834 83.2537 75.8834ZM87.2402 74.0653V76.6221H86.2118V72.2584H87.1947V72.9999H87.2458C87.3462 72.7556 87.5063 72.5615 87.726 72.4175C87.9476 72.2736 88.2212 72.2016 88.547 72.2016C88.8481 72.2016 89.1104 72.266 89.3339 72.3948C89.5593 72.5236 89.7335 72.7101 89.8566 72.9545C89.9816 73.1988 90.0432 73.4952 90.0413 73.8437V76.6221H89.0129V74.0028C89.0129 73.7111 88.9371 73.4829 88.7856 73.3181C88.636 73.1533 88.4286 73.0709 88.1635 73.0709C87.9835 73.0709 87.8235 73.1107 87.6833 73.1903C87.5451 73.2679 87.4362 73.3806 87.3566 73.5283C87.279 73.676 87.2402 73.855 87.2402 74.0653ZM92.1152 74.0653V76.6221H91.0868V72.2584H92.0697V72.9999H92.1208C92.2212 72.7556 92.3813 72.5615 92.601 72.4175C92.8226 72.2736 93.0962 72.2016 93.422 72.2016C93.7231 72.2016 93.9854 72.266 94.2089 72.3948C94.4343 72.5236 94.6085 72.7101 94.7316 72.9545C94.8566 73.1988 94.9182 73.4952 94.9163 73.8437V76.6221H93.8879V74.0028C93.8879 73.7111 93.8121 73.4829 93.6606 73.3181C93.511 73.1533 93.3036 73.0709 93.0385 73.0709C92.8585 73.0709 92.6985 73.1107 92.5583 73.1903C92.4201 73.2679 92.3112 73.3806 92.2316 73.5283C92.154 73.676 92.1152 73.855 92.1152 74.0653ZM97.8936 76.7073C97.4561 76.7073 97.0782 76.6164 96.7601 76.4346C96.4438 76.2509 96.2004 75.9914 96.0299 75.6562C95.8595 75.319 95.7743 74.9223 95.7743 74.4658C95.7743 74.017 95.8595 73.623 96.0299 73.284C96.2023 72.9431 96.4428 72.6779 96.7515 72.4885C97.0602 72.2973 97.4229 72.2016 97.8396 72.2016C98.1085 72.2016 98.3623 72.2452 98.601 72.3323C98.8415 72.4175 99.0536 72.5501 99.2373 72.73C99.4229 72.9099 99.5688 73.1391 99.6748 73.4175C99.7809 73.694 99.8339 74.0236 99.8339 74.4062V74.7215H96.2572V74.0283H98.8481C98.8462 73.8314 98.8036 73.6562 98.7203 73.5028C98.6369 73.3474 98.5205 73.2253 98.3708 73.1363C98.2231 73.0473 98.0508 73.0028 97.8538 73.0028C97.6436 73.0028 97.4589 73.0539 97.2998 73.1562C97.1407 73.2565 97.0167 73.3891 96.9277 73.5539C96.8405 73.7168 96.796 73.8957 96.7941 74.0908V74.6959C96.7941 74.9497 96.8405 75.1675 96.9333 75.3493C97.0262 75.5293 97.1559 75.6675 97.3226 75.7641C97.4892 75.8588 97.6843 75.9062 97.9078 75.9062C98.0574 75.9062 98.1928 75.8853 98.314 75.8437C98.4352 75.8001 98.5404 75.7367 98.6294 75.6533C98.7184 75.57 98.7856 75.4668 98.8311 75.3437L99.7913 75.4516C99.7307 75.7054 99.6152 75.927 99.4447 76.1164C99.2762 76.3039 99.0602 76.4497 98.797 76.5539C98.5337 76.6562 98.2326 76.7073 97.8936 76.7073ZM102.607 76.7073C102.172 76.7073 101.798 76.6117 101.485 76.4204C101.175 76.2291 100.935 75.9649 100.766 75.6278C100.6 75.2887 100.516 74.8986 100.516 74.4573C100.516 74.0141 100.602 73.623 100.772 73.284C100.943 72.9431 101.183 72.6779 101.494 72.4885C101.806 72.2973 102.176 72.2016 102.602 72.2016C102.956 72.2016 103.269 72.267 103.542 72.3976C103.817 72.5264 104.035 72.7092 104.198 72.9459C104.361 73.1808 104.454 73.4554 104.477 73.7698H103.494C103.454 73.5596 103.359 73.3844 103.21 73.2442C103.062 73.1022 102.864 73.0312 102.616 73.0312C102.406 73.0312 102.221 73.088 102.062 73.2016C101.903 73.3134 101.779 73.4743 101.69 73.6846C101.603 73.8948 101.559 74.1467 101.559 74.4403C101.559 74.7376 101.603 74.9933 101.69 75.2073C101.777 75.4194 101.899 75.5832 102.056 75.6988C102.215 75.8124 102.402 75.8692 102.616 75.8692C102.767 75.8692 102.903 75.8408 103.022 75.784C103.143 75.7253 103.245 75.641 103.326 75.5312C103.408 75.4213 103.463 75.2878 103.494 75.1306H104.477C104.452 75.4393 104.361 75.713 104.204 75.9516C104.047 76.1884 103.833 76.374 103.562 76.5084C103.291 76.641 102.973 76.7073 102.607 76.7073ZM107.5 72.2584V73.0539H104.992V72.2584H107.5ZM105.611 71.213H106.639V75.3096C106.639 75.4478 106.66 75.5539 106.702 75.6278C106.745 75.6997 106.802 75.749 106.872 75.7755C106.942 75.802 107.02 75.8153 107.105 75.8153C107.17 75.8153 107.228 75.8105 107.281 75.801C107.336 75.7916 107.378 75.7831 107.406 75.7755L107.58 76.5795C107.525 76.5984 107.446 76.6192 107.344 76.642C107.243 76.6647 107.12 76.6779 106.975 76.6817C106.717 76.6893 106.485 76.6505 106.279 76.5653C106.072 76.4781 105.908 76.3437 105.787 76.1618C105.668 75.98 105.609 75.7528 105.611 75.48V71.213Z" fill="white"/>
<g filter="url(#filter1_d_13_6050)">
<path fill-rule="evenodd" clip-rule="evenodd" d="M126.956 85.4216C127.116 85.5657 127.226 85.6692 127.567 85.9934C127.901 86.3108 128.063 86.4609 128.211 86.5864C128.273 86.6383 128.325 86.7771 128.346 86.9835C128.363 87.1533 128.357 87.3427 128.336 87.5252C128.329 87.5883 128.322 87.6338 128.318 87.6555C128.274 87.899 128.459 88.1239 128.707 88.1264C128.929 88.1286 129.101 88.1314 129.555 88.1395C129.669 88.1415 129.669 88.1415 129.783 88.1435C131.018 88.1648 131.648 88.1589 132.101 88.102C132.585 88.0412 133.083 87.4569 133.514 86.7238C133.879 87.3725 134.385 88.006 134.896 88.0883C135.059 88.1143 135.255 88.1223 135.483 88.1171C135.653 88.1132 135.832 88.102 136.014 88.0858C136.15 88.0736 136.259 88.0613 136.324 88.0529C136.565 88.0217 136.722 87.7851 136.658 87.5514C136.644 87.5009 136.622 87.4082 136.599 87.2916C136.573 87.1564 136.554 87.0243 136.546 86.904C136.54 86.8277 136.539 86.7586 136.543 86.6989C136.549 86.5949 136.55 86.5366 136.553 86.402C136.554 86.3519 136.554 86.3519 136.556 86.308C136.562 86.1645 136.581 86.0282 136.643 85.731C136.67 85.602 136.8 85.3551 137.005 85.0496C137.066 84.9587 137.132 84.8636 137.204 84.7656C137.339 84.5795 137.485 84.3916 137.63 84.2117C137.718 84.104 137.785 84.0234 137.823 83.9797C138.138 83.528 138.474 82.7887 138.598 82.3564C138.716 81.9409 138.811 81.1758 138.869 80.4238C138.901 79.9972 138.913 79.6532 138.913 79.1138C138.913 79.0192 138.913 79.0192 138.913 78.941C138.914 78.813 138.914 78.7646 138.913 78.7048C138.912 78.5414 138.907 78.3794 138.892 77.9662C138.858 77.1004 138.383 76.5406 137.684 76.4326C137.089 76.3407 136.365 76.8348 136.365 76.8348C136.365 76.8348 136.204 76.2784 136.095 76.1067C135.918 75.8307 135.463 75.479 135.114 75.4105C134.756 75.3409 134.332 75.3486 133.942 75.4176C133.601 75.4787 133.261 75.7835 133.064 76.1122C132.923 76.3468 133.055 76.0998 132.915 75.8572C132.72 75.523 132.266 75.2238 131.834 75.1354C131.468 75.0597 131.049 75.0886 130.666 75.2024C130.173 75.3496 130.095 75.7246 130.075 75.6173C130.01 75.2573 130.003 75.281 129.963 75.0242C129.811 74.0715 129.641 73.4122 129.384 72.837C129.398 72.8701 129.289 72.6219 129.25 72.5363C129.181 72.3881 129.112 72.254 129.037 72.125C128.804 71.7273 128.538 71.4296 128.203 71.2605C127.623 70.9664 126.753 71.1095 126.34 71.5911C125.93 72.0696 125.862 72.8697 125.965 73.8597C126.005 74.2441 126.143 74.9459 126.268 75.4647C126.312 75.6447 126.351 75.8089 126.422 76.1122C126.434 76.1638 126.434 76.1638 126.447 76.2155C126.502 76.445 126.55 76.6339 126.608 76.8412C126.602 76.8196 126.711 77.2073 126.734 77.2931C126.742 77.3218 126.742 77.3218 126.75 77.3506C126.793 77.5142 126.835 77.6907 126.902 77.9852C126.938 78.1471 126.974 78.32 127.008 78.5034C127.103 79.0035 127.103 78.8994 127.012 78.7927C126.949 78.719 126.89 78.6521 126.833 78.5905C126.727 78.4759 126.629 78.3811 126.537 78.3055C125.862 77.7531 125.448 77.509 124.88 77.4554C123.948 77.3659 123.064 78.024 122.931 78.9121C122.85 79.4567 122.876 79.7073 123.128 80.1885C123.266 80.4485 123.501 80.7626 123.938 81.3031C123.965 81.3362 123.965 81.3362 123.992 81.3692C124.529 82.0309 124.588 82.1045 124.715 82.2894C125.06 82.7903 125.901 84.2285 126.053 84.4216L126.956 85.4216Z" fill="black"/>
<path fill-rule="evenodd" clip-rule="evenodd" d="M124.612 80.8664C124.585 80.8338 124.585 80.8338 124.559 80.8012C124.157 80.3051 123.937 80.0102 123.834 79.8159C123.671 79.5052 123.662 79.421 123.721 79.0306C123.79 78.5704 124.287 78.2004 124.804 78.2502C125.163 78.284 125.476 78.4686 126.032 78.9237C126.092 78.9729 126.165 79.0434 126.248 79.1331C126.297 79.1861 126.349 79.2451 126.405 79.311C126.49 79.41 126.775 79.7585 126.733 79.7078C126.795 79.7822 126.839 79.8398 126.889 79.9105C126.989 80.0534 127.046 80.1328 127.122 80.2346C127.086 80.1868 127.351 80.5522 127.407 80.6056C127.703 80.8886 128.132 80.6502 128.106 80.2731C128.101 80.2101 128.086 80.1421 128.055 80.0233C127.933 79.1515 127.89 78.8717 127.793 78.3553C127.756 78.1635 127.719 77.9818 127.681 77.8103C127.612 77.5064 127.568 77.3207 127.521 77.1459C127.513 77.115 127.513 77.115 127.505 77.0844C127.48 76.9941 127.369 76.6005 127.377 76.6269C127.322 76.4304 127.276 76.2505 127.223 76.0295C127.211 75.9792 127.211 75.9792 127.199 75.9286C127.128 75.6268 127.088 75.4584 127.044 75.2759C126.926 74.791 126.794 74.1189 126.759 73.7779C126.679 73.0072 126.734 72.3581 126.946 72.1104C127.112 71.9172 127.581 71.8401 127.843 71.9728C128.015 72.0595 128.186 72.2509 128.348 72.528C128.409 72.6329 128.467 72.7454 128.526 72.8724C128.561 72.9493 128.667 73.1899 128.655 73.1633C128.879 73.6634 129.033 74.2604 129.175 75.1499C129.217 75.4134 129.268 75.712 129.335 76.0773C129.355 76.1856 129.355 76.1856 129.375 76.2935C129.695 78.0338 129.672 77.9019 129.676 78.0407C129.693 78.547 130.441 78.5589 130.473 78.0533C130.484 77.893 130.48 77.7499 130.462 77.3388C130.459 77.2806 130.459 77.2806 130.457 77.2227C130.44 76.8439 130.441 76.626 130.464 76.5022C130.504 76.2763 130.707 76.0233 130.894 75.9675C131.156 75.8896 131.444 75.8698 131.674 75.9174C131.894 75.9625 132.151 76.1321 132.225 76.2586C132.314 76.4118 132.39 76.6453 132.448 76.9347C132.496 77.1683 132.528 77.4188 132.551 77.6863C132.558 77.7695 132.563 77.8338 132.57 77.9401C132.573 77.9846 132.573 77.9846 132.576 78.0214C132.578 78.0398 132.578 78.0398 132.582 78.0689C132.585 78.0893 132.585 78.0893 132.6 78.141C132.608 78.2877 132.608 78.2877 133.197 78.3421C133.373 78.1294 133.373 78.1294 133.368 78.0921C133.397 77.9662 133.415 77.8258 133.44 77.562C133.456 77.3905 133.464 77.3062 133.473 77.2188C133.512 76.8569 133.562 76.6269 133.623 76.5258C133.698 76.4 133.963 76.2248 134.082 76.2036C134.381 76.1508 134.708 76.1448 134.961 76.194C135.076 76.2165 135.356 76.4325 135.422 76.5358C135.558 76.7503 135.69 77.4418 135.765 78.128C135.753 78.173 135.753 78.173 135.936 78.434C136.564 78.3624 136.564 78.3624 136.546 78.249C136.563 78.2085 136.576 78.1618 136.595 78.0892C136.64 77.9192 136.669 77.8205 136.714 77.71C136.744 77.6335 136.777 77.568 136.81 77.516C136.938 77.3139 137.271 77.1765 137.562 77.2216C137.875 77.2699 138.075 77.5053 138.094 77.9973C138.11 78.4022 138.114 78.5578 138.115 78.7106C138.116 78.7669 138.116 78.8122 138.115 78.9395C138.115 79.0181 138.115 79.0181 138.115 79.114C138.115 79.6343 138.104 79.9584 138.074 80.3633C138.02 81.0585 137.929 81.7923 137.83 82.1374C137.73 82.4893 137.43 83.1494 137.192 83.4927C137.175 83.509 137.103 83.5953 137.011 83.7094C136.857 83.8993 136.703 84.0978 136.558 84.2961C136.481 84.4022 136.409 84.5056 136.342 84.6056C136.082 84.9927 135.916 85.3088 135.862 85.568C135.791 85.9047 135.766 86.0833 135.759 86.2769C135.757 86.3317 135.757 86.3317 135.756 86.3849C135.753 86.5105 135.751 86.5613 135.746 86.6531C135.74 86.7496 135.742 86.8523 135.75 86.9608C135.761 87.1162 135.75 87.3285 135.75 87.3285C135.75 87.3285 135.615 87.3159 135.465 87.3193C135.281 87.3236 135.128 87.3173 135.023 87.3005C134.871 87.2759 134.459 86.7615 134.249 86.3607C133.927 85.7473 133.146 85.7771 132.826 86.3188C132.538 86.8102 132.124 87.2949 132.002 87.3103C131.603 87.3604 130.986 87.3661 129.797 87.3457C129.683 87.3437 129.683 87.3437 129.57 87.3417C129.113 87.3335 129.131 87.4106 129.14 87.3285C129.167 87.094 129.164 87.138 129.14 86.9035C129.101 86.5105 128.979 86.19 128.726 85.9771C128.596 85.8661 128.439 85.7209 128.125 85.4226C127.766 85.0817 127.654 84.9763 127.515 84.8546L126.663 83.9067C126.569 83.787 125.747 82.3807 125.372 81.8364C125.226 81.6251 125.172 81.5565 124.612 80.8664ZM134.731 80.8702V84.5512C134.731 85.0833 135.529 85.0833 135.529 84.5512V80.8702C135.529 80.3381 134.731 80.3381 134.731 80.8702ZM132.569 80.87L132.586 84.5659C132.588 85.098 133.386 85.0943 133.384 84.5622L133.367 80.8663C133.364 80.3342 132.566 80.3379 132.569 80.87ZM131.282 84.5448L131.26 80.8989C131.257 80.3669 130.459 80.3717 130.462 80.9038L130.484 84.5497C130.487 85.0818 131.286 85.0769 131.282 84.5448Z" fill="white"/>
</g>
</g>
<defs>
<filter id="filter0_d_13_6050" x="0.135135" y="0.567568" width="183.73" height="99.7297" filterUnits="userSpaceOnUse" color-interpolation-filters="sRGB">
<feFlood flood-opacity="0" result="BackgroundImageFix"/>
<feColorMatrix in="SourceAlpha" type="matrix" values="0 0 0 0 0 0 0 0 0 0 0 0 0 0 0 0 0 0 127 0" result="hardAlpha"/>
<feOffset dy="2.43243"/>
<feGaussianBlur stdDeviation="2.43243"/>
<feComposite in2="hardAlpha" operator="out"/>
<feColorMatrix type="matrix" values="0 0 0 0 0 0 0 0 0 0 0 0 0 0 0 0 0 0 0.1 0"/>
<feBlend mode="normal" in2="BackgroundImageFix" result="effect1_dropShadow_13_6050"/>
<feBlend mode="normal" in="SourceGraphic" in2="effect1_dropShadow_13_6050" result="shape"/>
</filter>
<filter id="filter1_d_13_6050" x="120.762" y="70.044" width="20.2804" height="21.3034" filterUnits="userSpaceOnUse" color-interpolation-filters="sRGB">
<feFlood flood-opacity="0" result="BackgroundImageFix"/>
<feColorMatrix in="SourceAlpha" type="matrix" values="0 0 0 0 0 0 0 0 0 0 0 0 0 0 0 0 0 0 127 0" result="hardAlpha"/>
<feOffset dy="1.06419"/>
<feGaussianBlur stdDeviation="1.06419"/>
<feColorMatrix type="matrix" values="0 0 0 0 0 0 0 0 0 0 0 0 0 0 0 0 0 0 0.298656 0"/>
<feBlend mode="normal" in2="BackgroundImageFix" result="effect1_dropShadow_13_6050"/>
<feBlend mode="normal" in="SourceGraphic" in2="effect1_dropShadow_13_6050" result="shape"/>
</filter>
</defs>
</svg>
