<svg width="1366" height="771" viewBox="0 0 1366 771" fill="none" xmlns="http://www.w3.org/2000/svg">
<g opacity="0.8">
<mask id="mask0_1078_18451" style="mask-type:alpha" maskUnits="userSpaceOnUse" x="0" y="96" width="1366" height="675">
<path opacity="0.66" d="M713.469 124.449C543.673 80.5324 458.539 84.9174 208.725 169.638C80.7272 213.008 -42.9333 265.261 14.4349 314.514C70.0367 362.762 151.077 389.653 232.047 424.377C335.408 468.932 394.614 526.105 444.592 590.668C609.622 800.812 799.989 780.207 891.792 754.978C1069.23 706.537 991.724 616.322 1008.4 562.612C1029.23 498.732 1180.45 442.37 1262.5 388.289C1609.3 161.571 992.715 197.454 713.469 124.449Z" fill="white"/>
</mask>
<g mask="url(#mask0_1078_18451)">
<path d="M995.01 515.17C995.168 513.592 997.196 512.401 999.539 512.509C1001.88 512.616 1003.65 513.983 1003.5 515.561C1003.34 517.138 1001.31 518.33 998.967 518.222C996.624 518.114 994.852 516.748 995.01 515.17Z" fill="#A6A0F9"/>
<path d="M1006.85 651.239C1006.92 652.82 1005.06 654.136 1002.72 654.176C1000.37 654.216 998.419 652.967 998.356 651.385C998.294 649.804 1000.15 648.489 1002.49 648.448C1004.84 648.408 1006.79 649.657 1006.85 651.239Z" fill="#A6A0F9"/>
<g opacity="0.5">
<path d="M969.053 495.756C969.21 494.178 971.238 492.987 973.581 493.095C975.925 493.202 977.697 494.569 977.539 496.147C977.381 497.724 975.353 498.916 973.01 498.808C970.666 498.7 968.895 497.334 969.053 495.756Z" fill="#A6A0F9"/>
</g>
<g opacity="0.1">
<path d="M951.92 212.333C952.078 210.755 954.105 209.564 956.449 209.672C958.792 209.78 960.564 211.146 960.406 212.724C960.248 214.302 958.22 215.493 955.877 215.385C953.534 215.277 951.762 213.911 951.92 212.333Z" fill="#A6A0F9"/>
<path d="M907.984 243.899C908.142 242.321 910.17 241.13 912.513 241.238C914.857 241.346 916.628 242.712 916.47 244.29C916.313 245.867 914.285 247.059 911.942 246.951C909.598 246.843 907.827 245.477 907.984 243.899Z" fill="#A6A0F9"/>
<path d="M837.473 156.714C837.631 155.136 839.659 153.945 842.002 154.053C844.345 154.16 846.117 155.527 845.959 157.105C845.801 158.682 843.774 159.874 841.43 159.766C839.087 159.658 837.315 158.292 837.473 156.714Z" fill="#A6A0F9"/>
</g>
<path d="M304.096 270.923C301.915 271.504 299.444 270.782 298.577 269.311C297.711 267.839 298.777 266.175 300.959 265.594C303.141 265.013 305.612 265.735 306.478 267.206C307.344 268.678 306.278 270.342 304.096 270.923Z" fill="#A6A0F9"/>
<path d="M359.059 207.165C356.878 207.746 354.407 207.024 353.54 205.553C352.674 204.081 353.741 202.417 355.922 201.836C358.104 201.255 360.575 201.976 361.441 203.448C362.308 204.92 361.241 206.584 359.059 207.165Z" fill="#A6A0F9"/>
<path d="M243.068 365.758C240.886 366.339 238.415 365.617 237.549 364.146C236.683 362.674 237.749 361.01 239.931 360.429C242.113 359.848 244.584 360.569 245.45 362.041C246.316 363.513 245.25 365.177 243.068 365.758Z" fill="#A6A0F9"/>
<path d="M300.772 406C298.59 406.581 296.119 405.859 295.253 404.388C294.386 402.916 295.453 401.252 297.634 400.671C299.816 400.09 302.287 400.811 303.153 402.283C304.02 403.755 302.953 405.419 300.772 406Z" fill="#A6A0F9"/>
<path d="M275.734 379.95C273.552 380.531 271.081 379.809 270.215 378.338C269.348 376.866 270.415 375.202 272.596 374.621C274.778 374.04 277.249 374.761 278.115 376.233C278.982 377.705 277.915 379.369 275.734 379.95Z" fill="#A6A0F9"/>
<path d="M559.56 92.0732C561.652 91.3569 564.212 91.9197 565.279 93.3303C566.346 94.7408 565.516 96.4651 563.424 97.1814C561.333 97.8978 558.773 97.335 557.706 95.9244C556.639 94.5138 557.469 92.7896 559.56 92.0732Z" fill="#A6A0F9"/>
<path d="M494.967 103.981C497.058 103.265 499.618 103.828 500.685 105.238C501.752 106.649 500.922 108.373 498.831 109.089C496.739 109.806 494.179 109.243 493.112 107.832C492.045 106.422 492.875 104.697 494.967 103.981Z" fill="#A6A0F9"/>
<path d="M438.5 119.93C440.591 119.214 443.151 119.776 444.219 121.187C445.286 122.598 444.455 124.322 442.364 125.038C440.273 125.755 437.713 125.192 436.646 123.781C435.578 122.371 436.409 120.646 438.5 119.93Z" fill="#A6A0F9"/>
<path d="M412.435 142.526C414.526 141.81 417.086 142.372 418.153 143.783C419.22 145.194 418.39 146.918 416.299 147.634C414.207 148.351 411.647 147.788 410.58 146.377C409.513 144.967 410.343 143.242 412.435 142.526Z" fill="#A6A0F9"/>
<path d="M382.403 173.311C384.494 172.595 387.055 173.158 388.122 174.568C389.189 175.979 388.358 177.703 386.267 178.419C384.176 179.136 381.616 178.573 380.549 177.162C379.482 175.752 380.312 174.027 382.403 173.311Z" fill="#A6A0F9"/>
<path d="M429.097 191.447C431.188 190.731 433.748 191.294 434.816 192.704C435.883 194.115 435.052 195.839 432.961 196.555C430.87 197.272 428.31 196.709 427.243 195.298C426.175 193.888 427.006 192.164 429.097 191.447Z" fill="#A6A0F9"/>
<path d="M382.674 200.536C384.765 199.82 387.325 200.382 388.392 201.793C389.459 203.204 388.629 204.928 386.538 205.644C384.446 206.361 381.886 205.798 380.819 204.387C379.752 202.977 380.582 201.252 382.674 200.536Z" fill="#A6A0F9"/>
<path d="M425.471 233.664C427.562 232.948 430.122 233.511 431.19 234.921C432.257 236.332 431.426 238.056 429.335 238.773C427.244 239.489 424.684 238.926 423.617 237.515C422.549 236.105 423.38 234.381 425.471 233.664Z" fill="#A6A0F9"/>
<path d="M400.655 278.821C402.746 278.105 405.306 278.668 406.373 280.078C407.44 281.489 406.61 283.213 404.519 283.929C402.427 284.646 399.867 284.083 398.8 282.672C397.733 281.262 398.563 279.538 400.655 278.821Z" fill="#A6A0F9"/>
<path d="M449.51 305.93C451.601 305.214 454.161 305.777 455.228 307.187C456.295 308.598 455.465 310.322 453.374 311.038C451.283 311.755 448.722 311.192 447.655 309.781C446.588 308.371 447.419 306.646 449.51 305.93Z" fill="#A6A0F9"/>
<path d="M478.097 340.25C480.188 339.534 482.748 340.097 483.815 341.507C484.882 342.918 484.052 344.642 481.961 345.358C479.87 346.075 477.31 345.512 476.242 344.101C475.175 342.691 476.006 340.967 478.097 340.25Z" fill="#A6A0F9"/>
<g opacity="0.5">
<path d="M294.712 151.225C292.531 151.806 290.06 151.084 289.193 149.613C288.327 148.141 289.393 146.477 291.575 145.896C293.757 145.314 296.228 146.036 297.094 147.508C297.96 148.98 296.894 150.644 294.712 151.225Z" fill="#A6A0F9"/>
<path d="M340.728 109.491C338.546 110.072 336.075 109.35 335.209 107.879C334.343 106.407 335.409 104.743 337.591 104.162C339.773 103.581 342.244 104.302 343.11 105.774C343.976 107.246 342.91 108.91 340.728 109.491Z" fill="#A6A0F9"/>
<path d="M252.121 182.227C249.939 182.808 247.468 182.086 246.602 180.615C245.735 179.143 246.802 177.479 248.983 176.898C251.165 176.317 253.636 177.038 254.502 178.51C255.369 179.982 254.302 181.646 252.121 182.227Z" fill="#A6A0F9"/>
<path d="M293.589 198.982C291.407 199.563 288.936 198.841 288.07 197.37C287.204 195.898 288.27 194.234 290.452 193.653C292.634 193.071 295.105 193.793 295.971 195.265C296.837 196.737 295.771 198.401 293.589 198.982Z" fill="#A6A0F9"/>
<path d="M281.754 282.324C279.573 282.905 277.102 282.183 276.235 280.712C275.369 279.24 276.435 277.576 278.617 276.995C280.799 276.414 283.27 277.135 284.136 278.607C285.002 280.079 283.936 281.743 281.754 282.324Z" fill="#A6A0F9"/>
<path d="M363.518 301.418C361.336 301.999 358.865 301.277 357.999 299.806C357.132 298.334 358.199 296.67 360.381 296.089C362.562 295.508 365.033 296.229 365.9 297.701C366.766 299.173 365.7 300.837 363.518 301.418Z" fill="#A6A0F9"/>
<path d="M380.519 177.777C382.611 177.061 385.171 177.624 386.238 179.034C387.305 180.445 386.475 182.169 384.384 182.885C382.292 183.602 379.732 183.039 378.665 181.628C377.598 180.218 378.428 178.493 380.519 177.777Z" fill="#A6A0F9"/>
<path d="M500.05 252.841C502.141 252.125 504.701 252.687 505.769 254.098C506.836 255.509 506.005 257.233 503.914 257.949C501.823 258.666 499.263 258.103 498.196 256.692C497.129 255.282 497.959 253.557 500.05 252.841Z" fill="#A6A0F9"/>
<path d="M401.685 113.217C403.776 112.5 406.336 113.063 407.403 114.474C408.47 115.885 407.64 117.609 405.549 118.325C403.458 119.042 400.897 118.479 399.83 117.068C398.763 115.657 399.593 113.933 401.685 113.217Z" fill="#A6A0F9"/>
<path d="M230.213 264.984C228.032 265.565 225.561 264.843 224.694 263.372C223.828 261.9 224.894 260.236 227.076 259.655C229.258 259.074 231.729 259.795 232.595 261.267C233.461 262.739 232.395 264.403 230.213 264.984Z" fill="#A6A0F9"/>
</g>
<g opacity="0.5">
<path d="M243.807 97.7141C241.625 98.2953 239.154 97.5734 238.288 96.1018C237.422 94.6301 238.488 92.966 240.67 92.3848C242.852 91.8037 245.323 92.5255 246.189 93.9972C247.055 95.4688 245.989 97.1329 243.807 97.7141Z" fill="#A6A0F9"/>
<path d="M181.264 165.131C179.082 165.712 176.611 164.99 175.745 163.519C174.878 162.047 175.945 160.383 178.126 159.802C180.308 159.221 182.779 159.943 183.645 161.414C184.512 162.886 183.445 164.55 181.264 165.131Z" fill="#A6A0F9"/>
<path d="M92.6058 246.061C90.424 246.642 87.9531 245.92 87.0868 244.449C86.2205 242.977 87.2869 241.313 89.4687 240.732C91.6505 240.151 94.1214 240.872 94.9877 242.344C95.854 243.816 94.7876 245.48 92.6058 246.061Z" fill="#A6A0F9"/>
<path d="M185.859 239.181C183.678 239.762 181.207 239.041 180.34 237.569C179.474 236.097 180.54 234.433 182.722 233.852C184.904 233.271 187.375 233.993 188.241 235.464C189.107 236.936 188.041 238.6 185.859 239.181Z" fill="#A6A0F9"/>
<path d="M205.372 206.154C203.19 206.735 200.719 206.013 199.853 204.542C198.986 203.07 200.053 201.406 202.235 200.825C204.416 200.244 206.887 200.965 207.754 202.437C208.62 203.909 207.553 205.573 205.372 206.154Z" fill="#A6A0F9"/>
<path d="M162.78 307.523C160.598 308.104 158.127 307.382 157.261 305.911C156.395 304.439 157.461 302.775 159.643 302.194C161.825 301.613 164.296 302.334 165.162 303.806C166.028 305.278 164.962 306.942 162.78 307.523Z" fill="#A6A0F9"/>
<path d="M29.4769 341.456C27.2951 342.037 24.8242 341.315 23.9579 339.844C23.0916 338.372 24.158 336.708 26.3398 336.127C28.5216 335.546 30.9926 336.267 31.8588 337.739C32.7251 339.211 31.6587 340.875 29.4769 341.456Z" fill="#A6A0F9"/>
<path d="M311.242 336.64C309.06 337.221 306.589 336.5 305.723 335.028C304.857 333.556 305.923 331.892 308.105 331.311C310.287 330.73 312.757 331.452 313.624 332.923C314.49 334.395 313.424 336.059 311.242 336.64Z" fill="#A6A0F9"/>
<path d="M372.467 349.762C370.285 350.343 367.814 349.621 366.948 348.15C366.082 346.678 367.148 345.014 369.33 344.433C371.512 343.852 373.983 344.574 374.849 346.045C375.715 347.517 374.649 349.181 372.467 349.762Z" fill="#A6A0F9"/>
<path d="M443.478 227.506C445.57 226.79 448.13 227.353 449.197 228.763C450.264 230.174 449.434 231.898 447.343 232.615C445.251 233.331 442.691 232.768 441.624 231.357C440.557 229.947 441.387 228.223 443.478 227.506Z" fill="#A6A0F9"/>
<path d="M420.649 185.044C422.74 184.328 425.3 184.891 426.367 186.301C427.434 187.712 426.604 189.436 424.513 190.152C422.422 190.869 419.862 190.306 418.794 188.895C417.727 187.485 418.558 185.76 420.649 185.044Z" fill="#A6A0F9"/>
<path d="M302.227 181.523C304.318 180.807 306.879 181.369 307.946 182.78C309.013 184.191 308.183 185.915 306.091 186.631C304 187.348 301.44 186.785 300.373 185.374C299.306 183.964 300.136 182.239 302.227 181.523Z" fill="#A6A0F9"/>
<path d="M285.914 430.131C283.732 430.712 281.262 429.991 280.395 428.519C279.529 427.047 280.595 425.383 282.777 424.802C284.959 424.221 287.43 424.943 288.296 426.414C289.162 427.886 288.096 429.55 285.914 430.131Z" fill="#A6A0F9"/>
<path d="M214.441 101.174C212.259 101.755 209.788 101.033 208.922 99.5617C208.056 98.0901 209.122 96.426 211.304 95.8448C213.485 95.2636 215.956 95.9855 216.823 97.4571C217.689 98.9288 216.623 100.593 214.441 101.174Z" fill="#A6A0F9"/>
<path d="M275.666 114.293C273.484 114.874 271.013 114.153 270.147 112.681C269.28 111.209 270.347 109.545 272.529 108.964C274.71 108.383 277.181 109.105 278.048 110.576C278.914 112.048 277.847 113.712 275.666 114.293Z" fill="#A6A0F9"/>
<path d="M189.111 194.663C186.93 195.244 184.459 194.522 183.592 193.051C182.726 191.579 183.793 189.915 185.974 189.334C188.156 188.753 190.627 189.475 191.493 190.946C192.36 192.418 191.293 194.082 189.111 194.663Z" fill="#A6A0F9"/>
</g>
<g opacity="0.1">
<path d="M163.655 151.061C165.746 150.345 168.306 150.907 169.373 152.318C170.44 153.729 169.61 155.453 167.519 156.169C165.428 156.886 162.867 156.323 161.8 154.912C160.733 153.501 161.563 151.777 163.655 151.061Z" fill="#A6A0F9"/>
<path d="M88.4738 115.378C90.5651 114.662 93.1253 115.225 94.1924 116.635C95.2594 118.046 94.4292 119.77 92.338 120.486C90.2468 121.203 87.6865 120.64 86.6194 119.229C85.5524 117.819 86.3826 116.095 88.4738 115.378Z" fill="#A6A0F9"/>
<path d="M18.7201 203.803C16.5383 204.384 14.0674 203.662 13.2011 202.191C12.3348 200.719 13.4012 199.055 15.583 198.474C17.7648 197.893 20.2357 198.614 21.102 200.086C21.9683 201.558 20.9018 203.222 18.7201 203.803Z" fill="#A6A0F9"/>
<path d="M54.3702 281.023C52.1884 281.604 49.7175 280.882 48.8512 279.411C47.985 277.939 49.0514 276.275 51.2331 275.694C53.4149 275.112 55.8859 275.834 56.7521 277.306C57.6184 278.778 56.552 280.442 54.3702 281.023Z" fill="#A6A0F9"/>
<path d="M45.5302 453.358C47.6214 452.642 50.1817 453.204 51.2488 454.615C52.3158 456.026 51.4856 457.75 49.3944 458.466C47.3032 459.183 44.7429 458.62 43.6758 457.209C42.6087 455.799 43.439 454.074 45.5302 453.358Z" fill="#A6A0F9"/>
<path d="M22.7004 410.897C24.7916 410.181 27.3519 410.744 28.419 412.154C29.486 413.565 28.6558 415.289 26.5646 416.005C24.4733 416.722 21.9131 416.159 20.846 414.748C19.7789 413.338 20.6092 411.613 22.7004 410.897Z" fill="#A6A0F9"/>
</g>
<path d="M518.085 629.767C520.082 628.938 520.699 627.174 519.463 625.827C518.228 624.479 515.607 624.058 513.61 624.887C511.614 625.715 510.997 627.479 512.232 628.826C513.468 630.174 516.089 630.595 518.085 629.767Z" fill="#ECC7FF"/>
<path d="M409.346 621.271C411.343 620.442 411.96 618.678 410.724 617.331C409.488 615.983 406.868 615.562 404.871 616.391C402.874 617.219 402.257 618.983 403.493 620.33C404.729 621.678 407.349 622.099 409.346 621.271Z" fill="#ECC7FF"/>
<path d="M667.437 653.588C669.434 652.759 670.051 650.995 668.815 649.648C667.579 648.3 664.959 647.879 662.962 648.708C660.965 649.536 660.348 651.3 661.584 652.647C662.82 653.995 665.44 654.416 667.437 653.588Z" fill="#ECC7FF"/>
<path d="M680.848 708.811C682.844 707.982 683.461 706.218 682.226 704.871C680.99 703.523 678.369 703.102 676.373 703.931C674.376 704.759 673.759 706.523 674.995 707.87C676.23 709.218 678.851 709.639 680.848 708.811Z" fill="#ECC7FF"/>
<path d="M664.807 679.711C666.804 678.882 667.421 677.119 666.185 675.771C664.95 674.423 662.329 674.003 660.333 674.831C658.336 675.659 657.719 677.423 658.955 678.771C660.19 680.118 662.811 680.539 664.807 679.711Z" fill="#ECC7FF"/>
<path d="M152.507 660.593C150.403 661.291 149.544 663.008 150.587 664.428C151.63 665.847 154.181 666.432 156.284 665.733C158.388 665.035 159.247 663.318 158.204 661.898C157.161 660.479 154.61 659.894 152.507 660.593Z" fill="#ECC7FF"/>
<path d="M205.288 632.863C203.185 633.561 202.325 635.278 203.368 636.698C204.411 638.117 206.962 638.702 209.066 638.003C211.169 637.305 212.028 635.588 210.985 634.168C209.942 632.749 207.391 632.164 205.288 632.863Z" fill="#ECC7FF"/>
<path d="M258.025 611.936C255.922 612.634 255.062 614.351 256.105 615.771C257.149 617.19 259.699 617.775 261.803 617.076C263.906 616.378 264.765 614.661 263.722 613.241C262.679 611.822 260.128 611.237 258.025 611.936Z" fill="#ECC7FF"/>
<path d="M300.5 611.392C298.397 612.09 297.537 613.807 298.58 615.227C299.623 616.646 302.174 617.231 304.278 616.532C306.381 615.834 307.24 614.117 306.197 612.697C305.154 611.278 302.603 610.693 300.5 611.392Z" fill="#ECC7FF"/>
<path d="M355.091 613.61C352.988 614.308 352.128 616.025 353.171 617.445C354.214 618.864 356.765 619.449 358.869 618.75C360.972 618.052 361.831 616.335 360.788 614.915C359.745 613.496 357.194 612.911 355.091 613.61Z" fill="#ECC7FF"/>
<path d="M348.764 649.662C346.661 650.36 345.801 652.077 346.844 653.497C347.887 654.916 350.438 655.501 352.542 654.802C354.645 654.104 355.504 652.387 354.461 650.967C353.418 649.548 350.867 648.963 348.764 649.662Z" fill="#ECC7FF"/>
<path d="M387.332 630.05C385.229 630.748 384.37 632.465 385.413 633.885C386.456 635.304 389.007 635.889 391.11 635.19C393.213 634.492 394.073 632.775 393.03 631.355C391.987 629.936 389.436 629.351 387.332 630.05Z" fill="#ECC7FF"/>
<path d="M401.182 672.97C399.078 673.668 398.219 675.385 399.262 676.805C400.305 678.224 402.856 678.809 404.959 678.11C407.063 677.412 407.922 675.695 406.879 674.275C405.836 672.856 403.285 672.271 401.182 672.97Z" fill="#ECC7FF"/>
<path d="M469.764 686.601C467.661 687.299 466.801 689.016 467.844 690.436C468.887 691.855 471.438 692.44 473.541 691.741C475.645 691.043 476.504 689.326 475.461 687.906C474.418 686.487 471.867 685.902 469.764 686.601Z" fill="#ECC7FF"/>
<path d="M472.831 729.188C470.728 729.886 469.868 731.603 470.911 733.023C471.955 734.442 474.505 735.027 476.609 734.328C478.712 733.63 479.572 731.913 478.528 730.493C477.485 729.074 474.934 728.489 472.831 729.188Z" fill="#ECC7FF"/>
<path d="M496.592 765.156C494.488 765.854 493.629 767.571 494.672 768.991C495.715 770.41 498.266 770.995 500.369 770.296C502.473 769.598 503.332 767.881 502.289 766.461C501.246 765.042 498.695 764.457 496.592 765.156Z" fill="#ECC7FF"/>
<g opacity="0.5">
<path d="M381.215 553.07C383.212 552.241 383.829 550.478 382.593 549.13C381.357 547.783 378.737 547.362 376.74 548.19C374.743 549.018 374.127 550.782 375.362 552.13C376.598 553.477 379.219 553.898 381.215 553.07Z" fill="#ECC7FF"/>
<path d="M304.038 552.926C306.034 552.097 306.651 550.334 305.416 548.986C304.18 547.638 301.559 547.218 299.562 548.046C297.566 548.874 296.949 550.638 298.185 551.985C299.42 553.333 302.041 553.754 304.038 552.926Z" fill="#ECC7FF"/>
<path d="M443.571 548.637C445.568 547.808 446.185 546.045 444.949 544.697C443.713 543.35 441.093 542.929 439.096 543.757C437.099 544.585 436.482 546.349 437.718 547.697C438.954 549.044 441.574 549.465 443.571 548.637Z" fill="#ECC7FF"/>
<path d="M438.728 581.044C440.725 580.215 441.342 578.452 440.106 577.104C438.871 575.756 436.25 575.336 434.253 576.164C432.257 576.992 431.64 578.756 432.875 580.104C434.111 581.451 436.732 581.872 438.728 581.044Z" fill="#ECC7FF"/>
<path d="M545.002 624.534C546.999 623.705 547.616 621.942 546.38 620.594C545.144 619.246 542.524 618.826 540.527 619.654C538.53 620.482 537.913 622.246 539.149 623.594C540.385 624.941 543.005 625.362 545.002 624.534Z" fill="#ECC7FF"/>
<path d="M518.858 680.084C520.855 679.255 521.472 677.492 520.236 676.144C519.001 674.796 516.38 674.375 514.383 675.204C512.387 676.032 511.77 677.796 513.005 679.143C514.241 680.491 516.862 680.912 518.858 680.084Z" fill="#ECC7FF"/>
<path d="M-5.38199 528.394C-7.48534 529.092 -8.34478 530.809 -7.30161 532.229C-6.25845 533.648 -3.70769 534.233 -1.60434 533.534C0.499002 532.836 1.35845 531.119 0.31528 529.699C-0.727888 528.28 -3.27864 527.695 -5.38199 528.394Z" fill="#ECC7FF"/>
<path d="M-5.64957 565.823C-7.75291 566.521 -8.61236 568.238 -7.56919 569.658C-6.52602 571.077 -3.97527 571.662 -1.87192 570.963C0.231424 570.265 1.09087 568.548 0.0477014 567.128C-0.995466 565.709 -3.54622 565.124 -5.64957 565.823Z" fill="#ECC7FF"/>
<path d="M47.0328 551.702C44.9295 552.4 44.07 554.117 45.1132 555.537C46.1563 556.956 48.7071 557.541 50.8105 556.842C52.9138 556.144 53.7732 554.427 52.7301 553.007C51.6869 551.588 49.1362 551.003 47.0328 551.702Z" fill="#ECC7FF"/>
<path d="M69.5281 517.067C67.4248 517.765 66.5653 519.482 67.6085 520.902C68.6517 522.321 71.2024 522.906 73.3058 522.207C75.4092 521.509 76.2686 519.792 75.2254 518.372C74.1822 516.953 71.6315 516.368 69.5281 517.067Z" fill="#ECC7FF"/>
<path d="M138.261 521.372C136.158 522.07 135.298 523.787 136.341 525.207C137.385 526.626 139.935 527.211 142.039 526.512C144.142 525.814 145.002 524.097 143.958 522.677C142.915 521.258 140.364 520.673 138.261 521.372Z" fill="#ECC7FF"/>
<path d="M161.394 539.141C159.29 539.839 158.431 541.556 159.474 542.976C160.517 544.395 163.068 544.98 165.171 544.281C167.275 543.583 168.134 541.866 167.091 540.446C166.048 539.027 163.497 538.442 161.394 539.141Z" fill="#ECC7FF"/>
<path d="M223.767 549.783C221.663 550.481 220.804 552.198 221.847 553.618C222.891 555.037 225.441 555.622 227.545 554.923C229.648 554.225 230.508 552.508 229.464 551.088C228.421 549.669 225.87 549.084 223.767 549.783Z" fill="#ECC7FF"/>
<path d="M361.527 615.267C359.424 615.965 358.564 617.682 359.607 619.102C360.651 620.521 363.201 621.106 365.305 620.407C367.408 619.709 368.267 617.992 367.224 616.572C366.181 615.153 363.63 614.568 361.527 615.267Z" fill="#ECC7FF"/>
<path d="M379.427 724.689C377.323 725.387 376.464 727.104 377.507 728.524C378.55 729.943 381.101 730.528 383.204 729.829C385.308 729.131 386.167 727.414 385.124 725.994C384.081 724.575 381.53 723.99 379.427 724.689Z" fill="#ECC7FF"/>
<path d="M272.033 588.05C269.929 588.748 269.07 590.465 270.113 591.885C271.156 593.304 273.707 593.889 275.81 593.19C277.914 592.492 278.773 590.775 277.73 589.355C276.687 587.936 274.136 587.351 272.033 588.05Z" fill="#ECC7FF"/>
<path d="M260.318 537.105C262.314 536.276 262.931 534.513 261.695 533.165C260.46 531.817 257.839 531.396 255.843 532.225C253.846 533.053 253.229 534.817 254.465 536.164C255.7 537.512 258.321 537.933 260.318 537.105Z" fill="#ECC7FF"/>
<path d="M555.169 586.343C557.166 585.514 557.783 583.751 556.547 582.403C555.311 581.055 552.691 580.634 550.694 581.463C548.698 582.291 548.081 584.055 549.316 585.402C550.552 586.75 553.172 587.171 555.169 586.343Z" fill="#ECC7FF"/>
</g>
<g opacity="0.5">
<path d="M347.954 493.575C349.951 492.746 350.568 490.983 349.332 489.635C348.096 488.287 345.476 487.867 343.479 488.695C341.482 489.523 340.865 491.287 342.101 492.635C343.337 493.982 345.957 494.403 347.954 493.575Z" fill="#ECC7FF"/>
<path d="M277.767 515.558C279.764 514.729 280.38 512.966 279.145 511.618C277.909 510.27 275.289 509.849 273.292 510.678C271.295 511.506 270.678 513.27 271.914 514.617C273.15 515.965 275.77 516.386 277.767 515.558Z" fill="#ECC7FF"/>
<path d="M221.374 442.422C223.371 441.593 223.988 439.83 222.752 438.482C221.516 437.134 218.896 436.713 216.899 437.542C214.902 438.37 214.285 440.134 215.521 441.481C216.757 442.829 219.377 443.25 221.374 442.422Z" fill="#ECC7FF"/>
<path d="M353.918 416.008C355.914 415.179 356.531 413.416 355.295 412.068C354.06 410.721 351.439 410.3 349.442 411.128C347.445 411.956 346.828 413.72 348.064 415.067C349.3 416.415 351.921 416.836 353.918 416.008Z" fill="#ECC7FF"/>
<path d="M465.578 500.171C467.574 499.342 468.191 497.579 466.956 496.231C465.72 494.883 463.099 494.463 461.103 495.291C459.106 496.119 458.489 497.883 459.725 499.23C460.96 500.578 463.581 500.999 465.578 500.171Z" fill="#ECC7FF"/>
<path d="M614.898 500.761C616.895 499.932 617.512 498.169 616.276 496.821C615.041 495.473 612.42 495.052 610.423 495.881C608.427 496.709 607.81 498.473 609.045 499.82C610.281 501.168 612.902 501.589 614.898 500.761Z" fill="#ECC7FF"/>
<path d="M550.97 546.966C552.967 546.137 553.584 544.373 552.348 543.026C551.112 541.678 548.492 541.257 546.495 542.086C544.498 542.914 543.881 544.678 545.117 546.025C546.353 547.373 548.973 547.794 550.97 546.966Z" fill="#ECC7FF"/>
<path d="M499.998 537.732C501.995 536.903 502.612 535.14 501.376 533.792C500.14 532.444 497.52 532.024 495.523 532.852C493.526 533.68 492.909 535.444 494.145 536.792C495.381 538.139 498.001 538.56 499.998 537.732Z" fill="#ECC7FF"/>
<path d="M646.111 575.414C648.108 574.585 648.725 572.821 647.489 571.474C646.253 570.126 643.633 569.705 641.636 570.534C639.639 571.362 639.022 573.126 640.258 574.473C641.494 575.821 644.114 576.242 646.111 575.414Z" fill="#ECC7FF"/>
<path d="M766.173 523.784C768.17 522.955 768.787 521.192 767.551 519.844C766.316 518.496 763.695 518.076 761.698 518.904C759.702 519.732 759.085 521.496 760.321 522.844C761.556 524.191 764.177 524.612 766.173 523.784Z" fill="#ECC7FF"/>
<path d="M592.031 672.954C594.028 672.125 594.645 670.362 593.409 669.014C592.173 667.667 589.552 667.246 587.555 668.074C585.559 668.902 584.942 670.666 586.178 672.013C587.413 673.361 590.034 673.782 592.031 672.954Z" fill="#ECC7FF"/>
<path d="M571.051 713.845C573.048 713.016 573.665 711.252 572.429 709.905C571.194 708.557 568.573 708.136 566.576 708.965C564.58 709.793 563.963 711.557 565.198 712.904C566.434 714.252 569.055 714.673 571.051 713.845Z" fill="#ECC7FF"/>
<path d="M114.546 444.392C112.442 445.09 111.583 446.807 112.626 448.226C113.669 449.646 116.22 450.23 118.324 449.532C120.427 448.834 121.286 447.117 120.243 445.697C119.2 444.278 116.649 443.693 114.546 444.392Z" fill="#ECC7FF"/>
<path d="M189.947 505.888C187.844 506.586 186.984 508.303 188.027 509.723C189.071 511.142 191.621 511.727 193.725 511.028C195.828 510.33 196.688 508.613 195.644 507.193C194.601 505.774 192.05 505.189 189.947 505.888Z" fill="#ECC7FF"/>
<path d="M100.308 514.949C102.305 514.12 102.922 512.357 101.686 511.009C100.45 509.661 97.8298 509.24 95.833 510.069C93.8362 510.897 93.2193 512.661 94.4551 514.008C95.6909 515.356 98.3114 515.777 100.308 514.949Z" fill="#ECC7FF"/>
<path d="M170.912 580.399C172.909 579.57 173.526 577.807 172.29 576.459C171.054 575.111 168.434 574.691 166.437 575.519C164.44 576.347 163.824 578.111 165.059 579.459C166.295 580.806 168.916 581.227 170.912 580.399Z" fill="#ECC7FF"/>
<path d="M383.085 679.002C380.982 679.7 380.123 681.417 381.166 682.837C382.209 684.256 384.76 684.841 386.863 684.142C388.966 683.444 389.826 681.727 388.783 680.307C387.739 678.888 385.189 678.303 383.085 679.002Z" fill="#ECC7FF"/>
<path d="M346.191 641.271C344.087 641.969 343.228 643.686 344.271 645.106C345.314 646.525 347.865 647.11 349.968 646.411C352.072 645.713 352.931 643.996 351.888 642.576C350.845 641.157 348.294 640.572 346.191 641.271Z" fill="#ECC7FF"/>
<path d="M412.78 575.26C410.677 575.958 409.817 577.675 410.86 579.095C411.903 580.514 414.454 581.099 416.558 580.4C418.661 579.702 419.52 577.985 418.477 576.565C417.434 575.146 414.883 574.561 412.78 575.26Z" fill="#ECC7FF"/>
<path d="M185.795 524.16C187.792 523.331 188.409 521.568 187.173 520.22C185.937 518.872 183.317 518.452 181.32 519.28C179.323 520.108 178.706 521.872 179.942 523.219C181.178 524.567 183.798 524.988 185.795 524.16Z" fill="#ECC7FF"/>
<path d="M718.446 715.234C720.443 714.405 721.06 712.642 719.824 711.294C718.588 709.946 715.968 709.525 713.971 710.354C711.974 711.182 711.357 712.946 712.593 714.293C713.829 715.641 716.449 716.062 718.446 715.234Z" fill="#ECC7FF"/>
<path d="M127.142 379.241C129.139 378.412 129.756 376.649 128.52 375.301C127.284 373.953 124.664 373.532 122.667 374.361C120.67 375.189 120.053 376.953 121.289 378.3C122.525 379.648 125.145 380.069 127.142 379.241Z" fill="#ECC7FF"/>
<path d="M18.4012 370.746C20.398 369.917 21.0149 368.153 19.7792 366.806C18.5434 365.458 15.923 365.037 13.9262 365.866C11.9295 366.694 11.3126 368.458 12.5483 369.805C13.784 371.153 16.4045 371.574 18.4012 370.746Z" fill="#ECC7FF"/>
<path d="M278.265 403.299C280.262 402.47 280.879 400.706 279.643 399.359C278.407 398.011 275.787 397.59 273.79 398.419C271.793 399.247 271.176 401.011 272.412 402.358C273.648 403.706 276.268 404.127 278.265 403.299Z" fill="#ECC7FF"/>
<path d="M291.675 458.522C293.672 457.693 294.289 455.929 293.053 454.582C291.817 453.234 289.197 452.813 287.2 453.642C285.203 454.47 284.586 456.234 285.822 457.581C287.058 458.929 289.678 459.35 291.675 458.522Z" fill="#ECC7FF"/>
<path d="M275.635 429.421C277.632 428.592 278.249 426.829 277.013 425.481C275.777 424.133 273.157 423.712 271.16 424.541C269.163 425.369 268.546 427.133 269.782 428.48C271.018 429.828 273.638 430.249 275.635 429.421Z" fill="#ECC7FF"/>
<path d="M157.038 359.68C159.034 358.851 159.651 357.087 158.415 355.74C157.18 354.392 154.559 353.971 152.562 354.8C150.566 355.628 149.949 357.392 151.185 358.739C152.42 360.087 155.041 360.508 157.038 359.68Z" fill="#ECC7FF"/>
<path d="M79.8612 359.536C81.858 358.707 82.4749 356.944 81.2392 355.596C80.0034 354.248 77.383 353.828 75.3862 354.656C73.3894 355.484 72.7725 357.248 74.0083 358.595C75.244 359.943 77.8645 360.364 79.8612 359.536Z" fill="#ECC7FF"/>
<path d="M219.395 355.249C221.391 354.42 222.008 352.657 220.773 351.309C219.537 349.961 216.916 349.54 214.92 350.369C212.923 351.197 212.306 352.961 213.542 354.308C214.777 355.656 217.398 356.077 219.395 355.249Z" fill="#ECC7FF"/>
<path d="M214.554 387.654C216.55 386.825 217.167 385.061 215.932 383.714C214.696 382.366 212.075 381.945 210.079 382.774C208.082 383.602 207.465 385.366 208.701 386.713C209.936 388.061 212.557 388.482 214.554 387.654Z" fill="#ECC7FF"/>
<path d="M322.598 431.382C324.595 430.553 325.212 428.789 323.976 427.442C322.74 426.094 320.12 425.673 318.123 426.502C316.126 427.33 315.509 429.094 316.745 430.441C317.981 431.789 320.601 432.21 322.598 431.382Z" fill="#ECC7FF"/>
<path d="M296.456 486.929C298.453 486.1 299.069 484.337 297.834 482.989C296.598 481.642 293.977 481.221 291.981 482.049C289.984 482.877 289.367 484.641 290.603 485.989C291.839 487.336 294.459 487.757 296.456 486.929Z" fill="#ECC7FF"/>
<path d="M36.1383 343.715C38.1351 342.886 38.752 341.122 37.5163 339.775C36.2805 338.427 33.6601 338.006 31.6633 338.835C29.6665 339.663 29.0496 341.427 30.2854 342.774C31.5211 344.122 34.1416 344.543 36.1383 343.715Z" fill="#ECC7FF"/>
<path d="M332.765 393.189C334.762 392.36 335.379 390.596 334.143 389.249C332.907 387.901 330.287 387.48 328.29 388.309C326.293 389.137 325.677 390.901 326.912 392.248C328.148 393.596 330.768 394.017 332.765 393.189Z" fill="#ECC7FF"/>
<path d="M123.772 300.185C125.768 299.356 126.385 297.592 125.15 296.245C123.914 294.897 121.293 294.476 119.297 295.305C117.3 296.133 116.683 297.897 117.919 299.244C119.154 300.592 121.775 301.013 123.772 300.185Z" fill="#ECC7FF"/>
<path d="M53.5888 322.167C55.5856 321.338 56.2025 319.575 54.9667 318.227C53.731 316.879 51.1105 316.458 49.1138 317.287C47.117 318.115 46.5001 319.879 47.7358 321.226C48.9716 322.574 51.592 322.995 53.5888 322.167Z" fill="#ECC7FF"/>
<path d="M-2.80378 249.031C-0.807011 248.202 -0.190083 246.439 -1.42583 245.091C-2.66158 243.743 -5.28205 243.322 -7.27882 244.151C-9.27559 244.979 -9.89252 246.743 -8.65677 248.09C-7.42102 249.438 -4.80055 249.859 -2.80378 249.031Z" fill="#ECC7FF"/>
<path d="M129.739 222.618C131.736 221.789 132.353 220.026 131.117 218.678C129.882 217.33 127.261 216.91 125.264 217.738C123.268 218.566 122.651 220.33 123.886 221.677C125.122 223.025 127.743 223.446 129.739 222.618Z" fill="#ECC7FF"/>
<path d="M241.398 306.781C243.395 305.952 244.012 304.189 242.776 302.841C241.54 301.493 238.92 301.072 236.923 301.901C234.926 302.729 234.309 304.493 235.545 305.84C236.781 307.188 239.401 307.609 241.398 306.781Z" fill="#ECC7FF"/>
<path d="M392.493 307.609C394.49 306.78 395.107 305.017 393.871 303.669C392.635 302.321 390.015 301.9 388.018 302.729C386.021 303.557 385.404 305.321 386.64 306.668C387.876 308.016 390.496 308.437 392.493 307.609Z" fill="#ECC7FF"/>
<path d="M328.561 353.813C330.558 352.984 331.175 351.22 329.939 349.873C328.703 348.525 326.083 348.104 324.086 348.933C322.089 349.761 321.472 351.525 322.708 352.872C323.944 354.22 326.564 354.641 328.561 353.813Z" fill="#ECC7FF"/>
<path d="M277.592 344.577C279.589 343.748 280.206 341.985 278.97 340.637C277.734 339.289 275.114 338.869 273.117 339.697C271.12 340.525 270.503 342.289 271.739 343.636C272.975 344.984 275.595 345.405 277.592 344.577Z" fill="#ECC7FF"/>
<path d="M423.703 382.258C425.699 381.429 426.316 379.665 425.081 378.318C423.845 376.97 421.224 376.549 419.228 377.378C417.231 378.206 416.614 379.97 417.85 381.317C419.085 382.665 421.706 383.086 423.703 382.258Z" fill="#ECC7FF"/>
<path d="M543.766 330.631C545.763 329.802 546.38 328.039 545.144 326.691C543.909 325.343 541.288 324.922 539.291 325.751C537.294 326.579 536.678 328.343 537.913 329.69C539.149 331.038 541.77 331.459 543.766 330.631Z" fill="#ECC7FF"/>
<path d="M369.622 479.799C371.619 478.97 372.235 477.206 371 475.859C369.764 474.511 367.143 474.09 365.147 474.919C363.15 475.747 362.533 477.511 363.769 478.858C365.005 480.206 367.625 480.627 369.622 479.799Z" fill="#ECC7FF"/>
<path d="M348.644 520.688C350.641 519.859 351.258 518.096 350.022 516.748C348.787 515.4 346.166 514.979 344.169 515.808C342.173 516.636 341.556 518.4 342.791 519.747C344.027 521.095 346.648 521.516 348.644 520.688Z" fill="#ECC7FF"/>
<path d="M496.041 522.08C498.037 521.251 498.654 519.487 497.418 518.14C496.183 516.792 493.562 516.371 491.566 517.2C489.569 518.028 488.952 519.792 490.188 521.139C491.423 522.487 494.044 522.908 496.041 522.08Z" fill="#ECC7FF"/>
<path d="M11.5424 424.322C9.43901 425.02 8.57956 426.737 9.62272 428.157C10.6659 429.576 13.2166 430.161 15.32 429.462C17.4233 428.764 18.2828 427.047 17.2396 425.627C16.1964 424.208 13.6457 423.623 11.5424 424.322Z" fill="#ECC7FF"/>
</g>
<g opacity="0.1">
<path d="M854.632 413.991C856.628 413.162 857.245 411.398 856.01 410.051C854.774 408.703 852.153 408.282 850.156 409.111C848.16 409.939 847.543 411.703 848.779 413.05C850.014 414.398 852.635 414.819 854.632 413.991Z" fill="#ECC7FF"/>
<path d="M784.445 435.973C786.442 435.144 787.059 433.38 785.823 432.033C784.588 430.685 781.967 430.264 779.97 431.093C777.974 431.921 777.357 433.685 778.592 435.032C779.828 436.38 782.449 436.801 784.445 435.973Z" fill="#ECC7FF"/>
<path d="M728.052 362.837C730.049 362.008 730.665 360.244 729.43 358.897C728.194 357.549 725.573 357.128 723.577 357.957C721.58 358.785 720.963 360.549 722.199 361.896C723.434 363.244 726.055 363.665 728.052 362.837Z" fill="#ECC7FF"/>
<path d="M860.596 336.424C862.593 335.595 863.21 333.831 861.974 332.484C860.738 331.136 858.118 330.715 856.121 331.544C854.124 332.372 853.507 334.136 854.743 335.483C855.979 336.831 858.599 337.252 860.596 336.424Z" fill="#ECC7FF"/>
<path d="M972.261 420.586C974.258 419.757 974.875 417.993 973.639 416.646C972.403 415.298 969.783 414.877 967.786 415.706C965.789 416.534 965.172 418.298 966.408 419.645C967.644 420.993 970.264 421.414 972.261 420.586Z" fill="#ECC7FF"/>
<path d="M1006.67 458.146C1008.67 457.317 1009.29 455.553 1008.05 454.206C1006.82 452.858 1004.2 452.437 1002.2 453.266C1000.2 454.094 999.585 455.858 1000.82 457.205C1002.06 458.553 1004.68 458.974 1006.67 458.146Z" fill="#ECC7FF"/>
<path d="M459.351 482.252C457.248 482.95 456.388 484.667 457.431 486.087C458.475 487.506 461.025 488.091 463.129 487.392C465.232 486.694 466.091 484.977 465.048 483.557C464.005 482.138 461.454 481.553 459.351 482.252Z" fill="#ECC7FF"/>
<path d="M461.815 420.328C459.712 421.026 458.853 422.743 459.896 424.163C460.939 425.582 463.49 426.167 465.593 425.468C467.696 424.77 468.556 423.053 467.513 421.633C466.469 420.214 463.919 419.629 461.815 420.328Z" fill="#ECC7FF"/>
<path d="M622.996 365.043C620.893 365.741 620.033 367.458 621.076 368.878C622.119 370.297 624.67 370.882 626.774 370.183C628.877 369.485 629.736 367.768 628.693 366.348C627.65 364.929 625.099 364.344 622.996 365.043Z" fill="#ECC7FF"/>
<path d="M698.398 426.537C696.295 427.235 695.435 428.952 696.479 430.372C697.522 431.791 700.073 432.375 702.176 431.677C704.279 430.979 705.139 429.262 704.096 427.842C703.052 426.423 700.502 425.838 698.398 426.537Z" fill="#ECC7FF"/>
<path d="M608.759 435.6C610.756 434.771 611.373 433.007 610.137 431.66C608.901 430.312 606.281 429.891 604.284 430.72C602.287 431.548 601.67 433.312 602.906 434.659C604.142 436.007 606.762 436.428 608.759 435.6Z" fill="#ECC7FF"/>
<path d="M679.362 501.05C681.359 500.221 681.976 498.457 680.74 497.11C679.504 495.762 676.884 495.341 674.887 496.17C672.89 496.998 672.273 498.762 673.509 500.109C674.745 501.457 677.365 501.878 679.362 501.05Z" fill="#ECC7FF"/>
<path d="M889.764 599.417C887.661 600.115 886.801 601.832 887.845 603.252C888.888 604.671 891.439 605.255 893.542 604.557C895.645 603.859 896.505 602.142 895.462 600.722C894.418 599.303 891.868 598.718 889.764 599.417Z" fill="#ECC7FF"/>
<path d="M852.869 561.686C850.766 562.384 849.907 564.101 850.95 565.521C851.993 566.94 854.544 567.525 856.647 566.826C858.75 566.128 859.61 564.411 858.567 562.991C857.524 561.572 854.973 560.987 852.869 561.686Z" fill="#ECC7FF"/>
<path d="M919.459 495.672C917.355 496.37 916.496 498.087 917.539 499.507C918.582 500.926 921.133 501.51 923.236 500.812C925.34 500.114 926.199 498.397 925.156 496.977C924.113 495.558 921.562 494.973 919.459 495.672Z" fill="#ECC7FF"/>
<path d="M694.246 444.811C696.243 443.982 696.86 442.218 695.624 440.871C694.389 439.523 691.768 439.102 689.771 439.931C687.774 440.759 687.158 442.523 688.393 443.87C689.629 445.218 692.25 445.639 694.246 444.811Z" fill="#ECC7FF"/>
<path d="M635.592 299.892C637.589 299.063 638.206 297.299 636.97 295.952C635.734 294.604 633.114 294.183 631.117 295.012C629.12 295.84 628.503 297.604 629.739 298.951C630.975 300.299 633.595 300.72 635.592 299.892Z" fill="#ECC7FF"/>
<path d="M526.851 291.396C528.848 290.567 529.465 288.803 528.229 287.456C526.993 286.108 524.373 285.687 522.376 286.516C520.379 287.344 519.762 289.108 520.998 290.455C522.234 291.803 524.854 292.224 526.851 291.396Z" fill="#ECC7FF"/>
<path d="M784.942 323.714C786.939 322.885 787.556 321.121 786.32 319.774C785.085 318.426 782.464 318.005 780.467 318.834C778.471 319.662 777.854 321.426 779.089 322.773C780.325 324.121 782.946 324.542 784.942 323.714Z" fill="#ECC7FF"/>
<path d="M798.354 378.937C800.351 378.108 800.968 376.344 799.732 374.997C798.496 373.649 795.876 373.228 793.879 374.057C791.882 374.885 791.265 376.649 792.501 377.996C793.737 379.344 796.357 379.765 798.354 378.937Z" fill="#ECC7FF"/>
<path d="M782.313 349.836C784.309 349.007 784.926 347.243 783.69 345.896C782.455 344.548 779.834 344.127 777.838 344.956C775.841 345.784 775.224 347.548 776.46 348.895C777.695 350.243 780.316 350.664 782.313 349.836Z" fill="#ECC7FF"/>
<path d="M665.488 280.329C667.484 279.501 668.101 277.737 666.865 276.39C665.63 275.042 663.009 274.621 661.012 275.45C659.016 276.278 658.399 278.042 659.635 279.389C660.87 280.737 663.491 281.158 665.488 280.329Z" fill="#ECC7FF"/>
<path d="M588.312 280.186C590.309 279.357 590.926 277.593 589.69 276.246C588.455 274.898 585.834 274.477 583.837 275.306C581.841 276.134 581.224 277.898 582.459 279.245C583.695 280.593 586.316 281.014 588.312 280.186Z" fill="#ECC7FF"/>
<path d="M727.845 275.899C729.841 275.07 730.458 273.306 729.223 271.959C727.987 270.611 725.366 270.19 723.37 271.019C721.373 271.847 720.756 273.611 721.992 274.958C723.227 276.306 725.848 276.727 727.845 275.899Z" fill="#ECC7FF"/>
<path d="M723.004 308.305C725 307.476 725.617 305.712 724.381 304.365C723.146 303.017 720.525 302.596 718.528 303.425C716.532 304.253 715.915 306.017 717.15 307.364C718.386 308.712 721.007 309.133 723.004 308.305Z" fill="#ECC7FF"/>
<path d="M829.276 351.797C831.272 350.968 831.889 349.204 830.653 347.857C829.418 346.509 826.797 346.088 824.801 346.917C822.804 347.745 822.187 349.509 823.423 350.856C824.658 352.204 827.279 352.625 829.276 351.797Z" fill="#ECC7FF"/>
<path d="M803.132 407.346C805.128 406.517 805.745 404.753 804.51 403.406C803.274 402.058 800.653 401.637 798.657 402.466C796.66 403.294 796.043 405.058 797.279 406.405C798.515 407.753 801.135 408.174 803.132 407.346Z" fill="#ECC7FF"/>
<path d="M544.588 264.366C546.585 263.537 547.202 261.773 545.966 260.426C544.73 259.078 542.11 258.657 540.113 259.486C538.116 260.314 537.5 262.078 538.735 263.425C539.971 264.773 542.592 265.194 544.588 264.366Z" fill="#ECC7FF"/>
<path d="M839.443 313.605C841.44 312.777 842.056 311.013 840.821 309.666C839.585 308.318 836.964 307.897 834.968 308.726C832.971 309.554 832.354 311.318 833.59 312.665C834.826 314.013 837.446 314.434 839.443 313.605Z" fill="#ECC7FF"/>
<path d="M632.222 220.835C634.218 220.007 634.835 218.243 633.6 216.896C632.364 215.548 629.743 215.127 627.747 215.956C625.75 216.784 625.133 218.548 626.369 219.895C627.604 221.243 630.225 221.664 632.222 220.835Z" fill="#ECC7FF"/>
<path d="M562.038 242.818C564.035 241.989 564.652 240.226 563.416 238.878C562.181 237.53 559.56 237.109 557.563 237.938C555.567 238.766 554.95 240.53 556.186 241.877C557.421 243.225 560.042 243.646 562.038 242.818Z" fill="#ECC7FF"/>
<path d="M505.644 169.682C507.641 168.853 508.258 167.09 507.022 165.742C505.787 164.394 503.166 163.973 501.169 164.802C499.173 165.63 498.556 167.394 499.791 168.741C501.027 170.089 503.648 170.51 505.644 169.682Z" fill="#ECC7FF"/>
<path d="M638.189 143.269C640.186 142.44 640.803 140.676 639.567 139.329C638.331 137.981 635.711 137.56 633.714 138.389C631.717 139.217 631.1 140.981 632.336 142.328C633.572 143.676 636.192 144.097 638.189 143.269Z" fill="#ECC7FF"/>
<path d="M749.849 227.432C751.846 226.603 752.463 224.84 751.227 223.492C749.992 222.144 747.371 221.723 745.374 222.552C743.377 223.38 742.761 225.144 743.996 226.491C745.232 227.839 747.853 228.26 749.849 227.432Z" fill="#ECC7FF"/>
<path d="M899.17 228.024C901.167 227.195 901.784 225.431 900.548 224.084C899.312 222.736 896.692 222.315 894.695 223.144C892.698 223.972 892.081 225.736 893.317 227.083C894.553 228.431 897.173 228.852 899.17 228.024Z" fill="#ECC7FF"/>
<path d="M835.24 274.228C837.237 273.399 837.854 271.635 836.618 270.288C835.382 268.94 832.762 268.519 830.765 269.348C828.768 270.176 828.151 271.94 829.387 273.287C830.623 274.635 833.243 275.056 835.24 274.228Z" fill="#ECC7FF"/>
<path d="M784.27 264.992C786.266 264.163 786.883 262.399 785.648 261.052C784.412 259.704 781.791 259.283 779.795 260.112C777.798 260.94 777.181 262.704 778.417 264.051C779.652 265.399 782.273 265.82 784.27 264.992Z" fill="#ECC7FF"/>
<path d="M930.38 302.673C932.377 301.844 932.994 300.08 931.758 298.733C930.522 297.385 927.902 296.964 925.905 297.793C923.908 298.621 923.291 300.385 924.527 301.732C925.763 303.08 928.383 303.501 930.38 302.673Z" fill="#ECC7FF"/>
<path d="M876.299 400.215C878.296 399.386 878.913 397.622 877.677 396.275C876.441 394.927 873.821 394.506 871.824 395.335C869.827 396.163 869.211 397.927 870.446 399.274C871.682 400.622 874.302 401.043 876.299 400.215Z" fill="#ECC7FF"/>
<path d="M855.323 441.105C857.32 440.276 857.937 438.512 856.701 437.165C855.466 435.817 852.845 435.396 850.848 436.225C848.852 437.053 848.235 438.817 849.47 440.164C850.706 441.512 853.327 441.933 855.323 441.105Z" fill="#ECC7FF"/>
<path d="M386.352 242.445C388.349 241.616 388.966 239.852 387.73 238.505C386.494 237.157 383.874 236.736 381.877 237.565C379.88 238.393 379.263 240.157 380.499 241.504C381.735 242.852 384.355 243.273 386.352 242.445Z" fill="#ECC7FF"/>
<path d="M456.955 307.897C458.952 307.068 459.569 305.304 458.333 303.957C457.097 302.609 454.477 302.188 452.48 303.017C450.483 303.845 449.866 305.609 451.102 306.956C452.338 308.304 454.958 308.725 456.955 307.897Z" fill="#ECC7FF"/>
<path d="M471.839 251.656C473.836 250.827 474.453 249.063 473.217 247.716C471.981 246.368 469.361 245.947 467.364 246.776C465.367 247.604 464.75 249.368 465.986 250.715C467.222 252.063 469.842 252.484 471.839 251.656Z" fill="#ECC7FF"/>
<path d="M1002.71 442.495C1004.71 441.666 1005.33 439.902 1004.09 438.555C1002.85 437.207 1000.23 436.786 998.237 437.615C996.24 438.443 995.623 440.207 996.859 441.554C998.095 442.902 1000.72 443.323 1002.71 442.495Z" fill="#ECC7FF"/>
<path d="M519.992 344.973C517.889 345.671 517.029 347.388 518.073 348.808C519.116 350.227 521.666 350.812 523.77 350.113C525.873 349.415 526.732 347.698 525.689 346.278C524.646 344.859 522.096 344.274 519.992 344.973Z" fill="#ECC7FF"/>
</g>
<g opacity="0.1">
<path d="M976.107 546.812C974.28 547.803 973.997 549.606 975.474 550.838C976.95 552.069 979.628 552.264 981.455 551.272C983.281 550.28 983.565 548.478 982.088 547.246C980.611 546.015 977.933 545.82 976.107 546.812Z" fill="#ECC7FF"/>
<path d="M984.681 624.268C982.854 625.259 982.571 627.062 984.047 628.293C985.524 629.525 988.202 629.72 990.028 628.728C991.855 627.736 992.139 625.934 990.662 624.702C989.185 623.471 986.507 623.276 984.681 624.268Z" fill="#ECC7FF"/>
<path d="M858.177 550.238C856.351 551.229 856.067 553.032 857.544 554.264C859.021 555.495 861.699 555.69 863.525 554.698C865.352 553.707 865.635 551.904 864.159 550.672C862.682 549.441 860.004 549.246 858.177 550.238Z" fill="#ECC7FF"/>
<path d="M709.934 562.308C708.108 563.299 707.824 565.102 709.301 566.333C710.778 567.565 713.456 567.76 715.282 566.768C717.109 565.776 717.392 563.974 715.915 562.742C714.439 561.511 711.761 561.316 709.934 562.308Z" fill="#ECC7FF"/>
<path d="M764.716 511.053C762.889 512.044 762.606 513.847 764.082 515.078C765.559 516.31 768.237 516.505 770.063 515.513C771.89 514.521 772.173 512.719 770.697 511.487C769.22 510.256 766.542 510.061 764.716 511.053Z" fill="#ECC7FF"/>
<path d="M817.008 515.894C815.181 516.885 814.898 518.688 816.374 519.92C817.851 521.151 820.529 521.346 822.355 520.354C824.182 519.363 824.465 517.56 822.989 516.328C821.512 515.097 818.834 514.902 817.008 515.894Z" fill="#ECC7FF"/>
<path d="M665.01 490.898C663.183 491.889 662.9 493.692 664.376 494.923C665.853 496.155 668.531 496.35 670.358 495.358C672.184 494.366 672.468 492.564 670.991 491.332C669.514 490.101 666.836 489.906 665.01 490.898Z" fill="#ECC7FF"/>
<path d="M555.558 552.293C553.731 553.284 553.448 555.087 554.925 556.318C556.401 557.55 559.079 557.745 560.906 556.753C562.732 555.761 563.016 553.959 561.539 552.727C560.062 551.496 557.384 551.301 555.558 552.293Z" fill="#ECC7FF"/>
<path d="M700.422 389.549C698.595 390.54 698.312 392.343 699.789 393.574C701.265 394.806 703.943 395.001 705.77 394.009C707.596 393.017 707.88 391.215 706.403 389.983C704.926 388.751 702.248 388.557 700.422 389.549Z" fill="#ECC7FF"/>
<path d="M713.588 347.207C711.762 348.198 711.478 350.001 712.955 351.233C714.432 352.464 717.11 352.659 718.936 351.667C720.763 350.676 721.046 348.873 719.569 347.641C718.093 346.41 715.415 346.215 713.588 347.207Z" fill="#ECC7FF"/>
<path d="M906.571 365.837C908.527 364.965 909.06 363.188 907.761 361.869C906.462 360.549 903.822 360.187 901.866 361.059C899.909 361.931 899.376 363.707 900.676 365.027C901.975 366.346 904.614 366.709 906.571 365.837Z" fill="#ECC7FF"/>
<path d="M950.227 400.14C952.183 399.268 952.716 397.491 951.417 396.172C950.118 394.852 947.479 394.49 945.522 395.362C943.566 396.234 943.033 398.01 944.332 399.33C945.631 400.649 948.27 401.012 950.227 400.14Z" fill="#ECC7FF"/>
<path d="M896.51 471.272C898.466 470.4 898.999 468.623 897.7 467.304C896.401 465.984 893.761 465.622 891.805 466.494C889.848 467.366 889.315 469.142 890.615 470.462C891.914 471.781 894.553 472.144 896.51 471.272Z" fill="#ECC7FF"/>
<path d="M567.106 358.32C565.279 359.311 564.996 361.114 566.472 362.345C567.949 363.577 570.627 363.772 572.454 362.78C574.28 361.788 574.564 359.986 573.087 358.754C571.61 357.523 568.932 357.328 567.106 358.32Z" fill="#ECC7FF"/>
<path d="M1012.88 606.361C1011.06 607.352 1010.77 609.155 1012.25 610.386C1013.73 611.618 1016.41 611.813 1018.23 610.821C1020.06 609.829 1020.34 608.027 1018.87 606.795C1017.39 605.564 1014.71 605.369 1012.88 606.361Z" fill="#ECC7FF"/>
<path d="M1028.44 549.039C1026.61 550.03 1026.33 551.833 1027.8 553.064C1029.28 554.296 1031.96 554.491 1033.78 553.499C1035.61 552.507 1035.89 550.705 1034.42 549.473C1032.94 548.241 1030.26 548.047 1028.44 549.039Z" fill="#ECC7FF"/>
<path d="M1009.94 645.11C1008.12 646.101 1007.83 647.904 1009.31 649.135C1010.79 650.367 1013.46 650.562 1015.29 649.57C1017.12 648.578 1017.4 646.776 1015.92 645.544C1014.45 644.313 1011.77 644.118 1009.94 645.11Z" fill="#ECC7FF"/>
<path d="M966.69 735.074C964.864 736.065 964.58 737.868 966.057 739.099C967.534 740.331 970.212 740.526 972.038 739.534C973.865 738.542 974.149 736.74 972.672 735.508C971.195 734.277 968.517 734.082 966.69 735.074Z" fill="#ECC7FF"/>
<path d="M1021.47 683.818C1019.65 684.809 1019.36 686.612 1020.84 687.843C1022.32 689.075 1025 689.27 1026.82 688.278C1028.65 687.286 1028.93 685.484 1027.45 684.252C1025.98 683.02 1023.3 682.826 1021.47 683.818Z" fill="#ECC7FF"/>
<path d="M921.769 663.664C919.943 664.655 919.659 666.458 921.136 667.689C922.613 668.921 925.29 669.116 927.117 668.124C928.943 667.132 929.227 665.33 927.75 664.098C926.273 662.867 923.596 662.672 921.769 663.664Z" fill="#ECC7FF"/>
<path d="M812.313 725.059C810.486 726.05 810.203 727.853 811.679 729.084C813.156 730.316 815.834 730.511 817.661 729.519C819.487 728.527 819.771 726.725 818.294 725.493C816.817 724.262 814.139 724.067 812.313 725.059Z" fill="#ECC7FF"/>
<path d="M957.186 562.314C955.359 563.305 955.076 565.108 956.553 566.339C958.029 567.571 960.707 567.766 962.534 566.774C964.36 565.782 964.644 563.98 963.167 562.748C961.69 561.517 959.012 561.322 957.186 562.314Z" fill="#ECC7FF"/>
<path d="M970.342 519.971C968.515 520.962 968.232 522.765 969.709 523.996C971.186 525.228 973.863 525.423 975.69 524.431C977.516 523.439 977.8 521.637 976.323 520.405C974.846 519.174 972.168 518.979 970.342 519.971Z" fill="#ECC7FF"/>
<path d="M823.861 531.085C822.034 532.076 821.751 533.879 823.227 535.11C824.704 536.342 827.382 536.537 829.208 535.545C831.035 534.553 831.318 532.751 829.842 531.519C828.365 530.288 825.687 530.093 823.861 531.085Z" fill="#ECC7FF"/>
</g>
</g>
<mask id="mask1_1078_18451" style="mask-type:alpha" maskUnits="userSpaceOnUse" x="263" y="55" width="982" height="433">
<path d="M980.919 385.137C1098.82 364.349 1205.65 350.113 1240.48 243.617C1258.37 189.445 1207.29 125.821 1135.7 115.476C1066.03 105.419 987.438 122.141 918.588 125.268C829.818 128.897 751.944 100.818 669.851 81.0654C399.446 16.824 286.957 88.1824 268.31 123.953C232.732 193.639 397.202 207.065 439.713 238.558C489.913 275.804 473.267 342.851 486.278 391.199C540.238 594.084 786.25 419.561 980.919 385.137Z" fill="url(#paint0_radial_1078_18451)"/>
</mask>
<g mask="url(#mask1_1078_18451)">
<path d="M1458.38 -232.2L361.147 -236.727C353.787 -236.757 348.15 -232.751 348.557 -227.78L419.925 645.24C420.331 650.211 426.627 654.266 433.987 654.296L1531.22 658.823C1538.58 658.853 1544.21 654.848 1543.81 649.876L1472.44 -223.144C1472.03 -228.115 1465.74 -232.17 1458.38 -232.2Z" fill="url(#paint1_linear_1078_18451)"/>
</g>
<mask id="mask2_1078_18451" style="mask-type:alpha" maskUnits="userSpaceOnUse" x="745" y="137" width="582" height="493">
<path d="M1076.22 190.581C1012.12 151.95 958.657 114.547 838.903 155.587C777.924 176.393 732.721 231.082 748.572 266.545C764.008 301.049 809.614 325.301 837.994 352.57C874.178 387.938 874.513 435.305 884.76 480.091C919.339 627.181 1032.26 637.107 1075.04 626.239C1158.08 604.752 1111.28 528.692 1127.34 494.387C1146.36 453.846 1219.81 425.792 1263.63 395.061C1447.67 266.371 1182.16 254.311 1076.22 190.581Z" fill="url(#paint2_radial_1078_18451)"/>
</mask>
<g mask="url(#mask2_1078_18451)">
<path d="M283.221 314.889L751.173 860.355C754.867 864.661 762.417 865.545 768.036 862.33L1615.67 377.38C1621.29 374.166 1622.85 368.069 1619.16 363.763L1151.2 -181.703C1147.51 -186.009 1139.96 -186.894 1134.34 -183.679L286.707 301.271C281.087 304.486 279.527 310.583 283.221 314.889Z" fill="url(#paint3_linear_1078_18451)"/>
</g>
<mask id="mask3_1078_18451" style="mask-type:alpha" maskUnits="userSpaceOnUse" x="4" y="39" width="724" height="586">
<path d="M671.713 421.562C673.674 498.374 682.518 566.888 528.799 613.122C450.652 636.742 338.137 620.515 301.632 579.26C266.123 539.112 269.222 487.241 254.221 444.5C234.262 389.49 168.686 348.566 114.694 303.115C-61.8752 153.211 15.4756 67.8395 65.1113 48.0705C162.02 10.0157 229.982 107.209 290.633 125.756C362.344 147.646 460.641 121.76 538.721 118.355C866.19 103.676 668.634 294.716 671.713 421.562Z" fill="url(#paint4_radial_1078_18451)"/>
</mask>
<g mask="url(#mask3_1078_18451)">
<path d="M-27.9425 689.204L-349.963 20.9752C-352.245 16.2411 -348.217 11.7067 -340.967 10.8474L1022.5 -150.769C1029.75 -151.628 1037.47 -148.487 1039.75 -143.753L1361.77 524.476C1364.06 529.21 1360.03 533.744 1352.78 534.604L-10.6849 696.22C-17.9346 697.079 -25.6611 693.938 -27.9425 689.204Z" fill="url(#paint5_linear_1078_18451)"/>
</g>
<mask id="mask4_1078_18451" style="mask-type:alpha" maskUnits="userSpaceOnUse" x="271" y="307" width="799" height="343">
<path d="M399.071 525.576C321.411 495.632 248.665 471.886 277.817 389.173C292.522 347.077 363.854 306.588 422.935 307.865C480.423 309.115 530.699 331.184 580.728 342.037C645.438 355.732 718.433 344.736 790.271 340.391C1026.48 326.688 1073.81 393.183 1069.24 421.829C1059.75 477.541 929.401 466.997 881.164 484.898C824.17 506.08 801.854 557.498 766.997 591.469C621.203 734.105 527.241 575.091 399.071 525.576Z" fill="url(#paint6_radial_1078_18451)"/>
</mask>
<g mask="url(#mask4_1078_18451)">
<path d="M364.362 12.0436L1183.18 144.139C1190.34 145.294 1193.31 149.782 1189.81 154.164L685.928 785.44C682.431 789.822 673.792 792.438 666.632 791.283L-152.189 659.187C-159.349 658.032 -162.318 653.544 -158.82 649.162L345.066 17.8859C348.563 13.5043 357.203 10.8886 364.362 12.0436Z" fill="url(#paint7_linear_1078_18451)"/>
</g>
<mask id="mask5_1078_18451" style="mask-type:alpha" maskUnits="userSpaceOnUse" x="270" y="0" width="619" height="597">
<path d="M401.032 441.684C425.324 517.915 440.607 587.64 594.545 595.738C672.841 599.969 768.532 556.518 787.372 506.927C805.69 458.67 785.309 408.271 784.304 362.459C783.596 303.338 828.694 246.981 861.838 188.986C936.525 58.2905 838.918 10.3108 787.57 2.92227C687.504 -10.9675 643.014 27.3845 594.756 60.4715C537.683 99.5535 489.18 94.5245 417.801 110.213C118.299 175.62 360.777 315.835 401.032 441.684Z" fill="url(#paint8_radial_1078_18451)"/>
</mask>
<g mask="url(#mask5_1078_18451)">
<path d="M1359.27 839.216L1440.91 -110.755C1441.33 -115.726 1435.83 -118.963 1428.62 -117.984L3.98037 75.1623C-3.23463 76.1405 -9.42977 80.9629 -9.85695 85.9336L-91.498 1035.9C-91.9252 1040.88 -86.4227 1044.11 -79.2077 1043.13L1345.43 849.987C1352.64 849.009 1358.84 844.187 1359.27 839.216Z" fill="url(#paint9_linear_1078_18451)"/>
</g>
</g>
<defs>
<radialGradient id="paint0_radial_1078_18451" cx="0" cy="0" r="1" gradientUnits="userSpaceOnUse" gradientTransform="translate(954.207 300.766) rotate(28.683) scale(427.613 442.526)">
<stop stop-color="#1B1A21"/>
<stop offset="1" stop-color="#1B1A21" stop-opacity="0"/>
</radialGradient>
<linearGradient id="paint1_linear_1078_18451" x1="288.287" y1="264.819" x2="960.724" y2="1082.74" gradientUnits="userSpaceOnUse">
<stop stop-color="#FFBFFF"/>
<stop offset="1" stop-color="#AA00FF"/>
</linearGradient>
<radialGradient id="paint2_radial_1078_18451" cx="0" cy="0" r="1" gradientUnits="userSpaceOnUse" gradientTransform="translate(1001.26 245.896) rotate(-75.4564) scale(273.514 424.325)">
<stop stop-color="#1B1A21"/>
<stop offset="1" stop-color="#1B1A21" stop-opacity="0"/>
</radialGradient>
<linearGradient id="paint3_linear_1078_18451" x1="1289.97" y1="638.571" x2="1334.92" y2="-146.361" gradientUnits="userSpaceOnUse">
<stop stop-color="#8572D7"/>
<stop offset="1" stop-color="#D6EEFF"/>
</linearGradient>
<radialGradient id="paint4_radial_1078_18451" cx="0" cy="0" r="1" gradientUnits="userSpaceOnUse" gradientTransform="translate(534.303 425.053) rotate(23.1102) scale(460.441 413.259)">
<stop stop-color="#1B1A21"/>
<stop offset="1" stop-color="#1B1A21" stop-opacity="0"/>
</radialGradient>
<linearGradient id="paint5_linear_1078_18451" x1="399.338" y1="-141.739" x2="1093.06" y2="700.044" gradientUnits="userSpaceOnUse">
<stop stop-color="#856DF1" stop-opacity="0.5"/>
<stop offset="1" stop-color="#CDEAFF"/>
</linearGradient>
<radialGradient id="paint6_radial_1078_18451" cx="0" cy="0" r="1" gradientUnits="userSpaceOnUse" gradientTransform="translate(465.651 405.821) rotate(157.049) scale(424.286 335.464)">
<stop stop-color="#1B1A21"/>
<stop offset="1" stop-color="#1B1A21" stop-opacity="0"/>
</radialGradient>
<linearGradient id="paint7_linear_1078_18451" x1="980.709" y1="523.036" x2="12.7833" y2="951.798" gradientUnits="userSpaceOnUse">
<stop stop-color="#FFBFFF"/>
<stop offset="1" stop-color="#AA00FF"/>
</linearGradient>
<radialGradient id="paint8_radial_1078_18451" cx="0" cy="0" r="1" gradientUnits="userSpaceOnUse" gradientTransform="translate(538.795 295.235) rotate(77.1611) scale(405.65 591.662)">
<stop stop-color="#1B1A21"/>
<stop offset="1" stop-color="#1B1A21" stop-opacity="0"/>
</radialGradient>
<linearGradient id="paint9_linear_1078_18451" x1="631.745" y1="-95.5596" x2="-20.4114" y2="1025.31" gradientUnits="userSpaceOnUse">
<stop stop-color="#856DF1" stop-opacity="0.5"/>
<stop offset="1" stop-color="#CDEAFF"/>
</linearGradient>
</defs>
</svg>
