<svg width="954" height="343" viewBox="0 0 954 343" fill="none" xmlns="http://www.w3.org/2000/svg">
<g opacity="0.3">
<mask id="mask0_389_15496" style="mask-type:alpha" maskUnits="userSpaceOnUse" x="300" y="24" width="485" height="354">
<path opacity="0.66" d="M553.492 39.0979C493.376 16.113 463.234 18.4081 374.787 62.7483C329.469 85.4463 285.687 112.794 305.998 138.571C325.684 163.822 354.377 177.896 383.044 196.07C419.639 219.388 440.601 249.31 458.296 283.1C516.725 393.083 584.124 382.298 616.628 369.094C679.446 343.742 652.006 296.527 657.914 268.417C665.287 234.985 718.829 205.487 747.88 177.182C870.662 58.5258 652.359 77.3059 553.492 39.0979Z" fill="white"/>
</mask>
<g mask="url(#mask0_389_15496)">
<ellipse cx="1.47689" cy="1.51981" rx="1.47689" ry="1.51981" transform="matrix(-0.0468704 -0.989604 -1.0094 -0.0894499 719.891 276.761)" fill="#282364"/>
<ellipse cx="1.47689" cy="1.51978" rx="1.47689" ry="1.51978" transform="matrix(-0.0468668 -0.989603 -1.00939 -0.0894456 741.784 308.603)" fill="#282364"/>
<ellipse cx="1.47689" cy="1.5198" rx="1.47689" ry="1.5198" transform="matrix(-0.046868 -0.989603 -1.00939 -0.089447 684.173 235.994)" fill="#282364"/>
<ellipse cx="1.47689" cy="1.5198" rx="1.47689" ry="1.5198" transform="matrix(-0.0468684 -0.989603 -1.00939 -0.0894475 656.279 245.287)" fill="#282364"/>
<ellipse cx="1.47688" cy="1.51981" rx="1.47688" ry="1.51981" transform="matrix(-0.0468706 -0.989604 -1.0094 -0.0894501 672.458 243.189)" fill="#282364"/>
<ellipse cx="1.5429" cy="1.34141" rx="1.5429" ry="1.34141" transform="matrix(0.131385 0.99412 1.00017 -0.00253809 758.178 336.947)" fill="#282364"/>
<ellipse cx="1.5429" cy="1.34141" rx="1.5429" ry="1.34141" transform="matrix(0.131385 0.99412 1.00017 -0.00253809 748.14 320.462)" fill="#282364"/>
<ellipse cx="1.5429" cy="1.34138" rx="1.5429" ry="1.34138" transform="matrix(0.13138 0.99412 1.00017 -0.0025448 732.418 331.231)" fill="#282364"/>
<ellipse cx="1.5429" cy="1.3414" rx="1.5429" ry="1.3414" transform="matrix(0.131383 0.99412 1.00017 -0.00254132 735.175 314.417)" fill="#282364"/>
<ellipse cx="1.5429" cy="1.34138" rx="1.5429" ry="1.34138" transform="matrix(0.13138 0.99412 1.00017 -0.00254475 712.93 320.572)" fill="#282364"/>
<ellipse cx="1.5429" cy="1.34138" rx="1.5429" ry="1.34138" transform="matrix(0.13138 0.99412 1.00017 -0.00254485 695.275 302.508)" fill="#282364"/>
<ellipse cx="1.5429" cy="1.3414" rx="1.5429" ry="1.3414" transform="matrix(0.131383 0.99412 1.00017 -0.00254142 674.964 311.943)" fill="#282364"/>
<ellipse cx="1.5429" cy="1.3414" rx="1.5429" ry="1.3414" transform="matrix(0.131383 0.99412 1.00017 -0.00254132 654.319 313.309)" fill="#282364"/>
<g opacity="0.5">
<ellipse cx="1.47701" cy="1.51795" rx="1.47701" ry="1.51795" transform="matrix(-0.0480112 -0.989481 -1.00952 -0.0895957 778.139 300.732)" fill="#282364"/>
<ellipse cx="1.47701" cy="1.51795" rx="1.47701" ry="1.51795" transform="matrix(-0.0480114 -0.989481 -1.00952 -0.089596 769.912 280.203)" fill="#282364"/>
<ellipse cx="1.47701" cy="1.51793" rx="1.47701" ry="1.51793" transform="matrix(-0.0480094 -0.98948 -1.00952 -0.0895937 755.641 289.62)" fill="#282364"/>
<ellipse cx="1.47701" cy="1.51795" rx="1.47701" ry="1.51795" transform="matrix(-0.0480112 -0.989481 -1.00952 -0.0895957 717.882 267.089)" fill="#282364"/>
<ellipse cx="1.47701" cy="1.51795" rx="1.47701" ry="1.51795" transform="matrix(-0.0480113 -0.989481 -1.00952 -0.0895959 696.363 288.796)" fill="#282364"/>
<ellipse cx="1.54312" cy="1.33976" rx="1.54312" ry="1.33976" transform="matrix(0.132409 0.994008 1.00017 -0.00250831 746.306 318.858)" fill="#282364"/>
<ellipse cx="1.54312" cy="1.3398" rx="1.54312" ry="1.3398" transform="matrix(0.132414 0.994008 1.00017 -0.00250164 692.465 339.976)" fill="#282364"/>
<ellipse cx="1.54313" cy="1.33981" rx="1.54313" ry="1.33981" transform="matrix(0.132416 0.994008 1.00017 -0.00249826 773.727 340.129)" fill="#282364"/>
<ellipse cx="1.47701" cy="1.51796" rx="1.47701" ry="1.51796" transform="matrix(-0.0480129 -0.989481 -1.00952 -0.0895978 733.965 254.599)" fill="#282364"/>
</g>
<g opacity="0.5">
<ellipse cx="1.47713" cy="1.51651" rx="1.47713" ry="1.51651" transform="matrix(-0.048877 -0.989386 -1.00962 -0.0896986 763.91 215.088)" fill="#282364"/>
<ellipse cx="1.47712" cy="1.51653" rx="1.47712" ry="1.51653" transform="matrix(-0.0488794 -0.989386 -1.00962 -0.0897015 752.97 246.3)" fill="#282364"/>
<ellipse cx="1.47712" cy="1.51653" rx="1.47712" ry="1.51653" transform="matrix(-0.0488792 -0.989386 -1.00962 -0.0897013 765.674 259.944)" fill="#282364"/>
<ellipse cx="1.47712" cy="1.51651" rx="1.47712" ry="1.51651" transform="matrix(-0.0488774 -0.989386 -1.00962 -0.0896992 724.045 223.568)" fill="#282364"/>
<ellipse cx="1.47713" cy="1.51653" rx="1.47713" ry="1.51653" transform="matrix(-0.0488783 -0.989386 -1.00962 -0.0897002 728.245 173.525)" fill="#282364"/>
<ellipse cx="1.47712" cy="1.51654" rx="1.47712" ry="1.51654" transform="matrix(-0.0488811 -0.989386 -1.00962 -0.0897036 687.606 264.236)" fill="#282364"/>
<ellipse cx="1.47712" cy="1.51653" rx="1.47712" ry="1.51653" transform="matrix(-0.048879 -0.989386 -1.00962 -0.0897011 672.051 280.757)" fill="#282364"/>
<ellipse cx="1.54329" cy="1.33855" rx="1.54329" ry="1.33855" transform="matrix(0.133193 0.993922 1.00017 -0.00248359 713.108 327.687)" fill="#282364"/>
<ellipse cx="1.54329" cy="1.33855" rx="1.54329" ry="1.33855" transform="matrix(0.133193 0.993922 1.00017 -0.00248359 736.742 329.986)" fill="#282364"/>
<ellipse cx="1.54329" cy="1.33857" rx="1.54329" ry="1.33857" transform="matrix(0.133196 0.993922 1.00017 -0.00248026 756.453 293.109)" fill="#282364"/>
<ellipse cx="1.47712" cy="1.51654" rx="1.47712" ry="1.51654" transform="matrix(-0.0488809 -0.989386 -1.00962 -0.0897033 647.086 235.126)" fill="#282364"/>
<ellipse cx="1.47713" cy="1.51653" rx="1.47713" ry="1.51653" transform="matrix(-0.0488787 -0.989386 -1.00962 -0.0897007 773.606 257.359)" fill="#282364"/>
</g>
<g opacity="0.1">
<ellipse cx="1.47712" cy="1.51655" rx="1.47712" ry="1.51655" transform="matrix(-0.048878 -0.989387 -1.00962 -0.089703 764.71 119.146)" fill="#282364"/>
<ellipse cx="1.47712" cy="1.51653" rx="1.47712" ry="1.51653" transform="matrix(-0.0488762 -0.989386 -1.00962 -0.0897009 766.066 146.398)" fill="#282364"/>
<ellipse cx="1.47712" cy="1.51653" rx="1.47712" ry="1.51653" transform="matrix(-0.0488762 -0.989386 -1.00962 -0.0897009 742.235 84.0703)" fill="#282364"/>
<ellipse cx="1.47713" cy="1.51654" rx="1.47713" ry="1.51654" transform="matrix(-0.0488753 -0.989386 -1.00962 -0.0896998 717.324 37.6448)" fill="#282364"/>
<ellipse cx="1.47712" cy="1.51652" rx="1.47712" ry="1.51652" transform="matrix(-0.0488744 -0.989386 -1.00962 -0.0896988 706.385 68.8566)" fill="#282364"/>
<ellipse cx="1.47713" cy="1.51652" rx="1.47713" ry="1.51652" transform="matrix(-0.0488736 -0.989386 -1.00962 -0.0896978 719.089 82.4999)" fill="#282364"/>
<ellipse cx="1.47713" cy="1.51655" rx="1.47713" ry="1.51655" transform="matrix(-0.0488771 -0.989387 -1.00962 -0.0897019 677.459 46.1251)" fill="#282364"/>
<ellipse cx="1.47712" cy="1.51655" rx="1.47712" ry="1.51655" transform="matrix(-0.048878 -0.989387 -1.00962 -0.089703 641.021 86.7927)" fill="#282364"/>
<ellipse cx="1.47711" cy="1.51651" rx="1.47711" ry="1.51651" transform="matrix(-0.0488753 -0.989386 -1.00962 -0.0896998 625.466 103.313)" fill="#282364"/>
<ellipse cx="1.5433" cy="1.33853" rx="1.5433" ry="1.33853" transform="matrix(0.133187 0.993922 1.00017 -0.00248864 778.492 167.74)" fill="#282364"/>
<ellipse cx="1.47712" cy="1.51652" rx="1.47712" ry="1.51652" transform="matrix(-0.0488744 -0.989386 -1.00962 -0.0896988 753.139 195.052)" fill="#282364"/>
<ellipse cx="1.54329" cy="1.33857" rx="1.54329" ry="1.33857" transform="matrix(0.133193 0.993922 1.00017 -0.00248114 666.523 150.243)" fill="#282364"/>
<ellipse cx="1.54329" cy="1.33855" rx="1.54329" ry="1.33855" transform="matrix(0.13319 0.993922 1.00017 -0.00248447 690.157 152.542)" fill="#282364"/>
<ellipse cx="1.54329" cy="1.33855" rx="1.54329" ry="1.33855" transform="matrix(0.133191 0.993922 1.00017 -0.00248364 709.868 115.666)" fill="#282364"/>
<ellipse cx="1.47713" cy="1.51652" rx="1.47713" ry="1.51652" transform="matrix(-0.048874 -0.989386 -1.00962 -0.0896983 776.838 176.687)" fill="#282364"/>
<ellipse cx="1.47712" cy="1.51653" rx="1.47712" ry="1.51653" transform="matrix(-0.0488762 -0.989386 -1.00962 -0.0897009 600.501 57.6835)" fill="#282364"/>
<ellipse cx="1.47712" cy="1.51653" rx="1.47712" ry="1.51653" transform="matrix(-0.0488762 -0.989386 -1.00962 -0.0897009 776.296 133.585)" fill="#282364"/>
<ellipse cx="1.47711" cy="1.51651" rx="1.47711" ry="1.51651" transform="matrix(-0.0488753 -0.989386 -1.00962 -0.0896998 767.541 109.026)" fill="#282364"/>
<ellipse cx="1.47712" cy="1.51653" rx="1.47712" ry="1.51653" transform="matrix(-0.0488762 -0.989386 -1.00962 -0.0897009 751.986 125.546)" fill="#282364"/>
<ellipse cx="1.47713" cy="1.51654" rx="1.47713" ry="1.51654" transform="matrix(-0.0488753 -0.989386 -1.00962 -0.0896998 727.021 79.9159)" fill="#282364"/>
</g>
<ellipse cx="1.29483" cy="2.75073" rx="1.29483" ry="2.75073" transform="matrix(-0.803387 0.275962 0.332186 0.57731 408.124 112.417)" fill="#282364"/>
<ellipse cx="1.29483" cy="2.75066" rx="1.29483" ry="2.75066" transform="matrix(-0.803395 0.275959 0.332189 0.57731 427.584 79.0486)" fill="#282364"/>
<ellipse cx="1.29484" cy="2.7507" rx="1.29484" ry="2.7507" transform="matrix(-0.803392 0.27596 0.332188 0.57731 386.517 162.05)" fill="#282364"/>
<ellipse cx="1.29483" cy="2.75069" rx="1.29483" ry="2.75069" transform="matrix(-0.803391 0.27596 0.332187 0.57731 406.947 183.112)" fill="#282364"/>
<ellipse cx="1.29483" cy="2.75073" rx="1.29483" ry="2.75073" transform="matrix(-0.803387 0.275962 0.332186 0.57731 398.083 169.478)" fill="#282364"/>
<ellipse cx="1.47384" cy="2.61432" rx="1.47384" ry="2.61432" transform="matrix(0.67124 -0.334541 -0.396031 -0.582372 499.731 25.5056)" fill="#282364"/>
<ellipse cx="1.47385" cy="2.61436" rx="1.47385" ry="2.61436" transform="matrix(0.671235 -0.334543 -0.396029 -0.582372 476.861 31.7379)" fill="#282364"/>
<ellipse cx="1.47386" cy="2.61442" rx="1.47386" ry="2.61442" transform="matrix(0.671226 -0.334547 -0.396026 -0.582372 456.869 40.0851)" fill="#282364"/>
<ellipse cx="1.47385" cy="2.61439" rx="1.47385" ry="2.61439" transform="matrix(0.67123 -0.334545 -0.396028 -0.582372 447.64 51.9108)" fill="#282364"/>
<ellipse cx="1.47385" cy="2.61439" rx="1.47385" ry="2.61439" transform="matrix(0.67123 -0.334545 -0.396028 -0.582372 437.008 68.0227)" fill="#282364"/>
<ellipse cx="1.47384" cy="2.61432" rx="1.47384" ry="2.61432" transform="matrix(0.67124 -0.334541 -0.396031 -0.582372 453.54 77.5144)" fill="#282364"/>
<ellipse cx="1.47385" cy="2.61436" rx="1.47385" ry="2.61436" transform="matrix(0.671235 -0.334543 -0.396029 -0.582372 437.104 82.2711)" fill="#282364"/>
<ellipse cx="1.47384" cy="2.61432" rx="1.47384" ry="2.61432" transform="matrix(0.67124 -0.334541 -0.396031 -0.582372 452.256 99.6093)" fill="#282364"/>
<ellipse cx="1.47384" cy="2.61432" rx="1.47384" ry="2.61432" transform="matrix(0.67124 -0.334541 -0.396031 -0.582372 443.47 123.243)" fill="#282364"/>
<ellipse cx="1.47385" cy="2.61436" rx="1.47385" ry="2.61436" transform="matrix(0.671235 -0.334543 -0.396029 -0.582372 460.767 137.431)" fill="#282364"/>
<ellipse cx="1.47385" cy="2.61436" rx="1.47385" ry="2.61436" transform="matrix(0.671235 -0.334543 -0.396029 -0.582372 470.888 155.393)" fill="#282364"/>
<g opacity="0.5">
<ellipse cx="1.29434" cy="2.7538" rx="1.29434" ry="2.7538" transform="matrix(-0.803166 0.275759 0.332063 0.57681 404.801 49.7715)" fill="#282364"/>
<ellipse cx="1.29434" cy="2.7538" rx="1.29434" ry="2.7538" transform="matrix(-0.803166 0.275759 0.332063 0.57681 421.092 27.9296)" fill="#282364"/>
<ellipse cx="1.29434" cy="2.7538" rx="1.29434" ry="2.7538" transform="matrix(-0.803165 0.275759 0.332063 0.57681 389.721 65.9966)" fill="#282364"/>
<ellipse cx="1.29434" cy="2.75377" rx="1.29434" ry="2.75377" transform="matrix(-0.80317 0.275757 0.332064 0.57681 404.403 74.7656)" fill="#282364"/>
<ellipse cx="1.29434" cy="2.7538" rx="1.29434" ry="2.7538" transform="matrix(-0.803166 0.275759 0.332063 0.57681 400.213 118.384)" fill="#282364"/>
<ellipse cx="1.29434" cy="2.7538" rx="1.29434" ry="2.7538" transform="matrix(-0.803166 0.275759 0.332063 0.57681 429.161 128.377)" fill="#282364"/>
<ellipse cx="1.47373" cy="2.61712" rx="1.47373" ry="2.61712" transform="matrix(0.670832 -0.334309 -0.395867 -0.581895 436.343 70.3602)" fill="#282364"/>
<ellipse cx="1.47374" cy="2.61719" rx="1.47374" ry="2.61719" transform="matrix(0.670822 -0.334313 -0.395863 -0.581895 478.662 109.646)" fill="#282364"/>
<ellipse cx="1.47374" cy="2.61722" rx="1.47374" ry="2.61722" transform="matrix(0.670817 -0.334315 -0.395861 -0.581895 443.836 36.5718)" fill="#282364"/>
<ellipse cx="1.29434" cy="2.75384" rx="1.29434" ry="2.75384" transform="matrix(-0.803162 0.275761 0.332061 0.57681 381.964 109.309)" fill="#282364"/>
</g>
<g opacity="0.5">
<ellipse cx="1.29501" cy="2.74936" rx="1.29501" ry="2.74936" transform="matrix(-0.803593 0.276007 0.332201 0.57755 386.78 21.7653)" fill="#282364"/>
<ellipse cx="1.29501" cy="2.74939" rx="1.29501" ry="2.74939" transform="matrix(-0.803589 0.276009 0.332199 0.57755 364.636 57.0491)" fill="#282364"/>
<ellipse cx="1.29502" cy="2.74936" rx="1.29502" ry="2.74936" transform="matrix(-0.803594 0.276006 0.332201 0.57755 333.247 99.4049)" fill="#282364"/>
<ellipse cx="1.29501" cy="2.74939" rx="1.29501" ry="2.74939" transform="matrix(-0.803589 0.276009 0.332199 0.57755 366.264 95.8042)" fill="#282364"/>
<ellipse cx="1.29501" cy="2.7494" rx="1.29501" ry="2.7494" transform="matrix(-0.80359 0.276008 0.332199 0.57755 373.172 78.5194)" fill="#282364"/>
<ellipse cx="1.29501" cy="2.74936" rx="1.29501" ry="2.74936" transform="matrix(-0.803593 0.276007 0.332201 0.57755 358.092 131.572)" fill="#282364"/>
<ellipse cx="1.29502" cy="2.7494" rx="1.29502" ry="2.7494" transform="matrix(-0.803591 0.276008 0.3322 0.57755 310.896 149.332)" fill="#282364"/>
<ellipse cx="1.29501" cy="2.74943" rx="1.29501" ry="2.74943" transform="matrix(-0.803585 0.27601 0.332198 0.57755 410.656 146.811)" fill="#282364"/>
<ellipse cx="1.29501" cy="2.7494" rx="1.29501" ry="2.7494" transform="matrix(-0.80359 0.276008 0.332199 0.57755 432.332 153.678)" fill="#282364"/>
<ellipse cx="1.47384" cy="2.61314" rx="1.47384" ry="2.61314" transform="matrix(0.671515 -0.334616 -0.396058 -0.582603 458.631 96.3865)" fill="#282364"/>
<ellipse cx="1.47384" cy="2.61314" rx="1.47384" ry="2.61314" transform="matrix(0.671515 -0.334616 -0.396058 -0.582603 450.549 74.163)" fill="#282364"/>
<ellipse cx="1.47384" cy="2.61317" rx="1.47384" ry="2.61317" transform="matrix(0.67151 -0.334618 -0.396056 -0.582603 408.621 72.3206)" fill="#282364"/>
<ellipse cx="1.29501" cy="2.74943" rx="1.29501" ry="2.74943" transform="matrix(-0.803586 0.27601 0.332198 0.57755 401.688 195.741)" fill="#282364"/>
<ellipse cx="1.29501" cy="2.74936" rx="1.29501" ry="2.74936" transform="matrix(-0.803593 0.276007 0.332201 0.57755 376.383 23.5763)" fill="#282364"/>
<ellipse cx="1.29501" cy="2.74936" rx="1.29501" ry="2.74936" transform="matrix(-0.803593 0.276007 0.332201 0.57755 398.06 30.4424)" fill="#282364"/>
<ellipse cx="1.29502" cy="2.7494" rx="1.29502" ry="2.7494" transform="matrix(-0.80359 0.276008 0.3322 0.57755 367.415 72.505)" fill="#282364"/>
</g>
<g opacity="0.1">
<ellipse cx="1.47384" cy="2.61321" rx="1.47384" ry="2.61321" transform="matrix(0.671504 -0.334615 -0.396053 -0.582596 359.559 56.3776)" fill="#282364"/>
<ellipse cx="1.47383" cy="2.61315" rx="1.47383" ry="2.61315" transform="matrix(0.671514 -0.334611 -0.396057 -0.582596 332.941 37.7021)" fill="#282364"/>
<ellipse cx="1.295" cy="2.7494" rx="1.295" ry="2.7494" transform="matrix(-0.80359 0.276004 0.332199 0.577543 307.087 77.2886)" fill="#282364"/>
<ellipse cx="1.295" cy="2.7494" rx="1.295" ry="2.7494" transform="matrix(-0.80359 0.276004 0.332199 0.577543 319.709 117.703)" fill="#282364"/>
<ellipse cx="1.47385" cy="2.61321" rx="1.47385" ry="2.61321" transform="matrix(0.671506 -0.334614 -0.396054 -0.582596 317.737 214.589)" fill="#282364"/>
<ellipse cx="1.47384" cy="2.61318" rx="1.47384" ry="2.61318" transform="matrix(0.67151 -0.334612 -0.396056 -0.582596 309.654 192.367)" fill="#282364"/>
</g>
<ellipse cx="1.61197" cy="2.46378" rx="1.61197" ry="2.46378" transform="matrix(0.570714 -0.37221 0.467684 0.593361 481.452 301.424)" fill="#EB2564"/>
<ellipse cx="1.61197" cy="2.46378" rx="1.61197" ry="2.46378" transform="matrix(0.57071 -0.372211 0.467683 0.593361 442.953 296.978)" fill="#EB2564"/>
<ellipse cx="1.61197" cy="2.46377" rx="1.61197" ry="2.46377" transform="matrix(0.570706 -0.372213 0.467681 0.593361 534.33 313.891)" fill="#EB2564"/>
<ellipse cx="1.61197" cy="2.46379" rx="1.61197" ry="2.46379" transform="matrix(0.570722 -0.372207 0.467688 0.593361 539.078 342.793)" fill="#EB2564"/>
<ellipse cx="1.61197" cy="2.46378" rx="1.61197" ry="2.46378" transform="matrix(0.570714 -0.37221 0.467684 0.593361 533.399 327.563)" fill="#EB2564"/>
<ellipse cx="1.44066" cy="2.60892" rx="1.44066" ry="2.60892" transform="matrix(-0.683094 0.32697 -0.395957 -0.588751 357.569 322.107)" fill="#EB2564"/>
<ellipse cx="1.44066" cy="2.60892" rx="1.44066" ry="2.60892" transform="matrix(-0.683094 0.32697 -0.395957 -0.588751 376.256 307.594)" fill="#EB2564"/>
<ellipse cx="1.44066" cy="2.60891" rx="1.44066" ry="2.60891" transform="matrix(-0.683089 0.326972 -0.395956 -0.588751 394.928 296.641)" fill="#EB2564"/>
<ellipse cx="1.4406" cy="2.60888" rx="1.4406" ry="2.60888" transform="matrix(-0.683138 0.326951 -0.395972 -0.588752 409.966 296.357)" fill="#EB2564"/>
<ellipse cx="1.44066" cy="2.60891" rx="1.44066" ry="2.60891" transform="matrix(-0.683089 0.326972 -0.395956 -0.588751 429.294 297.518)" fill="#EB2564"/>
<ellipse cx="1.44066" cy="2.60892" rx="1.44066" ry="2.60892" transform="matrix(-0.683098 0.326968 -0.395959 -0.588751 427.054 316.386)" fill="#EB2564"/>
<ellipse cx="1.44066" cy="2.60891" rx="1.44066" ry="2.60891" transform="matrix(-0.683085 0.326973 -0.395954 -0.588751 440.709 306.122)" fill="#EB2564"/>
<ellipse cx="1.44066" cy="2.60891" rx="1.44066" ry="2.60891" transform="matrix(-0.683089 0.326971 -0.395956 -0.588751 445.613 328.584)" fill="#EB2564"/>
<ellipse cx="1.44066" cy="2.60891" rx="1.44066" ry="2.60891" transform="matrix(-0.68308 0.326975 -0.395952 -0.588751 469.894 335.719)" fill="#EB2564"/>
<g opacity="0.5">
<ellipse cx="1.61212" cy="2.46621" rx="1.61212" ry="2.46621" transform="matrix(0.570278 -0.371938 0.467478 0.592929 432.994 261.283)" fill="#EB2564"/>
<ellipse cx="1.61213" cy="2.46622" rx="1.61213" ry="2.46622" transform="matrix(0.570281 -0.371937 0.467479 0.592929 405.669 261.207)" fill="#EB2564"/>
<ellipse cx="1.61212" cy="2.46621" rx="1.61212" ry="2.46621" transform="matrix(0.570275 -0.37194 0.467476 0.592929 455.071 258.963)" fill="#EB2564"/>
<ellipse cx="1.61213" cy="2.46621" rx="1.61213" ry="2.46621" transform="matrix(0.570273 -0.37194 0.467475 0.592929 453.356 275.924)" fill="#EB2564"/>
<ellipse cx="1.61213" cy="2.46621" rx="1.61213" ry="2.46621" transform="matrix(0.570273 -0.37194 0.467475 0.592929 490.982 298.685)" fill="#EB2564"/>
<ellipse cx="1.61213" cy="2.46622" rx="1.61213" ry="2.46622" transform="matrix(0.570281 -0.371937 0.467479 0.592929 481.726 327.758)" fill="#EB2564"/>
<ellipse cx="1.44048" cy="2.61162" rx="1.44048" ry="2.61162" transform="matrix(-0.68275 0.326735 -0.395784 -0.588288 301.669 252.919)" fill="#EB2564"/>
<ellipse cx="1.44048" cy="2.61162" rx="1.44048" ry="2.61162" transform="matrix(-0.68275 0.326735 -0.395784 -0.588288 301.573 272.508)" fill="#EB2564"/>
<ellipse cx="1.44048" cy="2.61162" rx="1.44048" ry="2.61162" transform="matrix(-0.68275 0.326735 -0.395784 -0.588288 320.226 265.118)" fill="#EB2564"/>
<ellipse cx="1.44048" cy="2.61163" rx="1.44048" ry="2.61163" transform="matrix(-0.682753 0.326733 -0.395785 -0.588288 328.191 246.991)" fill="#EB2564"/>
<ellipse cx="1.44048" cy="2.61162" rx="1.44048" ry="2.61162" transform="matrix(-0.68275 0.326735 -0.395784 -0.588288 352.525 249.244)" fill="#EB2564"/>
<ellipse cx="1.44048" cy="2.61162" rx="1.44048" ry="2.61162" transform="matrix(-0.682749 0.326735 -0.395783 -0.588288 360.716 258.543)" fill="#EB2564"/>
<ellipse cx="1.44042" cy="2.6116" rx="1.44042" ry="2.6116" transform="matrix(-0.6828 0.326713 -0.395801 -0.58829 382.799 264.113)" fill="#EB2564"/>
<ellipse cx="1.44048" cy="2.61163" rx="1.44048" ry="2.61163" transform="matrix(-0.682742 0.326738 -0.395781 -0.588288 431.573 298.386)" fill="#EB2564"/>
<ellipse cx="1.44049" cy="2.61163" rx="1.44049" ry="2.61163" transform="matrix(-0.682736 0.326741 -0.395779 -0.588288 399.887 284.141)" fill="#EB2564"/>
<ellipse cx="1.61213" cy="2.46621" rx="1.61213" ry="2.46621" transform="matrix(0.570277 -0.371939 0.467477 0.592929 390.19 252.928)" fill="#EB2564"/>
<ellipse cx="1.61213" cy="2.4662" rx="1.61213" ry="2.4662" transform="matrix(0.570266 -0.371943 0.467472 0.592928 494.582 278.697)" fill="#EB2564"/>
</g>
<g opacity="0.5">
<ellipse cx="1.61169" cy="2.4616" rx="1.61169" ry="2.4616" transform="matrix(0.57135 -0.372404 0.467743 0.593802 421.217 230.147)" fill="#EB2564"/>
<ellipse cx="1.61169" cy="2.46161" rx="1.61169" ry="2.46161" transform="matrix(0.571358 -0.372401 0.467746 0.593802 396.367 241.652)" fill="#EB2564"/>
<ellipse cx="1.61168" cy="2.4616" rx="1.61168" ry="2.4616" transform="matrix(0.571355 -0.372402 0.467745 0.593802 376.401 203.375)" fill="#EB2564"/>
<ellipse cx="1.61163" cy="2.46157" rx="1.61163" ry="2.46157" transform="matrix(0.571408 -0.372382 0.467769 0.593804 423.328 189.551)" fill="#EB2564"/>
<ellipse cx="1.61168" cy="2.46161" rx="1.61168" ry="2.46161" transform="matrix(0.571368 -0.372397 0.467751 0.593803 462.862 233.599)" fill="#EB2564"/>
<ellipse cx="1.61169" cy="2.46161" rx="1.61169" ry="2.46161" transform="matrix(0.57136 -0.3724 0.467747 0.593802 515.729 233.908)" fill="#EB2564"/>
<ellipse cx="1.61169" cy="2.46161" rx="1.61169" ry="2.46161" transform="matrix(0.571353 -0.372403 0.467744 0.593802 493.095 258.09)" fill="#EB2564"/>
<ellipse cx="1.61169" cy="2.4616" rx="1.61169" ry="2.4616" transform="matrix(0.571354 -0.372402 0.467745 0.593802 475.048 253.257)" fill="#EB2564"/>
<ellipse cx="1.61169" cy="2.4616" rx="1.61169" ry="2.4616" transform="matrix(0.571354 -0.372402 0.467745 0.593802 526.78 272.978)" fill="#EB2564"/>
<ellipse cx="1.61168" cy="2.4616" rx="1.61168" ry="2.4616" transform="matrix(0.571355 -0.372402 0.467745 0.593802 569.288 245.957)" fill="#EB2564"/>
<ellipse cx="1.61162" cy="2.46157" rx="1.61162" ry="2.46157" transform="matrix(0.571409 -0.372381 0.467769 0.593804 507.633 324.027)" fill="#EB2564"/>
<ellipse cx="1.44065" cy="2.60644" rx="1.44065" ry="2.60644" transform="matrix(-0.683715 0.32708 -0.396014 -0.589222 344.129 208.954)" fill="#EB2564"/>
<ellipse cx="1.4407" cy="2.60647" rx="1.4407" ry="2.60647" transform="matrix(-0.68367 0.3271 -0.395999 -0.589221 370.825 241.139)" fill="#EB2564"/>
<ellipse cx="1.61168" cy="2.46161" rx="1.61168" ry="2.46161" transform="matrix(0.571367 -0.372398 0.46775 0.593803 333.538 241.333)" fill="#EB2564"/>
<ellipse cx="1.61168" cy="2.4616" rx="1.61168" ry="2.4616" transform="matrix(0.571359 -0.3724 0.467747 0.593802 358.535 275.587)" fill="#EB2564"/>
<ellipse cx="1.44072" cy="2.60648" rx="1.44072" ry="2.60648" transform="matrix(-0.683659 0.327105 -0.395995 -0.589221 439.205 331.741)" fill="#EB2564"/>
<ellipse cx="1.44072" cy="2.60648" rx="1.44072" ry="2.60648" transform="matrix(-0.683659 0.327104 -0.395995 -0.589221 426.143 311.994)" fill="#EB2564"/>
<ellipse cx="1.44072" cy="2.60648" rx="1.44072" ry="2.60648" transform="matrix(-0.683659 0.327105 -0.395995 -0.589221 449.719 277.446)" fill="#EB2564"/>
<ellipse cx="1.61168" cy="2.4616" rx="1.61168" ry="2.4616" transform="matrix(0.57136 -0.3724 0.467747 0.593802 363.804 246.154)" fill="#EB2564"/>
<ellipse cx="1.61168" cy="2.4616" rx="1.61168" ry="2.4616" transform="matrix(0.571364 -0.372399 0.467749 0.593803 343.039 170.308)" fill="#EB2564"/>
<ellipse cx="1.61168" cy="2.4616" rx="1.61168" ry="2.4616" transform="matrix(0.571356 -0.372402 0.467746 0.593802 304.538 165.862)" fill="#EB2564"/>
<ellipse cx="1.61168" cy="2.4616" rx="1.61168" ry="2.4616" transform="matrix(0.57136 -0.3724 0.467747 0.593802 396.543 182.899)" fill="#EB2564"/>
<ellipse cx="1.61169" cy="2.46161" rx="1.61169" ry="2.46161" transform="matrix(0.571358 -0.372401 0.467747 0.593802 401.292 211.801)" fill="#EB2564"/>
<ellipse cx="1.61169" cy="2.46161" rx="1.61169" ry="2.46161" transform="matrix(0.571352 -0.372403 0.467744 0.593802 395.613 196.57)" fill="#EB2564"/>
<ellipse cx="1.61168" cy="2.4616" rx="1.61168" ry="2.4616" transform="matrix(0.57136 -0.3724 0.467747 0.593802 353.623 160.07)" fill="#EB2564"/>
<ellipse cx="1.61168" cy="2.46159" rx="1.61168" ry="2.46159" transform="matrix(0.571358 -0.372401 0.467747 0.593802 326.299 159.995)" fill="#EB2564"/>
<ellipse cx="1.61169" cy="2.46161" rx="1.61169" ry="2.46161" transform="matrix(0.571352 -0.372403 0.467744 0.593802 375.701 157.752)" fill="#EB2564"/>
<ellipse cx="1.61168" cy="2.46161" rx="1.61168" ry="2.46161" transform="matrix(0.571362 -0.372399 0.467748 0.593803 373.986 174.711)" fill="#EB2564"/>
<ellipse cx="1.61169" cy="2.46161" rx="1.61169" ry="2.46161" transform="matrix(0.571358 -0.372401 0.467747 0.593802 412.24 197.597)" fill="#EB2564"/>
<ellipse cx="1.61169" cy="2.46161" rx="1.61169" ry="2.46161" transform="matrix(0.571357 -0.372401 0.467746 0.593802 402.984 226.668)" fill="#EB2564"/>
<ellipse cx="1.61168" cy="2.4616" rx="1.61168" ry="2.4616" transform="matrix(0.571354 -0.372402 0.467745 0.593802 310.819 151.715)" fill="#EB2564"/>
<ellipse cx="1.61169" cy="2.4616" rx="1.61169" ry="2.4616" transform="matrix(0.571349 -0.372404 0.467742 0.593802 415.84 177.608)" fill="#EB2564"/>
<ellipse cx="1.61168" cy="2.4616" rx="1.61168" ry="2.4616" transform="matrix(0.571356 -0.372402 0.467746 0.593802 341.845 128.933)" fill="#EB2564"/>
<ellipse cx="1.61168" cy="2.4616" rx="1.61168" ry="2.4616" transform="matrix(0.57136 -0.3724 0.467747 0.593802 316.997 140.438)" fill="#EB2564"/>
<ellipse cx="1.61169" cy="2.46161" rx="1.61169" ry="2.46161" transform="matrix(0.571356 -0.372402 0.467746 0.593802 297.031 102.161)" fill="#EB2564"/>
<ellipse cx="1.61168" cy="2.46159" rx="1.61168" ry="2.46159" transform="matrix(0.571358 -0.372401 0.467747 0.593802 343.958 88.337)" fill="#EB2564"/>
<ellipse cx="1.61169" cy="2.46161" rx="1.61169" ry="2.46161" transform="matrix(0.571358 -0.372401 0.467746 0.593802 383.491 132.385)" fill="#EB2564"/>
<ellipse cx="1.61169" cy="2.46161" rx="1.61169" ry="2.46161" transform="matrix(0.571358 -0.372401 0.467747 0.593802 436.986 132.818)" fill="#EB2564"/>
<ellipse cx="1.61169" cy="2.4616" rx="1.61169" ry="2.4616" transform="matrix(0.571349 -0.372404 0.467742 0.593802 414.351 157)" fill="#EB2564"/>
<ellipse cx="1.61168" cy="2.4616" rx="1.61168" ry="2.4616" transform="matrix(0.571356 -0.372402 0.467746 0.593802 396.305 152.166)" fill="#EB2564"/>
<ellipse cx="1.61168" cy="2.4616" rx="1.61168" ry="2.4616" transform="matrix(0.57136 -0.3724 0.467747 0.593802 448.036 171.887)" fill="#EB2564"/>
<ellipse cx="1.61168" cy="2.46161" rx="1.61168" ry="2.46161" transform="matrix(0.571362 -0.372399 0.467748 0.593803 490.545 144.867)" fill="#EB2564"/>
<ellipse cx="1.61169" cy="2.46161" rx="1.61169" ry="2.46161" transform="matrix(0.571358 -0.372401 0.467747 0.593802 428.889 222.937)" fill="#EB2564"/>
<ellipse cx="1.61169" cy="2.46161" rx="1.61169" ry="2.46161" transform="matrix(0.571358 -0.372401 0.467747 0.593802 421.462 244.337)" fill="#EB2564"/>
<ellipse cx="1.61168" cy="2.4616" rx="1.61168" ry="2.4616" transform="matrix(0.571347 -0.372405 0.467741 0.593802 473.647 245.065)" fill="#EB2564"/>
<ellipse cx="1.44071" cy="2.60647" rx="1.44071" ry="2.60647" transform="matrix(-0.683668 0.327101 -0.395998 -0.589221 307.661 198.45)" fill="#EB2564"/>
</g>
<g opacity="0.1">
<ellipse cx="1.61168" cy="2.46158" rx="1.61168" ry="2.46158" transform="matrix(0.571368 -0.372401 0.46775 0.593806 600.607 188.495)" fill="#EB2564"/>
<ellipse cx="1.61168" cy="2.46158" rx="1.61168" ry="2.46158" transform="matrix(0.571351 -0.372407 0.467743 0.593806 575.758 200)" fill="#EB2564"/>
<ellipse cx="1.61168" cy="2.46159" rx="1.61168" ry="2.46159" transform="matrix(0.571366 -0.372401 0.467749 0.593806 555.791 161.723)" fill="#EB2564"/>
<ellipse cx="1.61168" cy="2.46158" rx="1.61168" ry="2.46158" transform="matrix(0.571368 -0.372401 0.46775 0.593806 602.719 147.899)" fill="#EB2564"/>
<ellipse cx="1.61168" cy="2.46158" rx="1.61168" ry="2.46158" transform="matrix(0.571359 -0.372404 0.467746 0.593806 642.251 191.947)" fill="#EB2564"/>
<ellipse cx="1.61168" cy="2.46158" rx="1.61168" ry="2.46158" transform="matrix(0.571368 -0.372401 0.46775 0.593806 695.119 192.256)" fill="#EB2564"/>
<ellipse cx="1.61168" cy="2.46158" rx="1.61168" ry="2.46158" transform="matrix(0.571351 -0.372407 0.467743 0.593806 672.485 216.438)" fill="#EB2564"/>
<ellipse cx="1.61168" cy="2.46158" rx="1.61168" ry="2.46158" transform="matrix(0.571361 -0.372404 0.467747 0.593806 654.438 211.604)" fill="#EB2564"/>
<ellipse cx="1.61168" cy="2.46158" rx="1.61168" ry="2.46158" transform="matrix(0.571368 -0.372401 0.46775 0.593806 706.17 231.325)" fill="#EB2564"/>
<ellipse cx="1.61167" cy="2.46157" rx="1.61167" ry="2.46157" transform="matrix(0.571363 -0.372403 0.467748 0.593806 748.678 204.306)" fill="#EB2564"/>
<ellipse cx="1.61168" cy="2.46159" rx="1.61168" ry="2.46159" transform="matrix(0.571367 -0.372401 0.46775 0.593806 687.022 282.375)" fill="#EB2564"/>
<ellipse cx="1.61168" cy="2.46158" rx="1.61168" ry="2.46158" transform="matrix(0.57136 -0.372404 0.467746 0.593806 679.595 303.776)" fill="#EB2564"/>
<ellipse cx="1.44071" cy="2.60645" rx="1.44071" ry="2.60645" transform="matrix(-0.683667 0.327104 -0.395997 -0.589225 466.208 228.769)" fill="#EB2564"/>
<ellipse cx="1.44071" cy="2.60645" rx="1.44071" ry="2.60645" transform="matrix(-0.683667 0.327104 -0.395997 -0.589225 467.08 196.36)" fill="#EB2564"/>
<ellipse cx="1.4407" cy="2.60644" rx="1.4407" ry="2.60644" transform="matrix(-0.68368 0.327099 -0.396002 -0.589225 524.146 167.425)" fill="#EB2564"/>
<ellipse cx="1.44071" cy="2.60645" rx="1.44071" ry="2.60645" transform="matrix(-0.683678 0.327099 -0.396001 -0.589225 550.842 199.609)" fill="#EB2564"/>
<ellipse cx="1.61168" cy="2.46158" rx="1.61168" ry="2.46158" transform="matrix(0.571359 -0.372404 0.467746 0.593806 513.555 199.805)" fill="#EB2564"/>
<ellipse cx="1.61168" cy="2.46159" rx="1.61168" ry="2.46159" transform="matrix(0.571366 -0.372401 0.467749 0.593806 538.553 234.059)" fill="#EB2564"/>
<ellipse cx="1.44071" cy="2.60645" rx="1.44071" ry="2.60645" transform="matrix(-0.683677 0.3271 -0.396001 -0.589225 618.596 290.089)" fill="#EB2564"/>
<ellipse cx="1.44071" cy="2.60645" rx="1.44071" ry="2.60645" transform="matrix(-0.683677 0.3271 -0.396001 -0.589225 605.533 270.341)" fill="#EB2564"/>
<ellipse cx="1.44071" cy="2.60646" rx="1.44071" ry="2.60646" transform="matrix(-0.683684 0.327097 -0.396003 -0.589225 629.109 235.792)" fill="#EB2564"/>
<ellipse cx="1.61168" cy="2.46158" rx="1.61168" ry="2.46158" transform="matrix(0.571368 -0.372401 0.46775 0.593806 543.822 204.625)" fill="#EB2564"/>
<ellipse cx="1.61168" cy="2.46158" rx="1.61168" ry="2.46158" transform="matrix(0.571359 -0.372404 0.467746 0.593806 731.78 304.503)" fill="#EB2564"/>
<ellipse cx="1.61168" cy="2.46158" rx="1.61168" ry="2.46158" transform="matrix(0.571361 -0.372404 0.467747 0.593806 523.056 128.78)" fill="#EB2564"/>
<ellipse cx="1.61168" cy="2.46159" rx="1.61168" ry="2.46159" transform="matrix(0.571366 -0.372401 0.467749 0.593806 484.556 124.333)" fill="#EB2564"/>
<ellipse cx="1.61168" cy="2.46159" rx="1.61168" ry="2.46159" transform="matrix(0.571366 -0.372401 0.467749 0.593806 575.933 141.247)" fill="#EB2564"/>
<ellipse cx="1.61168" cy="2.46158" rx="1.61168" ry="2.46158" transform="matrix(0.571368 -0.372401 0.46775 0.593806 580.682 170.149)" fill="#EB2564"/>
<ellipse cx="1.61169" cy="2.46158" rx="1.61169" ry="2.46158" transform="matrix(0.571349 -0.372408 0.467742 0.593806 575.002 154.918)" fill="#EB2564"/>
<ellipse cx="1.61167" cy="2.46158" rx="1.61167" ry="2.46158" transform="matrix(0.57137 -0.3724 0.467751 0.593806 533.64 118.541)" fill="#EB2564"/>
<ellipse cx="1.61169" cy="2.46159" rx="1.61169" ry="2.46159" transform="matrix(0.571357 -0.372405 0.467745 0.593806 506.316 118.466)" fill="#EB2564"/>
<ellipse cx="1.61169" cy="2.46159" rx="1.61169" ry="2.46159" transform="matrix(0.571355 -0.372406 0.467744 0.593806 555.718 116.223)" fill="#EB2564"/>
<ellipse cx="1.61168" cy="2.46159" rx="1.61168" ry="2.46159" transform="matrix(0.571376 -0.372398 0.467754 0.593806 554.004 133.183)" fill="#EB2564"/>
<ellipse cx="1.61168" cy="2.46158" rx="1.61168" ry="2.46158" transform="matrix(0.571361 -0.372404 0.467747 0.593806 591.63 155.945)" fill="#EB2564"/>
<ellipse cx="1.61169" cy="2.46159" rx="1.61169" ry="2.46159" transform="matrix(0.571357 -0.372405 0.467745 0.593806 582.373 185.017)" fill="#EB2564"/>
<ellipse cx="1.61168" cy="2.46158" rx="1.61168" ry="2.46158" transform="matrix(0.571359 -0.372404 0.467746 0.593806 490.835 110.187)" fill="#EB2564"/>
<ellipse cx="1.61167" cy="2.46157" rx="1.61167" ry="2.46157" transform="matrix(0.571363 -0.372403 0.467748 0.593806 595.229 135.957)" fill="#EB2564"/>
<ellipse cx="1.61168" cy="2.46158" rx="1.61168" ry="2.46158" transform="matrix(0.571359 -0.372404 0.467746 0.593806 521.862 87.4043)" fill="#EB2564"/>
<ellipse cx="1.61168" cy="2.46158" rx="1.61168" ry="2.46158" transform="matrix(0.571359 -0.372404 0.467746 0.593806 497.014 98.9093)" fill="#EB2564"/>
<ellipse cx="1.61167" cy="2.46157" rx="1.61167" ry="2.46157" transform="matrix(0.571363 -0.372403 0.467748 0.593806 477.048 60.6322)" fill="#EB2564"/>
<ellipse cx="1.61168" cy="2.46159" rx="1.61168" ry="2.46159" transform="matrix(0.571366 -0.372401 0.467749 0.593806 523.975 46.8085)" fill="#EB2564"/>
<ellipse cx="1.61168" cy="2.46159" rx="1.61168" ry="2.46159" transform="matrix(0.571366 -0.372401 0.467749 0.593806 563.509 90.8566)" fill="#EB2564"/>
<ellipse cx="1.61168" cy="2.4616" rx="1.61168" ry="2.4616" transform="matrix(0.571374 -0.372398 0.467753 0.593806 616.376 91.1663)" fill="#EB2564"/>
<ellipse cx="1.61167" cy="2.46157" rx="1.61167" ry="2.46157" transform="matrix(0.571363 -0.372403 0.467748 0.593806 593.741 115.348)" fill="#EB2564"/>
<ellipse cx="1.61168" cy="2.46158" rx="1.61168" ry="2.46158" transform="matrix(0.571359 -0.372404 0.467746 0.593806 575.695 110.514)" fill="#EB2564"/>
<ellipse cx="1.61168" cy="2.46157" rx="1.61168" ry="2.46157" transform="matrix(0.571353 -0.372407 0.467743 0.593806 627.426 130.235)" fill="#EB2564"/>
<ellipse cx="1.61168" cy="2.46158" rx="1.61168" ry="2.46158" transform="matrix(0.571359 -0.372404 0.467746 0.593806 669.935 103.214)" fill="#EB2564"/>
<ellipse cx="1.61168" cy="2.46158" rx="1.61168" ry="2.46158" transform="matrix(0.571361 -0.372404 0.467747 0.593806 608.278 181.285)" fill="#EB2564"/>
<ellipse cx="1.61168" cy="2.46158" rx="1.61168" ry="2.46158" transform="matrix(0.571361 -0.372404 0.467747 0.593806 600.852 202.685)" fill="#EB2564"/>
<ellipse cx="1.61168" cy="2.46158" rx="1.61168" ry="2.46158" transform="matrix(0.571364 -0.372402 0.467748 0.593806 434.812 98.7141)" fill="#EB2564"/>
<ellipse cx="1.61167" cy="2.46158" rx="1.61167" ry="2.46158" transform="matrix(0.57137 -0.3724 0.467751 0.593806 459.809 132.969)" fill="#EB2564"/>
<ellipse cx="1.61168" cy="2.46159" rx="1.61168" ry="2.46159" transform="matrix(0.571362 -0.372403 0.467748 0.593806 465.078 103.535)" fill="#EB2564"/>
<ellipse cx="1.61168" cy="2.46158" rx="1.61168" ry="2.46158" transform="matrix(0.571351 -0.372407 0.467743 0.593806 653.037 203.413)" fill="#EB2564"/>
<ellipse cx="1.44071" cy="2.60644" rx="1.44071" ry="2.60644" transform="matrix(-0.683659 0.327108 -0.395994 -0.589224 487.678 156.922)" fill="#EB2564"/>
</g>
<ellipse cx="1.9697" cy="2.44586" rx="1.9697" ry="2.44586" transform="matrix(-0.482179 0.415185 -0.477491 -0.527101 753.463 134.823)" fill="#EB2564"/>
<ellipse cx="1.9697" cy="2.44585" rx="1.9697" ry="2.44585" transform="matrix(-0.482173 0.415186 -0.477487 -0.527101 699.428 129.082)" fill="#EB2564"/>
<ellipse cx="1.9697" cy="2.44586" rx="1.9697" ry="2.44586" transform="matrix(-0.482185 0.415183 -0.477495 -0.527101 691.062 101.006)" fill="#EB2564"/>
<ellipse cx="1.9697" cy="2.44586" rx="1.9697" ry="2.44586" transform="matrix(-0.482179 0.415185 -0.477491 -0.527101 698.623 115.402)" fill="#EB2564"/>
<ellipse cx="1.8002" cy="2.60235" rx="1.8002" ry="2.60235" transform="matrix(0.57312 -0.390043 0.405536 0.528169 760.686 99.6088)" fill="#EB2564"/>
<ellipse cx="1.80013" cy="2.6023" rx="1.80013" ry="2.6023" transform="matrix(0.573162 -0.390031 0.405557 0.528169 756.79 77.6344)" fill="#EB2564"/>
<ellipse cx="1.80013" cy="2.6023" rx="1.80013" ry="2.6023" transform="matrix(0.573172 -0.390028 0.405562 0.528169 746.063 60.0135)" fill="#EB2564"/>
<g opacity="0.5">
<ellipse cx="1.97025" cy="2.44742" rx="1.97025" ry="2.44742" transform="matrix(-0.481872 0.414969 -0.477325 -0.526844 785.005 173.64)" fill="#EB2564"/>
<ellipse cx="1.97025" cy="2.44742" rx="1.97025" ry="2.44742" transform="matrix(-0.481871 0.414969 -0.477324 -0.526844 784.56 156.602)" fill="#EB2564"/>
<ellipse cx="1.97025" cy="2.44742" rx="1.97025" ry="2.44742" transform="matrix(-0.481871 0.414969 -0.477324 -0.526844 744.355 138.735)" fill="#EB2564"/>
<ellipse cx="1.97026" cy="2.44743" rx="1.97026" ry="2.44743" transform="matrix(-0.481877 0.414967 -0.477328 -0.526844 749.859 108.734)" fill="#EB2564"/>
<ellipse cx="1.97025" cy="2.44742" rx="1.97025" ry="2.44742" transform="matrix(-0.481865 0.41497 -0.477321 -0.526844 743.311 159.015)" fill="#EB2564"/>
</g>
<g opacity="0.5">
<ellipse cx="1.96978" cy="2.44616" rx="1.96978" ry="2.44616" transform="matrix(-0.482148 0.41514 -0.477456 -0.527056 780.485 199.781)" fill="#EB2564"/>
<ellipse cx="1.96979" cy="2.44617" rx="1.96979" ry="2.44617" transform="matrix(-0.482142 0.415141 -0.477452 -0.527056 727.999 206.098)" fill="#EB2564"/>
<ellipse cx="1.96979" cy="2.44616" rx="1.96979" ry="2.44616" transform="matrix(-0.482137 0.415143 -0.477449 -0.527056 747.394 179.273)" fill="#EB2564"/>
<ellipse cx="1.96978" cy="2.44616" rx="1.96978" ry="2.44616" transform="matrix(-0.482138 0.415142 -0.477449 -0.527056 765.908 181.806)" fill="#EB2564"/>
<ellipse cx="1.96978" cy="2.44616" rx="1.96978" ry="2.44616" transform="matrix(-0.482138 0.415142 -0.477449 -0.527056 712.094 168.725)" fill="#EB2564"/>
<ellipse cx="1.96978" cy="2.44615" rx="1.96978" ry="2.44615" transform="matrix(-0.482138 0.415142 -0.47745 -0.527056 673.342 200.857)" fill="#EB2564"/>
<ellipse cx="1.96972" cy="2.44611" rx="1.96972" ry="2.44611" transform="matrix(-0.48218 0.415131 -0.477477 -0.527055 724.631 115.682)" fill="#EB2564"/>
<ellipse cx="1.96979" cy="2.44616" rx="1.96979" ry="2.44616" transform="matrix(-0.482137 0.415142 -0.477449 -0.527056 729.293 93.521)" fill="#EB2564"/>
<ellipse cx="1.96979" cy="2.44616" rx="1.96979" ry="2.44616" transform="matrix(-0.482137 0.415142 -0.477449 -0.527056 677.431 99.3373)" fill="#EB2564"/>
<ellipse cx="1.96978" cy="2.44616" rx="1.96978" ry="2.44616" transform="matrix(-0.482144 0.415141 -0.477453 -0.527056 764.246 291.276)" fill="#EB2564"/>
<ellipse cx="1.96978" cy="2.44615" rx="1.96978" ry="2.44615" transform="matrix(-0.482132 0.415144 -0.477445 -0.527056 768.334 189.757)" fill="#EB2564"/>
</g>
<g opacity="0.1">
<ellipse cx="1.96978" cy="2.44615" rx="1.96978" ry="2.44615" transform="matrix(-0.482146 0.415141 -0.477455 -0.527057 649.541 261.786)" fill="#EB2564"/>
<ellipse cx="1.96978" cy="2.44615" rx="1.96978" ry="2.44615" transform="matrix(-0.482133 0.415145 -0.477446 -0.527057 672.737 247.259)" fill="#EB2564"/>
<ellipse cx="1.96978" cy="2.44616" rx="1.96978" ry="2.44616" transform="matrix(-0.482145 0.415142 -0.477454 -0.527057 697.387 282.73)" fill="#EB2564"/>
<ellipse cx="1.96978" cy="2.44615" rx="1.96978" ry="2.44615" transform="matrix(-0.482146 0.415141 -0.477455 -0.527057 652.581 302.324)" fill="#EB2564"/>
<ellipse cx="1.96978" cy="2.44615" rx="1.96978" ry="2.44615" transform="matrix(-0.482139 0.415143 -0.47745 -0.527057 607.791 263.579)" fill="#EB2564"/>
<ellipse cx="1.96978" cy="2.44615" rx="1.96978" ry="2.44615" transform="matrix(-0.482146 0.415141 -0.477455 -0.527057 555.305 269.896)" fill="#EB2564"/>
<ellipse cx="1.96978" cy="2.44615" rx="1.96978" ry="2.44615" transform="matrix(-0.482133 0.415145 -0.477446 -0.527057 574.701 243.071)" fill="#EB2564"/>
<ellipse cx="1.96978" cy="2.44615" rx="1.96978" ry="2.44615" transform="matrix(-0.48214 0.415143 -0.477451 -0.527057 593.215 245.605)" fill="#EB2564"/>
<ellipse cx="1.96978" cy="2.44615" rx="1.96978" ry="2.44615" transform="matrix(-0.482146 0.415141 -0.477455 -0.527057 539.4 232.523)" fill="#EB2564"/>
<ellipse cx="1.96977" cy="2.44614" rx="1.96977" ry="2.44614" transform="matrix(-0.482142 0.415143 -0.477452 -0.527057 500.648 264.654)" fill="#EB2564"/>
<ellipse cx="1.96978" cy="2.44615" rx="1.96978" ry="2.44615" transform="matrix(-0.482146 0.415142 -0.477454 -0.527057 551.938 179.48)" fill="#EB2564"/>
<ellipse cx="1.96978" cy="2.44615" rx="1.96978" ry="2.44615" transform="matrix(-0.48214 0.415143 -0.47745 -0.527057 556.599 157.32)" fill="#EB2564"/>
<ellipse cx="1.80024" cy="2.60267" rx="1.80024" ry="2.60267" transform="matrix(0.573094 -0.390003 0.405505 0.52812 777.872 205.246)" fill="#EB2564"/>
<ellipse cx="1.80024" cy="2.60267" rx="1.80024" ry="2.60267" transform="matrix(0.573094 -0.390003 0.405505 0.52812 781.106 237.507)" fill="#EB2564"/>
<ellipse cx="1.80023" cy="2.60267" rx="1.80023" ry="2.60267" transform="matrix(0.573104 -0.39 0.40551 0.52812 728.154 273.361)" fill="#EB2564"/>
<ellipse cx="1.80023" cy="2.60267" rx="1.80023" ry="2.60267" transform="matrix(0.573102 -0.390001 0.405509 0.52812 697.599 244.777)" fill="#EB2564"/>
<ellipse cx="1.96978" cy="2.44615" rx="1.96978" ry="2.44615" transform="matrix(-0.482139 0.415143 -0.47745 -0.527057 734.47 239.658)" fill="#EB2564"/>
<ellipse cx="1.96978" cy="2.44616" rx="1.96978" ry="2.44616" transform="matrix(-0.482145 0.415142 -0.477454 -0.527057 705.338 208.809)" fill="#EB2564"/>
<ellipse cx="1.80024" cy="2.60268" rx="1.80024" ry="2.60268" transform="matrix(0.573102 -0.390001 0.405508 0.52812 618.94 163.509)" fill="#EB2564"/>
<ellipse cx="1.80024" cy="2.60268" rx="1.80024" ry="2.60268" transform="matrix(0.573102 -0.390001 0.405508 0.52812 634.396 181.462)" fill="#EB2564"/>
<ellipse cx="1.80024" cy="2.60269" rx="1.80024" ry="2.60269" transform="matrix(0.573107 -0.39 0.405511 0.52812 615.378 218.689)" fill="#EB2564"/>
<ellipse cx="1.96978" cy="2.44615" rx="1.96978" ry="2.44615" transform="matrix(-0.482146 0.415141 -0.477455 -0.527057 703.834 238.668)" fill="#EB2564"/>
<ellipse cx="1.96978" cy="2.44615" rx="1.96978" ry="2.44615" transform="matrix(-0.482139 0.415143 -0.47745 -0.527057 504.737 163.136)" fill="#EB2564"/>
<ellipse cx="1.96978" cy="2.44615" rx="1.96978" ry="2.44615" transform="matrix(-0.48214 0.415143 -0.477451 -0.527057 734.029 311.309)" fill="#EB2564"/>
<ellipse cx="1.96978" cy="2.44616" rx="1.96978" ry="2.44616" transform="matrix(-0.482145 0.415142 -0.477454 -0.527057 772.785 310.896)" fill="#EB2564"/>
<ellipse cx="1.96978" cy="2.44616" rx="1.96978" ry="2.44616" transform="matrix(-0.482145 0.415142 -0.477454 -0.527057 679.995 305.566)" fill="#EB2564"/>
<ellipse cx="1.96978" cy="2.44615" rx="1.96978" ry="2.44615" transform="matrix(-0.482146 0.415141 -0.477455 -0.527057 671.628 277.49)" fill="#EB2564"/>
<ellipse cx="1.96978" cy="2.44615" rx="1.96978" ry="2.44615" transform="matrix(-0.482132 0.415145 -0.477445 -0.527057 679.189 291.887)" fill="#EB2564"/>
<ellipse cx="1.96977" cy="2.44614" rx="1.96977" ry="2.44614" transform="matrix(-0.482148 0.415141 -0.477456 -0.527057 724.824 322.79)" fill="#EB2564"/>
<ellipse cx="1.96979" cy="2.44616" rx="1.96979" ry="2.44616" transform="matrix(-0.482138 0.415144 -0.477449 -0.527057 751.94 319.442)" fill="#EB2564"/>
<ellipse cx="1.96979" cy="2.44616" rx="1.96979" ry="2.44616" transform="matrix(-0.482136 0.415144 -0.477448 -0.527057 703.215 327.858)" fill="#EB2564"/>
<ellipse cx="1.96978" cy="2.44615" rx="1.96978" ry="2.44615" transform="matrix(-0.482152 0.41514 -0.477459 -0.527057 702.77 310.818)" fill="#EB2564"/>
<ellipse cx="1.96978" cy="2.44615" rx="1.96978" ry="2.44615" transform="matrix(-0.48214 0.415143 -0.477451 -0.527057 662.565 292.952)" fill="#EB2564"/>
<ellipse cx="1.96979" cy="2.44616" rx="1.96979" ry="2.44616" transform="matrix(-0.482138 0.415144 -0.477449 -0.527057 668.069 262.952)" fill="#EB2564"/>
<ellipse cx="1.96978" cy="2.44615" rx="1.96978" ry="2.44615" transform="matrix(-0.482139 0.415143 -0.47745 -0.527057 768.344 325.717)" fill="#EB2564"/>
<ellipse cx="1.96977" cy="2.44614" rx="1.96977" ry="2.44614" transform="matrix(-0.482142 0.415143 -0.477452 -0.527057 661.521 313.232)" fill="#EB2564"/>
<ellipse cx="1.96978" cy="2.44615" rx="1.96978" ry="2.44615" transform="matrix(-0.482139 0.415143 -0.47745 -0.527057 763.642 337.678)" fill="#EB2564"/>
<ellipse cx="1.96977" cy="2.44614" rx="1.96977" ry="2.44614" transform="matrix(-0.482142 0.415143 -0.477452 -0.527057 665.604 333.49)" fill="#EB2564"/>
<ellipse cx="1.96978" cy="2.44615" rx="1.96978" ry="2.44615" transform="matrix(-0.482139 0.415143 -0.47745 -0.527057 684.119 336.025)" fill="#EB2564"/>
<ellipse cx="1.96977" cy="2.44614" rx="1.96977" ry="2.44614" transform="matrix(-0.482134 0.415144 -0.477447 -0.527057 630.305 322.942)" fill="#EB2564"/>
<ellipse cx="1.96978" cy="2.44615" rx="1.96978" ry="2.44615" transform="matrix(-0.48214 0.415143 -0.477451 -0.527057 642.842 269.899)" fill="#EB2564"/>
<ellipse cx="1.96978" cy="2.44615" rx="1.96978" ry="2.44615" transform="matrix(-0.48214 0.415143 -0.477451 -0.527057 647.503 247.739)" fill="#EB2564"/>
<ellipse cx="1.96978" cy="2.44615" rx="1.96978" ry="2.44615" transform="matrix(-0.482133 0.415145 -0.477446 -0.527057 595.641 253.555)" fill="#EB2564"/>
<ellipse cx="1.80023" cy="2.60267" rx="1.80023" ry="2.60267" transform="matrix(0.573087 -0.390005 0.405501 0.52812 765.661 279.211)" fill="#EB2564"/>
</g>
</g>
<mask id="mask1_389_15496" style="mask-type:alpha" maskUnits="userSpaceOnUse" x="412" y="82" width="350" height="227">
<path d="M677.017 254.378C717.491 243.338 754.382 235.742 761.497 179.958C765.175 151.581 744.143 118.352 718.458 113.034C693.464 107.865 666.625 116.723 642.555 118.453C611.503 120.473 582.755 105.883 552.923 95.6555C454.703 62.3999 418.575 99.8992 413.74 118.646C404.587 155.166 463.09 161.97 479.563 178.395C499.019 197.821 496.398 232.934 503.307 258.22C532.074 364.332 610.197 272.658 677.017 254.378Z" fill="url(#paint0_radial_389_15496)"/>
</mask>
<g mask="url(#mask1_389_15496)">
<rect width="359.947" height="473.016" rx="9.01488" transform="matrix(1.00005 0.0026044 0.134745 0.989015 444.699 -70.7974)" fill="url(#paint1_linear_389_15496)"/>
</g>
<mask id="mask2_389_15496" style="mask-type:alpha" maskUnits="userSpaceOnUse" x="442" y="26" width="241" height="248">
<path d="M570.354 58.8109C541.209 36.9989 516.44 16.2575 472.102 31.1956C449.518 38.7574 436.283 63.6773 445.804 81.8161C455.072 99.4654 475.518 113.393 489.33 128.051C506.992 147.034 511.357 170.348 519.463 192.828C546.459 266.696 592.61 276.528 608.784 273.057C640.155 266.128 614.604 226.663 617.976 210.492C621.979 191.384 648.919 180.804 663.733 167.607C726.014 112.372 618.511 94.8027 570.354 58.8109Z" fill="url(#paint2_radial_389_15496)"/>
</mask>
<g mask="url(#mask2_389_15496)">
<rect width="530.966" height="472.792" rx="9.01488" transform="matrix(-0.407185 -0.611645 0.553149 -0.483881 516.18 403.186)" fill="url(#paint3_linear_389_15496)"/>
</g>
<mask id="mask3_389_15496" style="mask-type:alpha" maskUnits="userSpaceOnUse" x="315" y="-2" width="265" height="303">
<path d="M453.449 278.444C420.577 297.329 392.505 316.351 345.464 280.186C321.5 261.829 308.72 223.441 320.138 202.419C331.252 181.967 354.228 170.571 370.072 155.795C390.349 136.576 396.508 106.713 406.664 79.3266C440.421 -10.5358 490.95 -7.12079 508.232 3.40443C541.74 24.0833 511.667 68.0724 514.318 91.0982C517.469 118.313 545.959 142.315 561.169 165.464C625.135 262.455 507.761 247.306 453.449 278.444Z" fill="url(#paint4_radial_389_15496)"/>
</mask>
<g mask="url(#mask3_389_15496)">
<rect width="529.184" height="742.728" rx="9.01488" transform="matrix(-0.464224 0.509687 0.438287 0.531681 449.232 -140.519)" fill="url(#paint5_linear_389_15496)"/>
</g>
<mask id="mask4_389_15496" style="mask-type:alpha" maskUnits="userSpaceOnUse" x="635" y="90" width="262" height="189">
<path d="M703.524 242.996C672.451 236.77 644.247 233.093 636.196 188.406C632.056 165.678 646.33 137.365 665.457 131.339C684.07 125.479 704.75 130.852 722.997 130.639C746.527 130.193 767.52 116.454 789.54 106.175C862.062 72.668 891.129 100.607 895.678 115.461C904.341 144.415 860.519 153.844 848.878 168.246C835.129 185.277 838.796 213.53 834.797 234.465C818.189 322.303 754.828 253.318 703.524 242.996Z" fill="url(#paint6_radial_389_15496)"/>
</mask>
<g mask="url(#mask4_389_15496)">
<rect width="282.285" height="424.92" rx="9.01488" transform="matrix(-0.997904 0.113788 -0.0675425 0.996262 869.818 -52.1261)" fill="url(#paint7_linear_389_15496)"/>
</g>
</g>
<defs>
<radialGradient id="paint0_radial_389_15496" cx="0" cy="0" r="1" gradientUnits="userSpaceOnUse" gradientTransform="translate(663.547 210.256) rotate(37.0015) scale(177.637 196.194)">
<stop stop-color="#1B1A21"/>
<stop offset="1" stop-color="#1B1A21" stop-opacity="0"/>
</radialGradient>
<linearGradient id="paint1_linear_389_15496" x1="179.974" y1="-3.96732e-06" x2="343.761" y2="420.177" gradientUnits="userSpaceOnUse">
<stop stop-color="#4F34C7"/>
<stop offset="1" stop-color="#4F34C7" stop-opacity="0"/>
</linearGradient>
<radialGradient id="paint2_radial_389_15496" cx="0" cy="0" r="1" gradientUnits="userSpaceOnUse" gradientTransform="translate(545.244 82.734) rotate(-88.2496) scale(127.278 176.221)">
<stop stop-color="#1B1A21"/>
<stop offset="1" stop-color="#1B1A21" stop-opacity="0"/>
</radialGradient>
<linearGradient id="paint3_linear_389_15496" x1="-47.5147" y1="266.378" x2="289.953" y2="654.47" gradientUnits="userSpaceOnUse">
<stop stop-color="#321C91"/>
<stop offset="1" stop-color="#0780D6"/>
</linearGradient>
<radialGradient id="paint4_radial_389_15496" cx="0" cy="0" r="1" gradientUnits="userSpaceOnUse" gradientTransform="translate(427.762 237.11) rotate(91.2054) scale(173.006 192.011)">
<stop stop-color="#1B1A21"/>
<stop offset="1" stop-color="#1B1A21" stop-opacity="0"/>
</radialGradient>
<linearGradient id="paint5_linear_389_15496" x1="-47.3553" y1="418.464" x2="462.429" y2="790.401" gradientUnits="userSpaceOnUse">
<stop stop-color="#321C91" stop-opacity="0.5"/>
<stop offset="1" stop-color="#0780D6"/>
</linearGradient>
<radialGradient id="paint6_radial_389_15496" cx="0" cy="0" r="1" gradientUnits="userSpaceOnUse" gradientTransform="translate(699.648 175.547) rotate(125.347) scale(155.562 167.839)">
<stop stop-color="#1B1A21"/>
<stop offset="1" stop-color="#1B1A21" stop-opacity="0"/>
</radialGradient>
<linearGradient id="paint7_linear_389_15496" x1="-25.2609" y1="239.407" x2="259.602" y2="433.192" gradientUnits="userSpaceOnUse">
<stop stop-color="#FFBFFF"/>
<stop offset="1" stop-color="#AA00FF"/>
</linearGradient>
</defs>
</svg>
