<svg width="700" height="800" viewBox="0 0 700 800" fill="none" xmlns="http://www.w3.org/2000/svg">
<g clip-path="url(#clip0_683_18369)">
<rect width="700" height="800" fill="transparent"/>
<g clip-path="url(#clip1_683_18369)">
<g opacity="0.5">
<mask id="mask0_683_18369" style="mask-type:alpha" maskUnits="userSpaceOnUse" x="-18" y="154" width="925" height="675">
<path opacity="0.66" d="M465.073 182.205C350.208 138.288 292.616 142.673 123.619 227.394C37.0299 270.764 -46.6248 323.017 -7.81647 372.27C29.7977 420.518 84.621 447.409 139.396 482.133C209.319 526.688 249.371 583.861 283.181 648.424C394.822 858.568 523.603 837.963 585.707 812.734C705.735 764.293 653.305 674.078 664.594 620.368C678.68 556.488 780.984 500.126 836.492 446.045C1071.09 219.327 653.978 255.21 465.073 182.205Z" fill="white"/>
</mask>
<g mask="url(#mask0_683_18369)">
<ellipse rx="2.86334" ry="2.87698" transform="matrix(0.0675375 -0.997819 -0.997592 -0.0678557 658.406 573.121)" fill="#282364"/>
<ellipse rx="2.86333" ry="2.87702" transform="matrix(0.0675352 -0.997819 -0.997592 -0.0678579 689.32 569.112)" fill="#282364"/>
<ellipse rx="2.86437" ry="2.87594" transform="matrix(0.0266442 0.999838 0.999483 -0.0254892 700.121 706.458)" fill="#282364"/>
<ellipse rx="2.86437" ry="2.87594" transform="matrix(0.0266443 0.999838 0.999483 -0.0254891 660.674 709.068)" fill="#282364"/>
<g opacity="0.5">
<ellipse rx="2.86334" ry="2.87702" transform="matrix(0.0675351 -0.997819 -0.997592 -0.067858 688.542 640.893)" fill="#282364"/>
<ellipse rx="2.86334" ry="2.87706" transform="matrix(0.0675331 -0.997819 -0.997592 -0.0678599 640.841 553.707)" fill="#282364"/>
</g>
<g opacity="0.1">
<ellipse rx="2.86336" ry="2.87706" transform="matrix(0.067534 -0.997819 -0.997592 -0.067859 698.875 192.58)" fill="#282364"/>
<ellipse rx="2.86334" ry="2.87706" transform="matrix(0.0675331 -0.997819 -0.997592 -0.0678599 629.252 270.284)" fill="#282364"/>
<ellipse rx="2.86332" ry="2.87698" transform="matrix(0.0675359 -0.997819 -0.997592 -0.0678572 599.531 301.849)" fill="#282364"/>
<ellipse rx="2.86438" ry="2.87597" transform="matrix(0.0266469 0.999838 0.999483 -0.0254865 683.993 397.495)" fill="#282364"/>
<ellipse rx="2.86334" ry="2.87702" transform="matrix(0.067535 -0.997819 -0.997592 -0.0678581 551.831 214.664)" fill="#282364"/>
</g>
<ellipse rx="2.87053" ry="2.86981" transform="matrix(-0.930994 0.366597 0.369746 0.92852 187.075 326.014)" fill="#282364"/>
<ellipse rx="2.87053" ry="2.86972" transform="matrix(-0.930995 0.366594 0.369749 0.928519 224.258 262.256)" fill="#282364"/>
<ellipse rx="2.87054" ry="2.86977" transform="matrix(-0.930995 0.366595 0.369748 0.928519 145.791 420.849)" fill="#282364"/>
<ellipse rx="2.87053" ry="2.86977" transform="matrix(-0.930994 0.366595 0.369748 0.928519 184.827 461.091)" fill="#282364"/>
<ellipse rx="2.87052" ry="2.86981" transform="matrix(-0.930994 0.366597 0.369746 0.92852 167.889 435.041)" fill="#282364"/>
<ellipse rx="2.87065" ry="2.86964" transform="matrix(0.892316 -0.451842 -0.455463 -0.89004 362.263 152.383)" fill="#282364"/>
<ellipse rx="2.87065" ry="2.86968" transform="matrix(0.892314 -0.451845 -0.45546 -0.890042 318.565 164.291)" fill="#282364"/>
<ellipse rx="2.87065" ry="2.86975" transform="matrix(0.892312 -0.45185 -0.455455 -0.890044 280.366 180.24)" fill="#282364"/>
<ellipse rx="2.87065" ry="2.86972" transform="matrix(0.892313 -0.451847 -0.455458 -0.890043 262.733 202.836)" fill="#282364"/>
<ellipse rx="2.87065" ry="2.86972" transform="matrix(0.892313 -0.451847 -0.455458 -0.890043 242.418 233.621)" fill="#282364"/>
<ellipse rx="2.87065" ry="2.86964" transform="matrix(0.892316 -0.451842 -0.455463 -0.89004 274.006 251.757)" fill="#282364"/>
<ellipse rx="2.87064" ry="2.86968" transform="matrix(0.892314 -0.451845 -0.45546 -0.890042 242.601 260.846)" fill="#282364"/>
<ellipse rx="2.87064" ry="2.86964" transform="matrix(0.892316 -0.451842 -0.455463 -0.89004 271.553 293.974)" fill="#282364"/>
<ellipse rx="2.87065" ry="2.86964" transform="matrix(0.892316 -0.451842 -0.455463 -0.89004 254.764 339.13)" fill="#282364"/>
<ellipse rx="2.87065" ry="2.86968" transform="matrix(0.892314 -0.451845 -0.45546 -0.890042 287.814 366.24)" fill="#282364"/>
<ellipse rx="2.87064" ry="2.86968" transform="matrix(0.892314 -0.451845 -0.45546 -0.890042 307.154 400.559)" fill="#282364"/>
<g opacity="0.5">
<ellipse rx="2.8705" ry="2.86983" transform="matrix(-0.930997 0.366595 0.369748 0.928517 180.728 206.316)" fill="#282364"/>
<ellipse rx="2.8705" ry="2.86983" transform="matrix(-0.930997 0.366595 0.369748 0.928517 211.856 164.582)" fill="#282364"/>
<ellipse rx="2.8705" ry="2.86983" transform="matrix(-0.930997 0.366595 0.369747 0.928517 151.915 237.318)" fill="#282364"/>
<ellipse rx="2.8705" ry="2.86979" transform="matrix(-0.930997 0.366593 0.369749 0.928516 179.968 254.073)" fill="#282364"/>
<ellipse rx="2.8705" ry="2.86983" transform="matrix(-0.930997 0.366595 0.369748 0.928517 171.962 337.415)" fill="#282364"/>
<ellipse rx="2.8705" ry="2.86983" transform="matrix(-0.930997 0.366595 0.369748 0.928517 227.274 356.509)" fill="#282364"/>
<ellipse rx="2.87062" ry="2.86966" transform="matrix(0.892317 -0.45184 -0.455465 -0.890039 241.144 238.087)" fill="#282364"/>
<ellipse rx="2.87063" ry="2.86973" transform="matrix(0.892314 -0.451845 -0.455459 -0.890042 322.004 313.151)" fill="#282364"/>
<ellipse rx="2.87063" ry="2.86977" transform="matrix(0.892313 -0.451848 -0.455457 -0.890043 255.461 173.527)" fill="#282364"/>
<ellipse rx="2.8705" ry="2.86987" transform="matrix(-0.930996 0.366597 0.369746 0.928518 137.095 320.075)" fill="#282364"/>
</g>
<g opacity="0.5">
<ellipse rx="2.87051" ry="2.86978" transform="matrix(-0.930997 0.366594 0.369749 0.928517 146.29 152.805)" fill="#282364"/>
<ellipse rx="2.8705" ry="2.86983" transform="matrix(-0.930996 0.366596 0.369747 0.928518 103.98 220.222)" fill="#282364"/>
<ellipse rx="2.87052" ry="2.86979" transform="matrix(-0.930997 0.366594 0.369749 0.928517 44.0049 301.152)" fill="#282364"/>
<ellipse rx="2.8705" ry="2.86983" transform="matrix(-0.930996 0.366596 0.369747 0.928518 107.09 294.272)" fill="#282364"/>
<ellipse rx="2.87051" ry="2.86983" transform="matrix(-0.930996 0.366596 0.369747 0.928518 120.29 261.245)" fill="#282364"/>
<ellipse rx="2.87051" ry="2.86978" transform="matrix(-0.930997 0.366594 0.369749 0.928517 91.4768 362.614)" fill="#282364"/>
<ellipse rx="2.87053" ry="2.86983" transform="matrix(-0.930996 0.366595 0.369748 0.928517 1.29857 396.547)" fill="#282364"/>
<ellipse rx="2.8705" ry="2.86987" transform="matrix(-0.930995 0.366598 0.369745 0.928518 191.91 391.731)" fill="#282364"/>
<ellipse rx="2.87051" ry="2.86983" transform="matrix(-0.930996 0.366596 0.369747 0.928518 233.328 404.853)" fill="#282364"/>
<ellipse rx="2.87063" ry="2.86969" transform="matrix(0.892315 -0.451843 -0.455462 -0.890041 283.735 287.816)" fill="#282364"/>
<ellipse rx="2.87063" ry="2.86969" transform="matrix(0.892315 -0.451843 -0.455462 -0.890041 268.291 245.353)" fill="#282364"/>
<ellipse rx="2.87063" ry="2.86973" transform="matrix(0.892314 -0.451846 -0.455459 -0.890042 188.179 241.833)" fill="#282364"/>
<ellipse rx="2.87051" ry="2.86987" transform="matrix(-0.930995 0.366597 0.369746 0.928518 174.776 485.222)" fill="#282364"/>
<ellipse rx="2.87051" ry="2.86978" transform="matrix(-0.930997 0.366594 0.369749 0.928517 126.425 156.265)" fill="#282364"/>
<ellipse rx="2.87051" ry="2.86978" transform="matrix(-0.930997 0.366594 0.369749 0.928517 167.843 169.384)" fill="#282364"/>
<ellipse rx="2.87052" ry="2.86983" transform="matrix(-0.930996 0.366595 0.369748 0.928518 109.29 249.754)" fill="#282364"/>
</g>
<g opacity="0.1">
<ellipse rx="2.87063" ry="2.86973" transform="matrix(0.892314 -0.451846 -0.455459 -0.890042 94.4363 211.371)" fill="#282364"/>
<ellipse rx="2.87063" ry="2.86966" transform="matrix(0.892316 -0.451841 -0.455464 -0.89004 43.5775 175.687)" fill="#282364"/>
<ellipse rx="2.87051" ry="2.86978" transform="matrix(-0.930997 0.366594 0.369749 0.928517 18.1382 336.114)" fill="#282364"/>
<ellipse rx="2.87064" ry="2.86973" transform="matrix(0.892314 -0.451845 -0.45546 -0.890042 14.5262 513.668)" fill="#282364"/>
<ellipse rx="2.87064" ry="2.86969" transform="matrix(0.892315 -0.451842 -0.455462 -0.89004 -0.917639 471.207)" fill="#282364"/>
</g>
<ellipse rx="2.87054" ry="2.86978" transform="matrix(0.852044 -0.522465 0.527439 0.850217 331.385 685.082)" fill="#AA00FF"/>
<ellipse rx="2.87053" ry="2.86978" transform="matrix(0.852042 -0.522468 0.527437 0.850219 257.823 676.587)" fill="#AA00FF"/>
<ellipse rx="2.87052" ry="2.86977" transform="matrix(0.852041 -0.52247 0.527434 0.85022 432.419 708.903)" fill="#AA00FF"/>
<ellipse rx="2.87056" ry="2.8698" transform="matrix(0.852047 -0.52246 0.527444 0.850214 441.492 764.126)" fill="#AA00FF"/>
<ellipse rx="2.87054" ry="2.86978" transform="matrix(0.852044 -0.522465 0.527439 0.850217 430.641 735.026)" fill="#AA00FF"/>
<ellipse rx="2.87028" ry="2.87006" transform="matrix(-0.89761 0.44062 -0.445198 -0.895519 86.8658 720.919)" fill="#AA00FF"/>
<ellipse rx="2.87028" ry="2.87006" transform="matrix(-0.89761 0.440621 -0.445198 -0.895519 122.572 693.188)" fill="#AA00FF"/>
<ellipse rx="2.87027" ry="2.87006" transform="matrix(-0.897609 0.440623 -0.445196 -0.895521 158.248 672.261)" fill="#AA00FF"/>
<ellipse rx="2.87026" ry="2.87005" transform="matrix(-0.897623 0.440595 -0.445224 -0.895507 186.982 671.718)" fill="#AA00FF"/>
<ellipse rx="2.87027" ry="2.87006" transform="matrix(-0.897609 0.440623 -0.445196 -0.895521 223.912 673.936)" fill="#AA00FF"/>
<ellipse rx="2.87029" ry="2.87007" transform="matrix(-0.897612 0.440618 -0.445201 -0.895518 219.632 709.988)" fill="#AA00FF"/>
<ellipse rx="2.87026" ry="2.87005" transform="matrix(-0.897608 0.440626 -0.445193 -0.895522 245.724 690.376)" fill="#AA00FF"/>
<ellipse rx="2.87027" ry="2.87006" transform="matrix(-0.897609 0.440623 -0.445196 -0.895521 255.092 733.296)" fill="#AA00FF"/>
<ellipse rx="2.87025" ry="2.87005" transform="matrix(-0.897607 0.440628 -0.44519 -0.895523 301.487 746.927)" fill="#AA00FF"/>
<ellipse rx="2.87025" ry="2.87004" transform="matrix(-0.897622 0.440597 -0.445222 -0.895508 303.562 789.514)" fill="#AA00FF"/>
<g opacity="0.5">
<ellipse rx="2.87053" ry="2.8698" transform="matrix(0.852045 -0.52246 0.527445 0.850216 238.794 608.385)" fill="#AA00FF"/>
<ellipse rx="2.87054" ry="2.86981" transform="matrix(0.852046 -0.522458 0.527447 0.850215 186.584 608.241)" fill="#AA00FF"/>
<ellipse rx="2.87052" ry="2.8698" transform="matrix(0.852043 -0.522462 0.527443 0.850218 280.976 603.953)" fill="#AA00FF"/>
<ellipse rx="2.87053" ry="2.8698" transform="matrix(0.852043 -0.522463 0.527442 0.850218 277.701 636.359)" fill="#AA00FF"/>
<ellipse rx="2.87053" ry="2.8698" transform="matrix(0.852043 -0.522463 0.527442 0.850218 349.593 679.85)" fill="#AA00FF"/>
<ellipse rx="2.87054" ry="2.86981" transform="matrix(0.852046 -0.522458 0.527447 0.850215 331.908 735.399)" fill="#AA00FF"/>
<ellipse rx="2.87025" ry="2.87008" transform="matrix(-0.897613 0.440615 -0.445203 -0.895517 15.514 612.027)" fill="#AA00FF"/>
<ellipse rx="2.87026" ry="2.87008" transform="matrix(-0.897614 0.440613 -0.445206 -0.895516 30.732 577.392)" fill="#AA00FF"/>
<ellipse rx="2.87025" ry="2.87008" transform="matrix(-0.897613 0.440615 -0.445204 -0.895517 77.2284 581.697)" fill="#AA00FF"/>
<ellipse rx="2.87025" ry="2.87008" transform="matrix(-0.897613 0.440616 -0.445203 -0.895517 92.878 599.466)" fill="#AA00FF"/>
<ellipse rx="2.87026" ry="2.87008" transform="matrix(-0.897627 0.440587 -0.445232 -0.895503 135.072 610.108)" fill="#AA00FF"/>
<ellipse rx="2.87025" ry="2.87007" transform="matrix(-0.897611 0.44062 -0.445199 -0.895519 228.266 675.593)" fill="#AA00FF"/>
<ellipse rx="2.87025" ry="2.87008" transform="matrix(-0.89761 0.440621 -0.445198 -0.89552 240.375 785.015)" fill="#AA00FF"/>
<ellipse rx="2.87024" ry="2.87007" transform="matrix(-0.897609 0.440624 -0.445195 -0.895521 167.724 648.376)" fill="#AA00FF"/>
<ellipse rx="2.87053" ry="2.86981" transform="matrix(0.852044 -0.52246 0.527444 0.850217 157.008 592.42)" fill="#AA00FF"/>
<ellipse rx="2.87051" ry="2.86978" transform="matrix(0.85204 -0.522468 0.527437 0.850221 356.472 641.658)" fill="#AA00FF"/>
</g>
<g opacity="0.5">
<ellipse rx="2.87052" ry="2.86979" transform="matrix(0.852041 -0.522466 0.527438 0.85022 216.292 548.891)" fill="#AA00FF"/>
<ellipse rx="2.87054" ry="2.86981" transform="matrix(0.852044 -0.522461 0.527443 0.850217 168.812 570.873)" fill="#AA00FF"/>
<ellipse rx="2.87053" ry="2.86979" transform="matrix(0.852043 -0.522463 0.527442 0.850217 130.663 497.737)" fill="#AA00FF"/>
<ellipse rx="2.87055" ry="2.86981" transform="matrix(0.852064 -0.522429 0.527475 0.850197 220.327 471.324)" fill="#AA00FF"/>
<ellipse rx="2.87055" ry="2.86981" transform="matrix(0.852048 -0.522455 0.52745 0.850213 295.864 555.486)" fill="#AA00FF"/>
<ellipse rx="2.87055" ry="2.86982" transform="matrix(0.852045 -0.52246 0.527445 0.850216 396.878 556.077)" fill="#AA00FF"/>
<ellipse rx="2.87053" ry="2.8698" transform="matrix(0.852043 -0.522464 0.527441 0.850218 353.63 602.281)" fill="#AA00FF"/>
<ellipse rx="2.87053" ry="2.8698" transform="matrix(0.852043 -0.522463 0.527441 0.850218 319.148 593.047)" fill="#AA00FF"/>
<ellipse rx="2.87053" ry="2.8698" transform="matrix(0.852043 -0.522463 0.527441 0.850218 417.993 630.729)" fill="#AA00FF"/>
<ellipse rx="2.87053" ry="2.86979" transform="matrix(0.852043 -0.522463 0.527442 0.850217 499.213 579.099)" fill="#AA00FF"/>
<ellipse rx="2.87054" ry="2.86981" transform="matrix(0.852065 -0.522428 0.527476 0.850196 381.408 728.269)" fill="#AA00FF"/>
<ellipse rx="2.87053" ry="2.8698" transform="matrix(0.852043 -0.522464 0.527441 0.850218 367.216 769.16)" fill="#AA00FF"/>
<ellipse rx="2.87025" ry="2.87007" transform="matrix(-0.897626 0.440589 -0.44523 -0.895504 61.186 504.717)" fill="#AA00FF"/>
<ellipse rx="2.87025" ry="2.87007" transform="matrix(-0.897613 0.440615 -0.445203 -0.895517 112.194 566.213)" fill="#AA00FF"/>
<ellipse rx="2.87055" ry="2.86982" transform="matrix(0.852048 -0.522455 0.527449 0.850213 48.7632 570.264)" fill="#AA00FF"/>
<ellipse rx="2.87054" ry="2.8698" transform="matrix(0.852045 -0.52246 0.527444 0.850216 96.5256 635.714)" fill="#AA00FF"/>
<ellipse rx="2.87025" ry="2.87007" transform="matrix(-0.89761 0.440622 -0.445197 -0.89552 242.85 739.328)" fill="#AA00FF"/>
<ellipse rx="2.87025" ry="2.87007" transform="matrix(-0.89761 0.440621 -0.445197 -0.89552 217.891 701.596)" fill="#AA00FF"/>
<ellipse rx="2.87026" ry="2.87007" transform="matrix(-0.89761 0.440622 -0.445197 -0.89552 262.938 635.585)" fill="#AA00FF"/>
<ellipse rx="2.87053" ry="2.8698" transform="matrix(0.852045 -0.52246 0.527445 0.850216 106.594 579.475)" fill="#AA00FF"/>
<ellipse rx="2.87053" ry="2.8698" transform="matrix(0.852043 -0.522464 0.527441 0.850218 466.927 770.55)" fill="#AA00FF"/>
<ellipse rx="2.87054" ry="2.86981" transform="matrix(0.852047 -0.522457 0.527447 0.850214 66.9161 434.556)" fill="#AA00FF"/>
<ellipse rx="2.87053" ry="2.8698" transform="matrix(0.852045 -0.52246 0.527445 0.850216 169.149 458.614)" fill="#AA00FF"/>
<ellipse rx="2.87054" ry="2.8698" transform="matrix(0.852045 -0.522461 0.527444 0.850216 178.221 513.837)" fill="#AA00FF"/>
<ellipse rx="2.87053" ry="2.8698" transform="matrix(0.852042 -0.522465 0.52744 0.850219 167.37 484.736)" fill="#AA00FF"/>
<ellipse rx="2.87053" ry="2.8698" transform="matrix(0.852045 -0.52246 0.527445 0.850216 87.1394 414.995)" fill="#AA00FF"/>
<ellipse rx="2.87052" ry="2.86979" transform="matrix(0.852045 -0.522461 0.527444 0.850216 34.9311 414.851)" fill="#AA00FF"/>
<ellipse rx="2.87053" ry="2.8698" transform="matrix(0.852042 -0.522465 0.52744 0.850219 129.324 410.564)" fill="#AA00FF"/>
<ellipse rx="2.87055" ry="2.86981" transform="matrix(0.852046 -0.522458 0.527446 0.850215 126.048 442.969)" fill="#AA00FF"/>
<ellipse rx="2.87054" ry="2.8698" transform="matrix(0.852045 -0.522461 0.527444 0.850216 199.14 486.697)" fill="#AA00FF"/>
<ellipse rx="2.87054" ry="2.86981" transform="matrix(0.852044 -0.522461 0.527443 0.850217 181.454 542.244)" fill="#AA00FF"/>
<ellipse rx="2.87053" ry="2.8698" transform="matrix(0.852043 -0.522463 0.527441 0.850218 5.35302 399.031)" fill="#AA00FF"/>
<ellipse rx="2.87052" ry="2.86979" transform="matrix(0.852041 -0.522467 0.527438 0.85022 206.018 448.505)" fill="#AA00FF"/>
<ellipse rx="2.87052" ry="2.86979" transform="matrix(0.852044 -0.522462 0.527442 0.850217 64.636 355.5)" fill="#AA00FF"/>
<ellipse rx="2.87053" ry="2.8698" transform="matrix(0.852045 -0.52246 0.527445 0.850216 17.158 377.483)" fill="#AA00FF"/>
<ellipse rx="2.87052" ry="2.86979" transform="matrix(0.852045 -0.522461 0.527444 0.850216 68.6724 277.933)" fill="#AA00FF"/>
<ellipse rx="2.87054" ry="2.8698" transform="matrix(0.852045 -0.522461 0.527444 0.850216 144.209 362.096)" fill="#AA00FF"/>
<ellipse rx="2.87054" ry="2.8698" transform="matrix(0.852045 -0.522461 0.527444 0.850216 246.422 362.924)" fill="#AA00FF"/>
<ellipse rx="2.87052" ry="2.86979" transform="matrix(0.852041 -0.522467 0.527438 0.85022 203.174 409.128)" fill="#AA00FF"/>
<ellipse rx="2.87053" ry="2.86979" transform="matrix(0.852044 -0.522462 0.527442 0.850217 168.693 399.892)" fill="#AA00FF"/>
<ellipse rx="2.87053" ry="2.8698" transform="matrix(0.852045 -0.52246 0.527445 0.850216 267.536 437.573)" fill="#AA00FF"/>
<ellipse rx="2.87055" ry="2.86981" transform="matrix(0.852046 -0.522458 0.527446 0.850215 348.758 385.946)" fill="#AA00FF"/>
<ellipse rx="2.87054" ry="2.8698" transform="matrix(0.852045 -0.522461 0.527444 0.850216 230.951 535.115)" fill="#AA00FF"/>
<ellipse rx="2.87054" ry="2.8698" transform="matrix(0.852045 -0.522461 0.527444 0.850216 216.76 576.004)" fill="#AA00FF"/>
<ellipse rx="2.87051" ry="2.86978" transform="matrix(0.85204 -0.522468 0.527436 0.850221 316.471 577.396)" fill="#AA00FF"/>
</g>
<g opacity="0.1">
<ellipse rx="2.87054" ry="2.86981" transform="matrix(0.852047 -0.522457 0.527447 0.850214 559.054 469.306)" fill="#AA00FF"/>
<ellipse rx="2.87051" ry="2.86978" transform="matrix(0.85204 -0.522468 0.527436 0.850221 511.575 491.288)" fill="#AA00FF"/>
<ellipse rx="2.87055" ry="2.86981" transform="matrix(0.852046 -0.522458 0.527446 0.850215 473.425 418.152)" fill="#AA00FF"/>
<ellipse rx="2.87054" ry="2.86981" transform="matrix(0.852047 -0.522457 0.527447 0.850214 563.09 391.739)" fill="#AA00FF"/>
<ellipse rx="2.87053" ry="2.8698" transform="matrix(0.852043 -0.522463 0.527441 0.850218 638.626 475.901)" fill="#AA00FF"/>
<ellipse rx="2.87051" ry="2.86978" transform="matrix(0.85204 -0.522468 0.527436 0.850221 696.393 522.698)" fill="#AA00FF"/>
<ellipse rx="2.87052" ry="2.86979" transform="matrix(0.852044 -0.522462 0.527442 0.850217 661.911 513.461)" fill="#AA00FF"/>
<ellipse rx="2.87024" ry="2.87007" transform="matrix(-0.897611 0.440619 -0.4452 -0.895519 294.443 542.577)" fill="#AA00FF"/>
<ellipse rx="2.87024" ry="2.87007" transform="matrix(-0.897611 0.440619 -0.4452 -0.895519 296.11 480.653)" fill="#AA00FF"/>
<ellipse rx="2.87026" ry="2.87007" transform="matrix(-0.897615 0.440611 -0.445208 -0.895515 405.147 425.368)" fill="#AA00FF"/>
<ellipse rx="2.87026" ry="2.87007" transform="matrix(-0.897614 0.440613 -0.445206 -0.895515 456.155 486.862)" fill="#AA00FF"/>
<ellipse rx="2.87053" ry="2.8698" transform="matrix(0.852043 -0.522463 0.527441 0.850218 392.724 490.915)" fill="#AA00FF"/>
<ellipse rx="2.87055" ry="2.86981" transform="matrix(0.852046 -0.522458 0.527446 0.850215 440.487 556.365)" fill="#AA00FF"/>
<ellipse rx="2.87026" ry="2.87008" transform="matrix(-0.897614 0.440613 -0.445206 -0.895516 585.613 659.742)" fill="#AA00FF"/>
<ellipse rx="2.87026" ry="2.87008" transform="matrix(-0.897614 0.440613 -0.445206 -0.895516 560.654 622.011)" fill="#AA00FF"/>
<ellipse rx="2.87029" ry="2.87009" transform="matrix(-0.897616 0.440609 -0.445209 -0.895514 605.701 555.998)" fill="#AA00FF"/>
<ellipse rx="2.87054" ry="2.86981" transform="matrix(0.852047 -0.522457 0.527447 0.850214 450.555 500.126)" fill="#AA00FF"/>
<ellipse rx="2.87052" ry="2.86979" transform="matrix(0.852044 -0.522462 0.527442 0.850217 410.877 355.207)" fill="#AA00FF"/>
<ellipse rx="2.87055" ry="2.86981" transform="matrix(0.852046 -0.522458 0.527446 0.850215 337.314 346.711)" fill="#AA00FF"/>
<ellipse rx="2.87055" ry="2.86981" transform="matrix(0.852046 -0.522458 0.527446 0.850215 511.911 379.029)" fill="#AA00FF"/>
<ellipse rx="2.87054" ry="2.86981" transform="matrix(0.852047 -0.522457 0.527447 0.850214 520.984 434.252)" fill="#AA00FF"/>
<ellipse rx="2.87051" ry="2.86979" transform="matrix(0.852039 -0.522469 0.527435 0.850222 510.132 405.151)" fill="#AA00FF"/>
<ellipse rx="2.87054" ry="2.8698" transform="matrix(0.852048 -0.522456 0.527448 0.850213 431.1 335.645)" fill="#AA00FF"/>
<ellipse rx="2.87053" ry="2.8698" transform="matrix(0.852042 -0.522465 0.52744 0.850219 378.892 335.501)" fill="#AA00FF"/>
<ellipse rx="2.87054" ry="2.86981" transform="matrix(0.852042 -0.522466 0.527439 0.850219 473.285 331.215)" fill="#AA00FF"/>
<ellipse rx="2.87056" ry="2.86982" transform="matrix(0.85205 -0.522452 0.527452 0.850211 470.01 363.62)" fill="#AA00FF"/>
<ellipse rx="2.87052" ry="2.86979" transform="matrix(0.852044 -0.522462 0.527442 0.850217 541.902 407.112)" fill="#AA00FF"/>
<ellipse rx="2.87053" ry="2.8698" transform="matrix(0.852042 -0.522465 0.52744 0.850219 524.215 462.661)" fill="#AA00FF"/>
<ellipse rx="2.87053" ry="2.8698" transform="matrix(0.852043 -0.522463 0.527441 0.850218 349.313 319.682)" fill="#AA00FF"/>
<ellipse rx="2.87052" ry="2.86979" transform="matrix(0.852045 -0.522461 0.527444 0.850216 548.78 368.921)" fill="#AA00FF"/>
<ellipse rx="2.87053" ry="2.8698" transform="matrix(0.852043 -0.522463 0.527441 0.850218 408.597 276.151)" fill="#AA00FF"/>
<ellipse rx="2.87053" ry="2.8698" transform="matrix(0.852043 -0.522463 0.527441 0.850218 361.119 298.134)" fill="#AA00FF"/>
<ellipse rx="2.87052" ry="2.86979" transform="matrix(0.852045 -0.522461 0.527444 0.850216 322.969 224.997)" fill="#AA00FF"/>
<ellipse rx="2.87055" ry="2.86981" transform="matrix(0.852046 -0.522458 0.527446 0.850215 412.633 198.584)" fill="#AA00FF"/>
<ellipse rx="2.87055" ry="2.86981" transform="matrix(0.852046 -0.522458 0.527446 0.850215 488.17 282.747)" fill="#AA00FF"/>
<ellipse rx="2.87056" ry="2.86983" transform="matrix(0.852049 -0.522454 0.527451 0.850212 589.185 283.339)" fill="#AA00FF"/>
<ellipse rx="2.87052" ry="2.86979" transform="matrix(0.852045 -0.522461 0.527444 0.850216 545.936 329.543)" fill="#AA00FF"/>
<ellipse rx="2.87053" ry="2.8698" transform="matrix(0.852043 -0.522463 0.527441 0.850218 511.455 320.307)" fill="#AA00FF"/>
<ellipse rx="2.87051" ry="2.86978" transform="matrix(0.852041 -0.522467 0.527438 0.85022 610.298 357.988)" fill="#AA00FF"/>
<ellipse rx="2.87053" ry="2.8698" transform="matrix(0.852043 -0.522463 0.527441 0.850218 691.52 306.359)" fill="#AA00FF"/>
<ellipse rx="2.87052" ry="2.86979" transform="matrix(0.852044 -0.522462 0.527442 0.850217 573.713 455.53)" fill="#AA00FF"/>
<ellipse rx="2.87052" ry="2.86979" transform="matrix(0.852044 -0.522462 0.527442 0.850217 559.523 496.42)" fill="#AA00FF"/>
<ellipse rx="2.87053" ry="2.8698" transform="matrix(0.852045 -0.52246 0.527445 0.850216 242.269 297.761)" fill="#AA00FF"/>
<ellipse rx="2.87054" ry="2.8698" transform="matrix(0.852048 -0.522456 0.527448 0.850213 290.03 363.212)" fill="#AA00FF"/>
<ellipse rx="2.87054" ry="2.8698" transform="matrix(0.852045 -0.522461 0.527444 0.850216 300.099 306.971)" fill="#AA00FF"/>
<ellipse rx="2.87051" ry="2.86978" transform="matrix(0.85204 -0.522468 0.527436 0.850221 659.234 497.811)" fill="#AA00FF"/>
<ellipse rx="2.87022" ry="2.87005" transform="matrix(-0.897609 0.440624 -0.445195 -0.895521 335.466 405.298)" fill="#AA00FF"/>
</g>
<g opacity="0.5">
<ellipse rx="2.87028" ry="2.87005" transform="matrix(-0.779456 0.625586 -0.63027 -0.77708 690.025 490.379)" fill="#AA00FF"/>
<ellipse rx="2.87029" ry="2.87005" transform="matrix(-0.779455 0.625587 -0.630269 -0.777081 697.838 296.404)" fill="#AA00FF"/>
</g>
<g opacity="0.1">
<ellipse rx="2.8703" ry="2.87006" transform="matrix(-0.77946 0.625581 -0.630275 -0.777076 644.549 606.797)" fill="#AA00FF"/>
<ellipse rx="2.87027" ry="2.87004" transform="matrix(-0.779452 0.625591 -0.630265 -0.777084 688.87 579.04)" fill="#AA00FF"/>
<ellipse rx="2.8703" ry="2.87006" transform="matrix(-0.77946 0.625581 -0.630275 -0.777076 650.357 684.253)" fill="#AA00FF"/>
<ellipse rx="2.87028" ry="2.87005" transform="matrix(-0.779456 0.625587 -0.63027 -0.777081 564.776 610.223)" fill="#AA00FF"/>
<ellipse rx="2.8703" ry="2.87006" transform="matrix(-0.77946 0.625581 -0.630275 -0.777076 464.49 622.294)" fill="#AA00FF"/>
<ellipse rx="2.87027" ry="2.87004" transform="matrix(-0.779452 0.625591 -0.630265 -0.777084 501.55 571.038)" fill="#AA00FF"/>
<ellipse rx="2.87028" ry="2.87005" transform="matrix(-0.779456 0.625586 -0.630271 -0.77708 536.925 575.879)" fill="#AA00FF"/>
<ellipse rx="2.8703" ry="2.87006" transform="matrix(-0.77946 0.625581 -0.630275 -0.777076 434.1 550.883)" fill="#AA00FF"/>
<ellipse rx="2.87028" ry="2.87004" transform="matrix(-0.779457 0.625585 -0.630272 -0.777079 360.057 612.278)" fill="#AA00FF"/>
<ellipse rx="2.8703" ry="2.87007" transform="matrix(-0.77946 0.625582 -0.630275 -0.777077 458.056 449.535)" fill="#AA00FF"/>
<ellipse rx="2.87028" ry="2.87005" transform="matrix(-0.779456 0.625586 -0.63027 -0.77708 466.963 407.192)" fill="#AA00FF"/>
<ellipse rx="2.87011" ry="2.87025" transform="matrix(0.835011 -0.550096 0.554421 0.832329 594.113 421.204)" fill="#AA00FF"/>
<ellipse rx="2.87011" ry="2.87025" transform="matrix(0.835011 -0.550096 0.554421 0.832329 623.646 455.506)" fill="#AA00FF"/>
<ellipse rx="2.87013" ry="2.87026" transform="matrix(0.835013 -0.550092 0.554425 0.832326 587.307 526.638)" fill="#AA00FF"/>
<ellipse rx="2.87028" ry="2.87005" transform="matrix(-0.779456 0.625587 -0.63027 -0.77708 367.869 418.305)" fill="#AA00FF"/>
<ellipse rx="2.8703" ry="2.87007" transform="matrix(-0.779459 0.625582 -0.630274 -0.777077 702.737 690.448)" fill="#AA00FF"/>
<ellipse rx="2.8703" ry="2.87006" transform="matrix(-0.77946 0.625581 -0.630275 -0.777076 686.751 636.803)" fill="#AA00FF"/>
<ellipse rx="2.87027" ry="2.87004" transform="matrix(-0.779451 0.625592 -0.630264 -0.777085 701.198 664.312)" fill="#AA00FF"/>
<ellipse rx="2.87028" ry="2.87005" transform="matrix(-0.779456 0.625586 -0.630271 -0.77708 669.433 666.347)" fill="#AA00FF"/>
<ellipse rx="2.87029" ry="2.87006" transform="matrix(-0.779455 0.625588 -0.630269 -0.777082 679.951 609.024)" fill="#AA00FF"/>
<ellipse rx="2.87028" ry="2.87004" transform="matrix(-0.779457 0.625585 -0.630272 -0.777079 667.439 705.095)" fill="#AA00FF"/>
<ellipse rx="2.87032" ry="2.87008" transform="matrix(-0.779463 0.625578 -0.630279 -0.777074 638.182 795.059)" fill="#AA00FF"/>
<ellipse rx="2.87028" ry="2.87004" transform="matrix(-0.779457 0.625585 -0.630272 -0.777079 675.241 743.803)" fill="#AA00FF"/>
<ellipse rx="2.87026" ry="2.87003" transform="matrix(-0.779453 0.62559 -0.630266 -0.777083 607.794 723.649)" fill="#AA00FF"/>
<ellipse rx="2.87028" ry="2.87005" transform="matrix(-0.779456 0.625587 -0.63027 -0.777081 533.749 785.044)" fill="#AA00FF"/>
<ellipse rx="2.87028" ry="2.87005" transform="matrix(-0.779456 0.625586 -0.630271 -0.77708 631.749 622.299)" fill="#AA00FF"/>
<ellipse rx="2.87028" ry="2.87005" transform="matrix(-0.779456 0.625586 -0.630271 -0.77708 640.655 579.956)" fill="#AA00FF"/>
<ellipse rx="2.87027" ry="2.87004" transform="matrix(-0.779452 0.625591 -0.630265 -0.777084 541.561 591.07)" fill="#AA00FF"/>
</g>
</g>
<mask id="mask1_683_18369" style="mask-type:alpha" maskUnits="userSpaceOnUse" x="160" y="112" width="665" height="434">
<path d="M646.003 442.893C725.764 422.105 798.029 407.869 821.59 301.373C833.688 247.201 799.145 183.577 750.71 173.232C703.577 163.175 650.412 179.897 603.834 183.024C543.782 186.653 491.101 158.574 435.566 138.82C252.64 74.5795 176.542 145.937 163.928 181.709C139.86 251.395 251.122 264.821 279.88 296.314C313.84 333.56 302.579 400.607 311.381 448.955C347.884 651.84 514.309 477.317 646.003 442.893Z" fill="url(#paint0_radial_683_18369)"/>
</mask>
<g mask="url(#mask1_683_18369)">
<rect width="760.31" height="892.371" rx="9.01488" transform="matrix(0.99998 0.00609829 0.0552187 0.998489 217.716 -179.026)" fill="url(#paint1_linear_683_18369)"/>
</g>
<mask id="mask2_683_18369" style="mask-type:alpha" maskUnits="userSpaceOnUse" x="486" y="195" width="395" height="493">
<path d="M710.471 248.337C667.106 209.706 630.942 172.303 549.928 213.343C508.676 234.149 478.097 288.838 488.82 324.301C499.262 358.805 530.114 383.057 549.313 410.326C573.791 445.694 574.018 493.061 580.95 537.847C604.342 684.937 680.733 694.863 709.668 683.995C765.851 662.508 734.193 586.448 745.055 552.143C757.92 511.602 807.615 483.548 837.248 452.817C961.755 324.127 782.14 312.067 710.471 248.337Z" fill="url(#paint2_radial_683_18369)"/>
</mask>
<g mask="url(#mask2_683_18369)">
<rect width="648.714" height="769.035" rx="9.01488" transform="matrix(-0.501938 -0.864879 0.763531 -0.645734 495.104 925.907)" fill="url(#paint3_linear_683_18369)"/>
</g>
<mask id="mask3_683_18369" style="mask-type:alpha" maskUnits="userSpaceOnUse" x="-15" y="97" width="490" height="585">
<path d="M436.826 479.318C438.152 556.13 444.135 624.644 340.146 670.878C287.28 694.498 211.165 678.271 186.47 637.016C162.448 596.868 164.545 544.997 154.397 502.256C140.895 447.246 96.5326 406.322 60.0084 360.871C-59.4394 210.967 -7.11176 125.596 26.466 105.826C92.0238 67.7713 137.999 164.965 179.029 183.512C227.541 205.402 294.038 179.516 346.858 176.111C568.387 161.432 434.743 352.472 436.826 479.318Z" fill="url(#paint4_radial_683_18369)"/>
</mask>
<g mask="url(#mask3_683_18369)">
<rect width="720.797" height="954.393" rx="9.01488" transform="matrix(0.30998 0.950854 0.985054 -0.1726 -257.122 70.1589)" fill="url(#paint5_linear_683_18369)"/>
</g>
<mask id="mask4_683_18369" style="mask-type:alpha" maskUnits="userSpaceOnUse" x="165" y="365" width="541" height="343">
<path d="M252.386 583.332C199.85 553.388 150.638 529.642 170.359 446.929C180.307 404.833 228.562 364.344 268.53 365.621C307.42 366.871 341.431 388.94 375.275 399.793C419.051 413.488 468.431 402.492 517.029 398.147C676.815 384.444 708.845 450.939 705.746 479.585C699.331 535.297 611.149 524.753 578.517 542.654C539.961 563.836 524.865 615.254 501.284 649.225C402.656 791.861 339.092 632.847 252.386 583.332Z" fill="url(#paint6_radial_683_18369)"/>
</mask>
<g mask="url(#mask4_683_18369)">
<rect width="587.434" height="735.337" rx="9.01488" transform="matrix(-0.972813 -0.231989 -0.475213 0.880064 791.599 203.986)" fill="url(#paint7_linear_683_18369)"/>
</g>
<mask id="mask5_683_18369" style="mask-type:alpha" maskUnits="userSpaceOnUse" x="165" y="57" width="419" height="597">
<path d="M253.713 499.439C270.146 575.67 280.485 645.396 384.622 653.494C437.589 657.725 502.323 614.275 515.068 564.683C527.46 516.426 513.672 466.027 512.992 420.215C512.513 361.094 543.022 304.737 565.443 246.742C615.968 116.046 549.938 68.0663 515.202 60.6779C447.508 46.788 417.411 85.1405 384.765 118.228C346.156 157.309 313.344 152.28 265.057 167.969C62.447 233.376 226.481 373.59 253.713 499.439Z" fill="url(#paint8_radial_683_18369)"/>
</mask>
<g mask="url(#mask5_683_18369)">
<rect width="969.554" height="1001.12" rx="9.01488" transform="matrix(-0.058043 0.998368 -0.980328 0.196469 1037.94 -190.123)" fill="url(#paint9_linear_683_18369)"/>
</g>
</g>
<rect opacity="0.6" x="480" y="399" width="22" height="22" fill="#553ACF"/>
<rect opacity="0.6" x="472" y="383" width="22" height="22" transform="rotate(90 472 383)" fill="#553ACF"/>
<rect opacity="0.6" x="502" y="421" width="23" height="23" fill="#B0A0F8"/>
<rect opacity="0.6" x="450" y="405" width="23" height="23" transform="rotate(90 450 405)" fill="#B0A0F8"/>
<rect opacity="0.6" x="525" y="388" width="22" height="22" fill="#553ACF"/>
<rect opacity="0.6" x="483" y="428" width="22" height="22" transform="rotate(90 483 428)" fill="#553ACF"/>
<rect opacity="0.6" x="547" y="354" width="22" height="22" fill="#553ACF"/>
<rect opacity="0.6" x="517" y="450" width="22" height="22" transform="rotate(90 517 450)" fill="#553ACF"/>
<rect opacity="0.6" x="502" y="335" width="23" height="23" fill="#B0A0F8"/>
<rect opacity="0.6" x="536" y="405" width="23" height="23" transform="rotate(90 536 405)" fill="#B0A0F8"/>
<rect opacity="0.6" x="381" y="411" width="22" height="22" fill="#B0A0F8"/>
<rect opacity="0.6" x="460" y="284" width="22" height="22" transform="rotate(90 460 284)" fill="#B0A0F8"/>
<rect opacity="0.6" x="319" y="410" width="22" height="22" fill="#B0A0F8"/>
<rect opacity="0.6" x="461" y="222" width="22" height="22" transform="rotate(90 461 222)" fill="#B0A0F8"/>
<rect opacity="0.6" x="341" y="433" width="22" height="22" fill="#553ACF"/>
<rect opacity="0.6" x="438" y="244" width="22" height="22" transform="rotate(90 438 244)" fill="#553ACF"/>
<rect opacity="0.6" x="369" y="365" width="23" height="22" fill="#553ACF"/>
<rect opacity="0.6" x="506" y="272" width="23" height="22" transform="rotate(90 506 272)" fill="#553ACF"/>
<rect opacity="0.6" x="416" y="371" width="22" height="22" fill="#553ACF"/>
<rect opacity="0.6" x="500" y="319" width="22" height="22" transform="rotate(90 500 319)" fill="#553ACF"/>
</g>
</g>
<defs>
<radialGradient id="paint0_radial_683_18369" cx="0" cy="0" r="1" gradientUnits="userSpaceOnUse" gradientTransform="translate(627.925 358.522) rotate(38.9636) scale(326.384 392.213)">
<stop stop-color="#1B1A21"/>
<stop offset="1" stop-color="#1B1A21" stop-opacity="0"/>
</radialGradient>
<linearGradient id="paint1_linear_683_18369" x1="-68.0381" y1="502.775" x2="569.208" y2="1058.75" gradientUnits="userSpaceOnUse">
<stop stop-color="#FFBFFF"/>
<stop offset="1" stop-color="#AA00FF"/>
</linearGradient>
<radialGradient id="paint2_radial_683_18369" cx="0" cy="0" r="1" gradientUnits="userSpaceOnUse" gradientTransform="translate(659.756 303.652) rotate(-80.0459) scale(268.796 292.09)">
<stop stop-color="#1B1A21"/>
<stop offset="1" stop-color="#1B1A21" stop-opacity="0"/>
</radialGradient>
<linearGradient id="paint3_linear_683_18369" x1="-58.0516" y1="433.286" x2="490.35" y2="906.994" gradientUnits="userSpaceOnUse">
<stop stop-color="#321C91"/>
<stop offset="1" stop-color="#0780D6"/>
</linearGradient>
<radialGradient id="paint4_radial_683_18369" cx="0" cy="0" r="1" gradientUnits="userSpaceOnUse" gradientTransform="translate(343.869 482.809) rotate(32.2447) scale(338.727 380.021)">
<stop stop-color="#1B1A21"/>
<stop offset="1" stop-color="#1B1A21" stop-opacity="0"/>
</radialGradient>
<linearGradient id="paint5_linear_683_18369" x1="-64.5021" y1="537.72" x2="601.28" y2="1052.62" gradientUnits="userSpaceOnUse">
<stop stop-color="#321C91" stop-opacity="0.5"/>
<stop offset="1" stop-color="#0780D6"/>
</linearGradient>
<radialGradient id="paint6_radial_683_18369" cx="0" cy="0" r="1" gradientUnits="userSpaceOnUse" gradientTransform="translate(297.427 463.577) rotate(147.954) scale(311.817 308.792)">
<stop stop-color="#1B1A21"/>
<stop offset="1" stop-color="#1B1A21" stop-opacity="0"/>
</radialGradient>
<linearGradient id="paint7_linear_683_18369" x1="-52.5679" y1="414.3" x2="466.922" y2="839.267" gradientUnits="userSpaceOnUse">
<stop stop-color="#FFBFFF"/>
<stop offset="1" stop-color="#AA00FF"/>
</linearGradient>
<radialGradient id="paint8_radial_683_18369" cx="0" cy="0" r="1" gradientUnits="userSpaceOnUse" gradientTransform="translate(346.908 352.991) rotate(81.2353) scale(400.181 405.723)">
<stop stop-color="#1B1A21"/>
<stop offset="1" stop-color="#1B1A21" stop-opacity="0"/>
</radialGradient>
<linearGradient id="paint9_linear_683_18369" x1="-86.7627" y1="564.044" x2="634.777" y2="1279.62" gradientUnits="userSpaceOnUse">
<stop stop-color="#321C91" stop-opacity="0.5"/>
<stop offset="1" stop-color="#0780D6"/>
</linearGradient>
<clipPath id="clip0_683_18369">
<rect width="700" height="800" fill="white"/>
</clipPath>
<clipPath id="clip1_683_18369">
<rect width="1449.89" height="1135.81" fill="white" transform="translate(-375 -183)"/>
</clipPath>
</defs>
</svg>
