<svg width="65" height="65" viewBox="0 0 65 65" fill="none" xmlns="http://www.w3.org/2000/svg">
<circle cx="32.5" cy="32.5" r="32" fill="#F9EDFF"/>
<path d="M19.1498 37.462C19.1498 37.8762 19.4856 38.212 19.8998 38.212C20.314 38.212 20.6498 37.8762 20.6498 37.462H19.1498ZM44.3498 37.422C44.3498 37.8362 44.6856 38.172 45.0998 38.172C45.514 38.172 45.8498 37.8362 45.8498 37.422H44.3498ZM19.8998 37.502V36.752C19.716 36.752 19.5385 36.8195 19.4012 36.9418L19.8998 37.502ZM45.0998 37.502L45.5984 36.9418C45.4611 36.8195 45.2837 36.752 45.0998 36.752V37.502ZM38.0395 26.5944C38.327 26.2962 38.3182 25.8214 38.02 25.534C37.7217 25.2465 37.2469 25.2553 36.9595 25.5535L38.0395 26.5944ZM30.5715 32.1815C30.2841 32.4798 30.2928 32.9546 30.5911 33.242C30.8893 33.5294 31.3641 33.5207 31.6515 33.2224L30.5715 32.1815ZM30.2398 33.2225C30.5273 33.5207 31.0021 33.5295 31.3003 33.242C31.5985 32.9546 31.6073 32.4798 31.3198 32.1815L30.2398 33.2225ZM28.4398 29.1935C28.1523 28.8953 27.6776 28.8866 27.3793 29.174C27.0811 29.4615 27.0724 29.9363 27.3598 30.2345L28.4398 29.1935ZM20.6498 37.462V22.298H19.1498V37.462H20.6498ZM20.6498 22.298C20.6498 21.8322 21.034 21.448 21.4998 21.448V19.948C20.2056 19.948 19.1498 21.0038 19.1498 22.298H20.6498ZM21.4998 21.448H43.4998V19.948H21.4998V21.448ZM43.4998 21.448C43.9656 21.448 44.3498 21.8322 44.3498 22.298H45.8498C45.8498 21.0038 44.794 19.948 43.4998 19.948V21.448ZM44.3498 22.298V37.422H45.8498V22.298H44.3498ZM47.0998 43.552H17.8998V45.052H47.0998V43.552ZM17.8998 43.552C17.434 43.552 17.0498 43.1678 17.0498 42.702H15.5498C15.5498 43.9962 16.6056 45.052 17.8998 45.052V43.552ZM17.0498 42.702V41.586H15.5498V42.702H17.0498ZM17.0498 41.586C17.0498 41.6853 17.0166 41.6855 17.1053 41.5307C17.1771 41.4053 17.2919 41.2413 17.4492 41.0436C17.762 40.6505 18.1902 40.1897 18.6333 39.7411C19.0736 39.2955 19.5154 38.8752 19.8483 38.5654C20.0144 38.4108 20.1527 38.2843 20.2491 38.1968C20.2973 38.1531 20.3351 38.1191 20.3605 38.0962C20.3733 38.0847 20.3829 38.0761 20.3893 38.0704C20.3925 38.0675 20.3949 38.0654 20.3964 38.064C20.3972 38.0634 20.3977 38.0629 20.3981 38.0626C20.3982 38.0624 20.3984 38.0623 20.3984 38.0623C20.3984 38.0622 20.3984 38.0622 20.3985 38.0622C20.3984 38.0622 20.3984 38.0623 19.8998 37.502C19.4012 36.9418 19.4011 36.9418 19.4011 36.9419C19.401 36.9419 19.401 36.942 19.4009 36.942C19.4007 36.9422 19.4005 36.9424 19.4002 36.9426C19.3997 36.9431 19.3989 36.9438 19.398 36.9446C19.396 36.9463 19.3932 36.9488 19.3896 36.9521C19.3824 36.9585 19.3719 36.968 19.3582 36.9802C19.331 37.0047 19.2913 37.0404 19.2411 37.086C19.1407 37.1771 18.9977 37.3079 18.8263 37.4674C18.4842 37.7858 18.026 38.2215 17.5663 38.6869C17.1094 39.1493 16.6376 39.6545 16.2754 40.1096C16.0952 40.3361 15.9288 40.5668 15.8037 40.785C15.6955 40.9739 15.5498 41.2667 15.5498 41.586H17.0498ZM19.8998 38.252H45.0998V36.752H19.8998V38.252ZM45.0998 37.502C44.6012 38.0623 44.6012 38.0622 44.6012 38.0622C44.6012 38.0622 44.6012 38.0622 44.6012 38.0623C44.6013 38.0623 44.6014 38.0624 44.6015 38.0626C44.6019 38.0629 44.6024 38.0634 44.6032 38.064C44.6047 38.0654 44.6071 38.0675 44.6103 38.0704C44.6167 38.0761 44.6263 38.0847 44.6391 38.0962C44.6646 38.1191 44.7023 38.1531 44.7505 38.1968C44.8469 38.2843 44.9852 38.4108 45.1513 38.5654C45.4842 38.8752 45.9261 39.2955 46.3663 39.7411C46.8094 40.1897 47.2376 40.6505 47.5504 41.0436C47.7077 41.2413 47.8225 41.4053 47.8943 41.5307C47.983 41.6855 47.9498 41.6853 47.9498 41.586H49.4498C49.4498 41.2667 49.3041 40.9739 49.1959 40.785C49.0709 40.5668 48.9044 40.3361 48.7242 40.1096C48.362 39.6545 47.8902 39.1493 47.4333 38.6869C46.9736 38.2215 46.5154 37.7858 46.1733 37.4674C46.0019 37.3079 45.8589 37.1771 45.7585 37.086C45.7083 37.0404 45.6686 37.0047 45.6414 36.9802C45.6278 36.968 45.6172 36.9585 45.61 36.9521C45.6064 36.9488 45.6036 36.9463 45.6016 36.9446C45.6007 36.9438 45.5999 36.9431 45.5994 36.9426C45.5991 36.9424 45.5989 36.9422 45.5987 36.942C45.5987 36.942 45.5986 36.9419 45.5985 36.9419C45.5985 36.9418 45.5984 36.9418 45.0998 37.502ZM47.9498 41.586V42.702H49.4498V41.586H47.9498ZM47.9498 42.702C47.9498 43.1678 47.5656 43.552 47.0998 43.552V45.052C48.394 45.052 49.4498 43.9962 49.4498 42.702H47.9498ZM29.4998 41.852H35.4998V40.352H29.4998V41.852ZM36.9595 25.5535L30.5715 32.1815L31.6515 33.2224L38.0395 26.5944L36.9595 25.5535ZM31.3198 32.1815L28.4398 29.1935L27.3598 30.2345L30.2398 33.2225L31.3198 32.1815Z" fill="url(#paint0_linear_3888_8235)"/>
<defs>
<linearGradient id="paint0_linear_3888_8235" x1="32.4998" y1="20.698" x2="32.4998" y2="44.302" gradientUnits="userSpaceOnUse">
<stop stop-color="#AA00FF"/>
<stop offset="1" stop-color="#00A3D7"/>
</linearGradient>
</defs>
</svg>
