<svg width="144" height="97" fill="none" xmlns="http://www.w3.org/2000/svg"><g clip-path="url(#clip0)"><path d="M15.306 3a2.5 2.5 0 012.5-2.5h106.49a2.505 2.505 0 012.31 1.543c.125.304.19.629.19.957v74.598H15.306V3z" fill="#E6E6E6" stroke="#BDBDBD"/><path d="M21 7h100v71H21V7z" fill="#fff"/><g filter="url(#filter0_d)"><mask id="a" maskUnits="userSpaceOnUse" x="11" y="79" width="122" height="3"><path d="M12.03 80.337a13.83 13.83 0 004.692.82h110.556c1.6 0 3.188-.277 4.693-.82.316-.114.234-.583-.102-.583H12.132c-.337 0-.42.469-.102.583z" fill="#fff"/></mask><g mask="url(#a)"><path d="M12.03 80.337a13.83 13.83 0 004.692.82h110.556c1.6 0 3.188-.277 4.693-.82.316-.114.234-.583-.102-.583H12.132c-.337 0-.42.469-.102.583z" fill="#F2F2F2"/><path d="M16.722 77.61h110.556v7.095H16.722V77.61zM131.87 83.3H12.132v-7.094h119.737v7.095h.001zm-119.737 0c3.637 0 4.523-5.065 1.101-6.3l-2.407 6.674c-4.056-1.463-3.006-7.468 1.306-7.468v7.095zM130.767 77c-3.422 1.235-2.536 6.3 1.102 6.3v-7.094c4.311 0 5.361 6.005 1.305 7.468L130.767 77zm-3.489.61c1.189 0 2.37-.206 3.489-.61l2.407 6.674a17.376 17.376 0 01-5.896 1.03V77.61zM16.722 84.705a17.38 17.38 0 01-5.896-1.03L13.233 77c1.12.404 2.3.61 3.49.61v7.095h-.001z" fill="#BDBDBD"/></g></g><g filter="url(#filter1_d)"><path d="M3.287 77.461A13.876 13.876 0 0015.064 84h113.872c4.791 0 9.244-2.472 11.777-6.539a.302.302 0 00-.256-.461H3.543a.302.302 0 00-.256.461z" fill="#E6E6E6"/><path d="M140.094 77.5H3.906c2.471 3.74 6.66 6 11.158 6h113.872c4.498 0 8.687-2.26 11.158-6z" stroke="url(#paint0_linear)"/></g><g filter="url(#filter2_i)"><path d="M21 7h22v70H21V7z" fill="#1B1A21"/></g><path d="M32 25a7 7 0 100-14 7 7 0 000 14z" fill="#1B1A21"/><path d="M51 45.5h62" stroke="#E6E6E6"/><path d="M99 63h8M51 15h21-21zm0 38h13-13zm0 5h20-20zm0 5h10-10zm0 6h15-15zm12-6h8-8zm24-10h13-13zm0 5h20-20zm0 5h10-10zm0 6h15-15z" stroke="#E6E6E6" stroke-width="2"/><path opacity=".5" d="M79.5 72V51" stroke="#E6E6E6"/><g opacity=".5" stroke-width="2" stroke-linecap="round" stroke-linejoin="round"><path opacity=".5" d="M52 27h24" stroke="#5BC759"/><path opacity=".5" d="M52 32h13" stroke="#FF6900"/><path opacity=".5" d="M52 37h18" stroke="#BB6BD9"/><path opacity=".5" d="M88 27h6" stroke="#FF6900"/><path opacity=".5" d="M88 32h13" stroke="#BB6BD9"/><path opacity=".5" d="M88 37h18" stroke="#5BC759"/></g><path d="M113 13h-7a1 1 0 00-1 1v1a1 1 0 001 1h7a1 1 0 001-1v-1a1 1 0 00-1-1z" fill="#A0F"/><path style="mix-blend-mode:multiply" opacity=".3" d="M15 7h112v70H15V7z" fill="url(#paint1_linear)"/><path d="M32.272 13c1.285.358 2.457 1.259 2.942 2.36.743 1.788.572 4.048-.242 5.392-.686 1.102-1.743 1.688-2.958 1.674-1.885-.015-3.414-1.516-3.428-3.404 0-1.888 1.486-3.447 3.428-3.447.315 0 .768.043 1.282.258 0 0-.37-.22-1.32-.366-2.727-.358-5.947 1.71-5.204 6.472 1.028 1.831 3 3.076 5.242 3.061 3.3-.014 6-2.717 5.986-6.036 0-3.175-2.586-5.878-5.728-5.964z" fill="url(#paint2_linear)"/><path d="M34.514 15.531c-.457-.958-1.4-1.716-2.557-2.016a3.737 3.737 0 00-.828-.115c-.443 0-.872.058-1.314.172a5.195 5.195 0 00-2.329 1.473 5.963 5.963 0 00-1.2 2.074c0 .015-.014.029-.014.057-.014.058-.071.23-.071.272-.015.029-.015.072-.03.1-.013.058-.028.115-.042.172 0 .014 0 .029-.014.043-.372 1.845.245 3.5.617 4.116.093.153.169.282.245.4-.842-4.577 1.58-6.762 4.337-6.819 1.443-.029 2.886.558 3.586 1.73-.043-.643-.086-1-.386-1.659z" fill="url(#paint3_linear)"/></g><defs><linearGradient id="paint0_linear" x1="72" y1="84" x2="72" y2="77" gradientUnits="userSpaceOnUse"><stop stop-color="#828282"/><stop offset=".409" stop-color="#BDBDBD"/></linearGradient><linearGradient id="paint1_linear" x1="71" y1="7" x2="71" y2="77" gradientUnits="userSpaceOnUse"><stop stop-color="#D0D0D0" stop-opacity="0"/><stop offset="1" stop-color="#828282" stop-opacity=".49"/></linearGradient><linearGradient id="paint2_linear" x1="34.535" y1="9.879" x2="23.615" y2="15.765" gradientUnits="userSpaceOnUse"><stop stop-color="#FF7BFF"/><stop offset=".35" stop-color="#A0F"/><stop offset=".999" stop-color="#80C"/></linearGradient><linearGradient id="paint3_linear" x1="29.227" y1="11.651" x2="35.943" y2="17.393" gradientUnits="userSpaceOnUse"><stop offset=".035" stop-color="#FF7BFF"/><stop offset=".577" stop-color="#80C"/><stop offset="1" stop-color="#311B92"/></linearGradient><filter id="filter0_d" x=".831" y="72.844" width="142.339" height="23.403" filterUnits="userSpaceOnUse" color-interpolation-filters="sRGB"><feFlood flood-opacity="0" result="BackgroundImageFix"/><feColorMatrix in="SourceAlpha" values="0 0 0 0 0 0 0 0 0 0 0 0 0 0 0 0 0 0 127 0"/><feOffset dy="4.09"/><feGaussianBlur stdDeviation="5.5"/><feColorMatrix values="0 0 0 0 0 0 0 0 0 0 0 0 0 0 0 0 0 0 0.08 0"/><feBlend in2="BackgroundImageFix" result="effect1_dropShadow"/><feBlend in="SourceGraphic" in2="effect1_dropShadow" result="shape"/></filter><filter id="filter1_d" x="-.024" y="75" width="144.047" height="13" filterUnits="userSpaceOnUse" color-interpolation-filters="sRGB"><feFlood flood-opacity="0" result="BackgroundImageFix"/><feColorMatrix in="SourceAlpha" values="0 0 0 0 0 0 0 0 0 0 0 0 0 0 0 0 0 0 127 0"/><feOffset dy="1"/><feGaussianBlur stdDeviation="1.5"/><feColorMatrix values="0 0 0 0 0 0 0 0 0 0 0 0 0 0 0 0 0 0 0.14 0"/><feBlend in2="BackgroundImageFix" result="effect1_dropShadow"/><feBlend in="SourceGraphic" in2="effect1_dropShadow" result="shape"/></filter><filter id="filter2_i" x="20" y="7" width="23" height="70" filterUnits="userSpaceOnUse" color-interpolation-filters="sRGB"><feFlood flood-opacity="0" result="BackgroundImageFix"/><feBlend in="SourceGraphic" in2="BackgroundImageFix" result="shape"/><feColorMatrix in="SourceAlpha" values="0 0 0 0 0 0 0 0 0 0 0 0 0 0 0 0 0 0 127 0" result="hardAlpha"/><feOffset dx="-1"/><feGaussianBlur stdDeviation="2"/><feComposite in2="hardAlpha" operator="arithmetic" k2="-1" k3="1"/><feColorMatrix values="0 0 0 0 0 0 0 0 0 0 0 0 0 0 0 0 0 0 0.29 0"/><feBlend in2="shape" result="effect1_innerShadow"/></filter><clipPath id="clip0"><path fill="#fff" d="M0 0h144v97H0z"/></clipPath></defs></svg>